<?xml version="1.0" encoding="utf-8"?>
<!-- Generator: Adobe Illustrator 16.0.0, SVG Export Plug-In . SVG Version: 6.00 Build 0)  -->
<!DOCTYPE svg PUBLIC "-//W3C//DTD SVG 1.1//EN" "http://www.w3.org/Graphics/SVG/1.1/DTD/svg11.dtd">
<svg version="1.1" id="Layer_28" xmlns="http://www.w3.org/2000/svg" xmlns:xlink="http://www.w3.org/1999/xlink" x="0px" y="0px"
	 width="284.5px" height="238px" viewBox="0 0 284.5 238" enable-background="new 0 0 284.5 238" xml:space="preserve">
<g>
	
		<rect x="97.83" y="65.461" transform="matrix(-0.3369 0.9415 -0.9415 -0.3369 376.5444 -14.559)" fill="#E1A850" width="191.138" height="119.696"/>
	<path fill="#46515D" d="M169.856,16.441L280.67,56.098L216.94,234.176l-110.813-39.657L169.856,16.441 M168.647,13.884
		l-0.674,1.883l-63.729,178.078l-0.674,1.883l1.883,0.674l110.813,39.657l1.883,0.675l0.674-1.884l63.729-178.078l0.674-1.883
		l-1.883-0.674L170.53,14.558L168.647,13.884L168.647,13.884z"/>
</g>
<path fill="#7297AE" d="M106.126,194.519c49.175,17.599,103.305-7.999,120.904-57.174c17.599-49.175-7.999-103.305-57.175-120.904"
	/>
<path fill="#C06B62" d="M280.67,56.098c-49.175-17.599-103.305,8-120.903,57.174c-17.599,49.175,7.999,103.305,57.174,120.904"/>
<path fill="#46515D" d="M218.339,55.608c-26.331,8.979-48.471,29.438-58.573,57.666c-10.103,28.229-5.97,58.09,8.686,81.738
	l0.001,0.002c26.333-8.978,48.474-29.438,58.577-57.668c10.103-28.231,5.969-58.096-8.688-81.743"/>
<g>
	<path fill="#FEF9F3" d="M209.543,194.908l-1.88,5.253c-0.788,2.203-2.39,3.829-4.804,4.877c-2.416,1.047-5.006,1.075-7.773,0.085
		l-19.828-7.096c-1.695-0.607-3.271-0.74-4.731-0.403c-1.459,0.339-2.441,1.215-2.946,2.626l-2.543-0.909
		c0.506-1.412,0.302-2.713-0.611-3.9c-0.914-1.187-2.218-2.084-3.912-2.691l-19.828-7.096c-2.768-0.99-4.752-2.656-5.955-4.998
		c-1.2-2.342-1.407-4.614-0.618-6.817l1.88-5.254l2.542,0.91l-1.88,5.253c-0.566,1.583-0.379,3.195,0.562,4.837
		c0.941,1.644,2.4,2.819,4.378,3.526l19.828,7.097c3.843,1.375,5.845,3.525,6.008,6.451c1.983-2.158,4.896-2.549,8.737-1.174
		l19.828,7.097c1.977,0.707,3.85,0.725,5.621,0.051c1.77-0.671,2.938-1.799,3.504-3.381l1.881-5.253L209.543,194.908z"/>
	<path fill="#FEF9F3" d="M249.997,81.871l-2.542-0.91l1.88-5.254c0.565-1.581,0.378-3.193-0.563-4.836s-2.4-2.82-4.377-3.527
		l-19.828-7.096c-3.842-1.375-5.844-3.525-6.008-6.452c-1.982,2.158-4.895,2.55-8.737,1.174l-19.828-7.096
		c-1.977-0.708-3.852-0.724-5.621-0.052c-1.771,0.673-2.938,1.801-3.504,3.381l-1.881,5.254l-2.542-0.91l1.881-5.254
		c0.788-2.203,2.39-3.828,4.804-4.876c2.415-1.047,5.006-1.076,7.773-0.085l19.828,7.097c1.694,0.606,3.271,0.74,4.731,0.401
		c1.459-0.338,2.44-1.212,2.946-2.625l2.543,0.909c-0.506,1.414-0.302,2.713,0.611,3.899c0.913,1.188,2.217,2.085,3.912,2.691
		l19.828,7.097c2.768,0.99,4.752,2.655,5.954,4.998c1.201,2.342,1.408,4.614,0.619,6.817L249.997,81.871z"/>
</g>
<g>
	<path fill="#95A5A6" d="M199.809,73.068l-4.401-4.285l0.215-0.601l6.121-0.52l-0.229,0.642l-5.254,0.445l3.778,3.677
		L199.809,73.068z"/>
	<path fill="#95A5A6" d="M203.293,69.012c0.132-0.046,0.258-0.096,0.375-0.152c0.116-0.055,0.244-0.096,0.381-0.12
		c0.138-0.024,0.292-0.029,0.466-0.014c0.174,0.016,0.378,0.065,0.613,0.149c0.304,0.108,0.571,0.271,0.8,0.49
		c0.229,0.219,0.409,0.466,0.54,0.742c0.13,0.277,0.206,0.572,0.227,0.887c0.019,0.315-0.025,0.625-0.134,0.928l-0.853,2.383
		c-0.077,0.215-0.106,0.365-0.087,0.453c0.019,0.089,0.051,0.168,0.096,0.239l-1.161-0.415c0.12-0.027,0.205-0.082,0.258-0.165
		c0.052-0.083,0.105-0.196,0.158-0.341l0.826-2.309c0.082-0.229,0.116-0.457,0.105-0.688c-0.012-0.229-0.063-0.445-0.155-0.646
		c-0.092-0.2-0.221-0.379-0.387-0.536c-0.166-0.156-0.366-0.276-0.601-0.36c-0.214-0.077-0.414-0.107-0.598-0.092
		c-0.186,0.016-0.354,0.051-0.506,0.105c-0.152,0.056-0.285,0.112-0.399,0.172c-0.115,0.062-0.205,0.103-0.268,0.127l-1.193,3.335
		c-0.035,0.097-0.029,0.184,0.017,0.263c0.045,0.079,0.083,0.143,0.112,0.192l-1.149-0.412c0.096-0.027,0.165-0.074,0.208-0.142
		c0.043-0.065,0.089-0.168,0.139-0.306l2.291-6.4c0.035-0.097,0.059-0.189,0.071-0.279c0.012-0.088-0.011-0.171-0.069-0.246
		l0.891,0.318L203.293,69.012z"/>
	<path fill="#95A5A6" d="M207.749,70.793l2.123-1.46l-0.452,1.264l1.378,0.493l-0.304,0.85c-0.069-0.111-0.161-0.191-0.275-0.244
		c-0.114-0.054-0.239-0.104-0.378-0.153l-0.683-0.245l-1.412,3.946c-0.077,0.214-0.065,0.378,0.034,0.491l-1.098-0.393
		c0.098-0.012,0.179-0.076,0.244-0.193s0.134-0.275,0.206-0.475l1.301-3.636L207.749,70.793z"/>
	<path fill="#95A5A6" d="M211.05,72.605c0.029-0.083,0.041-0.146,0.033-0.192c-0.007-0.045-0.014-0.093-0.019-0.142
		c0.273-0.026,0.509-0.078,0.704-0.156s0.391-0.146,0.587-0.205s0.411-0.088,0.646-0.09c0.233-0.002,0.523,0.059,0.869,0.183
		c0.373,0.134,0.694,0.326,0.961,0.577c0.269,0.252,0.449,0.594,0.545,1.025c0.164-0.066,0.321-0.137,0.473-0.211
		s0.315-0.131,0.493-0.169c0.176-0.038,0.374-0.049,0.59-0.034c0.216,0.016,0.47,0.075,0.759,0.18c0.304,0.108,0.571,0.271,0.8,0.49
		c0.229,0.218,0.409,0.466,0.54,0.742c0.13,0.276,0.206,0.572,0.227,0.887c0.019,0.315-0.025,0.624-0.134,0.928l-0.853,2.383
		c-0.077,0.214-0.104,0.365-0.086,0.453c0.019,0.089,0.051,0.168,0.096,0.239l-1.159-0.415c0.119-0.027,0.204-0.082,0.257-0.165
		c0.053-0.083,0.105-0.196,0.158-0.341l0.826-2.31c0.082-0.228,0.116-0.456,0.105-0.687c-0.011-0.229-0.063-0.445-0.155-0.646
		c-0.092-0.2-0.221-0.379-0.387-0.536c-0.166-0.156-0.365-0.276-0.601-0.36c-0.214-0.077-0.415-0.108-0.604-0.094
		c-0.188,0.015-0.36,0.048-0.515,0.103c-0.156,0.053-0.29,0.11-0.4,0.171c-0.111,0.062-0.196,0.106-0.252,0.133l-1.104,3.086
		c-0.077,0.215-0.106,0.365-0.087,0.454c0.019,0.088,0.051,0.168,0.096,0.238L213.3,77.71c0.119-0.027,0.205-0.082,0.258-0.165
		c0.052-0.082,0.104-0.195,0.157-0.341l0.826-2.31c0.082-0.228,0.116-0.456,0.105-0.687c-0.011-0.229-0.062-0.444-0.155-0.646
		c-0.091-0.199-0.22-0.379-0.386-0.535s-0.366-0.277-0.601-0.361c-0.214-0.076-0.414-0.107-0.598-0.092
		c-0.186,0.016-0.354,0.051-0.506,0.105c-0.153,0.056-0.285,0.113-0.4,0.172c-0.115,0.061-0.204,0.104-0.268,0.127l-1.193,3.335
		c-0.035,0.097-0.028,0.185,0.017,0.263c0.046,0.08,0.084,0.143,0.113,0.192l-1.149-0.411c0.095-0.028,0.165-0.075,0.208-0.142
		c0.042-0.066,0.089-0.168,0.139-0.307L211.05,72.605z"/>
	<path fill="#95A5A6" d="M219.358,79.878c0.098-0.012,0.179-0.075,0.244-0.192c0.065-0.117,0.134-0.275,0.206-0.476l2.209-6.173
		c0.035-0.097,0.059-0.189,0.071-0.278c0.012-0.089-0.012-0.172-0.069-0.247l0.891,0.318l-2.487,6.949
		c-0.076,0.215-0.065,0.379,0.034,0.492L219.358,79.878z"/>
	<path fill="#95A5A6" d="M226.956,79.735l-3.777-3.677l0.229-0.643l4.401,4.285l-0.215,0.602l-6.121,0.52l0.229-0.642
		L226.956,79.735z"/>
	<path fill="#95A5A6" d="M193.346,84.775l-4.401-4.285l0.215-0.602l6.121-0.52l-0.23,0.643l-5.253,0.445l3.778,3.677L193.346,84.775
		z"/>
	<path fill="#95A5A6" d="M196.831,80.719c0.133-0.046,0.259-0.097,0.376-0.152c0.116-0.056,0.244-0.096,0.381-0.12
		c0.138-0.024,0.293-0.029,0.467-0.015c0.174,0.016,0.378,0.066,0.612,0.15c0.305,0.108,0.571,0.271,0.801,0.49
		c0.229,0.218,0.409,0.466,0.54,0.742c0.131,0.276,0.206,0.572,0.226,0.887c0.019,0.315-0.025,0.625-0.134,0.928l-0.853,2.383
		c-0.077,0.214-0.106,0.364-0.087,0.453c0.02,0.089,0.051,0.168,0.096,0.239l-1.16-0.415c0.12-0.027,0.205-0.082,0.258-0.165
		c0.052-0.082,0.105-0.196,0.157-0.341l0.827-2.31c0.082-0.228,0.117-0.456,0.106-0.687c-0.013-0.23-0.062-0.445-0.155-0.646
		c-0.092-0.2-0.221-0.379-0.387-0.536c-0.166-0.156-0.367-0.277-0.601-0.36c-0.214-0.077-0.413-0.106-0.598-0.092
		c-0.185,0.016-0.353,0.051-0.505,0.105c-0.151,0.056-0.285,0.112-0.4,0.173c-0.115,0.06-0.204,0.102-0.267,0.126l-1.193,3.335
		c-0.035,0.097-0.03,0.184,0.017,0.263c0.045,0.079,0.083,0.143,0.112,0.192l-1.149-0.412c0.096-0.027,0.165-0.075,0.208-0.141
		c0.043-0.066,0.089-0.169,0.139-0.307l2.29-6.4c0.035-0.098,0.059-0.189,0.071-0.279c0.012-0.089-0.01-0.171-0.069-0.247
		l0.891,0.319L196.831,80.719z"/>
	<path fill="#95A5A6" d="M201.482,84.895c-0.055,0.285-0.059,0.558-0.013,0.819c0.047,0.262,0.137,0.505,0.271,0.728
		c0.134,0.224,0.311,0.422,0.53,0.593c0.218,0.172,0.469,0.31,0.752,0.41c0.297,0.106,0.595,0.184,0.893,0.232
		c0.298,0.048,0.6,0.002,0.908-0.137l-0.419,1.17c-0.013-0.052-0.032-0.101-0.058-0.149c-0.026-0.048-0.064-0.085-0.117-0.112
		c-0.027-0.01-0.083-0.021-0.163-0.034c-0.081-0.014-0.169-0.028-0.266-0.043c-0.096-0.016-0.189-0.026-0.279-0.035
		s-0.158-0.018-0.202-0.025c-0.095-0.02-0.187-0.043-0.278-0.07c-0.092-0.029-0.181-0.06-0.271-0.092
		c-0.394-0.141-0.742-0.34-1.048-0.598c-0.305-0.256-0.548-0.552-0.729-0.885c-0.18-0.334-0.291-0.693-0.333-1.077
		c-0.042-0.386,0.01-0.778,0.153-1.179c0.143-0.4,0.347-0.741,0.611-1.025c0.265-0.282,0.568-0.497,0.909-0.645
		c0.34-0.146,0.708-0.223,1.104-0.229c0.396-0.007,0.794,0.062,1.194,0.206c0.421,0.15,0.779,0.365,1.072,0.646
		c0.294,0.28,0.52,0.589,0.68,0.927c0.159,0.337,0.25,0.688,0.272,1.05c0.021,0.362-0.023,0.702-0.137,1.021
		c-0.024,0.068-0.032,0.13-0.02,0.186c0.012,0.055,0.024,0.107,0.037,0.158L201.482,84.895z M205.919,85.688
		c0.047-0.528-0.065-0.991-0.339-1.39c-0.275-0.397-0.67-0.689-1.188-0.875c-0.539-0.192-1.034-0.218-1.486-0.076
		c-0.453,0.143-0.839,0.424-1.162,0.847L205.919,85.688z"/>
	<path fill="#95A5A6" d="M211.013,85c0.23,0.074,0.428,0.163,0.594,0.265c0.167,0.103,0.316,0.216,0.45,0.342
		c0.134,0.127,0.258,0.265,0.373,0.414c0.113,0.149,0.233,0.31,0.359,0.479c0.059,0.075,0.108,0.138,0.148,0.188
		c0.041,0.05,0.08,0.093,0.117,0.129c0.038,0.037,0.083,0.068,0.135,0.096c0.053,0.026,0.122,0.055,0.205,0.085
		c-0.123,0.034-0.209,0.103-0.26,0.204c-0.053,0.102-0.118,0.264-0.197,0.484l-1.127,3.148c-0.02,0.056-0.026,0.115-0.019,0.181
		c0.008,0.065,0.045,0.137,0.11,0.215l-0.932-0.333l0.204-0.57l-0.035-0.035c-0.309,0.232-0.626,0.346-0.951,0.343
		c-0.327-0.005-0.672-0.071-1.038-0.202c-0.38-0.137-0.718-0.331-1.012-0.584c-0.295-0.254-0.532-0.545-0.71-0.873
		c-0.179-0.329-0.287-0.684-0.327-1.063c-0.038-0.38,0.012-0.767,0.153-1.16c0.138-0.387,0.338-0.723,0.6-1.007
		s0.56-0.504,0.896-0.66s0.699-0.244,1.088-0.265C210.229,84.799,210.619,84.859,211.013,85z M212.312,87.146
		c-0.08-0.083-0.161-0.189-0.242-0.32c-0.082-0.13-0.18-0.265-0.294-0.402c-0.114-0.139-0.252-0.271-0.412-0.399
		c-0.162-0.128-0.359-0.233-0.594-0.317c-0.276-0.099-0.555-0.141-0.837-0.124c-0.282,0.016-0.549,0.08-0.799,0.192
		c-0.25,0.113-0.474,0.269-0.67,0.468c-0.196,0.198-0.341,0.433-0.438,0.702c-0.099,0.276-0.145,0.554-0.135,0.834
		c0.009,0.279,0.064,0.542,0.167,0.789s0.255,0.468,0.459,0.661c0.203,0.193,0.45,0.343,0.739,0.446
		c0.249,0.089,0.468,0.148,0.661,0.178c0.191,0.029,0.371,0.033,0.539,0.012c0.167-0.021,0.33-0.062,0.486-0.117
		c0.156-0.058,0.328-0.131,0.517-0.219L212.312,87.146z"/>
	<path fill="#95A5A6" d="M219.815,86.129c0.02-0.056,0.026-0.117,0.023-0.185c-0.002-0.067-0.032-0.143-0.088-0.225l0.911,0.326
		l-2.042,5.706c-0.045,0.125-0.088,0.264-0.131,0.415c-0.044,0.152-0.046,0.263-0.008,0.331c-0.118-0.02-0.235-0.019-0.352,0.002
		c-0.116,0.021-0.234,0.045-0.353,0.073c-0.224,0.036-0.429,0.078-0.617,0.123c-0.189,0.046-0.375,0.081-0.558,0.104
		s-0.372,0.028-0.565,0.014c-0.194-0.015-0.404-0.062-0.632-0.145c-0.394-0.141-0.734-0.343-1.022-0.604
		c-0.288-0.263-0.512-0.562-0.673-0.896s-0.252-0.693-0.274-1.079c-0.021-0.386,0.037-0.771,0.175-1.158
		c0.141-0.395,0.347-0.725,0.618-0.994c0.271-0.269,0.58-0.474,0.927-0.614c0.346-0.142,0.714-0.216,1.103-0.225
		c0.388-0.01,0.773,0.055,1.153,0.19c0.366,0.131,0.676,0.298,0.931,0.502c0.253,0.204,0.427,0.494,0.518,0.869l0.05-0.006
		L219.815,86.129z M218.625,89.453c-0.092-0.182-0.18-0.346-0.263-0.491c-0.083-0.146-0.184-0.282-0.299-0.405
		c-0.116-0.123-0.258-0.234-0.424-0.333c-0.168-0.099-0.375-0.192-0.624-0.281c-0.29-0.104-0.575-0.146-0.854-0.125
		c-0.28,0.021-0.538,0.094-0.774,0.22c-0.236,0.126-0.446,0.294-0.63,0.504c-0.186,0.211-0.326,0.455-0.425,0.73
		c-0.097,0.27-0.132,0.543-0.107,0.82c0.025,0.278,0.1,0.54,0.222,0.786c0.122,0.247,0.287,0.465,0.496,0.656
		c0.208,0.191,0.45,0.337,0.726,0.436c0.234,0.084,0.454,0.128,0.66,0.132c0.205,0.002,0.396-0.014,0.571-0.048
		s0.336-0.074,0.481-0.12c0.145-0.045,0.274-0.078,0.392-0.099L218.625,89.453z"/>
	<path fill="#95A5A6" d="M224.523,92.884l-3.778-3.677l0.23-0.643l4.401,4.285l-0.215,0.602l-6.121,0.52l0.23-0.642L224.523,92.884z
		"/>
	<path fill="#95A5A6" d="M192.928,98.646l-4.401-4.285l0.215-0.601l6.121-0.52l-0.229,0.642l-5.253,0.445l3.778,3.677
		L192.928,98.646z"/>
	<path fill="#95A5A6" d="M195.109,94.31l2.124-1.46l-0.452,1.264l1.377,0.492l-0.304,0.85c-0.069-0.111-0.161-0.191-0.274-0.244
		s-0.239-0.104-0.378-0.153l-0.683-0.244l-1.412,3.946c-0.077,0.214-0.065,0.378,0.035,0.491l-1.098-0.394
		c0.098-0.012,0.179-0.075,0.244-0.192c0.065-0.116,0.134-0.275,0.206-0.476l1.301-3.635L195.109,94.31z"/>
	<path fill="#95A5A6" d="M196.942,99.896c0.098-0.012,0.18-0.075,0.245-0.192c0.065-0.117,0.134-0.275,0.206-0.476l1.386-3.874
		c0.035-0.096,0.059-0.189,0.07-0.278c0.013-0.089-0.011-0.171-0.069-0.247l0.891,0.319l-1.665,4.649
		c-0.076,0.215-0.065,0.378,0.034,0.491L196.942,99.896z M199.927,93.288c0.124,0.044,0.217,0.128,0.277,0.251
		c0.061,0.123,0.068,0.25,0.021,0.381c-0.047,0.132-0.134,0.226-0.258,0.282c-0.125,0.057-0.25,0.062-0.375,0.018
		c-0.125-0.044-0.217-0.128-0.278-0.251c-0.061-0.123-0.068-0.251-0.021-0.382c0.047-0.131,0.133-0.226,0.258-0.281
		C199.678,93.25,199.802,93.243,199.927,93.288z"/>
	<path fill="#95A5A6" d="M200.287,96.162l2.123-1.46l-0.452,1.264l1.377,0.493l-0.304,0.85c-0.069-0.111-0.16-0.192-0.274-0.245
		c-0.114-0.052-0.239-0.103-0.378-0.152l-0.683-0.245l-1.412,3.946c-0.077,0.214-0.065,0.378,0.034,0.491l-1.098-0.393
		c0.098-0.012,0.179-0.076,0.244-0.193c0.064-0.116,0.134-0.275,0.206-0.475l1.301-3.636L200.287,96.162z"/>
	<path fill="#95A5A6" d="M202.12,101.748c0.097-0.012,0.18-0.075,0.245-0.192c0.065-0.116,0.134-0.275,0.205-0.476l2.209-6.173
		c0.035-0.097,0.059-0.189,0.07-0.278c0.013-0.089-0.011-0.172-0.069-0.247l0.891,0.319l-2.487,6.949
		c-0.076,0.214-0.065,0.378,0.034,0.491L202.12,101.748z"/>
	<path fill="#95A5A6" d="M205.66,100.41c-0.055,0.284-0.059,0.557-0.013,0.818c0.046,0.263,0.137,0.505,0.271,0.729
		c0.134,0.223,0.311,0.421,0.529,0.593c0.219,0.171,0.47,0.309,0.753,0.409c0.297,0.107,0.595,0.184,0.893,0.232
		c0.298,0.048,0.6,0.003,0.908-0.137l-0.419,1.17c-0.013-0.051-0.032-0.101-0.058-0.148c-0.026-0.049-0.065-0.086-0.118-0.113
		c-0.027-0.01-0.082-0.021-0.163-0.034c-0.081-0.014-0.17-0.027-0.266-0.042c-0.096-0.016-0.189-0.027-0.279-0.036
		c-0.09-0.009-0.158-0.018-0.202-0.025c-0.095-0.019-0.188-0.042-0.278-0.07c-0.092-0.029-0.181-0.06-0.271-0.092
		c-0.394-0.141-0.743-0.339-1.048-0.597c-0.305-0.257-0.548-0.553-0.729-0.886s-0.291-0.692-0.333-1.077s0.01-0.777,0.153-1.178
		c0.143-0.4,0.347-0.742,0.611-1.025c0.265-0.282,0.568-0.498,0.909-0.645s0.709-0.224,1.104-0.229
		c0.396-0.007,0.794,0.062,1.194,0.205c0.421,0.15,0.779,0.366,1.072,0.646c0.294,0.28,0.52,0.589,0.679,0.927
		c0.16,0.337,0.25,0.687,0.273,1.05c0.021,0.362-0.023,0.702-0.137,1.02c-0.024,0.069-0.032,0.131-0.02,0.186
		c0.011,0.056,0.024,0.107,0.037,0.159L205.66,100.41z M210.096,101.203c0.048-0.528-0.064-0.99-0.338-1.389
		c-0.275-0.398-0.67-0.689-1.188-0.875c-0.539-0.193-1.034-0.218-1.486-0.076c-0.453,0.143-0.839,0.424-1.162,0.846L210.096,101.203
		z"/>
	<path fill="#95A5A6" d="M216.045,103.87l-3.778-3.677l0.229-0.643l4.401,4.285l-0.215,0.602l-6.121,0.52l0.229-0.642
		L216.045,103.87z"/>
	<path fill="#95A5A6" d="M190.778,111.896l-4.401-4.285l0.215-0.602l6.121-0.52l-0.229,0.643l-5.253,0.445l3.777,3.677
		L190.778,111.896z"/>
	<path fill="#95A5A6" d="M194.263,107.84c0.132-0.046,0.258-0.096,0.376-0.151c0.116-0.056,0.244-0.097,0.381-0.121
		c0.137-0.024,0.292-0.029,0.467-0.015c0.173,0.016,0.377,0.066,0.612,0.149c0.305,0.109,0.571,0.272,0.8,0.491
		c0.229,0.218,0.409,0.466,0.54,0.742s0.206,0.572,0.227,0.887c0.019,0.314-0.025,0.625-0.134,0.928l-0.853,2.383
		c-0.077,0.214-0.106,0.365-0.087,0.453c0.02,0.089,0.051,0.168,0.096,0.239l-1.161-0.415c0.12-0.027,0.205-0.082,0.259-0.165
		c0.052-0.083,0.105-0.196,0.157-0.341l0.826-2.31c0.082-0.228,0.116-0.456,0.105-0.687c-0.012-0.23-0.062-0.445-0.155-0.646
		s-0.221-0.379-0.387-0.536c-0.166-0.156-0.367-0.277-0.601-0.361c-0.214-0.076-0.413-0.105-0.598-0.091
		c-0.186,0.016-0.354,0.051-0.506,0.105c-0.151,0.056-0.285,0.112-0.399,0.172c-0.115,0.061-0.205,0.103-0.268,0.127l-1.193,3.335
		c-0.035,0.097-0.029,0.184,0.017,0.263c0.045,0.079,0.083,0.143,0.112,0.192l-1.149-0.412c0.096-0.027,0.166-0.075,0.208-0.141
		c0.043-0.066,0.089-0.169,0.139-0.307l2.291-6.4c0.035-0.098,0.059-0.19,0.071-0.279c0.013-0.089-0.01-0.171-0.069-0.247
		l0.891,0.319L194.263,107.84z"/>
	<path fill="#95A5A6" d="M199.834,110.032c0.07-0.021,0.147-0.049,0.233-0.081c0.085-0.031,0.167-0.068,0.244-0.11l3.561-1.95
		l-2.546,7.114c-0.077,0.215-0.066,0.378,0.034,0.491l-1.077-0.385c0.098-0.012,0.179-0.076,0.244-0.193
		c0.064-0.116,0.134-0.275,0.206-0.475l1.809-5.055l-0.021-0.008l-2.292,1.248L199.834,110.032z"/>
	<path fill="#95A5A6" d="M209.3,115.476l-3.777-3.677l0.229-0.643l4.401,4.286l-0.215,0.601l-6.12,0.52l0.229-0.642L209.3,115.476z"
		/>
	<path fill="#95A5A6" d="M179.151,121.755l-4.401-4.285l0.215-0.601l6.12-0.52l-0.229,0.642l-5.253,0.445l3.777,3.677
		L179.151,121.755z"/>
	<path fill="#95A5A6" d="M181.507,118.567c0.044-0.124,0.089-0.262,0.131-0.415c0.043-0.151,0.045-0.262,0.007-0.33
		c0.118,0.019,0.235,0.019,0.351-0.002c0.116-0.021,0.234-0.046,0.354-0.072c0.224-0.038,0.429-0.079,0.617-0.125
		c0.188-0.045,0.373-0.08,0.557-0.104c0.184-0.023,0.372-0.027,0.566-0.013c0.193,0.015,0.404,0.062,0.632,0.145
		c0.394,0.141,0.733,0.342,1.021,0.605c0.287,0.262,0.513,0.561,0.673,0.895c0.161,0.334,0.252,0.693,0.273,1.079
		s-0.037,0.771-0.175,1.158c-0.141,0.394-0.347,0.725-0.618,0.994c-0.271,0.269-0.58,0.474-0.928,0.614
		c-0.346,0.141-0.714,0.216-1.102,0.225c-0.389,0.009-0.773-0.055-1.153-0.191c-0.366-0.131-0.676-0.298-0.93-0.502
		c-0.255-0.203-0.427-0.492-0.519-0.869l-0.049,0.007l-0.949,2.651c-0.02,0.055-0.026,0.117-0.02,0.186s0.041,0.145,0.104,0.23
		l-1.139-0.408c0.102-0.025,0.178-0.063,0.227-0.111c0.048-0.049,0.082-0.102,0.102-0.156L181.507,118.567z M181.502,120.867
		c0.082,0.186,0.167,0.35,0.256,0.495c0.088,0.144,0.19,0.277,0.306,0.401c0.115,0.123,0.257,0.234,0.424,0.332
		c0.167,0.1,0.375,0.193,0.624,0.282c0.291,0.104,0.576,0.146,0.855,0.124c0.279-0.02,0.538-0.093,0.774-0.219
		c0.235-0.126,0.445-0.295,0.63-0.504c0.184-0.211,0.326-0.455,0.424-0.731c0.097-0.27,0.132-0.542,0.107-0.82
		c-0.025-0.277-0.099-0.539-0.221-0.786c-0.122-0.246-0.287-0.465-0.495-0.655c-0.208-0.192-0.45-0.337-0.727-0.436
		c-0.234-0.084-0.454-0.128-0.659-0.131s-0.396,0.012-0.572,0.046c-0.176,0.035-0.337,0.076-0.483,0.125
		c-0.146,0.049-0.275,0.081-0.39,0.095L181.502,120.867z"/>
	<path fill="#95A5A6" d="M191.915,123.273l-3.778-3.677l0.229-0.642l4.401,4.285l-0.215,0.601l-6.121,0.52l0.229-0.642
		L191.915,123.273z"/>
</g>
<g>
	<path fill="#95A5A6" d="M189.443,175.321l4.401,4.285l-0.215,0.601l-6.121,0.52l0.229-0.642l5.253-0.445l-3.778-3.677
		L189.443,175.321z"/>
	<path fill="#95A5A6" d="M186.344,182.904l-0.642-0.23l0.241-8.605l0.601,0.215L186.344,182.904z"/>
	<path fill="#95A5A6" d="M183.079,178.348c-0.132,0.046-0.258,0.097-0.375,0.152c-0.117,0.056-0.244,0.096-0.382,0.12
		s-0.292,0.03-0.466,0.014c-0.174-0.015-0.378-0.065-0.613-0.149c-0.304-0.108-0.57-0.271-0.8-0.49
		c-0.229-0.218-0.409-0.466-0.54-0.742c-0.13-0.276-0.207-0.572-0.226-0.887c-0.02-0.315,0.025-0.624,0.134-0.928l0.853-2.383
		c0.077-0.214,0.105-0.365,0.087-0.453c-0.02-0.089-0.051-0.168-0.096-0.239l1.16,0.415c-0.12,0.027-0.205,0.082-0.258,0.165
		c-0.052,0.083-0.105,0.196-0.157,0.341l-0.826,2.31c-0.082,0.228-0.117,0.456-0.105,0.687c0.012,0.229,0.062,0.445,0.154,0.646
		c0.093,0.2,0.222,0.379,0.387,0.536c0.166,0.156,0.367,0.276,0.601,0.36c0.214,0.077,0.413,0.107,0.598,0.092
		c0.186-0.016,0.354-0.051,0.506-0.105c0.151-0.056,0.285-0.112,0.399-0.172c0.115-0.061,0.205-0.103,0.268-0.127l1.193-3.335
		c0.034-0.097,0.03-0.184-0.017-0.263c-0.046-0.079-0.083-0.143-0.112-0.192l1.149,0.412c-0.096,0.027-0.165,0.075-0.208,0.142
		c-0.043,0.065-0.09,0.168-0.139,0.306l-2.291,6.4c-0.034,0.098-0.059,0.19-0.07,0.279c-0.012,0.089,0.01,0.171,0.069,0.246
		l-0.892-0.318L183.079,178.348z"/>
	<path fill="#95A5A6" d="M178.624,176.566l-2.124,1.46l0.452-1.264l-1.377-0.493l0.305-0.849c0.068,0.11,0.16,0.19,0.274,0.244
		c0.113,0.053,0.239,0.103,0.377,0.152l0.683,0.245l1.412-3.946c0.077-0.214,0.064-0.378-0.035-0.491l1.098,0.393
		c-0.097,0.012-0.179,0.076-0.244,0.193c-0.065,0.117-0.134,0.275-0.206,0.475l-1.301,3.636L178.624,176.566z"/>
	<path fill="#95A5A6" d="M175.323,174.754c-0.03,0.084-0.041,0.147-0.034,0.193c0.007,0.045,0.014,0.092,0.019,0.141
		c-0.274,0.026-0.509,0.079-0.705,0.156c-0.195,0.078-0.39,0.147-0.586,0.205c-0.196,0.059-0.411,0.089-0.646,0.09
		c-0.234,0.002-0.524-0.059-0.87-0.183c-0.372-0.133-0.693-0.325-0.961-0.577c-0.269-0.252-0.45-0.594-0.545-1.025
		c-0.164,0.066-0.321,0.137-0.472,0.211c-0.151,0.074-0.315,0.131-0.493,0.169c-0.177,0.038-0.373,0.05-0.59,0.034
		s-0.47-0.075-0.76-0.179c-0.304-0.109-0.57-0.272-0.8-0.491c-0.229-0.218-0.409-0.466-0.54-0.742
		c-0.13-0.276-0.207-0.572-0.226-0.887s0.025-0.624,0.134-0.928l0.853-2.383c0.077-0.213,0.104-0.365,0.087-0.453
		c-0.02-0.089-0.051-0.168-0.096-0.238l1.159,0.414c-0.119,0.027-0.204,0.083-0.257,0.166c-0.053,0.082-0.105,0.195-0.157,0.34
		l-0.826,2.31c-0.082,0.228-0.117,0.457-0.105,0.687c0.011,0.229,0.062,0.445,0.154,0.646c0.093,0.2,0.222,0.379,0.387,0.536
		c0.166,0.156,0.366,0.276,0.601,0.361c0.214,0.076,0.415,0.107,0.604,0.094c0.188-0.016,0.359-0.049,0.515-0.103
		c0.156-0.054,0.29-0.11,0.401-0.172c0.111-0.062,0.195-0.105,0.251-0.133l1.104-3.086c0.076-0.214,0.105-0.365,0.087-0.454
		c-0.02-0.088-0.051-0.168-0.097-0.238l1.161,0.415c-0.119,0.027-0.205,0.082-0.258,0.165c-0.052,0.082-0.104,0.196-0.156,0.341
		l-0.826,2.31c-0.082,0.228-0.117,0.456-0.106,0.687c0.011,0.229,0.062,0.445,0.155,0.646c0.092,0.199,0.221,0.379,0.386,0.535
		c0.166,0.156,0.367,0.277,0.601,0.361c0.214,0.076,0.414,0.107,0.598,0.092c0.186-0.016,0.354-0.051,0.506-0.105
		c0.152-0.056,0.285-0.112,0.4-0.172c0.115-0.061,0.204-0.103,0.268-0.127l1.193-3.335c0.034-0.097,0.028-0.185-0.017-0.263
		c-0.047-0.079-0.084-0.143-0.113-0.192l1.149,0.411c-0.095,0.028-0.165,0.076-0.208,0.143c-0.042,0.065-0.09,0.168-0.139,0.306
		L175.323,174.754z"/>
	<path fill="#95A5A6" d="M167.015,167.481c-0.098,0.012-0.18,0.075-0.245,0.192c-0.065,0.117-0.134,0.275-0.206,0.476l-2.209,6.173
		c-0.034,0.097-0.059,0.189-0.07,0.278c-0.012,0.089,0.011,0.172,0.069,0.247l-0.891-0.318l2.487-6.949
		c0.077-0.215,0.065-0.379-0.034-0.492L167.015,167.481z"/>
	<path fill="#95A5A6" d="M159.417,167.624l3.777,3.677l-0.229,0.643l-4.402-4.285l0.215-0.602l6.121-0.52l-0.23,0.643
		L159.417,167.624z"/>
	<path fill="#95A5A6" d="M195.905,163.614l4.401,4.285l-0.215,0.602l-6.121,0.52l0.23-0.643l5.252-0.444l-3.777-3.678
		L195.905,163.614z"/>
	<path fill="#95A5A6" d="M192.806,171.197l-0.642-0.229l0.241-8.606l0.601,0.215L192.806,171.197z"/>
	<path fill="#95A5A6" d="M189.542,166.641c-0.133,0.046-0.259,0.097-0.376,0.152c-0.117,0.056-0.244,0.096-0.381,0.121
		c-0.137,0.023-0.293,0.029-0.466,0.014c-0.174-0.016-0.378-0.065-0.613-0.149c-0.305-0.109-0.571-0.272-0.8-0.491
		c-0.229-0.218-0.409-0.466-0.54-0.742s-0.206-0.572-0.227-0.887c-0.019-0.314,0.025-0.624,0.134-0.928l0.853-2.383
		c0.077-0.214,0.106-0.364,0.087-0.453s-0.051-0.168-0.096-0.238l1.161,0.415c-0.12,0.026-0.205,0.082-0.258,0.165
		c-0.052,0.082-0.105,0.195-0.157,0.34l-0.827,2.31c-0.082,0.228-0.116,0.457-0.105,0.687c0.012,0.23,0.062,0.445,0.155,0.646
		s0.221,0.379,0.387,0.536c0.166,0.156,0.366,0.277,0.601,0.361c0.215,0.076,0.413,0.105,0.598,0.092
		c0.185-0.017,0.353-0.052,0.505-0.105c0.151-0.056,0.285-0.113,0.399-0.173c0.115-0.061,0.205-0.103,0.268-0.127l1.193-3.335
		c0.035-0.097,0.03-0.184-0.017-0.263c-0.045-0.079-0.083-0.143-0.112-0.191l1.149,0.411c-0.096,0.027-0.166,0.075-0.208,0.142
		c-0.043,0.065-0.089,0.168-0.139,0.307l-2.291,6.4c-0.035,0.097-0.059,0.189-0.071,0.278s0.011,0.171,0.069,0.247l-0.891-0.319
		L189.542,166.641z"/>
	<path fill="#95A5A6" d="M184.891,162.465c0.055-0.284,0.06-0.557,0.013-0.818c-0.046-0.263-0.136-0.506-0.271-0.729
		c-0.134-0.224-0.312-0.421-0.53-0.593c-0.218-0.172-0.469-0.309-0.752-0.41c-0.297-0.106-0.596-0.183-0.894-0.231
		s-0.601-0.003-0.907,0.137l0.418-1.17c0.013,0.051,0.032,0.101,0.058,0.148c0.026,0.048,0.065,0.086,0.117,0.112
		c0.028,0.01,0.083,0.021,0.163,0.035c0.082,0.014,0.169,0.027,0.266,0.042c0.095,0.016,0.188,0.026,0.278,0.036
		c0.091,0.009,0.158,0.017,0.201,0.024c0.096,0.02,0.188,0.043,0.279,0.071c0.092,0.028,0.181,0.06,0.271,0.091
		c0.394,0.142,0.742,0.34,1.047,0.598c0.305,0.257,0.547,0.553,0.729,0.885c0.18,0.334,0.292,0.693,0.333,1.078
		c0.041,0.385-0.01,0.777-0.153,1.178s-0.347,0.742-0.611,1.025c-0.266,0.283-0.568,0.498-0.909,0.645
		c-0.34,0.146-0.709,0.223-1.104,0.229c-0.396,0.007-0.794-0.062-1.194-0.205c-0.421-0.151-0.779-0.366-1.072-0.646
		c-0.293-0.28-0.519-0.589-0.68-0.927c-0.159-0.337-0.25-0.688-0.272-1.05s0.022-0.702,0.136-1.02
		c0.025-0.069,0.033-0.131,0.02-0.187c-0.012-0.055-0.023-0.107-0.037-0.158L184.891,162.465z M180.454,161.672
		c-0.047,0.527,0.064,0.99,0.339,1.389s0.671,0.689,1.188,0.875c0.538,0.192,1.034,0.218,1.485,0.076
		c0.452-0.143,0.84-0.424,1.162-0.847L180.454,161.672z"/>
	<path fill="#95A5A6" d="M175.36,162.359c-0.23-0.074-0.428-0.162-0.594-0.265c-0.167-0.103-0.316-0.216-0.451-0.342
		c-0.134-0.126-0.258-0.264-0.372-0.414c-0.113-0.149-0.233-0.31-0.359-0.479c-0.059-0.076-0.108-0.138-0.149-0.188
		c-0.041-0.05-0.08-0.093-0.117-0.129c-0.038-0.037-0.083-0.068-0.135-0.096c-0.053-0.026-0.121-0.055-0.204-0.085
		c0.122-0.034,0.209-0.102,0.26-0.204c0.053-0.102,0.119-0.264,0.198-0.484l1.127-3.148c0.02-0.056,0.025-0.115,0.018-0.181
		c-0.008-0.065-0.044-0.137-0.11-0.215l0.931,0.334l-0.204,0.569l0.035,0.036c0.308-0.233,0.625-0.347,0.951-0.343
		c0.326,0.004,0.672,0.07,1.037,0.201c0.38,0.137,0.718,0.331,1.012,0.584c0.295,0.254,0.532,0.545,0.71,0.874
		c0.179,0.328,0.288,0.683,0.327,1.062c0.039,0.38-0.012,0.767-0.153,1.16c-0.139,0.387-0.338,0.723-0.6,1.007
		c-0.262,0.284-0.561,0.504-0.896,0.661c-0.337,0.155-0.699,0.243-1.088,0.264C176.145,162.561,175.753,162.501,175.36,162.359z
		 M174.06,160.213c0.081,0.083,0.161,0.189,0.242,0.32c0.083,0.13,0.18,0.265,0.294,0.402c0.114,0.139,0.252,0.271,0.412,0.399
		c0.162,0.128,0.359,0.233,0.594,0.317c0.276,0.099,0.556,0.141,0.837,0.124c0.283-0.016,0.549-0.079,0.799-0.192
		c0.251-0.113,0.475-0.269,0.67-0.468c0.196-0.198,0.342-0.433,0.438-0.702c0.099-0.275,0.144-0.554,0.134-0.833
		c-0.008-0.28-0.064-0.543-0.166-0.79c-0.103-0.246-0.256-0.468-0.46-0.661c-0.202-0.192-0.449-0.343-0.739-0.446
		c-0.248-0.089-0.469-0.147-0.66-0.178c-0.192-0.029-0.372-0.033-0.539-0.012c-0.168,0.021-0.33,0.062-0.486,0.118
		c-0.156,0.058-0.328,0.13-0.517,0.219L174.06,160.213z"/>
	<path fill="#95A5A6" d="M166.558,161.231c-0.02,0.055-0.027,0.116-0.024,0.184c0.003,0.067,0.033,0.143,0.089,0.225l-0.911-0.326
		l2.042-5.706c0.044-0.124,0.088-0.263,0.131-0.415s0.045-0.263,0.007-0.331c0.118,0.02,0.235,0.019,0.351-0.002
		c0.117-0.021,0.234-0.045,0.354-0.072c0.224-0.037,0.429-0.078,0.616-0.124c0.189-0.046,0.375-0.081,0.558-0.104
		c0.184-0.023,0.372-0.028,0.565-0.014c0.194,0.015,0.404,0.062,0.632,0.145c0.394,0.141,0.734,0.343,1.022,0.605
		c0.288,0.262,0.512,0.561,0.673,0.895c0.161,0.334,0.252,0.694,0.273,1.08c0.021,0.385-0.036,0.771-0.175,1.158
		c-0.141,0.394-0.348,0.724-0.618,0.993c-0.271,0.27-0.58,0.474-0.928,0.614c-0.346,0.142-0.714,0.217-1.103,0.225
		c-0.388,0.01-0.773-0.055-1.153-0.19c-0.366-0.131-0.675-0.298-0.93-0.502c-0.254-0.204-0.427-0.493-0.518-0.869l-0.05,0.006
		L166.558,161.231z M167.747,157.906c0.093,0.182,0.18,0.346,0.264,0.491c0.083,0.147,0.183,0.282,0.299,0.405
		c0.115,0.123,0.257,0.234,0.424,0.333c0.167,0.099,0.375,0.192,0.624,0.281c0.289,0.104,0.575,0.146,0.854,0.125
		c0.281-0.021,0.539-0.093,0.775-0.22c0.235-0.125,0.445-0.294,0.629-0.504c0.185-0.211,0.327-0.454,0.425-0.73
		c0.097-0.27,0.132-0.543,0.107-0.82s-0.099-0.54-0.222-0.786c-0.122-0.247-0.287-0.465-0.496-0.656
		c-0.207-0.191-0.45-0.337-0.726-0.436c-0.234-0.084-0.454-0.128-0.661-0.131c-0.205-0.003-0.396,0.013-0.572,0.047
		c-0.175,0.034-0.335,0.074-0.48,0.12c-0.145,0.045-0.275,0.078-0.393,0.099L167.747,157.906z"/>
	<path fill="#95A5A6" d="M161.85,154.476l3.778,3.677l-0.23,0.643l-4.401-4.285l0.215-0.602l6.12-0.52l-0.229,0.642L161.85,154.476z
		"/>
	<path fill="#95A5A6" d="M196.324,149.744l4.401,4.285l-0.215,0.602l-6.121,0.52l0.23-0.643l5.253-0.445l-3.778-3.677
		L196.324,149.744z"/>
	<path fill="#95A5A6" d="M193.225,157.327l-0.642-0.229l0.242-8.605l0.6,0.215L193.225,157.327z"/>
	<path fill="#95A5A6" d="M191.263,153.05l-2.123,1.46l0.452-1.264l-1.377-0.492l0.304-0.85c0.069,0.111,0.161,0.191,0.274,0.244
		c0.114,0.053,0.239,0.104,0.378,0.153l0.684,0.244l1.412-3.945c0.077-0.215,0.064-0.379-0.035-0.492l1.098,0.394
		c-0.098,0.012-0.179,0.076-0.244,0.192c-0.065,0.117-0.134,0.275-0.206,0.476l-1.301,3.636L191.263,153.05z"/>
	<path fill="#95A5A6" d="M186.446,154.072c-0.124-0.045-0.217-0.129-0.278-0.252c-0.061-0.123-0.067-0.25-0.021-0.381
		c0.047-0.132,0.133-0.226,0.258-0.281c0.125-0.057,0.25-0.062,0.375-0.019c0.125,0.044,0.217,0.128,0.279,0.252
		c0.061,0.122,0.067,0.25,0.021,0.381s-0.133,0.226-0.258,0.281C186.695,154.11,186.571,154.116,186.446,154.072z M189.431,147.464
		c-0.098,0.012-0.18,0.076-0.245,0.193c-0.065,0.116-0.134,0.275-0.206,0.475l-1.386,3.874c-0.035,0.097-0.058,0.189-0.071,0.278
		c-0.012,0.089,0.012,0.171,0.069,0.247l-0.891-0.318l1.665-4.65c0.077-0.215,0.065-0.378-0.034-0.491L189.431,147.464z"/>
	<path fill="#95A5A6" d="M186.085,151.197l-2.122,1.46l0.452-1.264l-1.378-0.493l0.304-0.85c0.07,0.111,0.161,0.192,0.274,0.245
		s0.239,0.103,0.377,0.153l0.684,0.244l1.412-3.946c0.077-0.214,0.064-0.378-0.035-0.491l1.098,0.393
		c-0.097,0.012-0.178,0.076-0.244,0.193c-0.064,0.116-0.134,0.275-0.206,0.475l-1.301,3.636L186.085,151.197z"/>
	<path fill="#95A5A6" d="M184.253,145.611c-0.097,0.012-0.18,0.075-0.244,0.192c-0.065,0.116-0.134,0.276-0.205,0.476l-2.209,6.173
		c-0.035,0.097-0.058,0.189-0.071,0.278c-0.012,0.089,0.012,0.172,0.069,0.247l-0.891-0.319l2.487-6.949
		c0.077-0.214,0.066-0.377-0.034-0.49L184.253,145.611z"/>
	<path fill="#95A5A6" d="M180.713,146.949c0.056-0.284,0.06-0.557,0.014-0.818c-0.046-0.262-0.137-0.505-0.271-0.729
		c-0.134-0.223-0.312-0.421-0.53-0.592c-0.219-0.172-0.469-0.31-0.752-0.41c-0.297-0.106-0.596-0.184-0.894-0.232
		c-0.298-0.048-0.6-0.002-0.907,0.137l0.418-1.17c0.013,0.052,0.033,0.101,0.058,0.148c0.026,0.049,0.065,0.086,0.118,0.113
		c0.027,0.01,0.082,0.021,0.163,0.034c0.081,0.014,0.169,0.028,0.266,0.042c0.095,0.016,0.188,0.027,0.278,0.036
		c0.091,0.009,0.158,0.018,0.202,0.025c0.095,0.019,0.187,0.042,0.278,0.07c0.092,0.029,0.181,0.06,0.271,0.092
		c0.394,0.141,0.742,0.34,1.047,0.597s0.548,0.553,0.729,0.886s0.292,0.692,0.333,1.077s-0.01,0.777-0.153,1.178
		s-0.348,0.742-0.612,1.025c-0.265,0.283-0.568,0.498-0.909,0.645c-0.34,0.146-0.709,0.224-1.104,0.23
		c-0.396,0.006-0.794-0.062-1.194-0.206c-0.421-0.15-0.779-0.366-1.071-0.646c-0.294-0.281-0.52-0.59-0.68-0.928
		c-0.16-0.336-0.25-0.687-0.272-1.05c-0.022-0.361,0.023-0.702,0.137-1.02c0.025-0.068,0.032-0.13,0.02-0.186
		c-0.012-0.056-0.023-0.107-0.036-0.159L180.713,146.949z M176.277,146.156c-0.048,0.528,0.064,0.991,0.338,1.389
		c0.275,0.398,0.671,0.689,1.188,0.875c0.539,0.193,1.034,0.218,1.486,0.076c0.451-0.142,0.839-0.424,1.161-0.846L176.277,146.156z"
		/>
	<path fill="#95A5A6" d="M170.327,143.489l3.778,3.677l-0.23,0.643l-4.401-4.285l0.215-0.602l6.121-0.52l-0.23,0.643
		L170.327,143.489z"/>
	<path fill="#95A5A6" d="M198.473,136.493l4.401,4.285l-0.215,0.601l-6.121,0.52l0.229-0.642l5.253-0.445l-3.778-3.677
		L198.473,136.493z"/>
	<path fill="#95A5A6" d="M195.373,144.076l-0.642-0.23l0.241-8.605l0.601,0.215L195.373,144.076z"/>
	<path fill="#95A5A6" d="M192.108,139.52c-0.132,0.046-0.258,0.096-0.376,0.151c-0.116,0.056-0.243,0.097-0.381,0.121
		s-0.293,0.029-0.466,0.014c-0.174-0.015-0.378-0.065-0.613-0.149c-0.305-0.108-0.57-0.271-0.8-0.49
		c-0.229-0.218-0.409-0.466-0.54-0.742c-0.13-0.276-0.207-0.572-0.226-0.887c-0.02-0.315,0.025-0.625,0.134-0.928l0.853-2.383
		c0.076-0.214,0.105-0.364,0.087-0.453c-0.02-0.089-0.051-0.168-0.097-0.239l1.161,0.415c-0.12,0.027-0.205,0.082-0.258,0.165
		c-0.052,0.082-0.105,0.195-0.157,0.341l-0.826,2.31c-0.082,0.228-0.117,0.456-0.106,0.687c0.012,0.23,0.062,0.445,0.155,0.646
		s0.222,0.379,0.387,0.536c0.166,0.156,0.367,0.277,0.601,0.36c0.214,0.077,0.413,0.106,0.598,0.092
		c0.186-0.016,0.354-0.051,0.505-0.105c0.152-0.056,0.285-0.112,0.4-0.173c0.115-0.06,0.205-0.102,0.268-0.127l1.193-3.334
		c0.034-0.097,0.029-0.184-0.017-0.263s-0.083-0.144-0.112-0.192l1.149,0.412c-0.096,0.027-0.165,0.075-0.208,0.141
		c-0.043,0.066-0.09,0.169-0.139,0.307l-2.291,6.4c-0.034,0.098-0.059,0.189-0.07,0.279c-0.013,0.089,0.01,0.171,0.069,0.246
		l-0.892-0.318L192.108,139.52z"/>
	<path fill="#95A5A6" d="M186.537,137.327c-0.07,0.021-0.146,0.049-0.233,0.081c-0.085,0.031-0.167,0.067-0.244,0.11l-3.561,1.95
		l2.546-7.115c0.077-0.214,0.065-0.377-0.034-0.49l1.077,0.385c-0.098,0.012-0.179,0.076-0.245,0.193
		c-0.064,0.116-0.134,0.275-0.206,0.475l-1.809,5.055l0.021,0.008l2.292-1.247L186.537,137.327z"/>
	<path fill="#95A5A6" d="M177.072,131.883l3.778,3.678l-0.23,0.642l-4.401-4.285l0.215-0.601l6.121-0.52l-0.229,0.642
		L177.072,131.883z"/>
	<path fill="#95A5A6" d="M211.818,127.25l4.401,4.285l-0.215,0.602l-6.121,0.52l0.23-0.643l5.252-0.445l-3.777-3.677L211.818,127.25
		z"/>
	<path fill="#95A5A6" d="M208.719,134.833l-0.642-0.229l0.241-8.606l0.601,0.215L208.719,134.833z"/>
	<path fill="#95A5A6" d="M206.584,129.407c-0.044,0.124-0.088,0.262-0.131,0.415c-0.042,0.151-0.044,0.262-0.007,0.33
		c-0.118-0.019-0.235-0.019-0.352,0.002c-0.116,0.021-0.233,0.045-0.354,0.072c-0.223,0.038-0.429,0.079-0.617,0.125
		c-0.188,0.045-0.374,0.08-0.557,0.104s-0.372,0.028-0.566,0.014c-0.192-0.015-0.404-0.062-0.631-0.145
		c-0.394-0.141-0.733-0.342-1.022-0.605c-0.287-0.262-0.512-0.561-0.673-0.895c-0.16-0.334-0.251-0.693-0.273-1.079
		c-0.021-0.386,0.037-0.771,0.175-1.158c0.141-0.394,0.348-0.726,0.619-0.994c0.271-0.269,0.581-0.474,0.927-0.614
		c0.346-0.141,0.714-0.216,1.102-0.225c0.389-0.01,0.773,0.055,1.153,0.19c0.366,0.132,0.676,0.299,0.93,0.503
		c0.255,0.203,0.427,0.492,0.52,0.869l0.048-0.007l0.949-2.651c0.02-0.055,0.026-0.117,0.02-0.186
		c-0.007-0.068-0.042-0.145-0.104-0.23l1.139,0.408c-0.103,0.025-0.178,0.063-0.227,0.111c-0.049,0.049-0.083,0.102-0.103,0.156
		L206.584,129.407z M206.589,127.107c-0.081-0.186-0.166-0.35-0.255-0.495c-0.088-0.144-0.19-0.278-0.305-0.401
		c-0.116-0.123-0.258-0.234-0.425-0.332c-0.167-0.1-0.375-0.193-0.623-0.282c-0.29-0.104-0.576-0.146-0.855-0.124
		c-0.279,0.02-0.538,0.093-0.773,0.219c-0.236,0.126-0.446,0.295-0.631,0.504c-0.184,0.211-0.325,0.455-0.424,0.73
		c-0.097,0.27-0.132,0.543-0.107,0.821c0.025,0.277,0.1,0.539,0.221,0.785c0.123,0.247,0.288,0.466,0.496,0.656
		c0.208,0.192,0.45,0.337,0.727,0.436c0.234,0.084,0.454,0.128,0.659,0.131s0.396-0.012,0.572-0.046
		c0.176-0.035,0.337-0.076,0.483-0.125c0.146-0.05,0.276-0.081,0.39-0.095L206.589,127.107z"/>
	<path fill="#95A5A6" d="M196.177,124.701l3.778,3.677l-0.23,0.642l-4.401-4.285l0.215-0.601l6.121-0.52l-0.229,0.642
		L196.177,124.701z"/>
</g>
<g id="Layer_30">
</g>
<path fill="none" stroke="#46515D" stroke-width="0.2" stroke-miterlimit="10" d="M239.768,274.478"/>
<g>
	<g>
		
			<rect x="40.488" y="18.895" transform="matrix(-0.8753 0.4836 -0.4836 -0.8753 243.515 166.1259)" fill="#FEF9F3" width="119.696" height="191.137"/>
		<path fill="#46515D" d="M106.108,3.23l91.472,165.547L94.564,225.699L3.092,60.15L106.108,3.23 M106.891,0.512l-1.75,0.967
			L2.125,58.4l-1.75,0.967l0.967,1.75l91.473,165.548l0.967,1.75l1.75-0.967l103.016-56.921l1.75-0.967l-0.967-1.75L107.858,2.263
			L106.891,0.512L106.891,0.512z"/>
	</g>
	<g>
		
			<rect x="54.058" y="44.411" transform="matrix(0.8753 -0.4836 0.4836 0.8753 -42.6168 63.0298)" fill="#E1A850" width="93.667" height="139.454"/>
	</g>
	<polyline fill="#46515D" points="72.634,79.359 140.62,89.548 149.099,104.892 129.177,148.939 60.935,138.665 52.613,123.603 
		72.634,79.359 	"/>
	<g id="Layer_33">
		<g>
			<path fill="#9A564E" d="M124.599,80.329c1.295,0.281,3.315,0.774,3.482,2.223c0.167,1.45,2.228,3.714-0.214,10.063
				c-2.442,6.348-9.412,6.271-9.412,6.271s-3.674-8.972-1.673-14.788c0,0,4.307-3.644,5.833-3.113
				c1.525,0.532,1.085-0.135,1.361-0.217C124.251,80.688,124.599,80.329,124.599,80.329z"/>
			<polyline fill="#9A564E" points="101.028,83.596 97.431,96.075 113.6,98.508 122.15,95.987 119.32,86.839 117.198,86.028 
				101.028,83.596 			"/>
		</g>
	</g>
	<path fill="#46515D" d="M118.637,83.073c-1.794,1.128-2.012,1.448,3.983,1.227c7.507-0.277,4.919-3.001,2.624-3.575
		c0.066,0.166,0.14,0.327,0.22,0.482c0.37,0.711,0.757,1.413,1.062,1.958c-1.254,0.812-5.321,0.84-6.922,0.717l-0.003,0.001
		c-0.313-0.276-0.634-0.547-0.963-0.807"/>
	
		<line fill="none" stroke="#46515D" stroke-width="0.1" stroke-miterlimit="10" x1="109.406" y1="84.862" x2="109.405" y2="84.862"/>
	<path fill="#95A5A6" stroke="#46515D" stroke-width="0.1" stroke-miterlimit="10" d="M128.78,118.323l-9.153-1.377h0.002
		c0.202-1.352-0.021-2.778-0.734-4.069l-11.964-21.651c-1.206-2.182-1.013-4.759,0.281-6.7l0.001,0.002h0l9.141,1.375l0,0l0-0.001
		c-1.281,1.938-1.468,4.504-0.267,6.678l11.963,21.652c0.717,1.298,0.939,2.734,0.73,4.094"/>
	<path fill="none" stroke="#46515D" stroke-width="0.1" stroke-miterlimit="10" d="M130.972,118.659"/>
	<path fill="#C06B62" d="M114.617,85.711c-1.282,1.938-1.468,4.503-0.267,6.677l11.964,21.653c0.716,1.297,0.939,2.734,0.729,4.093
		l0.001-0.023l-6.018-0.904l-0.001-0.02c0.209-1.359-0.013-2.795-0.73-4.094l-11.963-21.652c-1.202-2.174-1.015-4.74,0.267-6.677
		l-0.003,0.018l6.027,0.907"/>
	<path fill="#C06B62" d="M115.092,85.753c-1.281,1.938-1.468,4.503-0.267,6.678l11.964,21.652c0.716,1.297,0.939,2.734,0.729,4.093
		l0.002-0.023l-6.018-0.904l-0.002-0.019c0.21-1.359-0.012-2.795-0.729-4.093l-11.964-21.652c-1.201-2.173-1.015-4.74,0.267-6.678
		l-0.002,0.019l6.027,0.907"/>
	<path fill="#9A564E" d="M114.79,85.687c-1.281,1.938-1.468,4.504-0.266,6.678l11.963,21.652c0.717,1.297,0.94,2.735,0.73,4.094
		l0.001-0.023l-6.018-0.904l-0.001-0.019c0.21-1.359-0.013-2.797-0.73-4.094l-11.963-21.652c-1.201-2.174-1.015-4.74,0.267-6.677
		l-0.002,0.018l6.028,0.907"/>
	<polygon fill="#2ECC71" points="103.318,83.907 90.744,112.568 59.669,107.893 72.615,79.289 	"/>
	<polygon fill="#25A35A" points="102.056,83.724 89.994,111.214 60.188,106.73 72.606,79.294 	"/>
	<polygon fill="#2ECC71" points="100.815,83.543 89.257,109.884 60.698,105.587 72.596,79.298 	"/>
	<polygon fill="#25A35A" points="99.402,83.338 88.42,108.371 61.278,104.289 72.585,79.304 	"/>
	<path fill="#25A35A" d="M63.589,99.232c5.887,4.305,13.971,5.081,20.775,1.321c6.706-3.706,10.346-10.809,9.958-17.979
		l-21.737-3.27L63.589,99.232z"/>
	<path fill="#C06B62" d="M64.331,97.587c5.372,4.109,12.882,4.904,19.181,1.423c6.216-3.434,9.532-10.079,9.025-16.726l-19.952-2.98
		L64.331,97.587z"/>
	<path fill="#9A564E" d="M66.385,93.045c3.933,3.606,9.876,4.483,14.803,1.761c4.863-2.687,7.283-8.078,6.423-13.262l-15.027-2.24
		L66.385,93.045z"/>
	<path fill="#C06B62" d="M66.887,91.944c3.573,3.496,9.148,4.403,13.748,1.861c4.566-2.523,6.768-7.664,5.766-12.517l-13.815-1.984
		L66.887,91.944z"/>
	<path fill="#9A564E" d="M67.693,89.912c2.931,3.35,7.896,4.329,11.95,2.089c3.997-2.209,5.815-6.83,4.644-11.046l-11.75-1.746
		L67.693,89.912z"/>
	<path fill="#2ECC71" d="M68.104,89.005c2.683,3.066,7.227,3.962,10.938,1.912c3.659-2.021,5.324-6.251,4.251-10.11l-10.756-1.598
		L68.104,89.005z"/>
	<path fill="#FEF9F3" d="M119.604,83.882c1.601,0.123,5.668,0.095,6.922-0.717c-0.306-0.544-0.692-1.246-1.062-1.958
		c-0.79-1.515-0.837-3.583-1.532-5.246c-0.694-1.663-2.14-3.054-3.894-6.227l-3.19-0.76l-5.106,4.303c0,0,2.345,6.553,6.091,9.196
		c0.612,0.432,1.204,0.911,1.769,1.41"/>
	<path fill="#FEF9F3" d="M121.043,71.38c-0.238,0.251-0.622,0.353-1.003-0.044c-0.381-0.397-2.543-2.989-2.993-3.558
		c-0.453-0.568-1.465-1.944-0.818-2.648c0.648-0.705,1.758,0.528,1.976,0.815c0.223,0.286,1.496,2.375,1.826,2.917
		c0.33,0.542,0.826,1.428,0.975,1.791c0.147,0.361,0.167,0.482,0.102,0.604C121.043,71.38,121.043,71.38,121.043,71.38z"/>
	<path fill="#7297AE" d="M121.198,71.987c-0.178,0.131-0.541-0.139-0.813-0.6c-0.271-0.462-0.348-0.941-0.169-1.072
		c0.177-0.13,0.541,0.14,0.812,0.6C121.298,71.377,121.375,71.859,121.198,71.987z"/>
	<path fill="#D4D6D8" d="M120.793,72.991c-0.298,0.304-0.772,0.42-1.232-0.077c-0.458-0.497-3.057-3.735-3.598-4.445
		c-0.542-0.71-1.759-2.427-0.947-3.28c0.812-0.854,2.146,0.69,2.411,1.047c0.267,0.357,1.785,2.958,2.179,3.632
		c0.394,0.675,0.984,1.778,1.158,2.226c0.173,0.448,0.195,0.597,0.111,0.747C120.793,72.991,120.793,72.991,120.793,72.991z"/>
	<path fill="#7297AE" d="M120.969,73.742c-0.219,0.157-0.662-0.183-0.985-0.757c-0.324-0.574-0.407-1.167-0.185-1.323
		c0.22-0.156,0.662,0.184,0.986,0.757C121.106,72.993,121.191,73.586,120.969,73.742z"/>
	<path fill="#E0DFDE" d="M119.996,75.027c-0.352,0.366-0.908,0.504-1.451-0.097c-0.541-0.603-3.612-4.521-4.251-5.38
		c-0.639-0.859-2.077-2.937-1.124-3.965c0.953-1.028,2.53,0.839,2.842,1.272c0.314,0.433,2.11,3.577,2.576,4.395
		c0.464,0.816,1.164,2.15,1.37,2.691c0.205,0.542,0.233,0.722,0.135,0.902C119.996,75.027,119.996,75.027,119.996,75.027z"/>
	<path fill="#7297AE" d="M120.206,75.936c-0.26,0.188-0.78-0.225-1.163-0.918c-0.382-0.695-0.482-1.411-0.221-1.599
		c0.259-0.188,0.779,0.224,1.162,0.918C120.365,75.03,120.466,75.747,120.206,75.936z"/>
	<g>
		<path fill="#D8D7D6" d="M117.92,75.275c-0.379,0.303-0.951,0.402-1.456-0.131s-3.328-3.994-3.912-4.75
			c-0.584-0.757-1.889-2.586-0.853-3.437c1.034-0.849,2.492,0.804,2.779,1.185c0.285,0.382,1.875,3.136,2.289,3.851
			c0.41,0.716,1.021,1.882,1.191,2.353c0.169,0.471,0.184,0.626,0.072,0.778C117.92,75.275,117.92,75.275,117.92,75.275z"/>
		
			<ellipse transform="matrix(0.4842 0.8749 -0.8749 0.4842 126.1676 -64.1078)" fill="#7297AE" cx="117.459" cy="74.959" rx="1.258" ry="0.57"/>
	</g>
	<g id="Layer_14">
		<polygon fill="#7F7F7E" points="109.121,34.296 98.541,40.141 110.794,78.354 121.373,72.509 		"/>
		<polygon fill="#3D3D3D" points="108.8,34.473 98.247,40.303 110.517,78.507 121.069,72.677 		"/>
		<polygon fill="#C0C4C8" points="108.445,35.525 99.104,40.686 109.965,74.504 119.306,69.343 		"/>
		<g>
			<path fill="#7F8C8D" d="M115.129,75.26c-0.432,0-0.89-0.452-1.087-1.075c-0.144-0.449-0.13-0.911,0.038-1.234
				c0.093-0.179,0.227-0.301,0.388-0.352c0.057-0.018,0.116-0.027,0.176-0.027c0.432,0,0.889,0.452,1.086,1.075
				c0.144,0.449,0.13,0.909-0.036,1.232c-0.093,0.18-0.228,0.302-0.389,0.353C115.249,75.251,115.189,75.26,115.129,75.26z"/>
			<path fill="#95A5A6" d="M114.644,72.622c0.411,0,0.848,0.438,1.039,1.041c0.14,0.436,0.127,0.882-0.033,1.194
				c-0.087,0.168-0.211,0.281-0.36,0.329c-0.051,0.016-0.105,0.024-0.161,0.024c-0.411,0-0.848-0.438-1.04-1.04
				c-0.14-0.437-0.126-0.884,0.035-1.196c0.087-0.167,0.211-0.28,0.359-0.327C114.535,72.63,114.589,72.622,114.644,72.622
				 M114.644,72.522c-0.065,0-0.129,0.009-0.191,0.029c-0.492,0.155-0.699,0.896-0.458,1.648c0.209,0.658,0.689,1.11,1.135,1.11
				c0.064,0,0.128-0.009,0.191-0.029c0.493-0.156,0.7-0.895,0.458-1.648C115.569,72.974,115.089,72.522,114.644,72.522
				L114.644,72.522z"/>
		</g>
	</g>
	<g>
		<path fill="#FEF9F3" d="M118.228,82.948c-2.815-0.574-4.126-1.164-5.341-2.976c-1.214-1.811-1.5-1.742-1.871-3.005
			c-0.368-1.264-1.164-6.21-1.536-8.394c-0.371-2.185,2.44-0.312,2.841,2.204c0.404,2.515,0.507,3.711,1.486,4.523
			c0.979,0.813,4.766,1.045,6.688,3.251c0,0,1.438,1.646,1.208,2.482s-1.146,1.843-1.788,1.882
			C119.274,82.955,118.228,82.948,118.228,82.948z"/>
		<linearGradient id="SVGID_1_" gradientUnits="userSpaceOnUse" x1="116.8159" y1="73.2383" x2="111.5901" y2="79.2335">
			<stop  offset="0.102" style="stop-color:#C0C4C8"/>
			<stop  offset="0.2002" style="stop-color:#C8CBCE"/>
			<stop  offset="0.7257" style="stop-color:#EFECE9"/>
			<stop  offset="1" style="stop-color:#FEF9F3"/>
		</linearGradient>
		<path fill="url(#SVGID_1_)" d="M118.227,82.953c0,0-0.167-0.036-0.478-0.103c-0.312-0.061-0.765-0.173-1.338-0.332
			c-0.559-0.191-1.266-0.398-1.952-0.876c-0.706-0.453-1.298-1.204-1.877-2.035c-0.294-0.416-0.608-0.843-0.949-1.273
			c-0.331-0.448-0.564-0.979-0.696-1.553c-0.224-1.145-0.46-2.353-0.704-3.602c-0.209-1.256-0.426-2.554-0.646-3.872
			c-0.049-0.329-0.132-0.66-0.152-0.996c-0.006-0.163-0.012-0.352,0.082-0.502c0.024-0.09,0.117-0.128,0.183-0.186
			c0.085-0.01,0.175-0.054,0.26-0.025c0.688,0.148,1.176,0.707,1.576,1.241c0.394,0.556,0.683,1.192,0.807,1.864
			c0.113,0.667,0.225,1.33,0.336,1.989c0.123,0.652,0.253,1.312,0.573,1.876c0.09,0.133,0.181,0.266,0.277,0.393
			c0.115,0.106,0.225,0.236,0.343,0.323l0.418,0.241c0.144,0.066,0.295,0.112,0.441,0.168c1.192,0.409,2.4,0.712,3.462,1.207
			c0.545,0.222,1.021,0.541,1.484,0.842c0.402,0.375,0.835,0.707,1.126,1.13c0.305,0.409,0.582,0.818,0.764,1.25
			c0.203,0.417,0.24,0.919,0.019,1.282c-0.379,0.738-0.921,1.293-1.494,1.483c-0.591,0.083-1.06,0.036-1.377,0.057
			C118.397,82.95,118.227,82.953,118.227,82.953z M118.228,82.943c0,0,0.169-0.004,0.487-0.012c0.315-0.024,0.792,0.017,1.371-0.069
			c0.555-0.188,1.095-0.75,1.458-1.475c0.218-0.375,0.168-0.823-0.031-1.241c-0.183-0.422-0.462-0.826-0.769-1.228
			c-0.293-0.417-0.723-0.735-1.122-1.1c-0.461-0.291-0.926-0.611-1.467-0.83c-1.055-0.494-2.248-0.792-3.459-1.21
			c-0.15-0.059-0.306-0.107-0.453-0.175l-0.418-0.242c-0.141-0.103-0.241-0.228-0.364-0.342c-0.1-0.131-0.194-0.269-0.287-0.407
			c-0.328-0.585-0.459-1.25-0.58-1.906c-0.107-0.66-0.215-1.324-0.323-1.992c-0.117-0.661-0.397-1.291-0.783-1.842
			c-0.387-0.531-0.877-1.087-1.531-1.231c-0.082-0.028-0.159,0.015-0.238,0.021c-0.057,0.053-0.142,0.082-0.164,0.167
			c-0.087,0.138-0.085,0.315-0.08,0.478c0.018,0.337,0.097,0.661,0.145,0.993c0.228,1.316,0.452,2.611,0.668,3.865
			c0.252,1.247,0.497,2.453,0.728,3.596c0.213,1.168,1.085,1.947,1.624,2.803c0.574,0.84,1.148,1.583,1.845,2.04
			c0.675,0.48,1.378,0.693,1.934,0.889c0.57,0.163,1.022,0.279,1.334,0.342C118.063,82.905,118.228,82.943,118.228,82.943z"/>
	</g>
	<path fill="none" stroke="#25A35A" stroke-width="0.1" stroke-miterlimit="10" d="M116.195,81.547"/>
	<g id="Layer_23">
		<path fill="#FEF9F3" d="M71.612,91.88c2.649,0.744,5.582,0.485,8.18-0.95c4.111-2.271,6.169-6.817,5.472-11.202
			c-0.038-0.237-0.083-0.473-0.139-0.708c0,0-2.627-12.384-13.799-28.209l-14.928,8.248l-2.551,25.897l6.431,2.686l0.006-0.003
			c0.444,0.653,1.32,0.871,2.025,0.481c0.375-0.207,0.629-0.545,0.739-0.926l-0.019,0.017c5.238,5.488,12.407,5.034,12.407,5.034"/>
	</g>
	<path fill="none" stroke="#46515D" stroke-width="0.2" stroke-miterlimit="10" d="M62.994,76.526"/>
	<g>
		<path fill="#46515D" d="M67.875,69.269c0,0-0.145,0.01-0.397,0.012c-0.25,0.016-0.615-0.024-1.035-0.003
			c-0.209,0-0.436-0.001-0.675-0.002c-0.236,0.028-0.482,0.04-0.738,0.061c-0.26-0.007-0.506,0.093-0.772,0.127
			c-0.271,0.025-0.512,0.163-0.77,0.257c-0.261,0.089-0.501,0.227-0.728,0.384c-0.226,0.154-0.471,0.276-0.671,0.45
			c-0.396,0.349-0.802,0.638-1.102,0.941c-0.609,0.6-1.015,1-1.015,1l-0.038-0.033c0,0,0.372-0.436,0.928-1.09
			c0.275-0.331,0.657-0.663,1.043-1.043c0.193-0.19,0.439-0.336,0.666-0.513c0.226-0.18,0.469-0.342,0.745-0.458
			c0.268-0.125,0.521-0.293,0.813-0.349c0.284-0.068,0.564-0.183,0.842-0.191c0.279-0.008,0.548-0.032,0.802-0.023
			c0.25,0.031,0.486,0.06,0.704,0.087c0.437,0.056,0.774,0.161,1.021,0.224c0.244,0.065,0.381,0.112,0.381,0.112L67.875,69.269z"/>
	</g>
	<g id="Layer_22">
		<path fill="#FEF9F3" stroke="#46515D" stroke-width="0.1" stroke-miterlimit="10" d="M78.055,61.623
			c-5.284,0.241-11.457-2.646-13.326-4.315c0,0,1.84,9.361-7.587,15.046c0,0,10.771,20.612-6.396,38.523l7.685-52.94l12.896-7.125
			c2.719,3.851,4.931,7.498,6.724,10.812"/>
	</g>
	<path fill="#7297AE" d="M77.362,66.82c-0.857,0.306-1.375,0.816-1.735,1.168c0.036,0.202,0.107,0.407,0.216,0.604
		c0.413,0.748,1.211,1.099,1.783,0.783c0.572-0.316,0.701-1.178,0.288-1.927c-0.156-0.28-0.364-0.504-0.595-0.659"/>
	<path fill="#7297AE" d="M66.549,73.113c-0.798-0.11-1.742,0.787-2.121,1.173c0.007,0.255,0.075,0.518,0.211,0.763
		c0.413,0.748,1.293,1.052,1.966,0.681c0.671-0.371,0.882-1.278,0.468-2.026c-0.136-0.249-0.325-0.448-0.541-0.59"/>
	
		<ellipse transform="matrix(0.8752 -0.4838 0.4838 0.8752 -27.7635 41.1478)" fill="#46515D" cx="65.856" cy="74.375" rx="0.731" ry="0.814"/>
	
		<ellipse transform="matrix(0.8752 -0.4837 0.4837 0.8752 -23.3259 45.6874)" fill="#46515D" cx="76.898" cy="68.059" rx="0.641" ry="0.839"/>
	<path fill="none" stroke="#000000" stroke-width="0.1" stroke-miterlimit="10" d="M72.288,80.84"/>
	<g>
		<path d="M71.581,67.197c0.057,0.292,0.075,0.596,0.186,0.874c0.078,0.287,0.206,0.556,0.33,0.827
			c0.276,0.526,0.584,1.035,0.937,1.516c0.35,0.479,0.735,0.942,1.066,1.439c0.336,0.494,0.706,0.964,1.009,1.482
			c0.642,1.011,1.257,2.037,1.85,3.074c0.136,0.261,0.318,0.516,0.42,0.797c0.1,0.287,0.143,0.613,0.06,0.91
			c-0.075,0.295-0.214,0.587-0.449,0.792c-0.108,0.112-0.235,0.191-0.38,0.269l-0.421,0.151l-0.083,0.03l0.018-0.087l0-0.002
			l0.051,0.06c-0.175,0.017-0.344,0.061-0.509,0.128c-0.161,0.076-0.318,0.161-0.467,0.261c-0.299,0.2-0.578,0.432-0.856,0.665
			c-0.278,0.232-0.554,0.473-0.865,0.672c-0.156,0.098-0.325,0.185-0.514,0.222c-0.098,0.013-0.195,0.021-0.291-0.015
			c-0.104-0.012-0.168-0.1-0.251-0.148l-0.002-0.001l-0.003-0.006l-0.16-0.243l-0.002-0.003c-0.076-0.158-0.133-0.322-0.163-0.494
			c-0.023-0.172-0.021-0.346,0.005-0.517c0.034-0.17,0.092-0.332,0.171-0.484c0.087-0.149,0.194-0.282,0.317-0.4
			c-0.119,0.123-0.22,0.259-0.3,0.409c-0.072,0.154-0.123,0.315-0.15,0.481c-0.019,0.168-0.015,0.335,0.014,0.501
			c0.035,0.165,0.096,0.319,0.174,0.466l-0.002-0.003l0.169,0.237l-0.005-0.006c0.074,0.037,0.13,0.114,0.217,0.117
			c0.078,0.03,0.161,0.023,0.246,0.012c0.167-0.032,0.327-0.114,0.478-0.208c0.301-0.192,0.576-0.431,0.854-0.664
			c0.278-0.233,0.56-0.467,0.865-0.671c0.152-0.103,0.314-0.191,0.483-0.27c0.173-0.071,0.354-0.119,0.543-0.136l0.064-0.006
			l-0.013,0.065l0,0.002l-0.066-0.057l0.422-0.152c0.112-0.063,0.249-0.144,0.345-0.247c0.22-0.191,0.349-0.466,0.42-0.742
			c0.078-0.284,0.037-0.578-0.055-0.849c-0.104-0.283-0.276-0.518-0.416-0.786c-0.593-1.037-1.207-2.061-1.846-3.067
			c-0.3-0.515-0.671-0.987-1.007-1.48c-0.332-0.498-0.711-0.954-1.066-1.439c-0.358-0.48-0.668-1-0.918-1.545
			c-0.115-0.278-0.234-0.554-0.301-0.848C71.633,67.793,71.626,67.492,71.581,67.197z"/>
	</g>
	<g>
		<path fill="#46515D" d="M77.313,62.592c0,0-0.475,0.158-1.188,0.396c-0.364,0.102-0.751,0.302-1.177,0.478
			c-0.435,0.159-0.844,0.438-1.266,0.68c-0.215,0.117-0.376,0.302-0.563,0.445l-0.268,0.223l-0.214,0.256
			c-0.143,0.164-0.31,0.307-0.399,0.483c-0.099,0.17-0.227,0.32-0.291,0.482c-0.054,0.165-0.124,0.313-0.178,0.451
			c-0.058,0.136-0.054,0.267-0.087,0.371c-0.049,0.215-0.077,0.338-0.077,0.338l-0.05,0.003c0,0-0.024-0.123-0.049-0.349
			c-0.008-0.112-0.047-0.255-0.019-0.412c0.025-0.157,0.044-0.34,0.087-0.538c0.048-0.194,0.162-0.382,0.253-0.596
			c0.078-0.228,0.27-0.384,0.422-0.582l0.261-0.275l0.312-0.222c0.216-0.137,0.413-0.318,0.649-0.419
			c0.463-0.223,0.908-0.477,1.369-0.608c0.451-0.154,0.866-0.312,1.236-0.377c0.733-0.165,1.221-0.275,1.221-0.275L77.313,62.592z"
			/>
	</g>
	<g>
		<path d="M68.284,73.604c-0.533-0.222-1.079-0.465-1.658-0.454c-0.144-0.003-0.286,0.012-0.426,0.044
			c-0.144,0.014-0.273,0.082-0.41,0.122c-0.264,0.111-0.511,0.257-0.742,0.431c-0.22,0.186-0.438,0.376-0.625,0.599
			c-0.204,0.207-0.362,0.452-0.541,0.681c-0.335,0.476-0.602,0.994-0.865,1.511l-0.012-0.036c0.525,0.238,1.112,0.321,1.686,0.305
			c0.575-0.015,1.149-0.147,1.657-0.413c0.257-0.125,0.494-0.296,0.703-0.49c0.105-0.097,0.219-0.187,0.304-0.304
			c0.088-0.113,0.193-0.215,0.268-0.338c0.159-0.241,0.305-0.49,0.412-0.76c0.132-0.259,0.191-0.546,0.291-0.819l0.001,0.005
			L68.284,73.604z M68.291,73.598l0.05,0.083l0.001,0.003l0,0.003c-0.088,0.276-0.128,0.572-0.257,0.836
			c-0.101,0.276-0.242,0.532-0.398,0.782c-0.073,0.127-0.177,0.234-0.265,0.352c-0.084,0.122-0.198,0.217-0.304,0.32
			c-0.212,0.203-0.459,0.375-0.724,0.503c-0.524,0.272-1.113,0.405-1.7,0.418c-0.587,0.014-1.18-0.094-1.712-0.348l-0.024-0.012
			l0.013-0.024c0.267-0.519,0.562-1.021,0.881-1.509c0.174-0.234,0.328-0.483,0.529-0.697c0.183-0.229,0.401-0.426,0.621-0.62
			c0.233-0.179,0.479-0.345,0.757-0.452c0.143-0.039,0.278-0.105,0.427-0.118c0.146-0.03,0.292-0.042,0.441-0.036
			C67.225,73.082,67.774,73.343,68.291,73.598z"/>
	</g>
	<g>
		<path d="M74.195,70.358c0.14-0.548,0.41-1.062,0.721-1.533c0.314-0.472,0.684-0.911,1.12-1.276
			c0.216-0.184,0.445-0.357,0.698-0.488c0.245-0.143,0.517-0.248,0.798-0.29c0.138-0.042,0.283-0.016,0.425-0.021
			c0.143-0.001,0.278,0.061,0.417,0.088c0.127,0.062,0.253,0.134,0.374,0.209l0.313,0.292l0.003,0.003l0.001,0.005
			c0.188,0.526,0.117,1.149-0.22,1.604c-0.078,0.118-0.167,0.226-0.274,0.317c-0.096,0.103-0.205,0.19-0.324,0.264
			c-0.221,0.174-0.481,0.278-0.729,0.402c-0.263,0.084-0.516,0.208-0.789,0.257c-0.27,0.059-0.537,0.133-0.812,0.161
			c-0.544,0.092-1.095,0.119-1.644,0.146l-0.006,0l-0.002-0.005L74.195,70.358z M74.204,70.357l0.078,0.131l-0.008-0.004
			c0.546-0.061,1.094-0.096,1.632-0.204c0.272-0.035,0.534-0.115,0.799-0.181c0.269-0.053,0.517-0.17,0.776-0.252
			c0.242-0.121,0.499-0.222,0.712-0.389c0.116-0.072,0.221-0.155,0.313-0.254c0.104-0.088,0.189-0.19,0.264-0.303
			c0.321-0.429,0.413-1.02,0.244-1.531l0.004,0.007l-0.3-0.291c-0.116-0.074-0.237-0.146-0.359-0.209
			c-0.135-0.029-0.266-0.093-0.406-0.093c-0.139,0-0.281-0.017-0.416,0.026c-0.274,0.048-0.539,0.157-0.776,0.303
			c-0.245,0.134-0.468,0.31-0.676,0.495c-0.214,0.181-0.401,0.391-0.591,0.597c-0.187,0.209-0.358,0.432-0.522,0.66
			C74.656,69.328,74.381,69.819,74.204,70.357z"/>
	</g>
	<g>
		<path fill="#46515D" d="M77.022,83.012l0.99-0.5c0.321-0.185,0.67-0.312,1.01-0.461c0.341-0.147,0.667-0.308,0.991-0.476
			c0.296-0.216,0.61-0.401,0.917-0.603l0.084,0.129l-0.521,0.261c-0.167,0.098-0.361,0.151-0.55,0.21
			c-0.186,0.077-0.389,0.048-0.581,0.077c-0.194,0.013-0.386,0.013-0.579,0.02c-0.383,0.006-0.775,0.03-1.137,0.133
			c-0.181,0.059-0.334,0.154-0.462,0.298c-0.126,0.15-0.301,0.262-0.477,0.354l0.008-0.004c-0.167,0.104-0.355,0.201-0.549,0.234
			c-0.188,0.038-0.339,0.12-0.477,0.242c-0.265,0.26-0.479,0.577-0.699,0.893c-0.111,0.158-0.215,0.318-0.333,0.475
			c-0.131,0.148-0.217,0.333-0.385,0.451c-0.155,0.128-0.308,0.264-0.48,0.351l-0.503,0.296l-0.082-0.177
			c0.334-0.148,0.661-0.308,1.001-0.444c0.314-0.184,0.625-0.373,0.932-0.581c0.309-0.205,0.598-0.437,0.925-0.615L77.022,83.012z
			 M77.031,83.029l-0.927,0.604c-0.316,0.19-0.597,0.434-0.891,0.656c-0.292,0.224-0.604,0.438-0.915,0.644
			c-0.333,0.168-0.681,0.311-1.021,0.466l-0.082-0.177l0.495-0.288c0.175-0.087,0.31-0.211,0.454-0.327
			c0.155-0.102,0.241-0.285,0.365-0.422c0.114-0.15,0.222-0.314,0.333-0.47c0.217-0.315,0.449-0.637,0.748-0.905
			c0.154-0.131,0.355-0.226,0.55-0.254c0.191-0.026,0.353-0.104,0.517-0.196l0.007-0.004l0.001,0
			c0.167-0.084,0.326-0.175,0.455-0.32c0.133-0.144,0.315-0.253,0.505-0.307c0.385-0.094,0.77-0.106,1.155-0.136
			c0.192-0.014,0.387-0.021,0.577-0.041c0.186-0.035,0.385-0.013,0.558-0.093c0.177-0.064,0.355-0.116,0.521-0.22l0.505-0.273
			l0.084,0.129c-0.309,0.208-0.611,0.432-0.93,0.625c-0.338,0.156-0.685,0.307-1.028,0.436c-0.342,0.134-0.699,0.237-1.031,0.401
			L77.031,83.029z"/>
	</g>
	<g>
		<path fill="#46515D" d="M81.051,85.748c0,0-0.077-0.032-0.212-0.087c-0.14-0.037-0.319-0.176-0.57-0.188
			c-0.122-0.019-0.254-0.039-0.393-0.06c-0.139-0.023-0.289,0.022-0.442,0.03c-0.154,0.015-0.313,0.024-0.459,0.102l-0.448,0.178
			l-0.403,0.293c-0.147,0.085-0.236,0.215-0.33,0.336c-0.087,0.125-0.205,0.225-0.258,0.357c-0.056,0.13-0.109,0.253-0.158,0.367
			c-0.123,0.221-0.099,0.441-0.142,0.58c-0.025,0.144-0.039,0.227-0.039,0.227s0.008-0.083,0.022-0.229
			c0.035-0.14-0.013-0.368,0.108-0.596c0.047-0.118,0.099-0.245,0.153-0.38c0.052-0.136,0.17-0.246,0.259-0.377
			c0.096-0.129,0.191-0.269,0.333-0.354l0.396-0.303c0.162-0.061,0.323-0.122,0.481-0.182c0.153-0.075,0.318-0.082,0.477-0.093
			c0.159-0.005,0.312-0.046,0.456-0.019c0.144,0.026,0.279,0.05,0.405,0.073c0.259,0.019,0.421,0.179,0.56,0.223
			C80.977,85.711,81.051,85.748,81.051,85.748z"/>
	</g>
	<g>
		<path fill="#46515D" d="M62.177,75.613c0,0,0.216-0.371,0.567-0.91c0.166-0.277,0.394-0.576,0.646-0.891
			c0.122-0.161,0.288-0.292,0.436-0.445c0.143-0.16,0.323-0.28,0.507-0.395c0.184-0.114,0.354-0.256,0.563-0.311
			c0.2-0.074,0.397-0.147,0.588-0.218c0.198-0.037,0.395-0.058,0.58-0.078c0.185-0.011,0.359-0.055,0.521-0.034
			c0.642,0.07,1.069,0.117,1.069,0.117l-0.002,0.01c0,0-0.427-0.021-1.067-0.053c-0.16-0.014-0.33,0.037-0.51,0.055
			c-0.18,0.03-0.373,0.039-0.568,0.075c-0.187,0.067-0.38,0.136-0.576,0.206c-0.206,0.051-0.373,0.189-0.554,0.298
			c-0.182,0.109-0.361,0.223-0.504,0.379c-0.148,0.148-0.314,0.274-0.438,0.432c-0.255,0.309-0.489,0.6-0.661,0.872
			c-0.363,0.53-0.588,0.896-0.588,0.896L62.177,75.613z"/>
	</g>
	<g>
		<path fill="#46515D" d="M73.683,69.255c0,0,0.138-0.366,0.419-0.882c0.28-0.513,0.724-1.178,1.35-1.666
			c0.316-0.232,0.662-0.44,1.022-0.538c0.354-0.12,0.707-0.129,1.002-0.118c0.294,0.034,0.538,0.065,0.7,0.126
			c0.165,0.048,0.258,0.075,0.258,0.075l-0.003,0.01c0,0-0.096-0.019-0.263-0.051c-0.166-0.042-0.406-0.07-0.695-0.087
			c-0.29,0.003-0.626,0.032-0.972,0.136c-0.351,0.09-0.688,0.288-1.001,0.511c-0.623,0.465-1.075,1.118-1.367,1.62
			c-0.293,0.506-0.441,0.869-0.441,0.869L73.683,69.255z"/>
	</g>
	<g>
		<path fill="#46515D" d="M74.488,70.87c0,0,0.643,0.195,1.297,0.284c0.165,0.002,0.329,0.005,0.483,0.007
			c0.154,0.011,0.295-0.023,0.418-0.034c0.245-0.035,0.415-0.043,0.415-0.043l0.003,0.01c0,0-0.159,0.051-0.406,0.105
			c-0.124,0.025-0.267,0.081-0.427,0.057c-0.158-0.007-0.327-0.015-0.496-0.022c-0.33-0.073-0.66-0.135-0.894-0.225
			c-0.238-0.078-0.397-0.129-0.397-0.129L74.488,70.87z"/>
	</g>
	<g>
		<path fill="#46515D" d="M68.664,74.273c0,0-0.032,0.164-0.08,0.41c-0.035,0.248-0.14,0.567-0.236,0.891
			c-0.076,0.151-0.151,0.302-0.222,0.444c-0.057,0.151-0.175,0.25-0.257,0.346c-0.168,0.19-0.29,0.304-0.29,0.304l-0.007-0.007
			c0,0,0.09-0.145,0.239-0.342c0.069-0.103,0.167-0.209,0.233-0.35c0.073-0.136,0.151-0.281,0.229-0.426
			c0.239-0.616,0.38-1.273,0.38-1.273L68.664,74.273z"/>
	</g>
	<path fill="#C06B62" d="M56.52,58.991l-21.299,11.77c0,0,7.535,4.591,4.659,13.083c0,0,5.286-5.768,13.126-3.297L56.52,58.991"/>
	<path fill="#9A564E" d="M56.536,58.983l-19.564,10.81c0,0,6.922,4.217,4.279,12.017c0,0,4.856-5.298,12.057-3.028L56.536,58.983"/>
	<line fill="none" stroke="#E1A850" stroke-width="0.1" stroke-miterlimit="10" x1="56.52" y1="58.991" x2="51.331" y2="61.859"/>
	<path fill="#2ECC71" d="M51.332,61.859c0,0-2.068,18.075-2.067,18.074c1.166,0.014,2.417,0.196,3.741,0.614l3.514-21.556
		L51.332,61.859z"/>
	<path fill="#25A35A" d="M51.319,61.866c0,0-1.866,16.309-1.865,16.308c1.052,0.014,2.181,0.177,3.375,0.554l3.172-19.449
		L51.319,61.866z"/>
	<g id="Layer_31">
		<polyline fill="#46515D" stroke="#000000" stroke-width="0.1" stroke-miterlimit="10" points="55.642,59.477 47.452,113.919 
			50.688,119.773 60.13,56.997 55.642,59.477 47.453,113.919 		"/>
	</g>
	<g>
		<path fill="#9A564E" d="M77.184,147.947c-1.296-0.281-3.315-0.773-3.482-2.223c-0.167-1.45-2.228-3.714,0.216-10.062
			c2.441-6.348,9.41-6.27,9.41-6.27s3.674,8.971,1.674,14.786c0,0-4.307,3.645-5.833,3.113c-1.525-0.531-1.085,0.136-1.362,0.217
			C77.53,147.589,77.184,147.947,77.184,147.947z"/>
		<polyline fill="#9A564E" points="100.754,144.679 104.352,132.2 88.182,129.768 79.632,132.289 82.461,141.437 84.585,142.248 
			100.754,144.679 		"/>
	</g>
	<path fill="#46515D" d="M83.145,145.203c1.794-1.127,2.011-1.449-3.982-1.228c-7.508,0.277-4.92,3.001-2.624,3.575
		c-0.066-0.165-0.14-0.326-0.219-0.482c-0.371-0.711-0.758-1.413-1.064-1.958c1.254-0.812,5.322-0.839,6.923-0.718l0.002,0
		c0.313,0.277,0.636,0.548,0.963,0.808"/>
	
		<line fill="none" stroke="#46515D" stroke-width="0.1" stroke-miterlimit="10" x1="92.376" y1="143.414" x2="92.376" y2="143.414"/>
	<path fill="#95A5A6" stroke="#46515D" stroke-width="0.1" stroke-miterlimit="10" d="M73.002,109.953l9.153,1.375l-0.001,0.001
		c-0.204,1.352,0.02,2.78,0.732,4.069l11.964,21.652c1.206,2.182,1.014,4.76-0.281,6.7l-0.001-0.002l0,0l-9.142-1.375l0,0
		l0.001,0.002c1.281-1.938,1.468-4.504,0.267-6.678l-11.963-21.653c-0.717-1.297-0.94-2.734-0.731-4.093"/>
	<path fill="none" stroke="#46515D" stroke-width="0.1" stroke-miterlimit="10" d="M70.81,109.615"/>
	<path fill="#C06B62" d="M87.166,142.564c1.281-1.938,1.468-4.503,0.267-6.677l-11.964-21.653c-0.718-1.298-0.94-2.734-0.731-4.093
		l0,0.023l6.019,0.903l0,0.019c-0.21,1.361,0.013,2.798,0.729,4.095l11.964,21.653c1.201,2.173,1.014,4.739-0.267,6.676l0.003-0.017
		l-6.029-0.907"/>
	<path fill="#C06B62" d="M86.69,142.523c1.282-1.938,1.468-4.504,0.267-6.679l-11.963-21.652c-0.717-1.297-0.94-2.734-0.729-4.093
		l-0.003,0.024l6.018,0.903l0.001,0.02c-0.208,1.358,0.014,2.795,0.731,4.093l11.963,21.651c1.202,2.174,1.016,4.74-0.266,6.679
		l0.001-0.019l-6.027-0.908"/>
	<path fill="#9A564E" d="M86.992,142.589c1.281-1.938,1.467-4.504,0.267-6.678l-11.964-21.653c-0.717-1.297-0.94-2.733-0.729-4.093
		l-0.003,0.023l6.018,0.904l0.001,0.019c-0.208,1.358,0.014,2.795,0.731,4.093l11.964,21.652c1.201,2.174,1.015,4.74-0.267,6.678
		l0.001-0.018l-6.026-0.908"/>
	<polygon fill="#2ECC71" points="98.463,144.369 111.037,115.709 142.114,120.383 129.167,148.988 	"/>
	<polygon fill="#25A35A" points="99.727,144.551 111.787,117.062 141.593,121.545 129.176,148.983 	"/>
	<polygon fill="#2ECC71" points="100.968,144.733 112.524,118.393 141.084,122.688 129.186,148.978 	"/>
	<polygon fill="#25A35A" points="102.379,144.938 113.361,119.905 140.503,123.988 129.196,148.972 	"/>
	<path fill="#25A35A" d="M138.193,129.045c-5.887-4.307-13.972-5.081-20.776-1.322c-6.706,3.705-10.346,10.808-9.957,17.978
		l21.735,3.271L138.193,129.045z"/>
	<path fill="#C06B62" d="M137.45,130.69c-5.372-4.109-12.88-4.904-19.18-1.424c-6.216,3.434-9.531,10.079-9.025,16.725l19.951,2.98
		L137.45,130.69z"/>
	<path fill="#9A564E" d="M135.396,135.23c-3.931-3.605-9.875-4.482-14.803-1.76c-4.862,2.687-7.283,8.077-6.422,13.262l15.025,2.239
		L135.396,135.23z"/>
	<path fill="#C06B62" d="M134.896,136.333c-3.574-3.497-9.148-4.404-13.75-1.861c-4.563,2.521-6.766,7.663-5.765,12.516
		l13.815,1.984L134.896,136.333z"/>
	<path fill="#9A564E" d="M134.088,138.365c-2.931-3.35-7.895-4.33-11.95-2.089c-3.997,2.208-5.815,6.83-4.643,11.045l11.748,1.746
		L134.088,138.365z"/>
	<path fill="#2ECC71" d="M133.679,139.271c-2.683-3.066-7.228-3.962-10.939-1.911c-3.658,2.021-5.323,6.252-4.25,10.108l10.754,1.6
		L133.679,139.271z"/>
	<path fill="#FEF9F3" d="M82.179,144.394c-1.601-0.122-5.669-0.094-6.923,0.718c0.306,0.544,0.693,1.246,1.064,1.958
		c0.788,1.516,0.837,3.583,1.53,5.246c0.696,1.663,2.142,3.055,3.895,6.227l3.191,0.761L90.042,155c0,0-2.347-6.554-6.092-9.197
		c-0.612-0.432-1.204-0.91-1.767-1.409"/>
	<path fill="#FEF9F3" d="M80.738,156.896c0.239-0.25,0.622-0.353,1.003,0.043c0.381,0.399,2.542,2.99,2.992,3.558
		c0.453,0.569,1.466,1.946,0.819,2.649c-0.649,0.704-1.758-0.528-1.978-0.816c-0.222-0.285-1.494-2.374-1.825-2.916
		c-0.329-0.542-0.826-1.43-0.974-1.791c-0.148-0.36-0.167-0.481-0.102-0.604C80.738,156.896,80.738,156.896,80.738,156.896z"/>
	<path fill="#7297AE" d="M80.584,156.289c0.177-0.131,0.54,0.139,0.813,0.6c0.271,0.461,0.348,0.941,0.17,1.07
		c-0.177,0.131-0.541-0.139-0.813-0.599C80.483,156.898,80.408,156.417,80.584,156.289z"/>
	<path fill="#D4D6D8" d="M80.989,155.285c0.299-0.304,0.771-0.42,1.232,0.077c0.459,0.496,3.057,3.736,3.598,4.445
		c0.542,0.709,1.758,2.427,0.947,3.28c-0.812,0.852-2.147-0.691-2.41-1.048c-0.267-0.357-1.785-2.958-2.179-3.632
		c-0.393-0.675-0.985-1.778-1.158-2.226c-0.172-0.449-0.193-0.598-0.112-0.748C80.989,155.285,80.989,155.285,80.989,155.285z"/>
	<path fill="#7297AE" d="M80.812,154.534c0.219-0.157,0.661,0.184,0.986,0.758c0.323,0.574,0.407,1.165,0.183,1.322
		c-0.218,0.157-0.661-0.183-0.985-0.756C80.676,155.284,80.591,154.69,80.812,154.534z"/>
	<path fill="#E0DFDE" d="M81.787,153.248c0.351-0.366,0.907-0.503,1.451,0.098c0.541,0.603,3.612,4.521,4.251,5.38
		c0.637,0.859,2.075,2.937,1.122,3.966c-0.954,1.028-2.53-0.84-2.841-1.273c-0.315-0.433-2.11-3.578-2.576-4.394
		c-0.466-0.816-1.166-2.15-1.371-2.692c-0.205-0.541-0.231-0.722-0.134-0.901C81.787,153.248,81.787,153.248,81.787,153.248z"/>
	<path fill="#7297AE" d="M81.576,152.34c0.259-0.188,0.78,0.225,1.164,0.918c0.382,0.695,0.482,1.41,0.22,1.6
		c-0.257,0.187-0.779-0.224-1.161-0.918C81.417,153.245,81.315,152.529,81.576,152.34z"/>
	<g>
		<path fill="#D8D7D6" d="M83.861,153.001c0.38-0.303,0.951-0.403,1.456,0.13c0.504,0.534,3.327,3.994,3.913,4.751
			c0.583,0.757,1.887,2.585,0.852,3.436c-1.035,0.849-2.493-0.805-2.779-1.184c-0.285-0.383-1.875-3.137-2.289-3.853
			c-0.411-0.715-1.022-1.881-1.19-2.353c-0.17-0.47-0.186-0.626-0.073-0.778C83.861,153.001,83.861,153.001,83.861,153.001z"/>
		
			<ellipse transform="matrix(-0.4845 -0.8748 0.8748 -0.4845 -8.9389 301.3654)" fill="#7297AE" cx="84.323" cy="153.316" rx="1.259" ry="0.571"/>
	</g>
	<polygon fill="#7F7F7E" points="92.663,193.98 103.241,188.135 90.988,149.922 80.41,155.767 	"/>
	<polygon fill="#3D3D3D" points="92.982,193.803 103.535,187.972 91.265,149.769 80.714,155.599 	"/>
	<polygon fill="#C0C4C8" points="93.338,192.75 102.679,187.59 91.817,153.772 82.476,158.934 	"/>
	<g>
		<path fill="#7F8C8D" d="M87.139,155.704c-0.432,0-0.89-0.452-1.088-1.075c-0.114-0.356-0.13-0.719-0.046-1.021
			c0.082-0.294,0.25-0.496,0.472-0.566c0.056-0.018,0.115-0.027,0.175-0.027c0.433,0,0.891,0.453,1.087,1.077
			c0.144,0.448,0.13,0.909-0.037,1.232c-0.093,0.18-0.227,0.302-0.388,0.353C87.259,155.695,87.2,155.704,87.139,155.704z"/>
		<path fill="#95A5A6" d="M86.652,153.065c0.412,0,0.85,0.438,1.04,1.042c0.14,0.436,0.127,0.882-0.034,1.193
			c-0.086,0.168-0.21,0.281-0.358,0.329c-0.052,0.017-0.106,0.025-0.162,0.025c-0.411,0-0.848-0.438-1.04-1.04
			c-0.11-0.347-0.126-0.699-0.045-0.992c0.077-0.278,0.233-0.467,0.438-0.533C86.543,153.073,86.597,153.065,86.652,153.065
			 M86.652,152.965c-0.064,0-0.128,0.009-0.19,0.029c-0.494,0.157-0.699,0.895-0.458,1.65c0.209,0.657,0.69,1.11,1.135,1.11
			c0.065,0,0.129-0.01,0.192-0.03c0.491-0.156,0.698-0.896,0.457-1.648C87.58,153.417,87.098,152.965,86.652,152.965L86.652,152.965
			z"/>
	</g>
	<g>
		<path fill="#FEF9F3" d="M83.555,145.33c2.815,0.572,4.126,1.163,5.341,2.975c1.214,1.81,1.5,1.742,1.871,3.005
			c0.367,1.263,1.164,6.209,1.536,8.394c0.37,2.184-2.441,0.312-2.843-2.204c-0.402-2.515-0.506-3.711-1.484-4.525
			c-0.979-0.812-4.767-1.043-6.69-3.25c0,0-1.437-1.645-1.208-2.481c0.229-0.838,1.146-1.844,1.79-1.883
			C82.507,145.321,83.555,145.33,83.555,145.33z"/>
		<linearGradient id="SVGID_2_" gradientUnits="userSpaceOnUse" x1="84.9663" y1="155.0386" x2="90.1923" y2="149.0431">
			<stop  offset="0.102" style="stop-color:#C0C4C8"/>
			<stop  offset="0.2002" style="stop-color:#C8CBCE"/>
			<stop  offset="0.7257" style="stop-color:#EFECE9"/>
			<stop  offset="1" style="stop-color:#FEF9F3"/>
		</linearGradient>
		<path fill="url(#SVGID_2_)" d="M83.555,145.325c0,0,0.167,0.036,0.478,0.103c0.312,0.06,0.766,0.172,1.339,0.331
			c0.559,0.191,1.266,0.397,1.952,0.876c0.706,0.453,1.298,1.204,1.877,2.036c0.293,0.416,0.608,0.843,0.949,1.272
			c0.33,0.448,0.564,0.979,0.696,1.554c0.224,1.145,0.459,2.353,0.704,3.602c0.209,1.256,0.426,2.553,0.646,3.872
			c0.049,0.329,0.132,0.659,0.152,0.996c0.005,0.163,0.011,0.351-0.083,0.502c-0.024,0.09-0.118,0.127-0.184,0.186
			c-0.086,0.009-0.175,0.053-0.26,0.024c-0.688-0.148-1.176-0.707-1.575-1.242c-0.394-0.556-0.684-1.192-0.807-1.864
			c-0.112-0.667-0.225-1.331-0.336-1.989c-0.123-0.652-0.253-1.312-0.572-1.876c-0.09-0.133-0.18-0.267-0.277-0.393
			c-0.115-0.106-0.224-0.237-0.342-0.323l-0.418-0.241c-0.144-0.065-0.295-0.111-0.441-0.168c-1.192-0.408-2.4-0.711-3.463-1.206
			c-0.545-0.221-1.021-0.541-1.484-0.842c-0.402-0.375-0.835-0.707-1.126-1.13c-0.305-0.409-0.582-0.818-0.764-1.251
			c-0.203-0.417-0.24-0.919-0.019-1.282c0.379-0.739,0.922-1.293,1.494-1.484c0.591-0.083,1.06-0.035,1.377-0.056
			C83.385,145.327,83.555,145.325,83.555,145.325z M83.554,145.334c0,0-0.169,0.004-0.487,0.011
			c-0.314,0.023-0.792-0.019-1.37,0.068c-0.555,0.188-1.095,0.75-1.458,1.474c-0.217,0.375-0.168,0.824,0.031,1.241
			c0.183,0.422,0.462,0.826,0.77,1.228c0.293,0.417,0.723,0.735,1.122,1.1c0.461,0.291,0.926,0.612,1.467,0.83
			c1.055,0.494,2.248,0.792,3.46,1.209c0.15,0.059,0.306,0.107,0.453,0.175l0.418,0.241c0.27,0.209,0.474,0.463,0.65,0.75
			c0.328,0.585,0.459,1.251,0.579,1.906c0.107,0.659,0.214,1.324,0.322,1.992c0.117,0.661,0.397,1.291,0.783,1.843
			c0.388,0.531,0.878,1.086,1.531,1.231c0.082,0.028,0.159-0.015,0.238-0.02c0.057-0.054,0.142-0.082,0.164-0.167
			c0.087-0.138,0.085-0.314,0.08-0.478c-0.017-0.337-0.097-0.661-0.145-0.993c-0.228-1.316-0.452-2.611-0.669-3.865
			c-0.252-1.247-0.497-2.453-0.728-3.596c-0.212-1.168-1.084-1.947-1.624-2.803c-0.574-0.84-1.148-1.583-1.845-2.04
			c-0.675-0.481-1.378-0.693-1.934-0.889c-0.571-0.163-1.022-0.279-1.334-0.342C83.719,145.372,83.554,145.334,83.554,145.334z"/>
	</g>
	<path fill="none" stroke="#25A35A" stroke-width="0.1" stroke-miterlimit="10" d="M85.587,146.73"/>
	<path fill="#FEF9F3" d="M130.169,136.396c-2.649-0.745-5.581-0.485-8.18,0.951c-4.112,2.271-6.168,6.815-5.472,11.202
		c0.038,0.235,0.083,0.471,0.138,0.708c0,0,2.628,12.384,13.8,28.209l14.927-8.248l2.551-25.897l-6.432-2.687l-0.005,0.002
		c-0.445-0.651-1.32-0.87-2.027-0.479c-0.372,0.205-0.627,0.543-0.738,0.925l0.02-0.018c-5.239-5.487-12.408-5.033-12.408-5.033"/>
	<path fill="none" stroke="#46515D" stroke-width="0.2" stroke-miterlimit="10" d="M138.787,151.751"/>
	<g>
		<path fill="#46515D" d="M133.908,159.008c0,0,0.145-0.01,0.397-0.012c0.25-0.016,0.615,0.024,1.035,0.003
			c0.209,0,0.436,0.001,0.675,0.002c0.235-0.028,0.482-0.04,0.738-0.061c0.26,0.006,0.505-0.093,0.772-0.127
			c0.271-0.026,0.513-0.164,0.77-0.258c0.261-0.088,0.501-0.227,0.728-0.384c0.226-0.154,0.471-0.276,0.671-0.449
			c0.396-0.349,0.802-0.638,1.102-0.942c0.609-0.6,1.015-1,1.015-1l0.038,0.033c0,0-0.372,0.436-0.928,1.089
			c-0.275,0.332-0.657,0.664-1.043,1.043c-0.193,0.19-0.439,0.336-0.666,0.513c-0.226,0.18-0.47,0.342-0.745,0.458
			c-0.268,0.125-0.522,0.293-0.814,0.349c-0.284,0.068-0.563,0.183-0.842,0.191c-0.278,0.008-0.548,0.032-0.802,0.023
			c-0.25-0.031-0.486-0.06-0.704-0.087c-0.436-0.056-0.774-0.161-1.02-0.224c-0.244-0.065-0.381-0.112-0.381-0.112L133.908,159.008z
			"/>
	</g>
	<path fill="#FEF9F3" stroke="#46515D" stroke-width="0.1" stroke-miterlimit="10" d="M123.727,166.653
		c5.285-0.241,11.457,2.647,13.325,4.316c0,0-1.839-9.361,7.587-15.046c0,0-10.771-20.612,6.396-38.523l-7.684,52.94l-12.896,7.125
		c-2.719-3.852-4.932-7.5-6.724-10.812"/>
	<path fill="#7297AE" d="M124.421,161.454c0.856-0.303,1.373-0.814,1.733-1.167c-0.035-0.201-0.104-0.406-0.215-0.603
		c-0.413-0.748-1.211-1.098-1.783-0.783c-0.573,0.317-0.701,1.178-0.287,1.926c0.155,0.282,0.363,0.506,0.594,0.661"/>
	<path fill="#7297AE" d="M135.232,155.164c0.798,0.109,1.741-0.787,2.122-1.172c-0.008-0.256-0.076-0.518-0.212-0.763
		c-0.413-0.749-1.292-1.054-1.964-0.682c-0.673,0.372-0.883,1.279-0.47,2.027c0.137,0.249,0.326,0.447,0.542,0.589"/>
	
		<ellipse transform="matrix(-0.8751 0.4839 -0.4839 -0.8751 329.3544 222.7992)" fill="#46515D" cx="135.926" cy="153.901" rx="0.732" ry="0.814"/>
	
		<ellipse transform="matrix(-0.8756 0.4831 -0.4831 -0.8756 311.6298 240.161)" fill="#46515D" cx="124.884" cy="160.216" rx="0.641" ry="0.838"/>
	<path fill="none" stroke="#000000" stroke-width="0.1" stroke-miterlimit="10" d="M129.495,147.436"/>
	<g>
		<path d="M130.2,161.08c-0.056-0.292-0.075-0.596-0.186-0.874c-0.077-0.287-0.206-0.556-0.33-0.826
			c-0.276-0.526-0.584-1.035-0.937-1.516c-0.35-0.478-0.735-0.942-1.066-1.44c-0.336-0.494-0.706-0.964-1.008-1.481
			c-0.642-1.012-1.257-2.037-1.85-3.074c-0.136-0.261-0.317-0.516-0.42-0.797c-0.1-0.286-0.144-0.613-0.061-0.91
			c0.075-0.294,0.214-0.587,0.448-0.792c0.108-0.113,0.236-0.191,0.38-0.27l0.421-0.152l0.081-0.029l-0.014,0.084l0,0.003
			l-0.052-0.058c0.175-0.017,0.344-0.061,0.509-0.128c0.161-0.076,0.318-0.161,0.467-0.261c0.299-0.2,0.578-0.432,0.856-0.665
			c0.278-0.232,0.554-0.473,0.866-0.672c0.156-0.098,0.325-0.186,0.514-0.222c0.097-0.013,0.195-0.021,0.291,0.015
			c0.103,0.012,0.168,0.1,0.251,0.148l0.002,0.001l0.003,0.006l0.16,0.243l0.002,0.003c0.076,0.158,0.133,0.322,0.163,0.494
			c0.023,0.173,0.021,0.346-0.005,0.518c-0.034,0.17-0.092,0.332-0.171,0.485c-0.087,0.149-0.194,0.282-0.318,0.4
			c0.12-0.123,0.22-0.259,0.301-0.409c0.072-0.154,0.124-0.315,0.15-0.482c0.019-0.168,0.015-0.335-0.014-0.501
			c-0.035-0.165-0.096-0.319-0.174-0.467l0.002,0.003l-0.169-0.237l0.005,0.006c-0.075-0.037-0.131-0.114-0.217-0.117
			c-0.078-0.03-0.162-0.023-0.246-0.012c-0.167,0.032-0.328,0.114-0.478,0.208c-0.302,0.192-0.576,0.431-0.855,0.664
			c-0.278,0.233-0.56,0.467-0.865,0.671c-0.153,0.103-0.315,0.191-0.483,0.27c-0.173,0.071-0.354,0.119-0.544,0.136l-0.062,0.006
			l0.011-0.064l0-0.003l0.066,0.055l-0.421,0.152c-0.111,0.063-0.249,0.144-0.344,0.247c-0.22,0.191-0.349,0.466-0.42,0.742
			c-0.078,0.283-0.038,0.578,0.055,0.849c0.104,0.283,0.276,0.518,0.415,0.786c0.593,1.037,1.207,2.061,1.845,3.067
			c0.3,0.515,0.672,0.987,1.007,1.48c0.332,0.498,0.71,0.954,1.066,1.439c0.358,0.48,0.668,1,0.918,1.544
			c0.115,0.278,0.233,0.554,0.301,0.848C130.148,160.483,130.155,160.785,130.2,161.08z"/>
	</g>
	<g>
		<path fill="#46515D" d="M124.47,165.684c0,0,0.475-0.158,1.187-0.396c0.364-0.102,0.751-0.301,1.177-0.478
			c0.435-0.158,0.843-0.438,1.266-0.679c0.215-0.117,0.376-0.302,0.563-0.445l0.268-0.223l0.214-0.256
			c0.143-0.164,0.31-0.306,0.398-0.483c0.099-0.17,0.227-0.32,0.291-0.482c0.054-0.165,0.124-0.313,0.178-0.451
			c0.058-0.136,0.054-0.267,0.087-0.371c0.049-0.215,0.077-0.338,0.077-0.338l0.05-0.003c0,0,0.024,0.123,0.049,0.349
			c0.008,0.112,0.047,0.255,0.019,0.412c-0.025,0.157-0.044,0.34-0.087,0.538c-0.047,0.194-0.162,0.382-0.253,0.596
			c-0.078,0.228-0.27,0.384-0.422,0.582l-0.261,0.275l-0.312,0.222c-0.216,0.137-0.412,0.317-0.649,0.419
			c-0.463,0.223-0.907,0.477-1.369,0.608c-0.451,0.154-0.866,0.312-1.236,0.376c-0.732,0.166-1.221,0.275-1.221,0.275
			L124.47,165.684z"/>
	</g>
	<g>
		<path d="M133.498,154.672c0.533,0.221,1.079,0.464,1.658,0.454c0.144,0.003,0.286-0.012,0.426-0.043
			c0.143-0.015,0.273-0.082,0.41-0.122c0.264-0.111,0.511-0.257,0.742-0.431c0.219-0.186,0.438-0.376,0.624-0.599
			c0.204-0.207,0.363-0.452,0.541-0.681c0.335-0.475,0.602-0.993,0.864-1.511l0.012,0.036c-0.525-0.238-1.112-0.321-1.686-0.306
			c-0.574,0.015-1.148,0.147-1.657,0.413c-0.257,0.125-0.494,0.296-0.703,0.489c-0.105,0.097-0.219,0.187-0.304,0.304
			c-0.088,0.113-0.193,0.215-0.268,0.337c-0.159,0.241-0.305,0.49-0.412,0.76c-0.132,0.259-0.191,0.546-0.291,0.819l-0.001-0.005
			L133.498,154.672z M133.491,154.679l-0.049-0.084l-0.001-0.002l0-0.003c0.088-0.276,0.128-0.572,0.257-0.835
			c0.101-0.276,0.242-0.533,0.398-0.782c0.073-0.127,0.177-0.234,0.264-0.353c0.085-0.121,0.198-0.217,0.304-0.319
			c0.212-0.203,0.459-0.375,0.724-0.503c0.524-0.272,1.113-0.404,1.7-0.417c0.587-0.014,1.18,0.095,1.712,0.349l0.024,0.012
			l-0.013,0.024c-0.267,0.519-0.562,1.021-0.881,1.509c-0.174,0.234-0.328,0.484-0.529,0.697c-0.183,0.229-0.401,0.426-0.621,0.62
			c-0.233,0.179-0.479,0.345-0.757,0.451c-0.143,0.039-0.278,0.105-0.427,0.117c-0.146,0.03-0.292,0.042-0.44,0.036
			C134.557,155.194,134.008,154.934,133.491,154.679z"/>
	</g>
	<g>
		<path d="M127.586,157.919c-0.14,0.548-0.41,1.062-0.72,1.533c-0.314,0.472-0.684,0.911-1.12,1.276
			c-0.216,0.183-0.445,0.357-0.698,0.487c-0.245,0.143-0.517,0.247-0.798,0.29c-0.139,0.042-0.283,0.015-0.425,0.021
			c-0.143,0.001-0.278-0.061-0.417-0.089c-0.127-0.062-0.252-0.134-0.374-0.209l-0.313-0.292l-0.003-0.003l-0.001-0.005
			c-0.188-0.526-0.117-1.149,0.22-1.604c0.078-0.118,0.167-0.226,0.274-0.317c0.096-0.104,0.205-0.19,0.324-0.265
			c0.221-0.173,0.481-0.277,0.729-0.402c0.263-0.084,0.516-0.208,0.789-0.257c0.27-0.059,0.537-0.133,0.812-0.161
			c0.544-0.092,1.095-0.119,1.644-0.146l0.006,0l0.002,0.005L127.586,157.919z M127.577,157.92l-0.078-0.131l0.008,0.004
			c-0.546,0.061-1.094,0.096-1.632,0.204c-0.272,0.035-0.534,0.115-0.799,0.181c-0.269,0.053-0.517,0.17-0.777,0.252
			c-0.242,0.121-0.498,0.222-0.712,0.389c-0.115,0.072-0.221,0.155-0.313,0.254c-0.104,0.088-0.189,0.19-0.264,0.303
			c-0.321,0.429-0.413,1.02-0.244,1.53l-0.004-0.007l0.3,0.291c0.117,0.074,0.237,0.146,0.36,0.21
			c0.135,0.029,0.266,0.093,0.406,0.094c0.139-0.001,0.28,0.017,0.416-0.026c0.274-0.048,0.539-0.157,0.776-0.303
			c0.245-0.134,0.468-0.31,0.676-0.495c0.214-0.182,0.401-0.392,0.59-0.598c0.188-0.209,0.358-0.432,0.522-0.66
			C127.125,158.949,127.4,158.458,127.577,157.92z"/>
	</g>
	<g>
		<path fill="#46515D" d="M124.759,145.265l-0.989,0.5c-0.321,0.185-0.67,0.312-1.01,0.461c-0.341,0.147-0.667,0.309-0.991,0.476
			c-0.296,0.216-0.61,0.401-0.917,0.603l-0.084-0.129l0.521-0.261c0.167-0.098,0.361-0.151,0.55-0.21
			c0.186-0.077,0.388-0.048,0.581-0.077c0.194-0.013,0.386-0.013,0.579-0.021c0.383-0.006,0.775-0.03,1.137-0.132
			c0.18-0.059,0.334-0.154,0.461-0.298c0.126-0.15,0.301-0.262,0.477-0.354l-0.008,0.004c0.167-0.104,0.355-0.201,0.548-0.234
			c0.189-0.038,0.339-0.12,0.478-0.242c0.265-0.26,0.479-0.577,0.7-0.893c0.111-0.158,0.215-0.318,0.333-0.475
			c0.131-0.148,0.217-0.333,0.385-0.451c0.155-0.128,0.308-0.265,0.48-0.351l0.503-0.296l0.082,0.177
			c-0.334,0.148-0.661,0.308-1.001,0.444c-0.314,0.184-0.625,0.373-0.932,0.581c-0.309,0.205-0.598,0.437-0.925,0.614
			L124.759,145.265z M124.75,145.247l0.927-0.604c0.316-0.19,0.597-0.434,0.891-0.656c0.292-0.224,0.604-0.438,0.915-0.643
			c0.333-0.168,0.681-0.312,1.021-0.467l0.082,0.177l-0.495,0.288c-0.175,0.087-0.31,0.211-0.454,0.326
			c-0.155,0.103-0.241,0.285-0.365,0.423c-0.114,0.15-0.222,0.314-0.333,0.47c-0.218,0.315-0.449,0.637-0.748,0.905
			c-0.154,0.131-0.355,0.225-0.55,0.254c-0.191,0.026-0.353,0.104-0.517,0.196l-0.007,0.004l-0.001,0
			c-0.167,0.084-0.326,0.175-0.455,0.32c-0.133,0.144-0.315,0.252-0.505,0.306c-0.385,0.093-0.77,0.106-1.155,0.136
			c-0.192,0.014-0.386,0.021-0.576,0.041c-0.186,0.035-0.385,0.013-0.557,0.093c-0.177,0.064-0.355,0.116-0.521,0.219l-0.505,0.273
			l-0.084-0.129c0.309-0.208,0.611-0.432,0.93-0.625c0.338-0.156,0.685-0.307,1.028-0.436c0.342-0.134,0.699-0.237,1.031-0.401
			L124.75,145.247z"/>
	</g>
	<g>
		<path fill="#46515D" d="M120.731,142.528c0,0,0.077,0.032,0.212,0.087c0.14,0.037,0.32,0.176,0.57,0.188
			c0.122,0.019,0.253,0.039,0.393,0.06c0.139,0.023,0.289-0.021,0.441-0.03c0.154-0.015,0.314-0.024,0.459-0.102l0.448-0.178
			l0.403-0.294c0.146-0.085,0.236-0.215,0.33-0.336c0.087-0.125,0.205-0.226,0.258-0.357c0.056-0.13,0.109-0.253,0.158-0.367
			c0.123-0.221,0.099-0.441,0.142-0.58c0.025-0.144,0.039-0.227,0.039-0.227s-0.008,0.083-0.022,0.229
			c-0.035,0.14,0.013,0.368-0.108,0.596c-0.047,0.118-0.098,0.245-0.152,0.38c-0.052,0.136-0.17,0.246-0.259,0.378
			c-0.096,0.129-0.191,0.269-0.333,0.355l-0.395,0.303c-0.162,0.061-0.323,0.122-0.482,0.182c-0.152,0.075-0.318,0.082-0.477,0.093
			c-0.158,0.005-0.312,0.046-0.456,0.019c-0.144-0.026-0.279-0.05-0.405-0.073c-0.259-0.019-0.421-0.179-0.56-0.224
			C120.806,142.565,120.731,142.528,120.731,142.528z"/>
	</g>
	<g>
		<path fill="#46515D" d="M139.604,152.663c0,0-0.216,0.371-0.567,0.91c-0.166,0.277-0.394,0.576-0.646,0.891
			c-0.122,0.162-0.289,0.292-0.436,0.445c-0.143,0.161-0.323,0.28-0.507,0.395c-0.184,0.114-0.354,0.256-0.563,0.311
			c-0.2,0.074-0.397,0.147-0.588,0.218c-0.198,0.037-0.395,0.058-0.58,0.078c-0.186,0.01-0.36,0.055-0.521,0.034
			c-0.642-0.07-1.069-0.117-1.069-0.117l0.002-0.01c0,0,0.427,0.021,1.067,0.054c0.159,0.014,0.33-0.038,0.51-0.055
			c0.18-0.03,0.373-0.039,0.568-0.075c0.187-0.067,0.38-0.136,0.576-0.206c0.206-0.051,0.373-0.189,0.554-0.298
			c0.183-0.109,0.362-0.223,0.505-0.379c0.148-0.148,0.314-0.274,0.438-0.432c0.255-0.309,0.489-0.601,0.661-0.873
			c0.363-0.53,0.587-0.896,0.587-0.896L139.604,152.663z"/>
	</g>
	<g>
		<path fill="#46515D" d="M128.098,159.021c0,0-0.138,0.366-0.419,0.882c-0.28,0.512-0.723,1.178-1.349,1.666
			c-0.316,0.232-0.662,0.439-1.022,0.538c-0.354,0.12-0.707,0.13-1.002,0.118c-0.294-0.034-0.538-0.065-0.7-0.126
			c-0.165-0.048-0.258-0.075-0.258-0.075l0.003-0.01c0,0,0.096,0.019,0.263,0.051c0.166,0.042,0.406,0.07,0.695,0.087
			c0.29-0.002,0.626-0.032,0.971-0.136c0.351-0.09,0.688-0.287,1.001-0.51c0.622-0.465,1.074-1.118,1.367-1.62
			c0.292-0.506,0.441-0.869,0.441-0.869L128.098,159.021z"/>
	</g>
	<g>
		<path fill="#46515D" d="M127.294,157.407c0,0-0.643-0.196-1.297-0.285c-0.165-0.002-0.329-0.004-0.483-0.007
			c-0.155-0.011-0.295,0.023-0.419,0.035c-0.245,0.034-0.415,0.042-0.415,0.042l-0.003-0.01c0,0,0.159-0.051,0.406-0.105
			c0.124-0.025,0.267-0.081,0.427-0.057c0.158,0.007,0.327,0.014,0.496,0.021c0.33,0.073,0.66,0.136,0.894,0.226
			c0.238,0.078,0.397,0.129,0.397,0.129L127.294,157.407z"/>
	</g>
	<g>
		<path fill="#46515D" d="M133.118,154.003c0,0,0.032-0.164,0.08-0.41c0.035-0.249,0.141-0.567,0.236-0.892
			c0.075-0.151,0.15-0.303,0.221-0.444c0.057-0.152,0.175-0.25,0.256-0.347c0.167-0.19,0.289-0.304,0.289-0.304l0.007,0.007
			c0,0-0.089,0.145-0.238,0.342c-0.07,0.103-0.167,0.209-0.233,0.35c-0.073,0.136-0.151,0.281-0.229,0.426
			c-0.239,0.616-0.38,1.273-0.38,1.273L133.118,154.003z"/>
	</g>
	<path fill="#C06B62" d="M145.261,169.284l21.299-11.768c0,0-7.535-4.591-4.658-13.083c0,0-5.286,5.767-13.126,3.296
		L145.261,169.284"/>
	<path fill="#9A564E" d="M145.245,169.293l19.565-10.81c0,0-6.922-4.217-4.279-12.018c0,0-4.857,5.297-12.057,3.028L145.245,169.293
		"/>
	
		<line fill="none" stroke="#E1A850" stroke-width="0.1" stroke-miterlimit="10" x1="145.261" y1="169.284" x2="150.452" y2="166.417"/>
	<path fill="#2ECC71" d="M150.451,166.417l2.066-18.075c-1.165-0.014-2.417-0.195-3.742-0.613l-3.515,21.555L150.451,166.417z"/>
	<path fill="#25A35A" d="M150.52,166.379c0,0,1.866-16.309,1.865-16.308c-1.051-0.014-2.181-0.177-3.375-0.554l-3.172,19.45
		L150.52,166.379z"/>
	<polyline fill="#46515D" stroke="#000000" stroke-width="0.1" stroke-miterlimit="10" points="146.14,168.799 154.329,114.358 
		151.093,108.504 141.651,171.28 146.14,168.799 154.328,114.357 	"/>
	
		<rect x="10.441" y="30.863" transform="matrix(0.8753 -0.4836 0.4836 0.8753 -19.4274 32.8974)" fill="none" width="87.252" height="46.501"/>
	<text transform="matrix(0.8753 -0.4836 0.4836 0.8753 17.0225 77.2402)"><tspan x="0" y="0" fill="#46515D" font-family="'SerifGothicLT-Black'" font-size="36">u</tspan><tspan x="20.016" y="0" fill="#46515D" font-family="'SerifGothicLT'" font-size="10">ser</tspan></text>
	
		<rect x="102.979" y="151.559" transform="matrix(-0.8753 0.4836 -0.4836 -0.8753 359.4663 256.9095)" fill="none" width="87.25" height="46.5"/>
	<text transform="matrix(-0.8753 0.4836 -0.4836 -0.8753 183.6475 151.6836)"><tspan x="0" y="0" fill="#46515D" font-family="'SerifGothicLT-Black'" font-size="36">u</tspan><tspan x="20.016" y="0" fill="#46515D" font-family="'SerifGothicLT'" font-size="10">ser</tspan></text>
</g>
</svg>
