<?xml version="1.0" encoding="utf-8"?>
<!-- Generator: Adobe Illustrator 16.0.0, SVG Export Plug-In . SVG Version: 6.00 Build 0)  -->
<!DOCTYPE svg PUBLIC "-//W3C//DTD SVG 1.1//EN" "http://www.w3.org/Graphics/SVG/1.1/DTD/svg11.dtd">
<svg version="1.1" id="Layer_28" xmlns="http://www.w3.org/2000/svg" xmlns:xlink="http://www.w3.org/1999/xlink" x="0px" y="0px"
	 width="131.667px" height="213.167px" viewBox="0 0 131.667 213.167" enable-background="new 0 0 131.667 213.167"
	 xml:space="preserve">
<g id="Layer_30">
</g>
<path fill="none" stroke="#46515D" stroke-width="0.2" stroke-miterlimit="10" d="M223.798,348.905"/>
<g>
	<g>
		<rect x="-1" y="2.882" fill="#FEF9F3" width="119.695" height="191.138"/>
		<path fill="#46515D" d="M117.695,3.882V193.02H0V3.882H117.695 M119.695,1.882h-2H0h-2v2V193.02v2h2h117.695h2v-2V3.882V1.882
			L119.695,1.882z"/>
	</g>
	<g>
		<rect x="12.657" y="28.708" fill="#E1A850" width="93.667" height="139.454"/>
	</g>
	<polyline fill="#46515D" points="51.578,54.328 106.157,96.125 106.157,113.657 67.418,142.575 12.657,100.579 12.657,83.37 
		51.578,54.328 	"/>
	<g id="Layer_33">
		<g>
			<path fill="#9A564E" d="M96.593,80.308c0.998,0.873,2.527,2.281,1.973,3.63s0.153,4.328-5.055,8.703S82.24,93.579,82.24,93.579
				s1.123-9.63,5.687-13.752c0,0,5.532-1.107,6.61,0.096s1.016,0.406,1.297,0.469S96.593,80.308,96.593,80.308z"/>
			<polyline fill="#9A564E" points="74.382,71.768 65.198,80.951 78.175,90.9 86.877,92.829 88.824,83.454 87.358,81.717 
				74.382,71.768 			"/>
		</g>
	</g>
	<path fill="#46515D" d="M90.048,79.826c-2.116,0.12-2.462,0.295,2.893,3c6.705,3.388,5.758-0.248,4.025-1.86
		c-0.022,0.177-0.036,0.354-0.041,0.529c-0.02,0.801-0.021,1.603-0.017,2.227c-1.49,0.104-5.063-1.838-6.405-2.72l-0.003,0
		c-0.141-0.394-0.291-0.786-0.453-1.172"/>
	<line fill="none" stroke="#46515D" stroke-width="0.1" stroke-miterlimit="10" x1="81.103" y1="76.928" x2="81.103" y2="76.928"/>
	<path fill="#95A5A6" stroke="#46515D" stroke-width="0.1" stroke-miterlimit="10" d="M81.878,115.585l-7.346-5.632l0.002,0.001
		c0.831-1.085,1.325-2.442,1.325-3.916V81.301c0-2.493,1.415-4.656,3.486-5.728l0.001,0.001v0l7.336,5.624l0,0v-0.001
		c-2.059,1.076-3.463,3.232-3.463,5.716v24.737c0,1.482-0.5,2.848-1.341,3.937"/>
	<path fill="none" stroke="#46515D" stroke-width="0.1" stroke-miterlimit="10" d="M83.634,116.94"/>
	<path fill="#C06B62" d="M85.253,80.191c-2.059,1.076-3.463,3.232-3.463,5.716v24.738c0,1.482-0.5,2.848-1.341,3.936l0.013-0.02
		l-4.83-3.701l0.008-0.018c0.841-1.088,1.341-2.454,1.341-3.936V82.169c0-2.484,1.404-4.64,3.463-5.716l-0.011,0.015l4.837,3.709"/>
	<path fill="#C06B62" d="M85.648,80.458c-2.059,1.076-3.463,3.232-3.463,5.716v24.738c0,1.482-0.5,2.848-1.341,3.936l0.013-0.02
		l-4.83-3.701l0.008-0.018c0.841-1.088,1.341-2.453,1.341-3.936V82.436c0-2.484,1.404-4.64,3.463-5.716l-0.011,0.015l4.837,3.709"/>
	<path fill="#9A564E" d="M85.416,80.254c-2.059,1.076-3.463,3.232-3.463,5.716v24.737c0,1.482-0.5,2.848-1.341,3.937l0.013-0.02
		l-4.83-3.702l0.008-0.017c0.841-1.089,1.341-2.454,1.341-3.937V82.232c0-2.484,1.404-4.64,3.463-5.716l-0.011,0.015l4.837,3.709"/>
	<polygon fill="#2ECC71" points="76.236,73.148 51.369,92.152 26.43,73.032 51.596,54.256 	"/>
	<polygon fill="#25A35A" points="75.22,72.377 51.368,90.605 27.447,72.266 51.585,54.256 	"/>
	<polygon fill="#2ECC71" points="74.221,71.619 51.366,89.084 28.446,71.512 51.575,54.256 	"/>
	<polygon fill="#25A35A" points="73.084,70.757 51.365,87.355 29.583,70.656 51.562,54.256 	"/>
	<path fill="#25A35A" d="M34.05,67.347c3.07,6.616,9.772,11.204,17.545,11.204c7.662,0,14.283-4.457,17.411-10.92L51.562,54.256
		L34.05,67.347z"/>
	<path fill="#C06B62" d="M35.496,66.266c2.715,6.195,8.903,10.522,16.1,10.522c7.102,0,13.218-4.212,15.989-10.275L51.562,54.256
		L35.496,66.266z"/>
	<path fill="#9A564E" d="M39.49,63.285c1.698,5.057,6.476,8.7,12.105,8.7c5.556,0,10.282-3.548,12.037-8.501l-12.069-9.227
		L39.49,63.285z"/>
	<path fill="#C06B62" d="M40.461,62.563c1.437,4.788,5.877,8.278,11.134,8.278c5.216,0,9.629-3.435,11.1-8.167l-11.133-8.418
		L40.461,62.563z"/>
	<path fill="#9A564E" d="M42.15,61.174c0.945,4.349,4.817,7.607,9.45,7.607c4.567,0,8.394-3.165,9.406-7.421l-9.44-7.211
		L42.15,61.174z"/>
	<path fill="#2ECC71" d="M42.948,60.58c0.865,3.981,4.409,6.963,8.649,6.963c4.18,0,7.683-2.897,8.61-6.793l-8.641-6.601
		L42.948,60.58z"/>
	<path fill="#FEF9F3" d="M90.503,81.002c1.342,0.881,4.915,2.824,6.405,2.72c-0.004-0.625-0.003-1.426,0.017-2.227
		c0.042-1.708,1-3.542,1.196-5.333s-0.396-3.708-0.396-7.333L95.3,66.62l-6.551,1.297c0,0-1.116,6.87,0.884,10.995
		c0.326,0.674,0.613,1.379,0.866,2.089"/>
	<path fill="#FEF9F3" d="M97.809,70.756c-0.33,0.104-0.715,0.008-0.856-0.523c-0.142-0.532-0.78-3.846-0.899-4.561
		c-0.121-0.716-0.342-2.411,0.564-2.715c0.908-0.302,1.283,1.313,1.336,1.67c0.057,0.358,0.16,2.802,0.188,3.436
		c0.026,0.633,0.032,1.65-0.013,2.039c-0.046,0.388-0.087,0.503-0.203,0.578C97.809,70.756,97.809,70.756,97.809,70.756z"/>
	<path fill="#7297AE" d="M97.65,71.362c-0.219,0.028-0.406-0.384-0.422-0.918c-0.014-0.536,0.15-0.992,0.37-1.021
		c0.218-0.028,0.406,0.384,0.421,0.919C98.033,70.877,97.867,71.335,97.65,71.362z"/>
	<path fill="#D4D6D8" d="M96.811,72.045c-0.408,0.121-0.879-0.006-1.041-0.664c-0.161-0.656-0.869-4.748-1-5.63
		c-0.131-0.884-0.365-2.975,0.758-3.329c1.123-0.354,1.545,1.643,1.604,2.083c0.061,0.441,0.132,3.452,0.15,4.233
		c0.018,0.781,0.002,2.032-0.062,2.508c-0.065,0.476-0.118,0.617-0.264,0.708C96.811,72.045,96.811,72.045,96.811,72.045z"/>
	<path fill="#7297AE" d="M96.602,72.787c-0.268,0.031-0.49-0.48-0.496-1.14s0.208-1.218,0.479-1.247
		c0.268-0.03,0.49,0.48,0.496,1.14C97.084,72.198,96.871,72.758,96.602,72.787z"/>
	<path fill="#E0DFDE" d="M95.128,73.441c-0.484,0.15-1.038,0.003-1.223-0.786c-0.183-0.789-0.975-5.705-1.119-6.766
		c-0.144-1.061-0.397-3.575,0.935-4.014c1.332-0.439,1.809,1.958,1.872,2.488c0.065,0.531,0.116,4.152,0.129,5.092
		c0.013,0.939-0.021,2.445-0.103,3.019s-0.146,0.744-0.318,0.854C95.128,73.441,95.128,73.441,95.128,73.441z"/>
	<path fill="#7297AE" d="M94.873,74.338c-0.318,0.039-0.574-0.573-0.574-1.366c0.002-0.793,0.26-1.468,0.58-1.507
		c0.316-0.039,0.574,0.573,0.573,1.366C95.45,73.623,95.191,74.299,94.873,74.338z"/>
	<g>
		<path fill="#D8D7D6" d="M93.191,72.655c-0.479,0.081-1.027-0.107-1.211-0.819c-0.184-0.711-0.98-5.104-1.126-6.05
			s-0.402-3.177,0.915-3.42c1.316-0.243,1.793,1.909,1.859,2.381c0.065,0.472,0.125,3.652,0.141,4.478
			c0.014,0.825-0.016,2.142-0.095,2.636s-0.142,0.638-0.313,0.716C93.191,72.655,93.191,72.655,93.191,72.655z"/>
		<ellipse fill="#7297AE" cx="92.94" cy="72.155" rx="0.57" ry="1.259"/>
	</g>
	<g id="Layer_14">
		<polygon fill="#7F7F7E" points="105.308,32.53 93.221,32.53 85.465,71.903 97.551,71.903 		"/>
		<polygon fill="#3D3D3D" points="104.941,32.53 92.886,32.53 85.148,71.903 97.204,71.903 		"/>
		<polygon fill="#C0C4C8" points="104.122,33.28 93.45,33.28 86.602,68.132 97.273,68.132 		"/>
		<g>
			<path fill="#7F8C8D" d="M91.035,71.365c-0.038,0-0.075-0.003-0.112-0.011c-0.228-0.046-0.416-0.227-0.53-0.511
				c-0.117-0.292-0.141-0.653-0.068-1.019c0.135-0.681,0.576-1.193,1.027-1.193c0.038,0,0.075,0.003,0.112,0.011
				c0.228,0.046,0.416,0.227,0.53,0.511c0.117,0.292,0.141,0.653,0.068,1.018C91.928,70.852,91.486,71.365,91.035,71.365z"/>
			<path fill="#95A5A6" d="M91.352,68.581v0.1c0.034,0,0.068,0.003,0.103,0.01c0.21,0.042,0.386,0.212,0.494,0.48
				c0.113,0.283,0.137,0.634,0.065,0.99c-0.13,0.658-0.55,1.154-0.978,1.154c-0.034,0-0.068-0.003-0.103-0.01
				c-0.21-0.042-0.386-0.212-0.494-0.48c-0.113-0.282-0.137-0.634-0.065-0.99c0.13-0.658,0.55-1.153,0.978-1.153V68.581
				 M91.352,68.581c-0.468,0-0.935,0.521-1.076,1.234c-0.155,0.775,0.132,1.487,0.638,1.588c0.041,0.008,0.082,0.012,0.122,0.012
				c0.468,0,0.935-0.52,1.076-1.234c0.155-0.775-0.132-1.486-0.638-1.587C91.433,68.585,91.393,68.581,91.352,68.581L91.352,68.581z
				"/>
		</g>
	</g>
	<g>
		<path fill="#FEF9F3" d="M89.75,79.519c-2.187-1.864-3.049-3.015-3.236-5.188c-0.187-2.173-0.471-2.251-0.184-3.535
			c0.289-1.284,1.984-5.999,2.716-8.09s2.286,0.907,1.421,3.303c-0.863,2.396-1.352,3.494-0.888,4.678s3.667,3.22,4.282,6.08
			c0,0,0.463,2.135-0.143,2.757s-1.895,1.059-2.476,0.782C90.662,80.031,89.75,79.519,89.75,79.519z"/>
		<linearGradient id="SVGID_1_" gradientUnits="userSpaceOnUse" x1="93.2104" y1="70.3359" x2="85.736" y2="73.0564">
			<stop  offset="0.102" style="stop-color:#C0C4C8"/>
			<stop  offset="0.2002" style="stop-color:#C8CBCE"/>
			<stop  offset="0.7257" style="stop-color:#EFECE9"/>
			<stop  offset="1" style="stop-color:#FEF9F3"/>
		</linearGradient>
		<path fill="url(#SVGID_1_)" d="M89.747,79.522c0,0-0.128-0.112-0.368-0.321c-0.245-0.204-0.586-0.521-1.012-0.937
			c-0.396-0.438-0.916-0.96-1.284-1.711c-0.399-0.737-0.555-1.681-0.659-2.689c-0.056-0.506-0.125-1.032-0.215-1.573
			c-0.073-0.552-0.021-1.13,0.142-1.696c0.358-1.11,0.735-2.282,1.125-3.493c0.424-1.2,0.863-2.44,1.309-3.701
			c0.116-0.312,0.203-0.641,0.348-0.945c0.074-0.145,0.16-0.313,0.314-0.4c0.064-0.067,0.164-0.056,0.25-0.075
			c0.08,0.033,0.18,0.038,0.24,0.104c0.53,0.462,0.688,1.188,0.778,1.849c0.076,0.677,0.021,1.374-0.195,2.022
			c-0.224,0.638-0.446,1.273-0.667,1.903c-0.208,0.63-0.412,1.271-0.406,1.919c0.014,0.16,0.029,0.32,0.052,0.478
			c0.049,0.149,0.082,0.316,0.144,0.448l0.25,0.414c0.095,0.127,0.205,0.24,0.305,0.361c0.846,0.934,1.757,1.784,2.447,2.73
			c0.37,0.458,0.632,0.967,0.892,1.455c0.17,0.523,0.389,1.022,0.439,1.534c0.069,0.505,0.114,0.998,0.063,1.464
			c-0.024,0.463-0.234,0.92-0.604,1.131c-0.688,0.463-1.432,0.686-2.025,0.576c-0.557-0.214-0.945-0.481-1.233-0.616
			C89.897,79.603,89.747,79.522,89.747,79.522z M89.753,79.515c0,0,0.15,0.078,0.432,0.225c0.287,0.132,0.685,0.398,1.233,0.603
			c0.577,0.104,1.321-0.127,1.989-0.585c0.372-0.223,0.545-0.64,0.573-1.102c0.044-0.458-0.005-0.946-0.08-1.446
			c-0.056-0.507-0.277-0.993-0.45-1.505c-0.263-0.478-0.515-0.983-0.883-1.437c-0.685-0.942-1.584-1.78-2.443-2.732
			c-0.103-0.124-0.216-0.242-0.312-0.372l-0.249-0.414c-0.073-0.158-0.101-0.316-0.153-0.475c-0.024-0.164-0.04-0.33-0.054-0.495
			c-0.004-0.67,0.203-1.317,0.415-1.948c0.226-0.629,0.453-1.263,0.681-1.899c0.217-0.634,0.276-1.322,0.206-1.991
			c-0.083-0.652-0.243-1.376-0.745-1.818c-0.058-0.064-0.146-0.064-0.218-0.098c-0.076,0.02-0.164,0.003-0.224,0.067
			c-0.143,0.079-0.227,0.234-0.301,0.38c-0.147,0.303-0.234,0.625-0.354,0.939c-0.438,1.262-0.868,2.504-1.285,3.706
			c-0.382,1.214-0.751,2.387-1.102,3.5c-0.379,1.125,0.008,2.229,0.065,3.239c0.096,1.013,0.239,1.941,0.628,2.677
			c0.359,0.748,0.871,1.273,1.263,1.713c0.421,0.418,0.76,0.739,1.002,0.945C89.626,79.402,89.753,79.515,89.753,79.515z"/>
	</g>
	<path fill="none" stroke="#25A35A" stroke-width="0.1" stroke-miterlimit="10" d="M88.648,77.31"/>
	<g id="Layer_23">
		<path fill="#FEF9F3" d="M44.629,64.792c1.959,1.932,4.65,3.124,7.619,3.125c4.697,0,8.696-2.983,10.207-7.159
			c0.081-0.225,0.155-0.454,0.221-0.687c0,0,3.689-12.11,1.564-31.364H47.185L32.428,50.141l4.33,5.461l0.006,0
			c0.074,0.786,0.735,1.401,1.541,1.401c0.427,0,0.814-0.173,1.094-0.453l-0.025,0.006c1.931,7.337,8.425,10.406,8.425,10.406"/>
	</g>
	<path fill="none" stroke="#46515D" stroke-width="0.2" stroke-miterlimit="10" d="M44.511,47.186"/>
	<g>
		<path fill="#46515D" d="M52.292,43.193c0,0-0.132-0.061-0.354-0.181c-0.227-0.107-0.526-0.319-0.904-0.503
			c-0.183-0.102-0.38-0.212-0.589-0.328c-0.22-0.09-0.442-0.199-0.675-0.304c-0.224-0.131-0.487-0.163-0.737-0.262
			c-0.25-0.108-0.527-0.105-0.798-0.147c-0.271-0.049-0.548-0.044-0.822-0.016c-0.273,0.026-0.546,0.014-0.805,0.069
			c-0.515,0.113-1.01,0.171-1.419,0.291c-0.823,0.23-1.372,0.384-1.372,0.384l-0.018-0.047c0,0,0.536-0.202,1.339-0.505
			c0.401-0.157,0.896-0.263,1.418-0.409c0.261-0.073,0.547-0.082,0.831-0.126c0.285-0.048,0.576-0.072,0.874-0.041
			c0.295,0.02,0.599-0.004,0.881,0.088c0.281,0.078,0.582,0.112,0.83,0.24c0.248,0.128,0.495,0.237,0.713,0.368
			c0.204,0.148,0.396,0.288,0.574,0.417c0.355,0.26,0.6,0.515,0.785,0.689c0.181,0.175,0.279,0.283,0.279,0.283L52.292,43.193z"/>
	</g>
	<g id="Layer_22">
		<path fill="#FEF9F3" stroke="#46515D" stroke-width="0.1" stroke-miterlimit="10" d="M64.9,41.425
			c-4.741-2.345-8.748-7.857-9.577-10.222c0,0-2.917,9.083-13.917,9.5c0,0-0.542,23.25-24.229,30.625l32.329-42.621H64.24
			c0.518,4.686,0.69,8.948,0.656,12.716"/>
	</g>
	<path fill="#7297AE" d="M61.78,45.64c-0.897-0.147-1.597,0.049-2.083,0.184c-0.066,0.193-0.104,0.407-0.104,0.632
		c0,0.854,0.529,1.547,1.183,1.547s1.183-0.692,1.183-1.547c0-0.321-0.074-0.618-0.201-0.865"/>
	<path fill="#7297AE" d="M49.273,45.918c-0.645-0.482-1.905-0.154-2.424,0c-0.117,0.227-0.184,0.49-0.184,0.77
		c0,0.854,0.623,1.547,1.391,1.547s1.391-0.692,1.391-1.547c0-0.283-0.068-0.549-0.188-0.777"/>
	<ellipse fill="#46515D" cx="48.056" cy="46.688" rx="0.731" ry="0.814"/>
	<ellipse fill="#46515D" cx="60.776" cy="46.5" rx="0.641" ry="0.839"/>
	<path fill="none" stroke="#000000" stroke-width="0.1" stroke-miterlimit="10" d="M50.559,55.457"/>
	<g>
		<path d="M56.539,43.173c-0.092,0.283-0.222,0.558-0.26,0.854c-0.071,0.289-0.088,0.587-0.111,0.883
			c-0.013,0.594,0.01,1.188,0.087,1.779c0.075,0.588,0.188,1.18,0.237,1.776c0.055,0.595,0.152,1.185,0.166,1.785
			c0.072,1.195,0.115,2.391,0.133,3.585c-0.007,0.294,0.029,0.605-0.018,0.901c-0.051,0.299-0.171,0.605-0.387,0.826
			c-0.209,0.221-0.472,0.41-0.776,0.476c-0.148,0.046-0.298,0.054-0.462,0.052l-0.442-0.071l-0.082-0.013l0.05-0.066l0.001-0.001
			l0.018,0.075c-0.16-0.07-0.33-0.114-0.507-0.134c-0.178-0.012-0.356-0.014-0.536,0.002c-0.358,0.031-0.714,0.099-1.07,0.167
			c-0.356,0.069-0.713,0.146-1.083,0.169c-0.184,0.01-0.374,0.006-0.558-0.054c-0.091-0.036-0.181-0.076-0.247-0.154
			c-0.084-0.06-0.099-0.168-0.148-0.251l-0.001-0.002l-0.001-0.006l-0.022-0.291l0-0.004c0.01-0.175,0.039-0.347,0.096-0.512
			c0.063-0.163,0.148-0.313,0.254-0.45c0.112-0.133,0.241-0.246,0.384-0.341c0.148-0.088,0.306-0.153,0.472-0.197
			c-0.164,0.05-0.318,0.121-0.461,0.213c-0.138,0.1-0.26,0.216-0.364,0.349c-0.098,0.138-0.175,0.287-0.23,0.445
			c-0.049,0.161-0.07,0.326-0.073,0.493l0-0.003l0.034,0.289l-0.002-0.008c0.048,0.068,0.06,0.163,0.134,0.207
			c0.054,0.064,0.13,0.098,0.209,0.129c0.162,0.053,0.341,0.059,0.519,0.049c0.357-0.023,0.713-0.099,1.069-0.168
			c0.357-0.069,0.716-0.138,1.082-0.169c0.184-0.016,0.368-0.015,0.553-0.002c0.186,0.021,0.367,0.067,0.542,0.144l0.056,0.024
			l-0.038,0.051L54.753,56l-0.032-0.079l0.442,0.071c0.129-0.001,0.288-0.006,0.421-0.05c0.285-0.061,0.531-0.239,0.727-0.446
			c0.205-0.21,0.312-0.487,0.363-0.769c0.046-0.298,0.009-0.586,0.017-0.889c-0.018-1.194-0.06-2.387-0.132-3.577
			c-0.014-0.596-0.11-1.188-0.166-1.783c-0.05-0.596-0.161-1.179-0.237-1.775c-0.081-0.594-0.101-1.198-0.057-1.796
			c0.034-0.298,0.063-0.597,0.147-0.888C56.296,43.721,56.436,43.454,56.539,43.173z"/>
	</g>
	<g>
		<path fill="#46515D" d="M63.782,41.916c0,0-0.492-0.091-1.23-0.228c-0.368-0.087-0.803-0.1-1.261-0.151
			c-0.458-0.072-0.95-0.025-1.437-0.018c-0.245-0.002-0.476,0.083-0.708,0.117l-0.343,0.066l-0.312,0.121
			c-0.204,0.075-0.419,0.119-0.583,0.23c-0.168,0.101-0.354,0.17-0.488,0.281c-0.127,0.118-0.26,0.214-0.374,0.309
			c-0.116,0.091-0.176,0.208-0.255,0.282c-0.146,0.165-0.23,0.259-0.23,0.259l-0.045-0.021c0,0,0.038-0.119,0.125-0.33
			c0.048-0.102,0.083-0.246,0.183-0.37c0.098-0.125,0.204-0.276,0.336-0.429c0.136-0.147,0.327-0.255,0.51-0.399
			c0.178-0.162,0.422-0.205,0.651-0.305c0.119-0.038,0.239-0.076,0.361-0.115l0.381-0.042c0.256-0.016,0.515-0.079,0.771-0.053
			c0.513,0.029,1.025,0.021,1.493,0.13c0.469,0.083,0.909,0.145,1.264,0.268c0.721,0.21,1.202,0.35,1.202,0.35L63.782,41.916z"/>
	</g>
	<g>
		<path d="M50.555,47.187c-0.36-0.452-0.72-0.928-1.232-1.199c-0.125-0.072-0.256-0.128-0.394-0.168
			c-0.132-0.057-0.279-0.061-0.418-0.092c-0.285-0.03-0.572-0.022-0.858,0.019c-0.282,0.057-0.565,0.117-0.836,0.222
			c-0.278,0.083-0.536,0.22-0.802,0.334c-0.523,0.254-1.007,0.579-1.488,0.904l0.007-0.037c0.345,0.462,0.818,0.819,1.328,1.083
			c0.51,0.265,1.077,0.427,1.65,0.44c0.286,0.015,0.575-0.021,0.852-0.088c0.139-0.034,0.282-0.058,0.413-0.119
			c0.132-0.056,0.272-0.095,0.398-0.166c0.256-0.134,0.504-0.282,0.728-0.466c0.241-0.163,0.431-0.386,0.651-0.577l-0.002,0.005
			L50.555,47.187z M50.563,47.184l0.003,0.098v0.003l-0.002,0.002c-0.211,0.2-0.389,0.438-0.629,0.607
			c-0.222,0.192-0.469,0.349-0.726,0.492c-0.126,0.076-0.269,0.119-0.402,0.181c-0.133,0.065-0.278,0.094-0.42,0.132
			c-0.284,0.075-0.583,0.106-0.877,0.091c-0.59-0.016-1.17-0.185-1.69-0.457c-0.521-0.272-0.987-0.653-1.33-1.133l-0.016-0.022
			l0.023-0.016c0.485-0.324,0.986-0.621,1.501-0.895c0.265-0.121,0.521-0.265,0.8-0.354c0.271-0.112,0.557-0.179,0.843-0.243
			c0.291-0.044,0.586-0.07,0.881-0.029c0.144,0.035,0.294,0.043,0.431,0.104c0.142,0.044,0.276,0.104,0.403,0.182
			C49.879,46.218,50.234,46.711,50.563,47.184z"/>
	</g>
	<g>
		<path d="M57.298,47.204c0.388-0.412,0.873-0.73,1.373-0.993c0.503-0.261,1.039-0.466,1.598-0.575
			c0.277-0.057,0.562-0.098,0.847-0.09c0.283-0.006,0.572,0.034,0.838,0.132c0.142,0.031,0.255,0.124,0.382,0.188
			c0.125,0.067,0.213,0.188,0.322,0.279c0.081,0.116,0.156,0.24,0.227,0.363l0.132,0.408l0.001,0.003l-0.001,0.005
			c-0.09,0.551-0.453,1.062-0.969,1.297c-0.125,0.066-0.255,0.117-0.393,0.146c-0.134,0.044-0.271,0.067-0.411,0.075
			c-0.277,0.045-0.556,0.01-0.833-0.001c-0.271-0.054-0.552-0.068-0.815-0.156c-0.265-0.079-0.535-0.143-0.789-0.251
			c-0.521-0.183-1.016-0.425-1.51-0.667l-0.005-0.003l0-0.005L57.298,47.204z M57.307,47.208l0.004,0.152l-0.005-0.008
			c0.508,0.211,1.004,0.445,1.527,0.611c0.255,0.101,0.523,0.157,0.787,0.228c0.261,0.084,0.535,0.101,0.802,0.154
			c0.27,0.011,0.543,0.047,0.811,0.004c0.136-0.007,0.269-0.029,0.397-0.071c0.133-0.027,0.258-0.075,0.377-0.138
			c0.489-0.22,0.854-0.693,0.954-1.222l0,0.008l-0.122-0.4c-0.066-0.121-0.137-0.243-0.213-0.357
			c-0.104-0.09-0.188-0.209-0.31-0.278c-0.122-0.067-0.237-0.15-0.376-0.179c-0.264-0.09-0.547-0.123-0.826-0.11
			c-0.28-0.001-0.559,0.044-0.832,0.106c-0.275,0.055-0.54,0.149-0.806,0.237c-0.265,0.092-0.522,0.205-0.776,0.325
			C58.2,46.525,57.722,46.822,57.307,47.208z"/>
	</g>
	<g>
		<path fill="#46515D" d="M53.653,59.647l1.108,0.041c0.371-0.006,0.738,0.051,1.107,0.085c0.37,0.036,0.733,0.053,1.098,0.063
			c0.364-0.046,0.728-0.056,1.093-0.084l0.012,0.154l-0.582-0.023c-0.193,0.005-0.389-0.042-0.583-0.082
			c-0.2-0.022-0.363-0.146-0.546-0.214c-0.176-0.082-0.344-0.175-0.516-0.262c-0.338-0.18-0.693-0.349-1.06-0.434
			c-0.186-0.036-0.367-0.027-0.548,0.038c-0.183,0.07-0.39,0.083-0.588,0.079h0.009c-0.197,0.011-0.408,0.004-0.593-0.061
			c-0.184-0.059-0.355-0.059-0.535-0.019c-0.357,0.1-0.697,0.273-1.044,0.443c-0.174,0.084-0.342,0.174-0.521,0.255
			c-0.186,0.066-0.351,0.187-0.555,0.208c-0.198,0.037-0.397,0.083-0.59,0.075l-0.584,0.016l0.015-0.194
			c0.364,0.032,0.727,0.049,1.09,0.095c0.364-0.009,0.728-0.023,1.097-0.058c0.369-0.03,0.735-0.093,1.107-0.09L53.653,59.647z
			 M53.653,59.667l-1.104,0.081c-0.369,0.014-0.732,0.091-1.097,0.143c-0.364,0.055-0.74,0.092-1.112,0.121
			c-0.373-0.015-0.747-0.057-1.119-0.085l0.014-0.194l0.573-0.013c0.195,0.008,0.373-0.035,0.555-0.066
			c0.186-0.014,0.348-0.132,0.524-0.193c0.173-0.076,0.346-0.167,0.519-0.25c0.343-0.171,0.701-0.34,1.092-0.43
			c0.199-0.04,0.42-0.025,0.604,0.043c0.18,0.07,0.359,0.08,0.547,0.078h0.008h0.001c0.187,0.008,0.37,0.004,0.553-0.06
			c0.186-0.062,0.398-0.069,0.591-0.024c0.382,0.104,0.726,0.279,1.077,0.44c0.175,0.081,0.348,0.169,0.524,0.244
			c0.179,0.059,0.343,0.175,0.533,0.188c0.186,0.03,0.367,0.071,0.562,0.06l0.574,0.005l0.011,0.154
			c-0.371,0.032-0.743,0.082-1.116,0.097c-0.371-0.027-0.748-0.062-1.111-0.116c-0.364-0.048-0.726-0.131-1.096-0.148L53.653,59.667
			z"/>
	</g>
	<g>
		<path fill="#46515D" d="M55.855,63.991c0,0-0.052-0.065-0.144-0.179c-0.104-0.1-0.194-0.309-0.408-0.44
			c-0.098-0.075-0.203-0.157-0.315-0.243c-0.11-0.088-0.263-0.121-0.401-0.188c-0.142-0.062-0.287-0.13-0.452-0.133
			c-0.158-0.02-0.318-0.041-0.478-0.061c-0.166,0.021-0.332,0.042-0.495,0.062c-0.17,0.003-0.311,0.074-0.452,0.135
			c-0.136,0.067-0.288,0.098-0.398,0.187c-0.112,0.087-0.218,0.169-0.316,0.245c-0.214,0.134-0.3,0.338-0.405,0.439
			c-0.092,0.114-0.144,0.18-0.144,0.18s0.047-0.069,0.13-0.189c0.099-0.105,0.167-0.329,0.383-0.47
			c0.098-0.08,0.205-0.167,0.317-0.258c0.111-0.094,0.268-0.132,0.41-0.205c0.146-0.066,0.297-0.143,0.462-0.149
			c0.163-0.024,0.328-0.049,0.493-0.074c0.17,0.025,0.341,0.05,0.509,0.074c0.17,0.008,0.318,0.082,0.463,0.149
			c0.141,0.072,0.295,0.11,0.408,0.204c0.113,0.092,0.221,0.179,0.319,0.259c0.218,0.143,0.282,0.361,0.382,0.467
			C55.808,63.922,55.855,63.991,55.855,63.991z"/>
	</g>
	<g>
		<path fill="#46515D" d="M44.238,45.991c0,0,0.368-0.22,0.936-0.522c0.279-0.162,0.624-0.313,0.997-0.467
			c0.185-0.082,0.394-0.116,0.596-0.178c0.203-0.071,0.418-0.089,0.635-0.101c0.216-0.011,0.433-0.053,0.644,0
			c0.211,0.032,0.419,0.063,0.62,0.094c0.191,0.064,0.374,0.141,0.545,0.213c0.167,0.08,0.341,0.125,0.472,0.222
			c0.528,0.372,0.879,0.619,0.879,0.619l-0.006,0.008c0,0-0.364-0.225-0.909-0.563c-0.133-0.09-0.307-0.127-0.473-0.199
			c-0.172-0.06-0.346-0.146-0.533-0.208c-0.196-0.032-0.398-0.065-0.604-0.098c-0.205-0.055-0.418-0.015-0.629-0.007
			c-0.212,0.007-0.424,0.021-0.625,0.087c-0.201,0.058-0.408,0.088-0.592,0.166c-0.373,0.147-0.719,0.289-1.001,0.444
			c-0.574,0.288-0.947,0.5-0.947,0.5L44.238,45.991z"/>
	</g>
	<g>
		<path fill="#46515D" d="M57.383,45.992c0,0,0.298-0.253,0.793-0.569c0.493-0.313,1.203-0.681,1.987-0.806
			c0.389-0.05,0.792-0.065,1.155,0.024c0.368,0.066,0.682,0.228,0.934,0.381c0.241,0.172,0.439,0.317,0.552,0.449
			c0.121,0.122,0.189,0.191,0.189,0.191l-0.007,0.007c0,0-0.075-0.062-0.206-0.172c-0.125-0.117-0.321-0.257-0.566-0.412
			c-0.255-0.138-0.563-0.275-0.916-0.351c-0.35-0.09-0.742-0.081-1.123-0.037c-0.77,0.106-1.481,0.459-1.98,0.757
			C57.694,45.754,57.389,46,57.389,46L57.383,45.992z"/>
	</g>
	<g>
		<path fill="#46515D" d="M57.306,47.794c0,0,0.469,0.482,0.999,0.877c0.143,0.082,0.286,0.163,0.42,0.239
			c0.13,0.084,0.27,0.122,0.383,0.172c0.231,0.088,0.383,0.163,0.383,0.163l-0.002,0.01c0,0-0.164-0.032-0.407-0.104
			c-0.12-0.038-0.272-0.059-0.401-0.157c-0.135-0.083-0.279-0.17-0.423-0.259c-0.253-0.224-0.512-0.438-0.674-0.629
			c-0.171-0.183-0.285-0.305-0.285-0.305L57.306,47.794z"/>
	</g>
	<g>
		<path fill="#46515D" d="M50.563,47.957c0,0-0.107,0.128-0.268,0.32c-0.15,0.201-0.397,0.429-0.638,0.666
			c-0.139,0.096-0.278,0.192-0.408,0.282c-0.124,0.105-0.274,0.134-0.393,0.179c-0.239,0.085-0.4,0.126-0.4,0.126l-0.003-0.01
			c0,0,0.148-0.083,0.374-0.184c0.11-0.057,0.248-0.102,0.373-0.193c0.13-0.084,0.268-0.173,0.406-0.262
			c0.507-0.423,0.949-0.931,0.948-0.931L50.563,47.957z"/>
	</g>
	<path fill="#C06B62" d="M47.325,28.708H22.99c0,0,4.375,7.663-2.25,13.705c0,0,7.417-2.492,13.083,3.462L47.325,28.708"/>
	<path fill="#9A564E" d="M47.343,28.708H24.991c0,0,4.019,7.039-2.066,12.588c0,0,6.812-2.289,12.017,3.18L47.343,28.708"/>
	<line fill="none" stroke="#E1A850" stroke-width="0.1" stroke-miterlimit="10" x1="47.325" y1="28.708" x2="41.396" y2="28.708"/>
	<path fill="#2ECC71" d="M41.396,28.708c0,0-10.551,14.82-10.55,14.82c1.013,0.576,2.021,1.341,2.978,2.347l13.501-17.167H41.396z"
		/>
	<path fill="#25A35A" d="M41.383,28.708c0,0-9.521,13.372-9.52,13.372c0.914,0.52,1.823,1.209,2.687,2.117l12.182-15.489H41.383z"/>
	<g id="Layer_31">
		<polyline fill="#46515D" stroke="#000000" stroke-width="0.1" stroke-miterlimit="10" points="46.321,28.708 12.824,72.398 
			12.824,79.086 51.449,28.708 46.321,28.708 12.824,72.399 		"/>
	</g>
	<g>
		<path fill="#9A564E" d="M22.39,116.561c-0.998-0.872-2.527-2.28-1.973-3.63s-0.154-4.328,5.055-8.703
			c5.207-4.375,11.27-0.938,11.27-0.938s-1.123,9.63-5.686,13.752c0,0-5.533,1.107-6.611-0.096s-1.016-0.406-1.297-0.469
			S22.39,116.561,22.39,116.561z"/>
		<polyline fill="#9A564E" points="44.601,125.101 53.785,115.917 40.808,105.968 32.105,104.041 30.158,113.416 31.625,115.152 
			44.601,125.101 		"/>
	</g>
	<path fill="#46515D" d="M28.935,117.042c2.115-0.119,2.461-0.295-2.893-3c-6.705-3.389-5.758,0.248-4.025,1.86
		c0.021-0.177,0.035-0.354,0.041-0.528c0.02-0.802,0.02-1.604,0.016-2.228c1.49-0.104,5.064,1.839,6.406,2.72h0.002
		c0.141,0.395,0.291,0.787,0.453,1.173"/>
	<line fill="none" stroke="#46515D" stroke-width="0.1" stroke-miterlimit="10" x1="37.88" y1="119.941" x2="37.88" y2="119.941"/>
	<path fill="#95A5A6" stroke="#46515D" stroke-width="0.1" stroke-miterlimit="10" d="M37.105,81.284l7.346,5.631h-0.002
		c-0.832,1.085-1.326,2.442-1.326,3.916v24.737c0,2.493-1.414,4.656-3.486,5.729v-0.002l0,0l-7.336-5.625l0,0v0.002
		c2.059-1.076,3.463-3.232,3.463-5.716V85.217c0-1.482,0.5-2.848,1.34-3.936"/>
	<path fill="none" stroke="#46515D" stroke-width="0.1" stroke-miterlimit="10" d="M35.349,79.928"/>
	<path fill="#C06B62" d="M33.73,116.677c2.059-1.076,3.463-3.231,3.463-5.715V86.223c0-1.482,0.5-2.848,1.34-3.936l-0.012,0.02
		l4.83,3.701l-0.008,0.018c-0.842,1.089-1.342,2.454-1.342,3.937v24.738c0,2.483-1.404,4.639-3.463,5.715l0.012-0.014l-4.838-3.709"
		/>
	<path fill="#C06B62" d="M33.333,116.412c2.059-1.076,3.463-3.232,3.463-5.717V85.958c0-1.482,0.5-2.848,1.342-3.936l-0.014,0.02
		l4.83,3.701l-0.008,0.018c-0.84,1.088-1.34,2.453-1.34,3.937v24.736c0,2.484-1.404,4.641-3.463,5.717l0.01-0.016l-4.836-3.709"/>
	<path fill="#9A564E" d="M33.566,116.615c2.059-1.076,3.463-3.232,3.463-5.716V86.161c0-1.482,0.5-2.848,1.342-3.936l-0.014,0.02
		l4.83,3.701l-0.008,0.018c-0.84,1.088-1.34,2.454-1.34,3.937v24.737c0,2.483-1.404,4.64-3.463,5.716l0.01-0.015l-4.836-3.709"/>
	<polygon fill="#2ECC71" points="42.746,123.721 67.612,104.716 92.552,123.837 67.386,142.613 	"/>
	<polygon fill="#25A35A" points="43.763,124.492 67.614,106.263 91.534,124.603 67.396,142.613 	"/>
	<polygon fill="#2ECC71" points="44.761,125.25 67.616,107.785 90.536,125.357 67.407,142.613 	"/>
	<polygon fill="#25A35A" points="45.898,126.113 67.616,109.513 89.399,126.213 67.419,142.613 	"/>
	<path fill="#25A35A" d="M84.931,129.522c-3.07-6.616-9.771-11.204-17.545-11.204c-7.661,0-14.283,4.457-17.41,10.92l17.443,13.375
		L84.931,129.522z"/>
	<path fill="#C06B62" d="M83.485,130.603c-2.715-6.195-8.902-10.522-16.1-10.522c-7.101,0-13.216,4.212-15.988,10.274l16.021,12.258
		L83.485,130.603z"/>
	<path fill="#9A564E" d="M79.491,133.583c-1.697-5.057-6.477-8.699-12.105-8.699c-5.555,0-10.281,3.548-12.035,8.502l12.068,9.227
		L79.491,133.583z"/>
	<path fill="#C06B62" d="M78.521,134.306c-1.438-4.789-5.877-8.279-11.135-8.278c-5.215,0-9.628,3.435-11.099,8.167l11.132,8.418
		L78.521,134.306z"/>
	<path fill="#9A564E" d="M76.831,135.695c-0.945-4.35-4.816-7.607-9.449-7.607c-4.566,0-8.392,3.165-9.406,7.422l9.439,7.21
		L76.831,135.695z"/>
	<path fill="#2ECC71" d="M76.034,136.29c-0.865-3.981-4.41-6.964-8.65-6.964c-4.18,0-7.683,2.897-8.609,6.793l8.64,6.601
		L76.034,136.29z"/>
	<path fill="#FEF9F3" d="M28.48,115.867c-1.342-0.881-4.916-2.824-6.406-2.72c0.004,0.624,0.004,1.426-0.016,2.228
		c-0.043,1.708-1,3.541-1.197,5.332c-0.195,1.792,0.396,3.709,0.396,7.334l2.426,2.209l6.551-1.297c0,0,1.115-6.871-0.885-10.996
		c-0.326-0.674-0.613-1.379-0.865-2.088"/>
	<path fill="#FEF9F3" d="M21.173,126.113c0.33-0.104,0.715-0.008,0.857,0.523c0.141,0.533,0.779,3.846,0.898,4.561
		c0.121,0.717,0.342,2.412-0.564,2.715c-0.908,0.303-1.283-1.312-1.336-1.67c-0.057-0.357-0.16-2.801-0.188-3.436
		c-0.025-0.633-0.031-1.65,0.014-2.039c0.045-0.387,0.086-0.502,0.203-0.578C21.173,126.113,21.173,126.113,21.173,126.113z"/>
	<path fill="#7297AE" d="M21.332,125.507c0.219-0.029,0.406,0.383,0.422,0.918c0.014,0.535-0.15,0.992-0.369,1.02
		c-0.219,0.029-0.406-0.383-0.422-0.918C20.949,125.992,21.115,125.535,21.332,125.507z"/>
	<path fill="#D4D6D8" d="M22.171,124.824c0.408-0.121,0.879,0.006,1.041,0.664c0.162,0.656,0.869,4.748,1,5.631
		c0.131,0.884,0.365,2.975-0.758,3.329c-1.123,0.354-1.545-1.643-1.604-2.083c-0.061-0.441-0.131-3.451-0.15-4.232
		c-0.018-0.781-0.002-2.033,0.062-2.508c0.066-0.477,0.119-0.617,0.264-0.709S22.171,124.824,22.171,124.824z"/>
	<path fill="#7297AE" d="M22.38,124.082c0.268-0.031,0.49,0.48,0.496,1.141c0.006,0.658-0.207,1.217-0.479,1.246
		c-0.268,0.031-0.49-0.48-0.496-1.139C21.898,124.671,22.111,124.111,22.38,124.082z"/>
	<path fill="#E0DFDE" d="M23.855,123.427c0.484-0.15,1.037-0.002,1.223,0.787c0.182,0.789,0.975,5.705,1.119,6.766
		c0.143,1.061,0.396,3.574-0.936,4.014c-1.332,0.438-1.809-1.959-1.871-2.488c-0.066-0.531-0.117-4.152-0.129-5.092
		c-0.014-0.939,0.02-2.445,0.102-3.02c0.082-0.572,0.146-0.744,0.318-0.854C23.855,123.427,23.855,123.427,23.855,123.427z"/>
	<path fill="#7297AE" d="M24.109,122.531c0.318-0.039,0.574,0.574,0.574,1.367c-0.002,0.793-0.26,1.467-0.58,1.506
		c-0.316,0.039-0.574-0.572-0.572-1.365S23.791,122.57,24.109,122.531z"/>
	<g>
		<path fill="#D8D7D6" d="M25.791,124.214c0.479-0.082,1.027,0.107,1.211,0.818s0.98,5.105,1.127,6.051
			c0.145,0.945,0.402,3.176-0.916,3.42c-1.316,0.242-1.793-1.91-1.859-2.381c-0.064-0.473-0.125-3.652-0.141-4.479
			c-0.014-0.824,0.016-2.141,0.096-2.635c0.078-0.494,0.141-0.639,0.312-0.717C25.791,124.214,25.791,124.214,25.791,124.214z"/>
		<path fill="#7297AE" d="M26.041,123.455c0.314,0,0.57,0.562,0.572,1.258c0,0.695-0.254,1.26-0.57,1.26
			c-0.312,0-0.57-0.562-0.57-1.258C25.47,124.019,25.726,123.455,26.041,123.455z"/>
	</g>
	<polygon fill="#7F7F7E" points="13.675,164.338 25.761,164.338 33.517,124.966 21.431,124.966 	"/>
	<polygon fill="#3D3D3D" points="14.041,164.338 26.097,164.338 33.833,124.966 21.779,124.966 	"/>
	<polygon fill="#C0C4C8" points="14.861,163.589 25.533,163.589 32.38,128.737 21.708,128.737 	"/>
	<g>
		<path fill="#7F8C8D" d="M27.631,128.238c-0.038,0-0.075-0.003-0.112-0.011c-0.228-0.045-0.416-0.227-0.53-0.511
			c-0.117-0.291-0.142-0.652-0.069-1.018c0.135-0.681,0.577-1.194,1.027-1.194c0.038,0,0.076,0.003,0.113,0.011
			c0.228,0.046,0.416,0.228,0.53,0.511c0.117,0.291,0.141,0.653,0.068,1.018C28.524,127.725,28.083,128.238,27.631,128.238z"/>
		<path fill="#95A5A6" d="M27.947,125.554L27.947,125.554c0.035,0,0.069,0.003,0.104,0.01c0.21,0.042,0.386,0.213,0.493,0.48
			c0.114,0.282,0.137,0.634,0.065,0.99c-0.129,0.657-0.549,1.153-0.978,1.153c-0.034,0-0.068-0.003-0.102-0.01
			c-0.21-0.042-0.386-0.212-0.494-0.48c-0.114-0.282-0.137-0.634-0.066-0.989C27.099,126.05,27.52,125.554,27.947,125.554
			 M27.947,125.454c-0.469,0-0.934,0.52-1.076,1.235c-0.154,0.774,0.133,1.486,0.639,1.587c0.041,0.008,0.081,0.012,0.122,0.012
			c0.468,0,0.936-0.52,1.076-1.233c0.156-0.775-0.131-1.486-0.637-1.588C28.029,125.458,27.988,125.454,27.947,125.454
			L27.947,125.454z"/>
	</g>
	<g>
		<path fill="#FEF9F3" d="M29.232,117.351c2.188,1.863,3.049,3.014,3.236,5.188c0.188,2.172,0.471,2.25,0.184,3.535
			c-0.289,1.283-1.984,5.998-2.715,8.09c-0.732,2.09-2.287-0.908-1.422-3.304c0.863-2.396,1.352-3.493,0.889-4.679
			c-0.465-1.184-3.668-3.219-4.283-6.08c0,0-0.463-2.135,0.143-2.756c0.605-0.623,1.895-1.059,2.477-0.783
			C28.32,116.837,29.232,117.351,29.232,117.351z"/>
		<linearGradient id="SVGID_2_" gradientUnits="userSpaceOnUse" x1="25.7725" y1="126.5332" x2="33.2464" y2="123.8129">
			<stop  offset="0.102" style="stop-color:#C0C4C8"/>
			<stop  offset="0.2002" style="stop-color:#C8CBCE"/>
			<stop  offset="0.7257" style="stop-color:#EFECE9"/>
			<stop  offset="1" style="stop-color:#FEF9F3"/>
		</linearGradient>
		<path fill="url(#SVGID_2_)" d="M29.235,117.347c0,0,0.128,0.112,0.368,0.321c0.245,0.204,0.587,0.521,1.012,0.937
			c0.396,0.438,0.916,0.96,1.284,1.711c0.399,0.737,0.554,1.681,0.659,2.689c0.056,0.506,0.125,1.032,0.215,1.573
			c0.072,0.552,0.02,1.13-0.143,1.696c-0.358,1.11-0.735,2.282-1.125,3.493c-0.424,1.201-0.862,2.441-1.308,3.702
			c-0.116,0.312-0.203,0.641-0.349,0.945c-0.074,0.145-0.16,0.313-0.314,0.399c-0.064,0.067-0.165,0.056-0.25,0.074
			c-0.08-0.033-0.179-0.038-0.24-0.104c-0.53-0.463-0.688-1.188-0.778-1.849c-0.076-0.677-0.021-1.374,0.195-2.022
			c0.224-0.638,0.446-1.273,0.667-1.903c0.208-0.63,0.413-1.271,0.406-1.919c-0.014-0.16-0.029-0.32-0.052-0.478
			c-0.049-0.149-0.082-0.316-0.143-0.449l-0.25-0.413c-0.095-0.127-0.205-0.24-0.305-0.36c-0.846-0.934-1.757-1.784-2.447-2.73
			c-0.37-0.458-0.632-0.967-0.892-1.455c-0.17-0.523-0.389-1.022-0.439-1.534c-0.069-0.505-0.114-0.998-0.063-1.464
			c0.024-0.463,0.235-0.92,0.604-1.131c0.688-0.463,1.432-0.686,2.025-0.576c0.558,0.213,0.944,0.481,1.233,0.617
			C29.084,117.267,29.235,117.347,29.235,117.347z M29.229,117.355c0,0-0.15-0.078-0.432-0.226
			c-0.287-0.131-0.685-0.399-1.232-0.603c-0.577-0.103-1.321,0.126-1.989,0.585c-0.372,0.223-0.546,0.639-0.573,1.101
			c-0.044,0.458,0.006,0.946,0.08,1.447c0.056,0.506,0.278,0.993,0.45,1.505c0.263,0.478,0.515,0.983,0.883,1.437
			c0.685,0.942,1.583,1.78,2.443,2.731c0.103,0.124,0.216,0.243,0.312,0.372l0.25,0.414c0.135,0.313,0.191,0.635,0.207,0.97
			c0.004,0.67-0.203,1.317-0.415,1.948c-0.226,0.629-0.453,1.263-0.681,1.899c-0.217,0.634-0.276,1.322-0.206,1.992
			c0.083,0.652,0.243,1.375,0.745,1.817c0.058,0.064,0.146,0.064,0.218,0.098c0.076-0.02,0.164-0.003,0.224-0.066
			c0.143-0.079,0.227-0.234,0.301-0.379c0.148-0.303,0.235-0.625,0.354-0.939c0.437-1.262,0.867-2.504,1.284-3.707
			c0.382-1.214,0.751-2.387,1.102-3.5c0.379-1.125-0.007-2.229-0.065-3.239c-0.096-1.013-0.239-1.941-0.628-2.677
			c-0.359-0.748-0.871-1.273-1.263-1.713c-0.421-0.418-0.76-0.739-1.003-0.945C29.355,117.467,29.229,117.355,29.229,117.355z"/>
	</g>
	<path fill="none" stroke="#25A35A" stroke-width="0.1" stroke-miterlimit="10" d="M30.333,119.56"/>
	<path fill="#FEF9F3" d="M74.353,132.077c-1.959-1.933-4.65-3.124-7.619-3.124c-4.697,0-8.695,2.982-10.207,7.158
		c-0.08,0.225-0.154,0.453-0.221,0.687c0,0-3.689,12.11-1.564,31.364h17.054l14.758-21.434l-4.33-5.461l-0.006-0.001
		c-0.074-0.785-0.734-1.4-1.541-1.4c-0.426,0-0.812,0.173-1.094,0.453l0.025-0.006c-1.932-7.337-8.426-10.406-8.426-10.406"/>
	<path fill="none" stroke="#46515D" stroke-width="0.2" stroke-miterlimit="10" d="M74.47,149.684"/>
	<g>
		<path fill="#46515D" d="M66.689,153.676c0,0,0.132,0.061,0.354,0.181c0.227,0.107,0.526,0.319,0.904,0.503
			c0.183,0.102,0.38,0.212,0.589,0.328c0.22,0.09,0.442,0.199,0.675,0.304c0.224,0.131,0.487,0.163,0.737,0.262
			c0.25,0.108,0.527,0.105,0.798,0.147c0.271,0.049,0.548,0.044,0.822,0.016c0.273-0.026,0.546-0.014,0.805-0.069
			c0.515-0.113,1.01-0.171,1.419-0.291c0.823-0.23,1.372-0.384,1.372-0.384l0.018,0.047c0,0-0.536,0.202-1.339,0.505
			c-0.401,0.157-0.896,0.263-1.418,0.409c-0.261,0.073-0.547,0.082-0.831,0.126c-0.285,0.048-0.576,0.072-0.874,0.041
			c-0.295-0.02-0.599,0.004-0.881-0.088c-0.281-0.078-0.582-0.112-0.83-0.24c-0.248-0.128-0.495-0.237-0.713-0.368
			c-0.204-0.148-0.396-0.288-0.574-0.417c-0.355-0.26-0.6-0.515-0.785-0.689c-0.181-0.175-0.279-0.283-0.279-0.283L66.689,153.676z"
			/>
	</g>
	<path fill="#FEF9F3" stroke="#46515D" stroke-width="0.1" stroke-miterlimit="10" d="M54.082,155.444
		c4.742,2.345,8.748,7.857,9.576,10.222c0,0,2.918-9.083,13.918-9.5c0,0,0.541-23.25,24.229-30.625l-32.329,42.621H54.742
		c-0.518-4.686-0.689-8.948-0.656-12.716"/>
	<path fill="#7297AE" d="M57.203,151.229c0.896,0.148,1.596-0.049,2.082-0.184c0.066-0.192,0.104-0.406,0.104-0.632
		c0-0.854-0.53-1.547-1.182-1.547c-0.654,0-1.184,0.692-1.184,1.547c0,0.321,0.074,0.618,0.201,0.865"/>
	<path fill="#7297AE" d="M69.708,150.952c0.645,0.482,1.904,0.153,2.424,0c0.117-0.228,0.184-0.49,0.184-0.771
		c0-0.854-0.621-1.547-1.391-1.547c-0.768,0-1.391,0.692-1.391,1.547c0,0.283,0.068,0.549,0.189,0.777"/>
	<ellipse fill="#46515D" cx="70.926" cy="150.182" rx="0.731" ry="0.814"/>
	<ellipse fill="#46515D" cx="58.207" cy="150.37" rx="0.641" ry="0.839"/>
	<path fill="none" stroke="#000000" stroke-width="0.1" stroke-miterlimit="10" d="M68.423,141.413"/>
	<g>
		<path d="M62.442,153.696c0.092-0.283,0.222-0.558,0.261-0.854c0.071-0.289,0.088-0.586,0.111-0.883
			c0.013-0.594-0.011-1.188-0.087-1.779c-0.075-0.588-0.188-1.181-0.237-1.776c-0.055-0.595-0.152-1.185-0.166-1.785
			c-0.072-1.196-0.115-2.391-0.132-3.585c0.007-0.294-0.029-0.605,0.018-0.901c0.051-0.299,0.171-0.606,0.387-0.826
			c0.208-0.222,0.472-0.41,0.776-0.476c0.149-0.046,0.298-0.054,0.462-0.052l0.442,0.071l0.097,0.016l-0.069,0.069l-0.001,0.001
			l-0.013-0.08c0.161,0.07,0.33,0.113,0.507,0.134c0.178,0.012,0.356,0.013,0.535-0.002c0.358-0.031,0.714-0.099,1.071-0.168
			c0.356-0.069,0.713-0.146,1.083-0.169c0.184-0.01,0.374-0.005,0.558,0.054c0.091,0.036,0.181,0.076,0.248,0.154
			c0.084,0.06,0.099,0.168,0.148,0.251l0.001,0.002l0,0.007l0.021,0.29l0,0.004c-0.01,0.175-0.039,0.347-0.096,0.512
			c-0.063,0.163-0.149,0.313-0.255,0.45c-0.112,0.132-0.241,0.246-0.384,0.341c-0.148,0.088-0.306,0.153-0.472,0.197
			c0.164-0.05,0.318-0.121,0.461-0.213c0.138-0.1,0.26-0.216,0.365-0.349c0.098-0.138,0.175-0.287,0.23-0.445
			c0.049-0.161,0.07-0.326,0.073-0.493l0,0.003l-0.033-0.289l0.002,0.008c-0.048-0.068-0.06-0.163-0.134-0.207
			c-0.054-0.064-0.13-0.098-0.209-0.129c-0.162-0.053-0.341-0.059-0.519-0.049c-0.357,0.022-0.713,0.099-1.069,0.167
			c-0.356,0.069-0.716,0.138-1.082,0.169c-0.184,0.016-0.368,0.015-0.553,0.002c-0.186-0.021-0.368-0.067-0.542-0.144l-0.065-0.029
			l0.052-0.052l0.001-0.001l0.027,0.084l-0.442-0.071c-0.128,0.001-0.288,0.006-0.421,0.05c-0.285,0.061-0.531,0.239-0.727,0.446
			c-0.205,0.211-0.312,0.488-0.362,0.77c-0.046,0.298-0.009,0.586-0.017,0.889c0.017,1.194,0.06,2.387,0.132,3.577
			c0.014,0.596,0.11,1.188,0.166,1.783c0.05,0.597,0.161,1.179,0.237,1.776c0.081,0.594,0.102,1.198,0.057,1.796
			c-0.034,0.298-0.063,0.597-0.146,0.888C62.686,153.148,62.545,153.416,62.442,153.696z"/>
	</g>
	<g>
		<path fill="#46515D" d="M55.201,154.954c0,0,0.492,0.091,1.23,0.228c0.368,0.087,0.804,0.1,1.262,0.151
			c0.458,0.072,0.95,0.025,1.436,0.018c0.245,0.001,0.476-0.083,0.708-0.118l0.343-0.066l0.312-0.121
			c0.204-0.075,0.419-0.119,0.583-0.23c0.168-0.101,0.354-0.17,0.487-0.281c0.127-0.118,0.26-0.214,0.374-0.309
			c0.116-0.091,0.177-0.208,0.255-0.282c0.146-0.165,0.23-0.259,0.23-0.259l0.045,0.021c0,0-0.038,0.119-0.125,0.33
			c-0.047,0.102-0.083,0.246-0.183,0.37c-0.098,0.125-0.203,0.277-0.336,0.429c-0.136,0.147-0.327,0.256-0.51,0.399
			c-0.178,0.162-0.422,0.206-0.651,0.306c-0.119,0.038-0.239,0.076-0.361,0.115l-0.381,0.042c-0.256,0.016-0.515,0.079-0.771,0.053
			c-0.513-0.029-1.025-0.021-1.492-0.13c-0.469-0.083-0.909-0.146-1.264-0.268c-0.721-0.21-1.202-0.35-1.202-0.35L55.201,154.954z"
			/>
	</g>
	<g>
		<path d="M68.427,149.683c0.36,0.452,0.72,0.928,1.232,1.199c0.125,0.072,0.256,0.127,0.394,0.167
			c0.132,0.057,0.279,0.061,0.417,0.092c0.285,0.03,0.572,0.022,0.858-0.019c0.282-0.057,0.565-0.117,0.836-0.222
			c0.278-0.083,0.536-0.22,0.802-0.334c0.523-0.254,1.007-0.579,1.487-0.904l-0.007,0.037c-0.344-0.462-0.817-0.819-1.327-1.083
			c-0.51-0.265-1.077-0.427-1.65-0.44c-0.285-0.015-0.575,0.021-0.852,0.088c-0.139,0.034-0.282,0.058-0.413,0.119
			c-0.132,0.056-0.273,0.095-0.398,0.166c-0.256,0.134-0.504,0.282-0.728,0.466c-0.241,0.163-0.431,0.386-0.651,0.577l0.002-0.005
			L68.427,149.683z M68.418,149.686l-0.003-0.098v-0.003l0.002-0.002c0.21-0.2,0.389-0.438,0.629-0.607
			c0.222-0.192,0.469-0.349,0.726-0.492c0.126-0.076,0.269-0.119,0.402-0.18c0.133-0.065,0.279-0.094,0.421-0.133
			c0.284-0.075,0.583-0.106,0.877-0.091c0.59,0.016,1.169,0.185,1.689,0.457c0.521,0.271,0.987,0.653,1.33,1.133l0.016,0.022
			l-0.023,0.015c-0.485,0.325-0.985,0.622-1.501,0.895c-0.265,0.121-0.521,0.265-0.8,0.354c-0.271,0.112-0.557,0.179-0.843,0.242
			c-0.291,0.044-0.586,0.07-0.881,0.029c-0.144-0.035-0.294-0.043-0.431-0.104c-0.142-0.044-0.277-0.104-0.403-0.181
			C69.103,150.652,68.748,150.158,68.418,149.686z"/>
	</g>
	<g>
		<path d="M61.683,149.666c-0.388,0.412-0.873,0.73-1.373,0.993c-0.503,0.261-1.039,0.466-1.598,0.575
			c-0.277,0.057-0.562,0.098-0.846,0.09c-0.283,0.006-0.572-0.034-0.839-0.132c-0.141-0.031-0.255-0.124-0.382-0.188
			c-0.125-0.068-0.213-0.188-0.322-0.279c-0.082-0.116-0.156-0.24-0.227-0.363l-0.132-0.408l-0.001-0.003l0.001-0.005
			c0.09-0.551,0.453-1.062,0.968-1.297c0.125-0.066,0.256-0.117,0.394-0.146c0.134-0.044,0.271-0.067,0.411-0.075
			c0.277-0.045,0.556-0.01,0.833,0.001c0.271,0.054,0.552,0.068,0.815,0.156c0.265,0.079,0.534,0.143,0.788,0.251
			c0.521,0.183,1.016,0.425,1.51,0.667l0.005,0.003l0,0.005L61.683,149.666z M61.674,149.662l-0.004-0.152l0.005,0.008
			c-0.508-0.211-1.004-0.445-1.527-0.611c-0.255-0.101-0.523-0.157-0.787-0.228c-0.261-0.084-0.535-0.101-0.802-0.154
			c-0.27-0.011-0.543-0.047-0.812-0.004c-0.136,0.007-0.269,0.029-0.397,0.071c-0.133,0.027-0.258,0.075-0.377,0.138
			c-0.489,0.22-0.854,0.693-0.954,1.222l0-0.008l0.122,0.4c0.066,0.121,0.137,0.242,0.213,0.357c0.104,0.09,0.188,0.209,0.31,0.278
			c0.123,0.067,0.238,0.15,0.377,0.179c0.263,0.09,0.547,0.123,0.826,0.11c0.279,0.001,0.559-0.044,0.831-0.106
			c0.275-0.055,0.541-0.149,0.806-0.237c0.265-0.092,0.522-0.205,0.776-0.325C60.781,150.344,61.259,150.047,61.674,149.662z"/>
	</g>
	<g>
		<path fill="#46515D" d="M65.329,137.222l-1.108-0.041c-0.37,0.006-0.738-0.051-1.107-0.085c-0.37-0.036-0.733-0.053-1.098-0.063
			c-0.364,0.046-0.728,0.056-1.093,0.084l-0.012-0.154l0.582,0.023c0.193-0.005,0.389,0.042,0.583,0.082
			c0.2,0.023,0.363,0.146,0.546,0.214c0.176,0.083,0.344,0.175,0.516,0.262c0.338,0.18,0.693,0.349,1.059,0.434
			c0.187,0.036,0.367,0.027,0.548-0.038c0.183-0.07,0.39-0.083,0.588-0.079h-0.009c0.197-0.011,0.408-0.004,0.593,0.061
			c0.184,0.059,0.355,0.059,0.535,0.019c0.357-0.1,0.697-0.273,1.044-0.443c0.174-0.085,0.342-0.175,0.521-0.255
			c0.186-0.066,0.351-0.187,0.555-0.208c0.198-0.037,0.397-0.083,0.59-0.075l0.584-0.016l-0.015,0.194
			c-0.364-0.032-0.727-0.049-1.09-0.095c-0.364,0.009-0.728,0.023-1.096,0.058c-0.37,0.03-0.735,0.093-1.107,0.09L65.329,137.222z
			 M65.329,137.203l1.104-0.081c0.368-0.014,0.732-0.091,1.097-0.143c0.364-0.055,0.74-0.092,1.112-0.121
			c0.373,0.015,0.747,0.057,1.119,0.085l-0.014,0.194l-0.573,0.013c-0.195-0.008-0.373,0.035-0.555,0.066
			c-0.185,0.015-0.348,0.133-0.523,0.193c-0.173,0.077-0.346,0.167-0.519,0.25c-0.343,0.171-0.701,0.34-1.092,0.43
			c-0.198,0.04-0.42,0.025-0.604-0.043c-0.18-0.07-0.359-0.08-0.547-0.078h-0.008h-0.001c-0.187-0.008-0.37-0.004-0.553,0.06
			c-0.186,0.062-0.398,0.069-0.591,0.024c-0.382-0.104-0.726-0.279-1.077-0.44c-0.175-0.081-0.349-0.169-0.524-0.243
			c-0.179-0.06-0.344-0.175-0.533-0.188c-0.186-0.03-0.367-0.071-0.562-0.06l-0.574-0.005l-0.011-0.154
			c0.371-0.032,0.743-0.082,1.116-0.097c0.371,0.027,0.748,0.062,1.111,0.116c0.365,0.048,0.726,0.131,1.096,0.148L65.329,137.203z"
			/>
	</g>
	<g>
		<path fill="#46515D" d="M63.126,132.878c0,0,0.052,0.065,0.144,0.179c0.104,0.1,0.194,0.309,0.408,0.44
			c0.098,0.075,0.203,0.157,0.315,0.243c0.11,0.088,0.263,0.121,0.401,0.188c0.142,0.062,0.287,0.13,0.452,0.133
			c0.158,0.02,0.318,0.041,0.479,0.061c0.166-0.021,0.331-0.042,0.494-0.062c0.17-0.003,0.311-0.074,0.452-0.134
			c0.136-0.067,0.288-0.098,0.398-0.188c0.112-0.087,0.218-0.169,0.316-0.245c0.214-0.134,0.3-0.338,0.405-0.439
			c0.091-0.114,0.144-0.18,0.144-0.18s-0.047,0.069-0.13,0.189c-0.099,0.105-0.167,0.329-0.383,0.47
			c-0.098,0.08-0.205,0.167-0.317,0.258c-0.111,0.094-0.268,0.133-0.41,0.206c-0.146,0.066-0.296,0.143-0.462,0.149
			c-0.163,0.024-0.328,0.049-0.493,0.074c-0.171-0.025-0.341-0.05-0.509-0.074c-0.17-0.008-0.318-0.083-0.463-0.149
			c-0.141-0.073-0.295-0.11-0.408-0.204c-0.113-0.092-0.22-0.179-0.319-0.259c-0.217-0.143-0.282-0.361-0.382-0.467
			C63.173,132.947,63.126,132.878,63.126,132.878z"/>
	</g>
	<g>
		<path fill="#46515D" d="M74.744,150.878c0,0-0.368,0.22-0.936,0.522c-0.279,0.162-0.623,0.313-0.997,0.467
			c-0.185,0.082-0.394,0.116-0.597,0.178c-0.202,0.071-0.418,0.089-0.635,0.101c-0.216,0.011-0.433,0.053-0.643,0
			c-0.211-0.032-0.419-0.063-0.62-0.094c-0.192-0.063-0.374-0.14-0.545-0.212c-0.167-0.08-0.341-0.126-0.472-0.222
			c-0.528-0.372-0.879-0.619-0.879-0.619l0.006-0.008c0,0,0.363,0.225,0.909,0.563c0.132,0.09,0.307,0.127,0.473,0.199
			c0.172,0.06,0.345,0.146,0.533,0.208c0.196,0.032,0.398,0.065,0.604,0.098c0.205,0.055,0.417,0.015,0.629,0.007
			c0.212-0.007,0.425-0.021,0.625-0.087c0.201-0.058,0.408-0.088,0.592-0.166c0.372-0.147,0.718-0.289,1-0.444
			c0.574-0.288,0.947-0.5,0.947-0.5L74.744,150.878z"/>
	</g>
	<g>
		<path fill="#46515D" d="M61.598,150.877c0,0-0.298,0.253-0.793,0.569c-0.492,0.313-1.203,0.682-1.986,0.806
			c-0.389,0.05-0.792,0.064-1.155-0.024c-0.368-0.066-0.681-0.229-0.934-0.381c-0.241-0.172-0.439-0.317-0.552-0.449
			c-0.121-0.122-0.189-0.191-0.189-0.191l0.007-0.007c0,0,0.075,0.062,0.206,0.172c0.124,0.117,0.321,0.257,0.566,0.413
			c0.255,0.138,0.563,0.275,0.916,0.351c0.35,0.091,0.742,0.082,1.123,0.038c0.77-0.106,1.481-0.459,1.98-0.757
			c0.5-0.301,0.806-0.547,0.806-0.547L61.598,150.877z"/>
	</g>
	<g>
		<path fill="#46515D" d="M61.675,149.075c0,0-0.469-0.482-0.998-0.876c-0.143-0.082-0.286-0.163-0.42-0.24
			c-0.13-0.084-0.27-0.122-0.383-0.172c-0.231-0.088-0.383-0.163-0.383-0.163l0.002-0.01c0,0,0.164,0.032,0.406,0.104
			c0.121,0.038,0.273,0.059,0.401,0.157c0.135,0.083,0.279,0.171,0.423,0.259c0.253,0.224,0.512,0.438,0.673,0.629
			c0.171,0.183,0.285,0.305,0.285,0.305L61.675,149.075z"/>
	</g>
	<g>
		<path fill="#46515D" d="M68.419,148.913c0,0,0.107-0.128,0.268-0.32c0.15-0.201,0.397-0.429,0.638-0.666
			c0.139-0.096,0.278-0.192,0.408-0.282c0.123-0.105,0.274-0.135,0.392-0.179c0.239-0.085,0.4-0.127,0.4-0.127l0.003,0.01
			c0,0-0.148,0.083-0.374,0.184c-0.11,0.056-0.248,0.103-0.373,0.194c-0.129,0.083-0.268,0.173-0.406,0.262
			c-0.507,0.423-0.949,0.931-0.948,0.931L68.419,148.913z"/>
	</g>
	<path fill="#C06B62" d="M71.656,168.162h24.335c0,0-4.375-7.663,2.25-13.704c0,0-7.416,2.491-13.084-3.463L71.656,168.162"/>
	<path fill="#9A564E" d="M71.639,168.162h22.353c0,0-4.02-7.038,2.066-12.588c0,0-6.812,2.288-12.018-3.181L71.639,168.162"/>
	
		<line fill="none" stroke="#E1A850" stroke-width="0.1" stroke-miterlimit="10" x1="71.656" y1="168.162" x2="77.586" y2="168.162"/>
	<path fill="#2ECC71" d="M77.585,168.162l10.551-14.82c-1.014-0.576-2.021-1.341-2.979-2.347l-13.501,17.167H77.585z"/>
	<path fill="#25A35A" d="M77.665,168.162c0,0,9.521-13.372,9.52-13.372c-0.914-0.521-1.823-1.21-2.687-2.117l-12.183,15.489H77.665z
		"/>
	<polyline fill="#46515D" stroke="#000000" stroke-width="0.1" stroke-miterlimit="10" points="72.661,168.162 106.157,124.471 
		106.157,117.783 67.532,168.162 72.661,168.162 106.157,124.47 	"/>
	<rect x="3.91" fill="none" width="87.25" height="46.5"/>
	<text transform="matrix(1 0 0 1 3.9097 25.6318)"><tspan x="0" y="0" fill="#46515D" font-family="'SerifGothicLT-Black'" font-size="36">u</tspan><tspan x="20.016" y="0" fill="#46515D" font-family="'SerifGothicLT'" font-size="10">ser</tspan></text>
	<rect x="26.535" y="150.395" fill="none" width="87.25" height="46.5"/>
	<text transform="matrix(-1 0 0 -1 113.7852 171.2632)"><tspan x="0" y="0" fill="#46515D" font-family="'SerifGothicLT-Black'" font-size="36">u</tspan><tspan x="20.016" y="0" fill="#46515D" font-family="'SerifGothicLT'" font-size="10">ser</tspan></text>
</g>
</svg>
