<?xml version="1.0" encoding="utf-8"?>
<!-- Generator: Adobe Illustrator 16.0.0, SVG Export Plug-In . SVG Version: 6.00 Build 0)  -->
<!DOCTYPE svg PUBLIC "-//W3C//DTD SVG 1.1//EN" "http://www.w3.org/Graphics/SVG/1.1/DTD/svg11.dtd">
<svg version="1.1" xmlns="http://www.w3.org/2000/svg" xmlns:xlink="http://www.w3.org/1999/xlink" x="0px" y="0px" width="186px"
	 height="503px" viewBox="0 0 186 503" enable-background="new 0 0 186 503" xml:space="preserve">
<g id="Layer_5">
	<path fill="#1E7C44" d="M87.934,191.818c2.119-13.19,6.792-33.667,6.837-41.03c0.046-7.364-6.05-17-4.184-25.86
		c0,0,4.254,2.319,4.979,6.471c0,0,1.272-16.412-0.132-21.823c-1.406-5.411-12.415-23.06-13.616-25.354c0,0,7.071,2.196,8.292,5.999
		c0,0,2.629-8.954,0.3-11.692c-2.329-2.739-17.334-4.281-15.817-19.875c0,0,6.655,10.777,12.505,12.602
		c0,0-4.761-9.588-4.356-16.332c0,0,6.435,12.18,8.619,13.816c0,0,1.705-7.202-0.408-13.017s-8.016-11.413-7.37-20.643
		c0,0,8.947,12.173,10.522,18.354c0,0,2.918-0.721,4.028-6.976s-3.114-11.02-2.152-20.052c0,0,5.023,6.015,5.438,12.083
		c0,0,0.097-7.024,5.427-17.055c0,0-0.098,7.023-1.322,11.007c0,0,3.725-2.986,5.747-3.125c0,0-8.054,7.924-8.742,14.137
		c-0.688,6.213-0.149,5.847-0.172,6.933c0,0,8.632-12.138,14.63-13.563c0,0-4.561,9.017-6.509,11.842
		c-1.949,2.825-10.734,7.915-12.021,9.967c-1.288,2.051-4.065,11.66-3.171,17.106c0,0,8.458-12.072,15.665-12.124
		c0,0-13.625,11.819-14.95,18.556c-1.325,6.736-0.841,13.816,0.188,17.014c0,0,7.402-9.83,9.164-17.612
		c0,0,1.632,5.601-0.498,12.008c-2.13,6.407-4.692,6.074-5.404,12.535c-0.713,6.461,0.064,12.23,0.262,14.511
		c0,0,7.835-3.928,8.156-10.678c0.321-6.751,0.382-15.117,3.441-20.764c0,0-0.878,12.473-0.103,16.568c0,0,5.256-6.689,5.539-14.783
		c0.285-8.094-3.26-15.555-1.967-21.96c0,0,3.741,6.309,4.062,11.614c0,0,0.521-15.69,3.352-20.689c0,0-0.451,10.672,0.867,13.48
		c0,0,2.684-0.911,3.636-7.265c0.953-6.355-1.625-9.116,1.742-17.916c0,0,0.689,9.276,1.474,11.53
		c0.787,2.253,0.658,7.013-0.942,9.704c0,0,4.336-3.261,9.972-4.389c0,0-6.517,6.734-11.201,10.13
		c-4.684,3.396-7.389,8.825-7.996,14.209c0,0,3.799-2.896,9.83-4.654c0,0-7.66,6.456-10.362,12.723
		c-2.702,6.268-5.153,10.802-7.447,15.436c0,0,4.445-1.368,7.666,0.39c0,0-16.632,6.357-17.942,11.442
		c-1.31,5.084-3.483,18.625-2.976,22.003c0,0,6.383-4.089,8.262-8.554c0,0,0.625,5.838-0.973,8.069
		c-1.599,2.23-5.043,0.201-10.661,24.395c-5.618,24.195-3.703,32.921-3.703,32.921l-7.466-0.726L87.934,191.818z"/>
</g>
<g id="Layer_6">
	<path fill="#196337" d="M92.567,180.419c1.834-4.833,9.166-9.502,15-7.751c0,0-1.396-4.541-8.708-2.978c0,0,3.75-7.25,11.625-7.5
		c0,0-3-1.812-5.812-1.375c0,0,5-1.5,5.312-12.062c0,0-3.812,7.562-8.062,10.375c0,0-2-4.5-1.562-9.875
		c0,0-2.812,3.938-2.125,10.062s-1.312,6.188-1.688,6.625s-2.438-2.688-3-7.438c0,0-1.812,5.25-1.812,8.625s1.334,4.625-1.333,9.125
		S92.567,180.419,92.567,180.419z"/>
</g>
<g id="Layer_4">
	<path fill="#25A35A" d="M88.338,175.784c-0.282-6.818-7.078-18.6-2.072-44.467c5.005-25.866-7.664-5.966-8.727-36.247
		c0,0,3.761,1.279,4.432,5.624c0,0,3.477-3.151,1.589-7.876c-1.887-4.726-7.176-2.27-7.754-15.781c0,0,5.854,2.883,7.683,6.974
		c0,0-2.777-5.825-0.201-12.34c0,0,8.063,14.054,5.184,23.427c-2.879,9.374-2.205,12.819-0.379,17.81c0,0,0.964-3.166,5.996-4.393
		c0,0-1.43,3.997-2.088,10.212c-0.659,6.215-1.983,9.217-1.521,13.163c0,0,1.102-3.277,5.276-4.72c0,0-2.609,8.02-4.812,12.186
		c-2.201,4.167-3.238,9.21-1.516,14.295c0,0,1.318-4.134,4.192-6.343c0,0,0.716,5.104,0.046,9.055
		c-0.671,3.952-1.034,16.86-0.213,20.97s-3.638,9.419-3.638,9.419L88.338,175.784z"/>
</g>
<g id="Layer_3">
	<path fill="#2CB764" d="M82.815,192.729c0.629-9.318,5.014-25.787,1.39-32.864c-3.624-7.078-14.446-9.37-18.642-19.02
		c0,0,6.115-0.708,11.049,4.997c0,0-0.525-10.108-4.786-11.554c-4.262-1.446-8.669,2.287-14.655,1.835c0,0,0.681-4.956,5.763-7.111
		c0,0-6.249-1.149-7.026-6.591c0,0,7.415-0.406,11.382,3.355c3.967,3.762,4.288,2.287,6.277,2.493c0,0-1.24-15.543-6.293-16.904
		s-9.878,3.167-17.51-0.807c0,0,1.955-4.322,4.773-4.03c0,0-7.78,0.703-10.861-5.146c0,0,6.986-1.12,10.444,1.081
		c0,0-5.002-1.858-8.192-9.896c0,0,7.546-0.058,13.989,7.312c6.442,7.37,9.323,8.672,11.278,9.21c0,0-3.744-10.776-7.865-13.045
		c-4.122-2.27-4.974-0.514-11.147-8.861c0,0,3.573-2.144,6.631,0.686c0,0-5.26-4.23-5.082-12.422c0,0,7.929,2.077,9.941,12.422
		c0,0-1.857-4.716,1.956-9.181c0,0,0.571,7.432,2.463,11.816c1.892,4.384,8.512,18.139,9.174,32.785c0,0,2.641-15.812,7.953-21.797
		c0,0,1.451,7.02-1.023,13.131c0,0,4.729-5.04,7.772-5.395c0,0-11.621,15.051-12.284,19.841c-0.663,4.79-0.081,6.651,0.744,8.999
		c0,0,1.458-8.018,7.049-9.827c0,0-2.222,5.677-3.04,8.733c-0.819,3.057-1.295,7.658-0.026,11.182
		c1.269,3.524,7.25,7.662,6.319,25.159c0,0,5.136-10.569,4.198-17.201c-0.937-6.631-1.582-6.866-1.45-11.376
		c0,0,4.024,1.589,4.253,7.477c0,0,1.32-3.047,4.407-3.733c0,0-2.877,6.74-3.574,11.862c-0.696,5.122-2.594,7.271-3.08,8.729
		c0,0,2.366-3.441,6.5-4.522c0,0-9.331,11.434-10.932,29.029L82.815,192.729z"/>
</g>
<g id="Layer_2">
	<g>
		<path fill="#E1A850" d="M118.5,230c0-15.25-2-53-14-54.25s-39-6.5-36.25,39s4.25,65.25,5,93S80,343,80.5,398.25s7.5,41,6.5,78.5
			c0,0,17-42,17.25-82.5s5.75-57.75,7-78s3-47.25,5.25-64S118.5,230,118.5,230z"/>
		<linearGradient id="SVGID_1_" gradientUnits="userSpaceOnUse" x1="66.0547" y1="330.7822" x2="120.5078" y2="330.7822">
			<stop  offset="0.2653" style="stop-color:#E1A850"/>
			<stop  offset="0.6451" style="stop-color:#DFA74F"/>
			<stop  offset="0.7819" style="stop-color:#D8A24D"/>
			<stop  offset="0.8794" style="stop-color:#CD9949"/>
			<stop  offset="0.9577" style="stop-color:#BC8C43"/>
			<stop  offset="1" style="stop-color:#AF833F"/>
		</linearGradient>
		<path fill="url(#SVGID_1_)" d="M118.3,230.014v-0.013c-0.025-8.054-0.44-16.111-1.335-24.113c-0.455-4-1.044-7.986-1.877-11.921
			c-0.839-3.926-1.902-7.838-3.646-11.443c-0.879-1.784-1.952-3.514-3.427-4.809l-0.558-0.475l-0.618-0.383
			c-0.394-0.293-0.874-0.397-1.309-0.6c-0.912-0.225-1.934-0.3-2.937-0.409c-4-0.437-8.017-0.784-11.995-0.418
			c-3.96,0.347-7.894,1.453-11.157,3.678c-1.644,1.086-3.059,2.486-4.274,4.025c-0.639,0.75-1.133,1.607-1.677,2.426
			c-0.447,0.88-0.972,1.717-1.329,2.643c-1.593,3.621-2.47,7.542-2.925,11.495c-0.453,3.961-0.494,7.968-0.358,11.964
			c0.153,3.985,0.509,8.035,0.754,12.047l0.814,12.065l1.603,24.131c0.584,8.038,0.888,16.105,1.29,24.163l1.156,24.146
			c0.366,8.104,1.076,15.979,2.318,23.951c1.145,7.966,2.351,15.979,3.096,24.039c0.861,8.054,1.239,16.133,1.678,24.208
			l0.664,24.188c0.135,4.024,0.211,8.066,0.406,12.077l0.928,11.939l0.808,5.919c0.142,0.985,0.251,1.976,0.42,2.957l0.574,2.934
			c0.378,1.952,0.761,3.908,1.192,5.903l0.627,2.978c0.195,0.999,0.325,2.028,0.491,3.042c0.78,4.062,0.85,8.163,1.185,12.252
			l0.044,12.202l-3.714-0.775c1.836-4.756,3.504-9.685,5.052-14.602c1.524-4.936,2.998-9.891,4.258-14.9
			c1.312-4.996,2.428-10.037,3.466-15.091l1.428-7.604l1.164-7.641c0.289-2.557,0.634-5.11,0.881-7.671
			c0.182-2.563,0.442-5.125,0.561-7.69l0.245-7.746l0.207-7.799c0.073-5.184,0.503-10.438,0.818-15.664
			c0.122-2.622,0.475-5.211,0.714-7.816c0.265-2.601,0.508-5.204,0.876-7.79c0.348-2.588,0.654-5.186,1.036-7.765l1.188-7.727
			l1.204-7.699c0.35-2.562,0.735-5.125,1.057-7.69c0.254-2.57,0.54-5.125,0.77-7.714l0.613-7.778
			c0.395-5.186,0.823-10.372,1.281-15.559c0.439-5.186,0.88-10.371,1.429-15.549c0.541-5.178,0.948-10.365,1.646-15.528
			l1.913-15.489l0.483-3.871l0.351-3.877C118.107,235.188,118.278,232.587,118.3,230.014z M118.7,229.992
			c0.008,2.625-0.137,5.219-0.364,7.817l-0.31,3.897l-0.44,3.875l-0.874,7.758l-0.79,7.755c-0.579,5.162-0.933,10.352-1.295,15.537
			c-0.395,5.183-0.682,10.374-0.968,15.564c-0.304,5.188-0.579,10.381-0.82,15.578l-0.378,7.794
			c-0.15,2.598-0.362,5.222-0.542,7.834c-0.247,2.604-0.557,5.196-0.832,7.797l-0.972,7.752c-0.641,5.156-1.287,10.304-1.813,15.453
			c-0.31,2.571-0.493,5.152-0.698,7.731l-0.309,3.867l-0.161,1.934l-0.099,1.933c-0.24,5.16-0.599,10.284-0.604,15.507
			c-0.074,5.222-0.202,10.352-0.366,15.65c-0.11,2.63-0.366,5.247-0.543,7.872c-0.242,2.617-0.582,5.222-0.868,7.833l-1.156,7.789
			c-0.476,2.579-0.922,5.164-1.43,7.736c-1.083,5.13-2.246,10.24-3.604,15.299c-1.306,5.073-2.827,10.085-4.4,15.078
			c-1.596,4.998-3.323,9.909-5.276,14.841l-3.776,9.532l0.062-10.308l0.071-11.981c-0.291-3.943-0.313-7.933-1.028-11.812
			c-0.149-0.977-0.261-1.95-0.442-2.931l-0.591-2.944c-0.402-1.948-0.776-3.951-1.145-5.96l-0.558-3.005
			c-0.163-1.006-0.266-2.022-0.402-3.033l-0.768-6.069l-0.829-12.18c-0.158-4.041-0.191-8.062-0.299-12.095l-0.481-24.167
			c-0.375-8.024-0.69-16.06-1.484-24.048c-0.679-8.002-1.813-15.949-2.901-23.947l-0.794-6.013c-0.235-2.015-0.411-4.05-0.619-6.073
			l-0.3-3.039l-0.148-3.02l-0.296-6.038l-0.975-24.174c-0.34-8.048-0.583-16.096-1.106-24.145l-1.349-24.146l-0.662-12.074
			c-0.196-4.036-0.497-8.024-0.603-12.098c-0.094-4.058,0.02-8.133,0.551-12.177c0.534-4.036,1.5-8.059,3.219-11.797
			c0.387-0.952,0.95-1.824,1.432-2.731c0.583-0.851,1.117-1.735,1.8-2.513c1.303-1.594,2.818-3.041,4.561-4.152
			c3.469-2.271,7.559-3.353,11.608-3.662c4.068-0.325,8.13,0.079,12.126,0.563c0.999,0.123,1.992,0.196,3.039,0.466
			c0.477,0.222,1.003,0.354,1.424,0.671l0.661,0.422l0.588,0.511c1.545,1.395,2.615,3.184,3.49,5.01
			c1.711,3.691,2.763,7.622,3.616,11.564c0.838,3.953,1.427,7.95,1.884,11.959C118.26,213.861,118.674,221.927,118.7,229.992z"/>
	</g>
</g>
<g id="Layer_7">
	<g>
		<path fill="#AF833F" d="M115.579,195.628c0,0-0.332-0.101-0.914-0.276c-0.29-0.09-0.643-0.199-1.047-0.324
			c-0.405-0.117-0.854-0.303-1.364-0.364c-0.501-0.088-1.044-0.185-1.618-0.286c-0.287-0.045-0.573-0.114-0.875-0.154
			c-0.307-0.025-0.62-0.05-0.938-0.076c-0.633-0.05-1.287-0.102-1.952-0.154c-0.667,0.011-1.345,0.022-2.022,0.033
			c-0.675-0.007-1.348,0.077-2.006,0.168c-0.657,0.105-1.308,0.125-1.926,0.237c-0.622,0.084-1.224,0.15-1.804,0.175
			c-0.292,0.006-0.569,0.04-0.836,0.085c-0.271,0.029-0.533,0.057-0.784,0.083c-0.501,0.062-0.983,0.061-1.393,0.121
			c-0.409,0.06-0.772,0.104-1.079,0.132c-0.61,0.06-0.982,0.064-0.982,0.064l-0.076-0.185c0,0,0.282-0.221,0.818-0.555
			c0.267-0.169,0.599-0.363,0.988-0.578c0.392-0.206,0.852-0.369,1.357-0.558c0.508-0.172,1.057-0.412,1.66-0.518
			c0.599-0.139,1.24-0.245,1.904-0.339c0.665-0.099,1.364-0.042,2.065-0.038c0.703,0.018,1.413,0.005,2.122,0.104
			c0.706,0.065,1.413,0.131,2.108,0.195c0.686,0.129,1.36,0.257,2.014,0.38c0.324,0.063,0.644,0.125,0.956,0.185
			c0.312,0.075,0.612,0.183,0.904,0.275c0.58,0.189,1.128,0.368,1.635,0.533c0.515,0.14,0.925,0.381,1.312,0.554
			c0.382,0.183,0.714,0.343,0.988,0.474c0.546,0.267,0.858,0.419,0.858,0.419L115.579,195.628z"/>
	</g>
	<g>
		<path fill="#AF833F" d="M100.883,234.9c0,0,0.054-0.003,0.154-0.008c0.051-0.002,0.113-0.005,0.187-0.008
			c0.037-0.001,0.078-0.002,0.121-0.003l0.072,0.002l0.039,0.001c-0.001-0.015,0.159,0.052,0.173,0.147
			c0.034,0.059-0.022,0.16-0.112,0.209c-0.106,0.038-0.053,0.016-0.088,0.027l-0.085,0.021c-0.052,0.011-0.106,0.021-0.163,0.033
			c-0.112,0.021-0.232,0.042-0.361,0.064c-0.256,0.046-0.545,0.098-0.86,0.154c-1.254,0.24-2.915,0.562-4.524,0.981
			c-0.807,0.204-1.568,0.549-2.288,0.77c-0.727,0.206-1.409,0.343-2.006,0.462c-1.245,0.269-2.076,0.448-2.076,0.448l-0.129-0.152
			c0,0,0.089-0.226,0.327-0.57c0.237-0.344,0.65-0.775,1.218-1.184c0.285-0.195,0.603-0.4,0.956-0.568
			c0.351-0.176,0.733-0.323,1.137-0.438c0.812-0.219,1.712-0.245,2.578-0.342c1.739-0.187,3.47-0.179,4.759-0.117
			c0.321,0.015,0.615,0.029,0.877,0.042c0.129,0.006,0.25,0.012,0.362,0.018c0.055,0.003,0.107,0.005,0.158,0.008l0.064,0.002
			c-0.011,0.007,0.068-0.013-0.017,0.015c-0.08,0.041-0.073,0.135-0.074,0.185c-0.009,0.087,0.131,0.143,0.107,0.124l-0.027-0.008
			l-0.054-0.017c-0.04-0.009-0.077-0.019-0.111-0.026c-0.07-0.016-0.13-0.029-0.179-0.04c-0.099-0.021-0.15-0.032-0.15-0.032
			L100.883,234.9z"/>
	</g>
	<g>
		<path fill="#AF833F" d="M72.097,279.489c0,0,0.327-0.175,0.899-0.482c0.287-0.151,0.636-0.335,1.036-0.547
			c0.408-0.195,0.89-0.385,1.408-0.61c0.521-0.219,1.083-0.479,1.701-0.661c0.617-0.196,1.269-0.403,1.942-0.618
			c0.692-0.152,1.407-0.311,2.133-0.471c0.725-0.19,1.481-0.245,2.234-0.348c0.754-0.088,1.51-0.232,2.259-0.238
			c0.75-0.039,1.491-0.062,2.208-0.054c0.717,0.006,1.397,0.168,2.042,0.284c0.645,0.122,1.249,0.255,1.801,0.394
			c2.178,0.746,3.498,1.517,3.498,1.517l-0.055,0.191c0,0-1.563,0.099-3.718-0.132c-0.55,0.002-1.14-0.014-1.757-0.049
			c-0.621-0.003-1.264-0.127-1.936-0.126c-0.672-0.022-1.363-0.079-2.071-0.152c-0.709-0.105-1.428-0.033-2.15-0.039
			c-0.722,0.024-1.452,0.001-2.156,0.114c-0.71,0.082-1.41,0.163-2.087,0.242c-0.669,0.137-1.316,0.268-1.929,0.393
			c-0.625,0.099-1.186,0.276-1.714,0.422c-0.526,0.151-1.016,0.273-1.443,0.413c-0.425,0.154-0.796,0.289-1.101,0.399
			c-0.612,0.217-0.962,0.342-0.962,0.342L72.097,279.489z"/>
	</g>
	<g>
		<path fill="#AF833F" d="M109.974,329.122c0,0-0.592,0.167-1.484,0.376c-0.44,0.117-0.976,0.215-1.514,0.375
			c-0.542,0.157-1.119,0.294-1.691,0.439c-0.578,0.124-1.103,0.454-1.632,0.567c-0.265,0.056-0.526,0.089-0.782,0.094
			c-0.258,0.007-0.477,0.044-0.702,0.045c-0.873,0.037-1.627-0.178-1.627-0.178l-0.082-0.182c0,0,0.388-0.61,1.227-1.166
			c0.207-0.132,0.437-0.31,0.69-0.397c0.252-0.103,0.525-0.185,0.814-0.247c0.583-0.098,1.225-0.104,1.849-0.117
			c0.625-0.014,1.245-0.036,1.825-0.029c0.582-0.018,1.107,0.06,1.567,0.086c0.914,0.063,1.526,0.135,1.526,0.135L109.974,329.122z"
			/>
	</g>
	<g>
		<path fill="#AF833F" d="M76.466,339.609c0,0,0.287-0.168,0.789-0.461c0.252-0.146,0.558-0.321,0.908-0.522
			c0.37-0.177,0.788-0.375,1.243-0.592c0.455-0.23,0.959-0.444,1.5-0.645c0.541-0.203,1.107-0.445,1.712-0.619
			c0.606-0.182,1.231-0.369,1.867-0.56c0.642-0.17,1.3-0.31,1.956-0.468c0.655-0.175,1.318-0.293,1.97-0.42
			c0.651-0.131,1.297-0.254,1.925-0.328c1.258-0.075,2.44-0.066,3.448,0.024c2.018,0.209,3.342,0.631,3.342,0.631v0.199
			c0,0-1.323,0.478-3.278,0.769c-0.488,0.08-1.014,0.188-1.571,0.262c-0.556,0.092-1.144,0.148-1.753,0.19
			c-0.607,0.055-1.235,0.095-1.879,0.112c-0.645,0.014-1.296,0.058-1.941,0.14c-0.646,0.079-1.297,0.142-1.933,0.235
			c-0.632,0.113-1.254,0.226-1.855,0.334c-0.607,0.096-1.167,0.283-1.719,0.396c-0.553,0.118-1.066,0.253-1.528,0.408
			c-0.47,0.146-0.9,0.277-1.282,0.396c-0.378,0.145-0.707,0.271-0.979,0.376c-0.544,0.205-0.855,0.321-0.855,0.321L76.466,339.609z"
			/>
	</g>
	<g>
		<path fill="#AF833F" d="M102.977,413.494c0,0-0.746-0.083-1.866-0.209c-1.113-0.108-2.593-0.27-4.055-0.374
			c-0.366-0.036-0.733-0.021-1.094-0.018c-0.359,0.015-0.713-0.009-1.045-0.015c-0.333-0.025-0.653-0.072-0.957-0.144
			c-0.305-0.065-0.583-0.113-0.851-0.185c-0.264-0.056-0.516-0.156-0.731-0.204c-0.217-0.056-0.411-0.111-0.576-0.168
			c-0.329-0.108-0.535-0.205-0.535-0.205l-0.033-0.197c0,0,0.165-0.135,0.484-0.31c0.159-0.09,0.358-0.187,0.593-0.288
			c0.236-0.098,0.498-0.161,0.792-0.228c0.292-0.059,0.62-0.144,0.953-0.155c0.335-0.022,0.688-0.02,1.053,0.008
			c0.365,0.027,0.725,0.133,1.093,0.231c0.365,0.098,0.736,0.197,1.107,0.296c0.738,0.193,1.473,0.383,2.145,0.616
			c0.678,0.206,1.299,0.45,1.829,0.647c1.058,0.397,1.745,0.706,1.745,0.706L102.977,413.494z"/>
	</g>
</g>
</svg>
