<?xml version="1.0" encoding="utf-8"?>
<!-- Generator: Adobe Illustrator 16.0.0, SVG Export Plug-In . SVG Version: 6.00 Build 0)  -->
<!DOCTYPE svg PUBLIC "-//W3C//DTD SVG 1.1//EN" "http://www.w3.org/Graphics/SVG/1.1/DTD/svg11.dtd">
<svg version="1.1" id="Background_xA0_Image_1_" xmlns="http://www.w3.org/2000/svg" xmlns:xlink="http://www.w3.org/1999/xlink"
	 x="0px" y="0px" width="195.478px" height="115.021px" viewBox="0 0 195.478 115.021" enable-background="new 0 0 195.478 115.021"
	 xml:space="preserve">
<g>
	<path fill="#77A9CA" d="M11.515,44.748L36.966,66.08c0.542,0.427,1.079,0.764,1.609,1.011c0.531,0.247,1.06,0.442,1.583,0.582
		l-11.972,6.912c-0.018-0.285-0.085-0.579-0.203-0.88s-0.258-0.59-0.418-0.867c-0.271-0.471-0.601-0.881-0.987-1.231
		c-0.387-0.349-0.777-0.706-1.172-1.069l-8.147,4.704c0.002,0.517,0.081,1.053,0.236,1.609c0.155,0.558,0.361,1.058,0.617,1.501
		c0.128,0.222,0.302,0.444,0.523,0.667c0.221,0.225,0.455,0.356,0.701,0.398l0.12,0.208l-12.055,6.96
		c0.251-0.847,0.316-1.706,0.199-2.581s-0.255-1.802-0.414-2.782L2.531,54.147c-0.045-0.27-0.127-0.62-0.246-1.05
		c-0.119-0.431-0.25-0.771-0.395-1.02c-0.191-0.332-0.434-0.543-0.726-0.634c-0.293-0.089-0.611-0.146-0.957-0.168L11.515,44.748z
		 M19.35,64.943l-7.209-7.975l-0.166,0.096l3.385,10.184L19.35,64.943z"/>
	<path fill="#77A9CA" d="M32.257,32.772l16.917,9.908l0.035-0.13L42.321,30.62c-0.271-0.471-0.617-0.909-1.035-1.314
		c-0.419-0.404-0.92-0.696-1.504-0.877l10.891-6.288c-0.137,0.597-0.133,1.176,0.008,1.741c0.141,0.565,0.348,1.083,0.62,1.554
		l13.92,24.11c0.272,0.472,0.617,0.91,1.035,1.314c0.42,0.406,0.921,0.698,1.505,0.877l-9.52,5.496L41.036,46.825L41,46.957
		l7.176,12.43c0.272,0.471,0.617,0.909,1.036,1.312c0.419,0.406,0.92,0.698,1.505,0.878l-10.891,6.288
		c0.136-0.596,0.133-1.176-0.009-1.741c-0.142-0.563-0.348-1.083-0.62-1.554l-13.92-24.11c-0.271-0.471-0.617-0.909-1.035-1.314
		c-0.42-0.404-0.92-0.696-1.504-0.877L32.257,32.772z"/>
	<path fill="#77A9CA" d="M62.27,15.445l16.917,9.908l0.034-0.131l-6.888-11.931c-0.272-0.471-0.617-0.908-1.036-1.314
		c-0.418-0.405-0.92-0.697-1.504-0.877l10.892-6.288c-0.137,0.596-0.134,1.176,0.007,1.741c0.143,0.565,0.35,1.083,0.621,1.554
		l13.92,24.11c0.272,0.471,0.617,0.91,1.035,1.313c0.419,0.406,0.92,0.698,1.505,0.877l-9.52,5.496L71.048,29.498l-0.035,0.131
		l7.176,12.429c0.272,0.471,0.618,0.91,1.036,1.313c0.419,0.406,0.92,0.698,1.504,0.878l-10.891,6.288
		c0.136-0.595,0.133-1.175-0.008-1.742c-0.142-0.563-0.348-1.082-0.62-1.554l-13.92-24.11c-0.272-0.471-0.618-0.908-1.036-1.313
		c-0.419-0.405-0.92-0.697-1.504-0.877L62.27,15.445z"/>
	<path fill="#77A9CA" d="M110.208,0.021l16.795,14.075c0.542,0.427,1.079,0.764,1.609,1.011c0.531,0.248,1.059,0.442,1.583,0.582
		l-11.972,6.912c-0.018-0.285-0.085-0.579-0.203-0.88c-0.118-0.301-0.258-0.59-0.418-0.867c-0.271-0.471-0.601-0.881-0.987-1.23
		s-0.777-0.706-1.172-1.07l-8.147,4.704c0.002,0.517,0.081,1.053,0.235,1.61c0.156,0.557,0.362,1.057,0.618,1.5
		c0.128,0.222,0.302,0.445,0.523,0.667c0.221,0.225,0.455,0.356,0.701,0.399l0.12,0.208l-12.055,6.96
		c0.25-0.846,0.316-1.707,0.199-2.582s-0.255-1.801-0.414-2.782L92.568,2.164c-0.045-0.27-0.127-0.62-0.246-1.05
		c-0.119-0.43-0.25-0.77-0.395-1.02 M109.387,12.96l-7.209-7.976l-0.166,0.096l3.385,10.184L109.387,12.96z"/>
	<path fill="#77A9CA" d="M27.978,115.021L17.516,96.902c-0.271-0.471-0.617-0.908-1.036-1.313s-0.92-0.697-1.504-0.878l19.329-11.16
		l5.088,8.812c-0.73,0.017-1.461,0.188-2.194,0.52c-0.732,0.331-1.418,0.68-2.055,1.048l-5.113,2.952l1.8,3.117l3.035-1.752
		c0.969-0.56,1.772-1.281,2.407-2.166l4.56,7.898c-1.082,0.107-2.109,0.442-3.079,1.002l-3.035,1.752l4.784,8.287"/>
	<path fill="#77A9CA" d="M59.078,97.848l2.618-1.512c0.638-0.368,1.283-0.786,1.936-1.256c0.652-0.469,1.168-1.016,1.547-1.642
		l5.088,8.812l-16.836,9.721c0.137-0.596,0.134-1.177-0.007-1.742c-0.142-0.563-0.349-1.082-0.62-1.554l-13.92-24.11
		c-0.272-0.471-0.617-0.908-1.036-1.314c-0.419-0.404-0.921-0.696-1.505-0.877l11.308-6.528c-0.137,0.597-0.134,1.177,0.007,1.742
		c0.143,0.565,0.35,1.083,0.621,1.554L59.078,97.848z"/>
	<path fill="#77A9CA" d="M89.762,90.996l-18.374,10.608c0.136-0.596,0.134-1.176-0.008-1.741c-0.142-0.564-0.348-1.083-0.62-1.554
		l-13.92-24.11c-0.271-0.472-0.617-0.909-1.036-1.314c-0.419-0.404-0.92-0.697-1.504-0.877l18.374-10.608l5.159,8.938
		c-0.813,0.063-1.653,0.271-2.521,0.624c-0.868,0.354-1.676,0.746-2.424,1.178l-3.949,2.28l1.8,3.117l2.121-1.224
		c0.554-0.32,1.07-0.673,1.549-1.061s0.931-0.852,1.357-1.393l4.56,7.896c-0.683,0.1-1.311,0.259-1.886,0.479
		c-0.574,0.221-1.139,0.491-1.692,0.812l-2.12,1.224l1.992,3.45l3.949-2.279c0.748-0.433,1.491-0.936,2.231-1.511
		c0.739-0.574,1.34-1.198,1.802-1.871L89.762,90.996z"/>
	<path fill="#77A9CA" d="M105.638,42.367c-0.2,0.485-0.265,0.919-0.19,1.302c0.072,0.383,0.237,0.797,0.493,1.239
		c0.257,0.444,0.578,0.905,0.965,1.383l16.55,20.984c0.451,0.59,0.947,1.098,1.489,1.523c0.542,0.427,1.216,0.666,2.021,0.718
		l-11.557,6.672c0.228-0.5,0.293-0.964,0.196-1.388c-0.098-0.424-0.273-0.858-0.529-1.302c-0.416-0.721-0.904-1.437-1.463-2.149
		c-0.559-0.711-1.073-1.411-1.545-2.1l-6.903-10.037l-0.083,0.048l3.812,21.577L92.362,66.604l-0.083,0.048l5.241,10.997
		c0.332,0.769,0.674,1.569,1.025,2.4c0.351,0.833,0.734,1.608,1.15,2.329c0.256,0.443,0.543,0.813,0.862,1.109
		c0.318,0.297,0.753,0.472,1.3,0.524l-11.556,6.672c0.358-0.724,0.475-1.419,0.348-2.085c-0.126-0.666-0.304-1.357-0.533-2.076
		L79.969,61.842c-0.221-0.573-0.459-1.083-0.716-1.526c-0.256-0.443-0.531-0.793-0.826-1.048c-0.295-0.254-0.702-0.416-1.222-0.485
		l10.683-6.168L98.015,61.9l0.083-0.049l-2.977-13.412L105.638,42.367z"/>
	<path fill="#77A9CA" d="M121.434,33.247c-0.137,0.596-0.134,1.177,0.008,1.742c0.141,0.565,0.348,1.083,0.62,1.554l13.92,24.11
		c0.272,0.472,0.617,0.91,1.036,1.313c0.418,0.406,0.92,0.698,1.504,0.878l-11.307,6.528c0.136-0.596,0.133-1.176-0.008-1.742
		c-0.142-0.563-0.349-1.082-0.621-1.553l-13.92-24.111c-0.271-0.471-0.617-0.909-1.035-1.314c-0.419-0.405-0.92-0.697-1.504-0.878
		L121.434,33.247z"/>
	<path fill="#77A9CA" d="M133.239,26.431l16.917,9.909l0.035-0.131l-6.888-11.931c-0.271-0.471-0.617-0.908-1.035-1.314
		c-0.42-0.405-0.921-0.697-1.505-0.877l10.892-6.288c-0.137,0.597-0.135,1.177,0.007,1.742c0.142,0.565,0.349,1.083,0.62,1.554
		l13.92,24.11c0.272,0.471,0.617,0.91,1.036,1.313c0.419,0.405,0.92,0.698,1.505,0.877l-9.52,5.496l-17.205-10.408l-0.035,0.131
		l7.176,12.43c0.272,0.471,0.617,0.91,1.036,1.313c0.418,0.405,0.92,0.698,1.504,0.878l-10.891,6.288
		c0.136-0.596,0.133-1.176-0.008-1.742c-0.142-0.563-0.348-1.082-0.62-1.554l-13.92-24.11c-0.271-0.471-0.617-0.908-1.036-1.313
		c-0.419-0.405-0.92-0.697-1.504-0.878L133.239,26.431z"/>
	<path fill="#77A9CA" d="M180.405,13.278c-0.965-0.071-2.003-0.044-3.113,0.08c-1.111,0.124-2.061,0.432-2.848,0.923
		c-0.859,0.496-1.554,1.119-2.082,1.867c-0.528,0.749-0.885,1.556-1.069,2.419c-0.185,0.865-0.204,1.744-0.057,2.637
		c0.146,0.895,0.46,1.757,0.94,2.589c0.479,0.831,1.066,1.527,1.76,2.088c0.692,0.562,1.451,0.963,2.276,1.208
		c0.824,0.245,1.689,0.318,2.594,0.22c0.904-0.097,1.786-0.394,2.646-0.89s1.386-1.021,1.583-1.579l-1.345-2.328l-2.868,1.656
		c-0.305,0.177-0.598,0.373-0.878,0.591c-0.282,0.218-0.514,0.454-0.699,0.708l-4.129-7.15c0.314-0.033,0.635-0.117,0.964-0.251
		c0.329-0.134,0.646-0.29,0.95-0.465l11.349-6.552l6.815,11.806c0.288,0.499,0.625,0.923,1.013,1.273
		c0.387,0.35,0.81,0.668,1.271,0.955c-0.245,0.919-0.618,1.873-1.118,2.863c-0.5,0.991-1.129,1.964-1.889,2.919
		c-0.76,0.957-1.627,1.872-2.599,2.748c-0.973,0.875-2.041,1.649-3.204,2.321c-2.135,1.232-4.355,1.96-6.665,2.186
		c-2.31,0.224-4.544,0.018-6.704-0.62c-2.16-0.637-4.161-1.671-6.003-3.102c-1.843-1.431-3.363-3.186-4.563-5.264
		c-1.199-2.078-1.959-4.272-2.276-6.583c-0.318-2.311-0.227-4.552,0.273-6.726c0.5-2.173,1.404-4.191,2.712-6.055
		s2.986-3.387,5.037-4.571c0.609-0.352,1.169-0.6,1.676-0.746c0.507-0.145,1.011-0.362,1.51-0.65
		c0.415-0.24,0.818-0.501,1.211-0.782c0.392-0.282,0.741-0.604,1.05-0.966L180.405,13.278z"/>
</g>
</svg>
