<?xml version="1.0" encoding="utf-8"?>
<!-- Generator: Adobe Illustrator 16.0.0, SVG Export Plug-In . SVG Version: 6.00 Build 0)  -->
<!DOCTYPE svg PUBLIC "-//W3C//DTD SVG 1.1//EN" "http://www.w3.org/Graphics/SVG/1.1/DTD/svg11.dtd">
<svg version="1.1" id="Layer_5_6_" xmlns="http://www.w3.org/2000/svg" xmlns:xlink="http://www.w3.org/1999/xlink" x="0px" y="0px"
	 width="502.333px" height="195.012px" viewBox="0 4400.07 502.333 195.012" enable-background="new 0 4400.07 502.333 195.012"
	 xml:space="preserve">
<ellipse fill="#AF833F" cx="482.966" cy="4454.467" rx="18.539" ry="1.636"/>
<ellipse fill="#AF833F" cx="43.419" cy="4520.984" rx="43.405" ry="3.7"/>
<ellipse fill="#AF833F" stroke="#E1A850" stroke-width="4" stroke-miterlimit="10" cx="412.742" cy="4574.741" rx="51.686" ry="6.271"/>
<ellipse fill="#AF833F" stroke="#E1A850" stroke-width="4" stroke-miterlimit="10" cx="194.218" cy="4576.116" rx="36.46" ry="6.27"/>
<g>
	<path fill="#25A35A" d="M54.18,4490.344c2.093-5.073,5.676-10.534,8.382-12.425s11.26-4.029,10.514,2.394
		c-0.748,6.425-12.838,12.571-16.812,13.044c-3.973,0.477-4.884,0.038-4.884,0.038l2.204-2.88L54.18,4490.344z"/>
	<path fill="#25A35A" d="M49.379,4483.011c-0.202,2.439,0.665,4.5,1.935,4.607c1.269,0.104,2.46-1.79,2.661-4.229
		c0.201-2.44-0.666-4.504-1.934-4.607C50.771,4478.677,49.58,4480.57,49.379,4483.011z"/>
	<path fill="#228C4D" d="M64.491,4474.971c0.593,1.579,1.74,2.61,2.562,2.303c0.821-0.31,1.006-1.839,0.414-3.418
		c-0.593-1.58-1.74-2.611-2.561-2.304C64.084,4471.859,63.898,4473.39,64.491,4474.971z"/>
	<path fill="#1F8749" d="M19.666,4477.275c0.294,1.661,1.232,2.885,2.096,2.732s1.326-1.623,1.033-3.286
		c-0.292-1.661-1.232-2.885-2.096-2.732C19.834,4474.143,19.371,4475.612,19.666,4477.275z"/>
	<path fill="#267F4A" d="M79.575,4497.277c0.268,2.164,1.396,3.805,2.521,3.667c1.125-0.14,1.822-2.006,1.554-4.171
		c-0.268-2.163-1.396-3.806-2.521-3.666C80.003,4493.246,79.308,4495.114,79.575,4497.277z"/>
	<path fill="#228C4D" d="M72.278,4474.616c-1.095,1.285-1.442,2.787-0.773,3.356c0.668,0.568,2.097-0.01,3.191-1.295
		c1.095-1.285,1.442-2.787,0.773-3.355C74.802,4472.752,73.372,4473.332,72.278,4474.616z"/>
	<path fill="#267F4A" d="M58.993,4501.993c-1.095,1.285-1.441,2.786-0.773,3.358c0.667,0.568,2.096-0.012,3.191-1.295
		c1.095-1.283,1.441-2.787,0.773-3.355C61.517,4500.129,60.088,4500.709,58.993,4501.993z"/>
	
		<ellipse transform="matrix(-0.1763 0.9843 -0.9843 -0.1763 4445.6133 5256.2969)" fill="#3FB26E" cx="23.626" cy="4488.147" rx="9.731" ry="5.761"/>
	
		<ellipse transform="matrix(0.6104 0.7921 -0.7921 0.6104 3576.0918 1737.616)" fill="#25A35A" cx="21.649" cy="4504.132" rx="9.731" ry="6.692"/>
	<path fill="#1F8749" d="M32.939,4497.131c-3.643-1.019-7.717,2.166-9.101,7.112c-1.383,4.947,0.447,9.784,4.089,10.803
		c3.642,1.018,7.716-2.167,9.099-7.114C38.411,4502.986,36.58,4498.15,32.939,4497.131z"/>
	<path fill="#1F8749" d="M4.572,4498.152c-2.265,0.982-2.49,5.491-0.506,10.069c1.986,4.577,5.431,7.493,7.695,6.512
		s2.49-5.489,0.506-10.068C10.281,4500.085,6.837,4497.17,4.572,4498.152z"/>
	<path fill="#1F8749" d="M58.418,4504.808c1.702,2.521-0.328,6.866-4.536,9.707c-4.208,2.842-8.999,3.1-10.7,0.578
		c-1.703-2.522,0.328-6.868,4.536-9.709C51.924,4502.542,56.716,4502.286,58.418,4504.808z"/>
	
		<ellipse transform="matrix(-0.6149 -0.7886 0.7886 -0.6149 -3429.6548 7338.1528)" fill="#1F8749" cx="77.037" cy="4506.545" rx="3.824" ry="8.482"/>
	
		<ellipse transform="matrix(-0.3539 -0.9353 0.9353 -0.3539 -4135.9985 6167.2168)" fill="#25A35A" cx="62.261" cy="4512.251" rx="5.343" ry="10.133"/>
	
		<ellipse transform="matrix(-0.354 -0.9353 0.9353 -0.354 -4154.3672 6160.3584)" fill="#58A577" cx="50.415" cy="4514.97" rx="6.314" ry="9.342"/>
	<path fill="#2ECC71" d="M17.485,4518.372c-0.715,2.122-4.513,2.76-8.483,1.422c-3.969-1.339-6.608-4.143-5.893-6.267
		c0.716-2.12,4.513-2.758,8.483-1.421C15.563,4513.444,18.201,4516.249,17.485,4518.372z"/>
	<path fill="#25A35A" d="M31.298,4514.24c0.243,2.975-3.397,5.699-8.129,6.084c-4.733,0.385-8.767-1.712-9.009-4.687
		c-0.243-2.974,3.397-5.698,8.13-6.085C27.023,4509.167,31.056,4511.266,31.298,4514.24z"/>
	<path fill="#62BF88" d="M42.59,4520.567c-2.412,2.523-7.552,1.522-11.478-2.235c-3.928-3.755-5.155-8.845-2.742-11.367
		c2.411-2.522,7.551-1.522,11.479,2.234S45.003,4518.046,42.59,4520.567z"/>
	<path fill="#3FB26E" d="M48.298,4506.339c-2.289-3.178-4.72-9.061-4.199-12.732c0.521-3.673,4.142-7.82,6.891-7.594
		c2.75,0.226,6.236,5.687,4.042,11.99c-2.194,6.305-2.062,5.587-3.429,8.024C50.235,4508.465,48.298,4506.339,48.298,4506.339z"/>
</g>
<g>
	<path fill="#25A35A" d="M478.334,4440.333c-0.941-2.279-2.551-4.734-3.767-5.583c-1.216-0.85-5.06-1.811-4.725,1.077
		c0.335,2.886,5.77,5.647,7.556,5.861c1.785,0.214,2.195,0.016,2.195,0.016l-0.991-1.294L478.334,4440.333z"/>
	
		<ellipse transform="matrix(-0.0819 -0.9966 0.9966 -0.0819 -3903.5771 5278.2012)" fill="#25A35A" cx="479.413" cy="4437.134" rx="1.992" ry="1.036"/>
	
		<ellipse transform="matrix(0.351 -0.9364 0.9364 0.351 -3844.0864 3320.042)" fill="#228C4D" cx="473.048" cy="4433.16" rx="1.373" ry="0.715"/>
	
		<ellipse transform="matrix(0.1741 -0.9847 0.9847 0.1741 -3959.3252 4147.8022)" fill="#1F8749" cx="493.145" cy="4434.344" rx="1.374" ry="0.713"/>
	<path fill="#267F4A" d="M466.92,4443.451c-0.12,0.971-0.628,1.708-1.132,1.646c-0.506-0.063-0.818-0.902-0.698-1.875
		c0.119-0.972,0.627-1.71,1.132-1.647C466.729,4441.638,467.041,4442.476,466.92,4443.451z"/>
	
		<ellipse transform="matrix(-0.6485 -0.7612 0.7612 -0.6485 -2600.8823 7666.4785)" fill="#228C4D" cx="469.682" cy="4433.76" rx="1.373" ry="0.714"/>
	
		<ellipse transform="matrix(-0.6487 -0.7611 0.7611 -0.6487 -2599.5283 7692.1377)" fill="#267F4A" cx="475.652" cy="4446.064" rx="1.373" ry="0.714"/>
	
		<ellipse transform="matrix(-0.1762 -0.9844 0.9844 -0.1762 -3791.21 5705.8535)" fill="#3FB26E" cx="492.01" cy="4439.359" rx="4.373" ry="2.589"/>
	
		<ellipse transform="matrix(0.6103 -0.7921 0.7921 0.6103 -3330.1057 2123.0486)" fill="#25A35A" cx="492.944" cy="4446.449" rx="4.373" ry="3.007"/>
	
		<ellipse transform="matrix(-0.9631 0.2691 -0.2691 -0.9631 2156.9226 8599.1543)" fill="#1F8749" cx="488.989" cy="4447.434" rx="3.077" ry="4.18"/>
	
		<ellipse transform="matrix(-0.9176 -0.3975 0.3975 -0.9176 -811.0659 8726.9814)" fill="#1F8749" cx="499.039" cy="4447.56" rx="2.008" ry="4.061"/>
	
		<ellipse transform="matrix(-0.5595 0.8288 -0.8288 -0.5595 4435.9688 6540.7217)" fill="#1F8749" cx="479.863" cy="4449.168" rx="2.475" ry="4.129"/>
	
		<ellipse transform="matrix(-0.6148 0.7887 -0.7887 -0.6148 4263.5215 6812.8589)" fill="#1F8749" cx="468.045" cy="4447.591" rx="1.719" ry="3.812"/>
	
		<ellipse transform="matrix(-0.3538 0.9353 -0.9353 -0.3538 4805.0449 5580.4741)" fill="#25A35A" cx="474.731" cy="4450.154" rx="2.401" ry="4.554"/>
	
		<ellipse transform="matrix(-0.3539 0.9353 -0.9353 -0.3539 4813.2461 5577.9336)" fill="#58A577" cx="480.013" cy="4451.455" rx="2.838" ry="4.198"/>
	
		<ellipse transform="matrix(0.3192 0.9477 -0.9477 0.3192 4558.1543 2558.9407)" fill="#2ECC71" cx="498.109" cy="4451.848" rx="1.823" ry="3.409"/>
	
		<ellipse transform="matrix(-0.0813 0.9967 -0.9967 -0.0813 4969.1387 4322.5908)" fill="#25A35A" cx="492.488" cy="4451.34" rx="2.428" ry="3.863"/>
	
		<ellipse transform="matrix(0.6914 0.7225 -0.7225 0.6914 3365.968 1021.946)" fill="#62BF88" cx="486.789" cy="4450.865" rx="2.84" ry="4.422"/>
	<path fill="#3FB26E" d="M480.977,4447.522c1.028-1.428,2.121-4.071,1.888-5.721c-0.234-1.652-1.861-3.517-3.097-3.414
		c-1.237,0.101-2.803,2.556-1.816,5.389c0.986,2.833,0.927,2.51,1.541,3.606C480.105,4448.478,480.977,4447.522,480.977,4447.522z"
		/>
</g>
<g>
	<g id="Layer_5_7_">
		<path fill="#208247" d="M371.833,4582.17c2.376,0.313,5.32,0.069,6.635,0.841s2.373,1.601,2.592,2.026
			c0.218,0.426-0.157,0.723-0.571,1.009c-0.414,0.283,0.027,0.368,0.126,0.541c0.098,0.171,0.435,1.16,0.578,1.564
			c0.145,0.406,0.575,0.418-0.4,1.259c-0.976,0.837-1.894,1.904-2.97,1.874c-1.077-0.028-1.603,1.27-1.777-0.432
			c0,0-2.043-0.491-0.361-2.184c1.681-1.689,2.019-3.336,0.783-4.409c-1.235-1.074-4.659-1.536-4.968-1.69
			C371.19,4582.412,371.833,4582.17,371.833,4582.17z"/>
	</g>
	<g id="Layer_4_7_">
		<path fill="#25A35A" d="M372.787,4582.333c0.882-0.107,7.245-1.273,8.355-2.058c1.111-0.784,1.537-0.746,2.058-0.882
			c0.521-0.137,0.498,0.643,0.958,0.717c0.459,0.074,1.028-0.039,1.265,0.439c0.237,0.477-0.203,0.764,0.012,1.217
			c0.214,0.453,0.043,0.295-0.658,0.417c-0.702,0.122-1.598,0.153-1.891,0.82c-0.292,0.667,0.045,0.853-0.348,1.007
			s-0.957-0.54-1.831-0.818c-0.874-0.28-5.614-1.187-7.955-0.338C370.413,4583.703,372.787,4582.333,372.787,4582.333z"/>
	</g>
	<g id="Layer_3_7_">
		<path fill="#2ECC71" d="M372.098,4582.377c1.855-0.609,3.541-0.664,4.112-1.271c0.571-0.608,0.036-0.703,0.288-1.289
			c0.254-0.586,1.335-1.743,1.277-2.361c-0.056-0.618,0.214-1.309,1.063-1.857c0.849-0.545,1.766,0.098,1.995,0.782
			c0.229,0.686,0.911,0.2,0.911,0.2s0.673-1.233,1.765-1.018c1.093,0.216,1.358,0.511,1.718,0.72c0,0-0.09,1.199-1.498,2.43
			c-1.406,1.229-3.347,2.362-4.723,2.76c-1.375,0.398-5.585,1.131-6.295,1.151C372.002,4582.642,372.098,4582.377,372.098,4582.377z
			"/>
	</g>
	<g id="Layer_2_7_">
		<path fill="#CE7E15" d="M373.688,4582.616c-0.134-2.097-1.036-3.765-2.688-3.565c-1.651,0.198-21.438,5.312-27.137,10.476
			c0,0,14.01,0.714,19.11-0.394c5.102-1.106,7.767-1.684,8.931-2.847c1.163-1.161,1.819-2.982,1.818-3.233
			S373.688,4582.616,373.688,4582.616z"/>
	</g>
	<g id="Layer_6_7_">
		<g>
			<path fill="#46515D" d="M368.584,4587.829c0,0,0.048-0.067,0.13-0.188c0.043-0.06,0.095-0.133,0.147-0.219
				c0.053-0.086,0.117-0.178,0.178-0.286c0.062-0.106,0.135-0.219,0.196-0.343c0.032-0.063,0.067-0.127,0.102-0.191
				c0.035-0.063,0.066-0.133,0.1-0.2c0.071-0.136,0.135-0.278,0.201-0.423c0.066-0.144,0.124-0.293,0.184-0.441
				c0.055-0.149,0.112-0.299,0.157-0.446c0.05-0.148,0.089-0.295,0.129-0.435c0.036-0.142,0.069-0.279,0.094-0.408
				c0.012-0.065,0.023-0.129,0.036-0.189c0.011-0.06,0.017-0.119,0.025-0.174c0.019-0.115,0.021-0.217,0.029-0.308
				c0.005-0.09,0.001-0.169,0.002-0.232c-0.004-0.063-0.012-0.112-0.015-0.146c-0.004-0.033-0.006-0.052-0.006-0.052l0.01-0.004
				c0,0,0.002,0.019,0.007,0.052c0.004,0.033,0.014,0.081,0.02,0.145c0,0.064,0.007,0.142,0.005,0.233
				c-0.005,0.091-0.005,0.193-0.02,0.308c-0.007,0.057-0.012,0.114-0.02,0.175c-0.009,0.062-0.02,0.126-0.03,0.19
				c-0.009,0.064-0.025,0.132-0.04,0.201c-0.015,0.069-0.027,0.14-0.046,0.21c-0.036,0.143-0.072,0.289-0.12,0.439
				c-0.042,0.149-0.097,0.3-0.148,0.452c-0.056,0.148-0.111,0.301-0.174,0.447c-0.063,0.147-0.125,0.292-0.195,0.431
				c-0.067,0.138-0.138,0.269-0.211,0.394c-0.067,0.123-0.146,0.236-0.211,0.344c-0.032,0.054-0.066,0.102-0.102,0.148
				c-0.034,0.047-0.066,0.091-0.096,0.135c-0.031,0.04-0.058,0.08-0.085,0.113c-0.028,0.036-0.055,0.067-0.078,0.095
				c-0.094,0.114-0.148,0.18-0.148,0.18L368.584,4587.829z"/>
		</g>
		<g>
			<path fill="#46515D" d="M364.081,4580.824c0,0,0.053-0.003,0.144-0.004c0.045-0.001,0.101-0.003,0.163,0.001
				c0.063,0.003,0.135,0.003,0.21,0.009c0.153,0.013,0.331,0.029,0.515,0.064c0.092,0.02,0.186,0.037,0.28,0.063
				c0.095,0.021,0.189,0.052,0.283,0.077c0.092,0.031,0.187,0.058,0.276,0.092c0.09,0.031,0.176,0.064,0.26,0.1
				c0.083,0.036,0.161,0.073,0.234,0.109c0.073,0.038,0.14,0.074,0.2,0.111c0.122,0.072,0.212,0.146,0.276,0.199
				c0.057,0.058,0.091,0.09,0.091,0.09l-0.007,0.006c0,0-0.035-0.029-0.095-0.083c-0.067-0.05-0.16-0.118-0.285-0.184
				c-0.062-0.034-0.131-0.067-0.205-0.101c-0.075-0.033-0.153-0.066-0.237-0.098c-0.084-0.032-0.171-0.064-0.263-0.093
				c-0.09-0.028-0.184-0.054-0.279-0.079c-0.095-0.022-0.189-0.047-0.285-0.065c-0.094-0.019-0.188-0.037-0.279-0.053
				c-0.09-0.02-0.181-0.029-0.264-0.047c-0.084-0.017-0.164-0.026-0.238-0.04c-0.074-0.01-0.142-0.02-0.202-0.027
				c-0.061-0.01-0.114-0.016-0.157-0.021c-0.088-0.012-0.138-0.02-0.138-0.02L364.081,4580.824z"/>
		</g>
		<g>
			<path fill="#46515D" d="M361.497,4589.374c0,0,0.022-0.031,0.063-0.084c0.04-0.054,0.101-0.127,0.173-0.215
				c0.039-0.044,0.075-0.094,0.113-0.145c0.04-0.052,0.082-0.104,0.125-0.16c0.047-0.053,0.086-0.114,0.129-0.172
				c0.042-0.061,0.091-0.12,0.128-0.183c0.039-0.065,0.076-0.129,0.114-0.191c0.035-0.062,0.063-0.126,0.094-0.189
				c0.033-0.06,0.052-0.121,0.078-0.179c0.023-0.059,0.045-0.112,0.062-0.163c0.036-0.103,0.063-0.188,0.083-0.248
				c0.019-0.062,0.03-0.096,0.03-0.096l0.009,0.002c0,0-0.009,0.033-0.025,0.096c-0.014,0.059-0.039,0.146-0.067,0.248
				c-0.014,0.051-0.032,0.107-0.053,0.167c-0.021,0.059-0.039,0.12-0.069,0.185c-0.029,0.063-0.055,0.131-0.087,0.195
				c-0.035,0.065-0.071,0.133-0.107,0.2c-0.036,0.065-0.082,0.127-0.122,0.191c-0.04,0.062-0.079,0.127-0.126,0.182
				c-0.046,0.057-0.091,0.111-0.134,0.161c-0.043,0.052-0.084,0.101-0.126,0.139c-0.083,0.081-0.151,0.148-0.202,0.192
				c-0.05,0.048-0.079,0.072-0.079,0.072L361.497,4589.374z"/>
		</g>
		<g>
			<path fill="#46515D" d="M351.54,4589.743c0,0,0.031-0.048,0.091-0.134c0.028-0.043,0.064-0.095,0.104-0.154
				c0.04-0.058,0.084-0.127,0.131-0.199c0.098-0.145,0.2-0.32,0.308-0.506c0.053-0.096,0.107-0.191,0.156-0.292
				c0.054-0.101,0.098-0.203,0.145-0.307c0.041-0.104,0.083-0.209,0.115-0.312c0.037-0.104,0.06-0.206,0.087-0.306
				c0.02-0.099,0.042-0.197,0.054-0.287c0.007-0.045,0.014-0.089,0.019-0.133c0.003-0.042,0.006-0.083,0.01-0.123
				c0.01-0.078,0.008-0.149,0.01-0.213c0.002-0.064,0-0.118-0.004-0.163c-0.005-0.089-0.008-0.141-0.008-0.141l0.01-0.004
				c0,0,0.005,0.05,0.015,0.141c0.005,0.043,0.009,0.098,0.009,0.161c0.001,0.064,0.006,0.135,0,0.214
				c-0.001,0.04-0.002,0.08-0.003,0.124c-0.004,0.042-0.01,0.087-0.015,0.133c-0.008,0.091-0.028,0.19-0.046,0.29
				c-0.024,0.102-0.044,0.207-0.079,0.311c-0.03,0.105-0.069,0.213-0.108,0.32c-0.042,0.105-0.084,0.213-0.134,0.314
				c-0.046,0.105-0.101,0.204-0.152,0.301c-0.058,0.095-0.109,0.188-0.168,0.271c-0.057,0.085-0.111,0.164-0.164,0.234
				c-0.051,0.074-0.104,0.137-0.149,0.195c-0.045,0.058-0.085,0.104-0.12,0.144c-0.068,0.079-0.107,0.123-0.107,0.123
				L351.54,4589.743z"/>
		</g>
	</g>
</g>
<g>
	<g id="Layer_5_8_">
		<path fill="#208247" d="M265.442,4569.585c-1.628-1.759-4.051-3.449-4.57-4.883s-0.805-2.746-0.7-3.214
			c0.104-0.468,0.583-0.457,1.083-0.411c0.5,0.045,0.215-0.302,0.248-0.497c0.032-0.193,0.405-1.17,0.554-1.575
			c0.149-0.403-0.175-0.688,1.112-0.71c1.286-0.023,2.673-0.259,3.483,0.452c0.81,0.709,2.042,0.047,1.093,1.467
			c0,0,1.257,1.684-1.117,1.912c-2.373,0.228-3.684,1.278-3.419,2.894c0.267,1.614,2.605,4.158,2.743,4.474
			C266.091,4569.811,265.442,4569.585,265.442,4569.585z"/>
	</g>
	<g id="Layer_4_8_">
		<path fill="#25A35A" d="M264.812,4568.853c-0.747-0.48-6.39-3.645-7.745-3.752c-1.355-0.107-1.659-0.408-2.146-0.635
			c-0.488-0.227,0.027-0.812-0.279-1.162c-0.307-0.353-0.816-0.627-0.694-1.146s0.645-0.459,0.768-0.944
			c0.125-0.485,0.155-0.256,0.773,0.099s1.327,0.903,1.979,0.576c0.65-0.327,0.51-0.685,0.911-0.553
			c0.4,0.131,0.392,1.026,0.885,1.799s3.564,4.496,5.907,5.338C267.512,4569.315,264.812,4568.853,264.812,4568.853z"/>
	</g>
	<g id="Layer_3_8_">
		<path fill="#2ECC71" d="M265.371,4569.259c-1.818-0.717-3.15-1.751-3.978-1.648c-0.826,0.102-0.476,0.518-1.045,0.807
			s-2.139,0.492-2.491,1.003c-0.351,0.513-1,0.871-2.003,0.75c-1.002-0.122-1.297-1.201-1.038-1.875
			c0.261-0.675-0.571-0.736-0.571-0.736s-1.307,0.52-2.01-0.343c-0.702-0.864-0.72-1.262-0.861-1.652c0,0,0.835-0.864,2.702-0.912
			c1.868-0.048,4.086,0.319,5.399,0.89c1.313,0.572,5.019,2.695,5.578,3.134C265.613,4569.116,265.371,4569.259,265.371,4569.259z"
			/>
	</g>
	<g id="Layer_2_8_">
		<path fill="#CE7E15" d="M265.533,4568.059c-1.233,1.697-1.606,3.558-0.208,4.46c1.397,0.903,19.89,9.6,27.574,9.264
			c0,0-10.326-9.494-14.959-11.897c-4.633-2.406-7.053-3.663-8.689-3.513c-1.638,0.152-3.306,1.134-3.466,1.328
			C265.626,4567.896,265.533,4568.059,265.533,4568.059z"/>
	</g>
	<g id="Layer_6_8_">
		<g>
			<path fill="#46515D" d="M272.389,4567.053c0,0-0.081,0.023-0.221,0.062c-0.071,0.02-0.157,0.042-0.252,0.074
				c-0.097,0.033-0.206,0.062-0.321,0.106c-0.115,0.044-0.243,0.083-0.37,0.14c-0.065,0.028-0.132,0.056-0.2,0.082
				c-0.069,0.028-0.135,0.06-0.206,0.092c-0.141,0.057-0.28,0.126-0.424,0.195c-0.144,0.068-0.284,0.147-0.424,0.224
				c-0.137,0.079-0.277,0.157-0.406,0.243c-0.133,0.081-0.256,0.168-0.377,0.251c-0.118,0.087-0.23,0.171-0.333,0.254
				c-0.051,0.042-0.101,0.084-0.148,0.124s-0.089,0.08-0.131,0.118c-0.087,0.075-0.155,0.152-0.219,0.216
				c-0.061,0.067-0.107,0.129-0.149,0.18c-0.039,0.052-0.064,0.093-0.083,0.121c-0.019,0.027-0.028,0.042-0.028,0.042l-0.009-0.004
				c0,0,0.01-0.015,0.027-0.043c0.018-0.028,0.042-0.07,0.079-0.124c0.04-0.05,0.084-0.114,0.144-0.182
				c0.062-0.066,0.127-0.146,0.211-0.225c0.042-0.039,0.083-0.08,0.128-0.122c0.047-0.042,0.096-0.084,0.145-0.128
				s0.104-0.086,0.159-0.13c0.055-0.042,0.109-0.089,0.17-0.132c0.118-0.086,0.241-0.176,0.372-0.259
				c0.128-0.089,0.266-0.171,0.403-0.254c0.14-0.079,0.278-0.162,0.42-0.234c0.142-0.073,0.282-0.144,0.424-0.207
				c0.141-0.063,0.28-0.117,0.414-0.168c0.132-0.052,0.265-0.089,0.382-0.129c0.06-0.021,0.117-0.036,0.174-0.052
				c0.056-0.013,0.109-0.026,0.158-0.04c0.051-0.013,0.097-0.024,0.14-0.035c0.043-0.008,0.083-0.016,0.12-0.022
				c0.146-0.025,0.229-0.042,0.229-0.042L272.389,4567.053z"/>
		</g>
		<g>
			<path fill="#46515D" d="M271.382,4575.32c0,0-0.042-0.03-0.112-0.088c-0.035-0.028-0.079-0.062-0.125-0.104
				c-0.046-0.043-0.102-0.089-0.156-0.144c-0.11-0.106-0.235-0.233-0.355-0.378c-0.059-0.072-0.119-0.147-0.175-0.226
				c-0.059-0.079-0.112-0.159-0.168-0.241c-0.053-0.082-0.107-0.163-0.154-0.245c-0.05-0.083-0.095-0.164-0.135-0.245
				c-0.042-0.079-0.08-0.157-0.111-0.232c-0.032-0.077-0.061-0.147-0.083-0.215c-0.047-0.134-0.07-0.248-0.084-0.327
				c-0.008-0.08-0.013-0.126-0.013-0.126l0.01-0.002c0,0,0.008,0.046,0.021,0.126c0.018,0.079,0.047,0.189,0.102,0.321
				c0.024,0.064,0.057,0.135,0.093,0.209c0.037,0.073,0.076,0.149,0.12,0.227c0.045,0.078,0.092,0.158,0.144,0.238
				c0.051,0.082,0.108,0.16,0.164,0.24c0.059,0.078,0.116,0.156,0.179,0.23c0.059,0.077,0.121,0.15,0.18,0.221
				c0.057,0.073,0.12,0.14,0.174,0.205s0.108,0.125,0.158,0.182c0.05,0.055,0.096,0.105,0.137,0.151
				c0.04,0.046,0.079,0.084,0.108,0.115c0.06,0.064,0.093,0.103,0.093,0.103L271.382,4575.32z"/>
		</g>
		<g>
			<path fill="#46515D" d="M278.83,4570.389c0,0-0.036,0.011-0.102,0.025c-0.065,0.016-0.159,0.033-0.272,0.057
				c-0.057,0.007-0.117,0.022-0.179,0.037s-0.129,0.027-0.197,0.044c-0.07,0.01-0.139,0.032-0.21,0.049
				c-0.071,0.021-0.146,0.034-0.215,0.06c-0.07,0.024-0.14,0.049-0.209,0.072c-0.068,0.028-0.13,0.061-0.193,0.087
				c-0.064,0.027-0.119,0.062-0.174,0.09c-0.055,0.028-0.107,0.058-0.152,0.086c-0.093,0.055-0.17,0.104-0.223,0.138
				c-0.054,0.034-0.084,0.053-0.084,0.053l-0.006-0.006c0,0,0.028-0.021,0.079-0.058c0.05-0.036,0.122-0.088,0.211-0.148
				c0.043-0.031,0.093-0.062,0.146-0.095s0.108-0.069,0.172-0.1c0.062-0.03,0.125-0.065,0.192-0.095
				c0.069-0.028,0.139-0.056,0.209-0.084c0.069-0.029,0.145-0.047,0.216-0.072c0.071-0.021,0.143-0.045,0.214-0.058
				c0.071-0.014,0.14-0.029,0.206-0.041c0.065-0.011,0.128-0.021,0.185-0.024c0.115-0.01,0.211-0.019,0.279-0.021
				c0.068-0.003,0.107-0.005,0.107-0.005L278.83,4570.389z"/>
		</g>
		<g>
			<path fill="#46515D" d="M286.729,4576.464c0,0-0.055,0.017-0.155,0.044c-0.05,0.015-0.11,0.031-0.179,0.051
				c-0.067,0.021-0.145,0.043-0.228,0.069c-0.168,0.052-0.359,0.121-0.561,0.195c-0.1,0.039-0.205,0.079-0.307,0.124
				c-0.105,0.043-0.205,0.095-0.307,0.145c-0.098,0.054-0.197,0.106-0.288,0.166c-0.095,0.057-0.178,0.121-0.262,0.181
				c-0.079,0.062-0.159,0.121-0.226,0.186c-0.033,0.03-0.068,0.059-0.1,0.088c-0.029,0.031-0.058,0.061-0.086,0.09
				c-0.058,0.055-0.102,0.11-0.144,0.158c-0.042,0.049-0.076,0.092-0.103,0.127c-0.053,0.072-0.083,0.113-0.083,0.113l-0.009-0.003
				c0,0,0.027-0.042,0.078-0.117c0.023-0.037,0.055-0.081,0.096-0.132c0.04-0.05,0.082-0.106,0.136-0.165
				c0.026-0.028,0.054-0.058,0.083-0.091c0.029-0.03,0.062-0.061,0.096-0.094c0.063-0.066,0.142-0.128,0.22-0.195
				c0.083-0.061,0.166-0.13,0.26-0.188c0.09-0.063,0.188-0.119,0.287-0.177c0.1-0.054,0.201-0.11,0.305-0.157
				c0.102-0.05,0.207-0.092,0.31-0.134c0.103-0.034,0.202-0.074,0.301-0.102c0.097-0.028,0.19-0.057,0.277-0.077
				c0.084-0.023,0.166-0.038,0.237-0.054c0.071-0.015,0.132-0.027,0.185-0.034c0.102-0.018,0.161-0.025,0.161-0.025
				L286.729,4576.464z"/>
		</g>
	</g>
</g>
<g>
	<g id="Layer_5_9_">
		<path fill="#208247" d="M239.097,4589.65c0.225-0.261,3.21-2,3.94-3.466c0.73-1.464-0.211-2.855-2.411-3.774
			c-2.202-0.917-0.504-2.154-0.504-2.154c-0.489-1.636,0.494-0.641,1.477-1.08c0.983-0.438,2.239,0.195,3.462,0.598
			c1.223,0.399,0.829,0.576,0.853,1.006c0.022,0.43,0.091,1.474,0.065,1.668c-0.026,0.195-0.401,0.443,0.091,0.549
			c0.492,0.104,0.951,0.233,0.913,0.713c-0.04,0.478-0.698,1.646-1.619,2.864c-0.919,1.218-3.734,2.116-5.808,3.317
			C239.555,4589.889,238.87,4589.912,239.097,4589.65z"/>
	</g>
	<g id="Layer_4_9_">
		<path fill="#25A35A" d="M240.144,4588.904c2.487-0.111,6.521-2.763,7.22-3.355c0.699-0.594,0.956-1.451,1.376-1.458
			c0.422-0.008,0.183,0.292,0.708,0.797c0.525,0.503,1.364,0.188,2.059,0.034c0.694-0.156,0.792-0.367,0.767,0.133
			c-0.024,0.501,0.492,0.598,0.456,1.13c-0.035,0.531-0.604,0.645-1.001,0.888c-0.396,0.246-0.077,0.957-0.609,1.03
			c-0.533,0.073-0.913,0.271-2.239-0.026c-1.326-0.298-7.651,1.06-8.508,1.298C240.374,4589.374,237.658,4589.017,240.144,4588.904z
			"/>
	</g>
	<g id="Layer_3_9_">
		<path fill="#2ECC71" d="M240.195,4589.132c0.664-0.253,4.832-1.188,6.255-1.346c1.423-0.159,3.65,0.145,5.42,0.742
			c1.771,0.597,2.312,1.669,2.312,1.669c-0.25,0.332-0.384,0.705-1.311,1.322c-0.926,0.618-2.021-0.265-2.021-0.265
			s-0.815-0.186-0.764,0.535c0.051,0.722-0.552,1.666-1.544,1.484c-0.995-0.179-1.509-0.713-1.694-1.307
			c-0.184-0.593-1.625-1.247-2.083-1.693c-0.458-0.443-0.001-0.737-0.76-1.079c-0.76-0.341-2.338,0.253-4.287,0.401
			C239.72,4589.596,239.531,4589.387,240.195,4589.132z"/>
	</g>
	<g id="Layer_2_9_">
		<path fill="#CE7E15" d="M242.2,4588.35c-0.095-0.231-1.398-1.662-2.918-2.29c-1.519-0.629-4.202-0.14-9.339,0.789
			c-5.136,0.932-17.804,6.953-17.804,6.953c7.242,2.59,27.478-0.263,29.079-0.711c1.603-0.449,1.795-2.338,1.118-4.323
			C242.336,4588.767,242.295,4588.583,242.2,4588.35z"/>
	</g>
	<g id="Layer_6_9_">
		<g>
			<path fill="#46515D" d="M234.394,4585.899c0,0,0.075,0.039,0.206,0.107c0.033,0.018,0.07,0.036,0.109,0.058
				c0.038,0.021,0.078,0.047,0.122,0.074s0.09,0.056,0.14,0.085c0.05,0.03,0.1,0.062,0.15,0.101
				c0.102,0.073,0.217,0.148,0.328,0.236c0.112,0.086,0.229,0.181,0.345,0.283c0.117,0.1,0.23,0.209,0.344,0.322
				c0.114,0.11,0.224,0.229,0.333,0.348c0.105,0.12,0.214,0.237,0.31,0.36c0.102,0.119,0.192,0.242,0.28,0.358
				c0.044,0.059,0.083,0.119,0.124,0.176c0.039,0.059,0.08,0.115,0.113,0.172c0.035,0.056,0.068,0.11,0.1,0.165
				c0.031,0.052,0.059,0.104,0.086,0.153c0.058,0.099,0.097,0.195,0.138,0.277c0.036,0.082,0.06,0.156,0.083,0.218
				c0.019,0.06,0.028,0.108,0.037,0.141c0.01,0.032,0.015,0.05,0.015,0.05l-0.01,0.001c0,0-0.006-0.019-0.016-0.051
				c-0.01-0.032-0.021-0.079-0.042-0.141c-0.025-0.06-0.052-0.132-0.091-0.214c-0.042-0.081-0.083-0.174-0.145-0.271
				c-0.029-0.049-0.057-0.101-0.09-0.153c-0.034-0.052-0.069-0.105-0.105-0.159c-0.073-0.111-0.158-0.225-0.244-0.342
				c-0.09-0.115-0.182-0.235-0.286-0.353c-0.098-0.118-0.209-0.235-0.316-0.352c-0.112-0.114-0.222-0.229-0.339-0.338
				c-0.116-0.107-0.229-0.217-0.347-0.313c-0.058-0.05-0.111-0.101-0.169-0.147c-0.057-0.047-0.112-0.093-0.167-0.136
				c-0.105-0.091-0.216-0.167-0.313-0.245c-0.097-0.075-0.192-0.136-0.274-0.194c-0.081-0.058-0.157-0.106-0.218-0.146
				c-0.124-0.078-0.194-0.123-0.194-0.123L234.394,4585.899z"/>
		</g>
		<g>
			<path fill="#46515D" d="M232.905,4594.093c0,0,0.043-0.025,0.119-0.069c0.038-0.022,0.085-0.048,0.138-0.079
				c0.052-0.03,0.111-0.066,0.175-0.104c0.063-0.038,0.133-0.08,0.205-0.126c0.07-0.048,0.15-0.092,0.225-0.145
				c0.079-0.049,0.159-0.102,0.238-0.156c0.083-0.053,0.159-0.114,0.239-0.17c0.077-0.061,0.154-0.118,0.226-0.181
				c0.073-0.061,0.142-0.122,0.208-0.185c0.065-0.062,0.126-0.123,0.181-0.181c0.056-0.06,0.108-0.118,0.151-0.174
				c0.09-0.106,0.151-0.206,0.192-0.278c0.036-0.071,0.056-0.113,0.056-0.113l0.01,0.004c0,0-0.019,0.043-0.05,0.117
				c-0.038,0.074-0.094,0.177-0.178,0.29c-0.041,0.057-0.089,0.118-0.142,0.18c-0.054,0.062-0.112,0.126-0.176,0.189
				c-0.062,0.065-0.13,0.13-0.202,0.193c-0.069,0.065-0.145,0.126-0.22,0.188c-0.076,0.063-0.152,0.126-0.23,0.183
				c-0.076,0.059-0.157,0.114-0.234,0.165c-0.157,0.103-0.314,0.186-0.451,0.256c-0.068,0.035-0.134,0.062-0.191,0.089
				c-0.057,0.027-0.108,0.048-0.15,0.064c-0.084,0.033-0.134,0.051-0.134,0.051L232.905,4594.093z"/>
		</g>
		<g>
			<path fill="#46515D" d="M227.253,4587.185c0,0,0.037,0.012,0.101,0.035c0.064,0.022,0.153,0.058,0.26,0.101
				c0.054,0.021,0.11,0.049,0.169,0.08c0.06,0.03,0.121,0.064,0.186,0.1c0.064,0.032,0.125,0.076,0.187,0.119
				s0.127,0.082,0.186,0.131c0.059,0.048,0.117,0.096,0.174,0.143c0.056,0.047,0.106,0.099,0.156,0.146
				c0.053,0.048,0.094,0.1,0.136,0.146c0.042,0.045,0.08,0.09,0.111,0.135c0.066,0.084,0.122,0.154,0.158,0.204
				c0.038,0.05,0.059,0.077,0.059,0.077l-0.008,0.004c0,0-0.023-0.027-0.064-0.075s-0.1-0.116-0.171-0.197
				c-0.036-0.041-0.076-0.083-0.121-0.127c-0.044-0.044-0.086-0.092-0.14-0.136c-0.052-0.046-0.103-0.094-0.16-0.14
				c-0.057-0.044-0.117-0.087-0.176-0.132s-0.127-0.08-0.188-0.12c-0.064-0.037-0.123-0.079-0.187-0.109
				c-0.062-0.034-0.121-0.066-0.177-0.102c-0.056-0.03-0.108-0.062-0.16-0.089c-0.101-0.055-0.186-0.099-0.244-0.133
				c-0.058-0.032-0.09-0.054-0.09-0.054L227.253,4587.185z"/>
		</g>
		<g>
			<path fill="#46515D" d="M217.915,4590.658c0,0,0.054,0.025,0.147,0.072c0.047,0.021,0.103,0.052,0.167,0.087
				c0.063,0.035,0.136,0.074,0.211,0.121c0.076,0.046,0.158,0.099,0.243,0.154c0.086,0.056,0.169,0.122,0.258,0.187
				c0.084,0.07,0.173,0.141,0.256,0.22c0.085,0.075,0.164,0.157,0.245,0.241c0.076,0.083,0.154,0.165,0.222,0.254
				c0.072,0.084,0.132,0.172,0.192,0.255c0.054,0.088,0.111,0.171,0.153,0.252c0.021,0.041,0.044,0.079,0.063,0.117
				c0.018,0.04,0.036,0.078,0.052,0.112c0.035,0.072,0.059,0.139,0.081,0.197c0.024,0.061,0.04,0.111,0.053,0.154
				c0.025,0.086,0.041,0.134,0.041,0.134l-0.01,0.001c0,0-0.018-0.048-0.047-0.133c-0.014-0.043-0.033-0.094-0.06-0.152
				c-0.025-0.058-0.051-0.124-0.09-0.193c-0.018-0.034-0.036-0.073-0.057-0.109c-0.02-0.039-0.045-0.075-0.068-0.115
				c-0.045-0.079-0.104-0.159-0.16-0.244c-0.063-0.082-0.123-0.167-0.199-0.248c-0.069-0.085-0.147-0.164-0.226-0.245
				c-0.082-0.077-0.163-0.156-0.25-0.228c-0.084-0.074-0.172-0.142-0.256-0.209c-0.171-0.132-0.333-0.254-0.478-0.352
				c-0.072-0.049-0.138-0.096-0.197-0.134c-0.06-0.039-0.112-0.072-0.155-0.101c-0.088-0.057-0.136-0.09-0.136-0.09
				L217.915,4590.658z"/>
		</g>
	</g>
</g>
<g>
	<g id="Layer_4_1_">
		<path fill="#7F8C8D" d="M209.622,4486.643c1.044,5.218,0.492,10.619,4.789,14.672c4.298,4.053,5.526,6.14,6.14,7.123
			c0.613,0.981,1.841,7.49-5.464,2.208c-7.306-5.278-14.551-15.47-14.551-15.47L209.622,4486.643z"/>
	</g>
	<g id="Layer_5_1_">
		<path fill="#7F8C8D" d="M202.746,4526.609c0.245,11.42-1.105,14.428-0.553,18.357s4.419,15.717-4.053,27.565
			c0,0,16.515-3.438,17.865,5.097c0,0,1.137,1.534-13.045,0.291c-14.182-1.242-15.61-4.053-15.61-4.053l-0.69-37.25
			L202.746,4526.609z"/>
	</g>
	<g id="Layer_6_1_">
		
			<linearGradient id="SVGID_1_" gradientUnits="userSpaceOnUse" x1="1215.0859" y1="-2662.54" x2="1236.5459" y2="-2662.54" gradientTransform="matrix(0.8096 -0.5869 0.5869 0.8096 740.0527 7433.8843)">
			<stop  offset="0" style="stop-color:#C0C4C8"/>
			<stop  offset="0.2003" style="stop-color:#BCC1C5"/>
			<stop  offset="0.4034" style="stop-color:#B0B8BB"/>
			<stop  offset="0.6073" style="stop-color:#9CAAAB"/>
			<stop  offset="0.6601" style="stop-color:#95A5A6"/>
		</linearGradient>
		<circle fill="url(#SVGID_1_)" cx="169.828" cy="4558.861" r="10.729"/>
	</g>
	<g id="Layer_8_1_">
		<path fill="#7F8C8D" d="M180.377,4467.66c-3.237,4.639-6.165,5.913-7.974,7.243c-1.81,1.331-9.883,6.768-4.811-2.054
			s11.347-11.153,13.568-13.359C183.38,4457.283,180.377,4467.66,180.377,4467.66z"/>
	</g>
	<g id="Layer_2_1_">
		<path fill="#95A5A6" d="M179.477,4451.986c1.198-1.934,4.237-5.618,9.118-6.263c4.88-0.645,9.024-3.222,10.958-0.552
			c0,0,2.671,0.838,3.314,2.812c0.646,1.976,1.291,7.04,0,9.344c-1.288,2.302-1.564,4.512-4.512,6.354c0,0,0.553,3.131,2.58,6.355
			c2.026,3.223,9.024,5.708,9.024,13.352s0.89,11.358-1.136,16.146c-2.025,4.789-2.148,8.411-2.824,17.988
			c-0.675,9.578-8.012,19.83-9.762,22.133c-1.75,2.302-4.042,5.065-1.422,13.168c2.62,8.104-1.34,13.447-3.182,19.155
			c0,0,6.047-0.398,8.35,0.522c2.302,0.922,4.329,3.622,4.697,5.22c0,0-0.215,1.778-9.485,1.381
			c-9.271-0.399-11.296-1.413-11.758-1.874c-0.459-0.458-2.916-14.396-6.967-17.22c-4.052-2.824-9.085-5.832-8.165-17.866
			c0.92-12.032,3.991-17.743,6.446-26.706c2.456-8.963,4.421-19.032,4.052-20.996c-0.368-1.966-2.455-3.255-0.859-10.93
			c1.596-7.672,2.394-11.05-0.369-14.734c-2.763-3.683-1.719-7.488-1.289-8.962L179.477,4451.986z"/>
	</g>
	<g id="Layer_7_1_">
		
			<linearGradient id="SVGID_2_" gradientUnits="userSpaceOnUse" x1="213.8408" y1="2569.9663" x2="240.73" y2="2569.9663" gradientTransform="matrix(1 0 0 1 -56 1892.7695)">
			<stop  offset="0" style="stop-color:#C0C4C8"/>
			<stop  offset="1" style="stop-color:#95A5A6"/>
		</linearGradient>
		<path fill="url(#SVGID_2_)" d="M180.951,4450.604c-4.727,5.771-5.034,8.228-13.322,12.217c-8.289,3.991-15.901,17.56-2.456,9.577
			c13.445-7.979,8.595-7.059,16.27-10.619C189.116,4458.218,180.951,4450.604,180.951,4450.604z"/>
	</g>
	<g id="Layer_9_1_">
		<path fill="#46515D" d="M189.423,4449.176c-2.141-0.413-7.137-0.092-5.617,4.236c0,0,1.965,1.427,5.368-3.844L189.423,4449.176z"
			/>
	</g>
	<g id="Layer_3_1_">
		<path fill="#95A5A6" d="M207.78,4497.571c2.763,2.638,3.622,3.683,4.973,6.261c1.351,2.579,1.043,3.889,2.701,6.119
			c1.658,2.231-0.799,6.773-5.771,1.984c-4.972-4.786-1.228-6.568-13.445-8.471C184.021,4501.561,207.78,4497.571,207.78,4497.571z"
			/>
	</g>
</g>
<g>
	<g id="Layer_10">
		<path fill="#707C7D" d="M402.033,4466.638l2.831,4.566l10.544-10.181c-2.328-16.158-12.142,2.647-13.375,5.433V4466.638z"/>
	</g>
	<g id="Layer_7">
		<path fill="#707C7D" d="M395.004,4539.858c0.639,9.95-3.195,20.723,6.3,26.565c0,0-10.316,0.184-12.051,2.647
			c-1.734,2.465-6.208,5.935,0.639,5.935s20.997-0.273,22.549-0.913c1.554-0.639,2.283-1.886,1.005-4.641
			c0,0,1.533-1.841,2.191-3.94C416.294,4563.412,395.004,4539.858,395.004,4539.858z"/>
	</g>
	<g id="Layer_5">
		<path fill="#707C7D" d="M376.265,4530.842c-1.163,5.546-0.274,8.489,1.85,9.517c2.122,1.026,5.203,0.549,6.162-8.558
			c0,0,3.628-1.302,4.45-3.425c0.822-2.123-5.82-5.271-5.82-5.271L376.265,4530.842z"/>
	</g>
	<g id="Layer_2_2_">
		<path fill="#95A5A6" d="M410.525,4478.052c1.003,6.641-3.104,6.845-0.549,12.963c2.557,6.116,4.473,15.43,6.482,18.349
			c2.008,2.922,14.698,19.903,18.442,26.842c3.743,6.938,6.937,19.994,5.842,24.648c-1.096,4.657-1.552,6.027-6.755,7.578
			c-5.205,1.553-9.039,1.917-15.246-3.195c-6.208-5.112-12.508-6.116-19.264-15.429c-6.756-9.311-5.112-10.315-14.789-26.749
			c-9.678-16.433-11.139-18.99-8.673-27.936c2.464-8.948,4.473-7.853,4.29-11.321c-0.183-3.469-1.461-3.195-2.83-6.664
			c-1.369-3.47-0.822-4.291-1.278-6.573c-0.456-2.282-2.19-7.67,3.287-7.121c0,0,1.187-3.014,7.668-2.647
			c6.483,0.366,13.005,1.423,18.898,7.76c1.91,2.055,3.355,6.209,3.663,7.029C410.022,4476.408,410.525,4478.052,410.525,4478.052z"
			/>
	</g>
	<g id="Layer_11">
		
			<linearGradient id="SVGID_3_" gradientUnits="userSpaceOnUse" x1="1492.8701" y1="6025.6597" x2="1517.5273" y2="6025.6597" gradientTransform="matrix(0.9237 0.383 -0.383 0.9237 1356.1172 -1579.9785)">
			<stop  offset="0.2758" style="stop-color:#95A5A6"/>
			<stop  offset="0.63" style="stop-color:#ACB6B8"/>
			<stop  offset="1" style="stop-color:#C0C4C8"/>
		</linearGradient>
		<circle fill="url(#SVGID_3_)" cx="438.643" cy="4562.415" r="12.325"/>
	</g>
	<g id="Layer_3_2_">
		
			<linearGradient id="SVGID_4_" gradientUnits="userSpaceOnUse" x1="456.0703" y1="2571.3062" x2="489.4165" y2="2571.3062" gradientTransform="matrix(1 0 0 1 -56 1892.7695)">
			<stop  offset="0" style="stop-color:#95A5A6"/>
			<stop  offset="0.1557" style="stop-color:#A5B1B3"/>
			<stop  offset="0.37" style="stop-color:#B4BCBF"/>
			<stop  offset="0.6218" style="stop-color:#BDC2C6"/>
			<stop  offset="1" style="stop-color:#C0C4C8"/>
		</linearGradient>
		<path fill="url(#SVGID_4_)" d="M404.955,4468.806c2.259-2.532,21.363-21.156,27.182-15.541c5.82,5.613-9.243,23.074-24.512,22.663
			C392.356,4475.518,404.955,4468.806,404.955,4468.806z"/>
	</g>
	<g id="Layer_4">
		<path fill="#95A5A6" d="M389.253,4524.702c-2.694,1.586-4.827,2.146-6.979,0.64c0,0-1.147,4.793-4.708,6.939
			c-3.561,2.144-9.996,3.057-7.212-3.379c2.785-6.436,4.201-8.855,5.98-10.817c1.78-1.963,3.241-2.876,5.569-2.513
			C384.231,4515.938,389.253,4524.702,389.253,4524.702z"/>
	</g>
	<g id="Layer_6">
		<path fill="#95A5A6" d="M411.346,4545.882c-4.017,4.839-8.125,12.781,7.304,24.193c0,0-5.204,0.364-6.391,2.738
			s-5.935,5.659-0.457,6.209c5.478,0.548,13.694,0,17.985-1.918c4.29-1.917,2.282-4.475,1.46-5.66c0,0,4.109-0.456,1.917-5.568
			c-2.19-5.113-5.203-16.068-10.589-18.625C417.188,4544.696,411.346,4545.882,411.346,4545.882z"/>
	</g>
	<g id="Layer_8">
		<path fill="#46515D" d="M393.452,4468.556c1.049-1.506,4.518-2.785,5.021,1.231c0,0-1.552,4.748-5.021-0.866l-0.091-0.239
			L393.452,4468.556z"/>
	</g>
</g>
</svg>
