<?xml version="1.0" standalone="no"?>
<!DOCTYPE svg PUBLIC "-//W3C//DTD SVG 1.1//EN" "http://www.w3.org/Graphics/SVG/1.1/DTD/svg11.dtd" >
<svg>
<metadata>
Created by FontForge 20090622 at Mon Aug  3 17:49:05 2015
 By deploy user
Copyright (c) 1988, 1995 Adobe Systems Incorporated.  All Rights Reserved.ITC Serif Gothic is a registered trademark of International Typeface Corporation.
</metadata>
<defs>
<font id="SerifGothicLT" horiz-adv-x="611" >
  <font-face 
    font-family="SerifGothic LT"
    font-weight="400"
    font-stretch="normal"
    units-per-em="1000"
    panose-1="2 0 5 6 3 0 0 2 0 4"
    ascent="800"
    descent="-200"
    x-height="490"
    cap-height="712"
    bbox="-167 -250 1000 960"
    underline-thickness="50"
    underline-position="-75"
    unicode-range="U+0020-U+FB02"
  />
<missing-glyph horiz-adv-x="305" 
 />
    <glyph glyph-name=".notdef" horiz-adv-x="305" 
 />
    <glyph glyph-name=".null" horiz-adv-x="0" 
 />
    <glyph glyph-name="nonmarkingreturn" horiz-adv-x="305" 
 />
    <glyph glyph-name="space" unicode=" " horiz-adv-x="305" 
 />
    <glyph glyph-name="dollar" unicode="$" 
d="M124 102q26 -20 54 -36.5t57 -16.5v362q-51 23 -76.5 62t-25.5 97q0 53 27 95.5t75 55.5v39q0 19 -10 34h78v-66q9 0 20.5 -1.5t23 -3.5t21 -3.5t14.5 -1.5q11 0 22.5 3t20.5 9v-113q-32 23 -61 33t-69 10q-42 0 -68 -24.5t-26 -67.5q0 -33 21.5 -54.5t54.5 -40.5
l70.5 -39.5t70.5 -49.5t54.5 -71t21.5 -105q0 -42 -14.5 -82t-40 -71.5t-60.5 -51t-76 -19.5v-42q0 -9 1 -18t6 -17h-73v77q-14 0 -24.5 2t-20 4t-20 4t-23.5 2q-6 0 -13 -1t-12 -6v113zM303 52q57 11 90 52.5t33 104.5q0 36 -10 61t-27 44t-39 35l-47 34v-331z" />
    <glyph glyph-name="percent" unicode="%" horiz-adv-x="889" 
d="M624 256q-21 0 -39.5 -8t-32 -21.5t-21.5 -31.5t-8 -39t8 -39t21.5 -31.5t32 -21.5t39.5 -8t39.5 8t32 21.5t21.5 31.5t8 39t-8 39t-21.5 31.5t-32 21.5t-39.5 8zM624 312q32 0 60.5 -12.5t50 -33.5t34 -49.5t12.5 -60.5t-12.5 -60.5t-34 -49.5t-50 -33.5t-60.5 -12.5
t-60.5 12.5t-50 33.5t-34 49.5t-12.5 60.5t12.5 60.5t34 49.5t50 33.5t60.5 12.5zM260 656q-21 0 -39.5 -8t-32 -21.5t-21.5 -31.5t-8 -39t8 -39t21.5 -31.5t32 -21.5t39.5 -8t39.5 8t32 21.5t21.5 31.5t8 39t-8 39t-21.5 31.5t-32 21.5t-39.5 8zM260 712q32 0 60.5 -12.5
t50 -33.5t34 -49.5t12.5 -60.5t-12.5 -60.5t-34 -49.5t-50 -33.5t-60.5 -12.5t-60.5 12.5t-50 33.5t-34 49.5t-12.5 60.5t12.5 60.5t34 49.5t50 33.5t60.5 12.5zM211 -16q9 8 17 20t15 24l342 627l17 30.5t9 25.5q0 12 -4 17h83q-14 -12 -24.5 -28t-19.5 -33l-354 -643
l-9 -18t-4 -10q0 -6 6 -12h-74z" />
    <glyph glyph-name="ampersand" unicode="&#x26;" horiz-adv-x="667" 
d="M403 634q-19 11 -37 18.5t-41 7.5q-67 0 -101 -39t-34 -101q0 -34 20 -65t53 -42q-70 -18 -103 -64.5t-33 -116.5q0 -38 14.5 -71t40 -57t59.5 -38t73 -14q40 0 75 13t61.5 37t41.5 57t15 73q0 21 -5.5 42t-15.5 40h-64q-22 0 -35 -2t-21 -13v83h241q14 0 24.5 1.5
t18.5 9.5v-79h-88q8 -20 14.5 -42t6.5 -45q0 -83 -58 -149q-43 -47 -93.5 -70.5t-113.5 -23.5q-57 0 -106 19t-85 52.5t-56 80.5t-20 104q0 27 7 56.5t21.5 55t35.5 44t49 25.5q-26 21 -38 48t-12 61q0 40 15 76t41.5 63t62.5 43t78 16q18 0 38 -5l17.5 -3.5t11.5 -1.5
t12.5 2t12.5 4v-90z" />
    <glyph glyph-name="quoteright" unicode="&#x2019;" horiz-adv-x="222" 
d="M96 566q-7 -16 -11.5 -25t-4.5 -15q0 -4 3 -7.5t7 -6.5h-46l31 143l5.5 25.5t2.5 14.5q0 5 -3.5 9t-8.5 8h93z" />
    <glyph glyph-name="parenleft" unicode="(" horiz-adv-x="389" 
d="M257 -144q-2 9 -4 16.5t-22 21.5q-47 33 -84.5 73t-63 89t-39 107.5t-13.5 129.5q0 87 20 151.5t49.5 110.5t62 77t57.5 51q13 10 20 16.5t11 11t5 8.5t1 9l38 -63q-109 -62 -157.5 -157.5t-48.5 -217.5q0 -120 49 -216t157 -155z" />
    <glyph glyph-name="parenright" unicode=")" horiz-adv-x="389" 
d="M132 728q2 -9 4 -16.5t22 -21.5q47 -33 84.5 -73t63 -89t39 -107.5t13.5 -129.5q0 -87 -20 -151.5t-49.5 -110.5t-62 -77t-57.5 -51q-13 -10 -20 -16.5t-11 -11t-5 -8.5t-1 -9l-38 63q109 62 157.5 157.5t48.5 217.5q0 120 -49 216t-157 155z" />
    <glyph glyph-name="asterisk" unicode="*" horiz-adv-x="444" 
d="M405 580q-28 -4 -59 -12t-71 -25q1 -3 1 -8q0 -6 -2 -12q39 -17 69 -24t56 -11l-50 -86q-11 19 -35 42l-54 52q-12 -12 -28 -13q5 -30 14.5 -65t24.5 -63h-100q14 31 21 63.5t12 66.5q-7 1 -12.5 4.5t-9.5 8.5l-55 -52.5t-36 -43.5l-50 86q27 4 57.5 11.5t69.5 24.5
q-2 4 -2 11q0 8 3 12q-41 18 -71.5 25.5t-58.5 11.5l50 86q11 -20 36.5 -44l56.5 -54h-1l2 -2q7 12 24 15q-5 33 -11.5 65t-20.5 62h100q-15 -28 -24.5 -63t-13.5 -64q16 -4 26 -16l55.5 53t36.5 44z" />
    <glyph glyph-name="plus" unicode="+" horiz-adv-x="600" 
d="M272 490h56v-217h216v-56h-216v-217h-56v217h-216v56h216v217z" />
    <glyph glyph-name="comma" unicode="," horiz-adv-x="305" 
d="M138 -58q-7 -16 -11.5 -25t-4.5 -15q0 -4 3 -7.5t7 -6.5h-46l31 143l5.5 25.5t2.5 14.5q0 5 -3.5 9t-8.5 8h93z" />
    <glyph glyph-name="hyphen" unicode="-" horiz-adv-x="333" 
d="M43 277h181q17 0 34 5t32 13v-81h-188q-15 0 -31.5 -4t-27.5 -12v79z" />
    <glyph glyph-name="hyphen" unicode="&#xad;" horiz-adv-x="333" 
d="M43 277h181q17 0 34 5t32 13v-81h-188q-15 0 -31.5 -4t-27.5 -12v79z" />
    <glyph glyph-name="period" unicode="." horiz-adv-x="305" 
d="M152 88q20 0 35.5 -15t15.5 -36t-15.5 -36t-35.5 -15t-35.5 15t-15.5 36t15.5 36t35.5 15z" />
    <glyph glyph-name="slash" unicode="/" horiz-adv-x="278" 
d="M45 -16h-58l243 744h62z" />
    <glyph glyph-name="zero" unicode="0" 
d="M47 487q0 35 13 77t43.5 78.5t80 61t121.5 24.5t121.5 -24.5t80 -61t43.5 -78.5t13 -77v-262q0 -65 -24 -110.5t-61.5 -74.5t-83.5 -42.5t-89 -13.5q-72 0 -121.5 24.5t-80 61t-43.5 78.5t-13 77v262zM115 265q0 -108 48.5 -160.5t141.5 -52.5t141.5 52.5t48.5 160.5v182
q0 108 -48.5 160.5t-141.5 52.5t-141.5 -52.5t-48.5 -160.5v-182z" />
    <glyph glyph-name="one" unicode="1" 
d="M116 421q8 6 17.5 14t17.5 17l245 276v-687q0 -31 18 -41h-104q12 6 15 24t3 47v488h-2l-158 -177z" />
    <glyph glyph-name="two" unicode="2" 
d="M35 467q4 11 7 21t3 21q0 44 21 83.5t56 69.5t81.5 48t96.5 18q46 0 89 -18.5t75.5 -50.5t52 -74.5t19.5 -89.5q0 -38 -8.5 -67.5t-23.5 -54t-36 -47t-46 -46.5l-221 -212h276q16 0 33.5 3.5t28.5 13.5v-85h-488l306 310l39 40t36 44t26 48t10 53q0 39 -15 69.5t-40 51.5
t-58 32.5t-69 11.5q-41 0 -73.5 -16t-54.5 -43t-33.5 -62t-11.5 -72h-78z" />
    <glyph glyph-name="three" unicode="3" 
d="M95 525q6 11 9 24t5 27q6 34 24 62.5t44.5 48t59 30.5t65.5 11q42 0 76 -13.5t58.5 -37t37.5 -54.5t13 -65q0 -25 -1.5 -44t-6 -34t-12.5 -27t-20 -23q29 -9 49 -28.5t32.5 -45t18 -55t5.5 -57.5q0 -56 -20 -103.5t-54.5 -82t-81.5 -54.5t-101 -20t-101 21.5t-82 57
t-55 80.5t-20 92q0 8 -1.5 16t-4.5 14h74q0 -44 13 -82.5t37.5 -67.5t60 -46t80.5 -17q39 0 73 15t59.5 41.5t40.5 61t15 73.5t-13.5 69t-36.5 51.5t-54 35.5t-67 20q48 10 77 36.5t29 79.5q0 25 -7.5 47.5t-21.5 39.5t-35 27.5t-48 10.5q-61 0 -96.5 -37.5t-35.5 -97.5h-80
z" />
    <glyph glyph-name="four" unicode="4" 
d="M392 186v364h-4l-297 -364h301zM63 118l-49 90q11 7 22.5 15.5t19.5 18.5l401 486h2v-542h59q12 0 25.5 2t23.5 7v-77h-108v-77q0 -31 19 -41h-104q12 6 15 24t3 47v47h-329z" />
    <glyph glyph-name="five" unicode="5" 
d="M108 150q59 -98 179 -98q41 0 77 16.5t62.5 44.5t42 64t15.5 75q0 42 -17 76t-46 58.5t-66.5 38t-77.5 13.5q-45 0 -83 -19.5t-69 -50.5l30 344h316v-82q-16 8 -32.5 11t-33.5 3h-194l-14 -155q27 8 52 12.5t55 4.5q52 0 97.5 -21t79 -56.5t52.5 -82t19 -97.5
q0 -56 -21 -104.5t-57 -84t-85 -56t-105 -20.5q-52 0 -101 17.5t-87 52.5l-23.5 23.5t-23.5 15.5z" />
    <glyph glyph-name="six" unicode="6" 
d="M304 52q40 0 74.5 15t60.5 40.5t41 59t15 71.5t-15 71.5t-41 59t-60.5 40.5t-74.5 15t-75 -15t-61 -40.5t-41 -59t-15 -71.5t15 -71.5t41 -59t61 -40.5t75 -15zM385 712q-17 -14 -31 -33t-26 -37l-120 -173l2 -2q19 11 43.5 18t50.5 7q70 0 119.5 -24.5t81 -62t46 -82.5
t14.5 -85q0 -54 -21 -100.5t-57 -80.5t-83.5 -53.5t-99.5 -19.5q-48 0 -94.5 16t-84 48t-60.5 80t-23 112q0 38 13.5 75.5t33.5 73.5t43 70t42 65q22 36 42 65l35 51l24 34.5t9 15.5q0 9 -6 13.5t-10 8.5h117z" />
    <glyph glyph-name="seven" unicode="7" 
d="M65 712h493l-248 -632l-14 -34.5t-6 -23.5q0 -12 12 -22h-121q11 9 22 24t17 30l241 590h-345q-13 0 -26.5 -2.5t-24.5 -8.5v79z" />
    <glyph glyph-name="eight" unicode="8" 
d="M308 660q-21 0 -40 -8.5t-34 -23t-23.5 -34t-8.5 -40.5q0 -22 8.5 -41t23.5 -33.5t34 -23t40 -8.5t40 8.5t34 23t23.5 33.5t8.5 41q0 21 -8.5 40.5t-23.5 34t-34 23t-40 8.5zM305 396q-35 0 -67 -13.5t-56 -37t-38.5 -54.5t-14.5 -67t14.5 -67.5t38.5 -54.5t56 -36.5
t67 -13.5t67 13.5t56 36.5t38.5 54.5t14.5 67.5t-14.5 67t-38.5 54.5t-56 37t-67 13.5zM482 556q0 -45 -15 -72t-51 -52q67 -23 100 -76.5t33 -124.5q0 -53 -18.5 -98t-51.5 -78t-77.5 -52t-96.5 -19q-54 0 -98.5 18.5t-77 52t-50.5 79t-18 99.5q0 33 9.5 65.5t27.5 60
t43.5 48t58.5 29.5q-32 17 -49 50.5t-17 68.5q0 40 13.5 72t37.5 54.5t56.5 34.5t70.5 12q35 0 66 -13.5t54 -37t36.5 -55t13.5 -66.5z" />
    <glyph glyph-name="nine" unicode="9" 
d="M303 655q-40 0 -74.5 -15t-60.5 -40.5t-41 -59t-15 -71.5t15 -71.5t41 -59t60.5 -40.5t74.5 -15t75 15t61 40.5t41 59t15 71.5t-15 71.5t-41 59t-61 40.5t-75 15zM222 0q17 14 31 33t26 37l120 168l-2 2q-19 -11 -43.5 -18t-50.5 -7q-70 0 -119.5 24.5t-81 62t-46 82
t-14.5 85.5q0 54 21 100.5t57 80.5t83.5 53.5t99.5 19.5q48 0 94.5 -16t84 -48t60.5 -80t23 -112q0 -36 -13.5 -72.5t-33.5 -72t-43 -69.5t-42 -65l-43 -65l-35 -51l-23.5 -34.5t-8.5 -15.5q0 -9 6 -13.5t10 -8.5h-117z" />
    <glyph glyph-name="colon" unicode=":" horiz-adv-x="305" 
d="M152 396q20 0 35.5 -15t15.5 -36t-15.5 -36t-35.5 -15t-35.5 15t-15.5 36t15.5 36t35.5 15zM152 88q20 0 35.5 -15t15.5 -36t-15.5 -36t-35.5 -15t-35.5 15t-15.5 36t15.5 36t35.5 15z" />
    <glyph glyph-name="semicolon" unicode=";" horiz-adv-x="305" 
d="M152 396q20 0 35.5 -15t15.5 -36t-15.5 -36t-35.5 -15t-35.5 15t-15.5 36t15.5 36t35.5 15zM206 88l-68 -146q-7 -16 -11.5 -25t-4.5 -15q0 -4 3 -7.5t7 -6.5h-46l31 143l5.5 25.5t2.5 14.5q0 5 -3.5 9t-8.5 8h93z" />
    <glyph glyph-name="semicolon" unicode="&#x37e;" horiz-adv-x="305" 
d="M152 396q20 0 35.5 -15t15.5 -36t-15.5 -36t-35.5 -15t-35.5 15t-15.5 36t15.5 36t35.5 15zM206 88l-68 -146q-7 -16 -11.5 -25t-4.5 -15q0 -4 3 -7.5t7 -6.5h-46l31 143l5.5 25.5t2.5 14.5q0 5 -3.5 9t-8.5 8h93z" />
    <glyph glyph-name="less" unicode="&#x3c;" horiz-adv-x="600" 
d="M554 -16l-508 232v58l508 232v-62l-436 -199l436 -199v-62z" />
    <glyph glyph-name="equal" unicode="=" horiz-adv-x="600" 
d="M544 121h-488v56h488v-56zM544 313h-488v56h488v-56z" />
    <glyph glyph-name="greater" unicode="&#x3e;" horiz-adv-x="600" 
d="M482 245l-436 199v62l508 -232v-58l-508 -232v62z" />
    <glyph glyph-name="question" unicode="?" horiz-adv-x="444" 
d="M158 88q20 0 35.5 -15t15.5 -36t-15.5 -36t-35.5 -15t-35.5 15t-15.5 36t15.5 36t35.5 15zM47 728q12 -9 29 -9t35 4.5t47 4.5q53 0 97 -19t75.5 -51.5t49 -75t17.5 -89.5q0 -44 -17 -82.5t-43 -67t-59 -45.5t-64 -17q-5 0 -10 1t-10 3v-71q0 -22 10 -45h-88q10 23 10 45
v144q12 -5 28 -7t31 -2q37 0 64.5 13t45 34.5t26 49t8.5 57.5q0 35 -13.5 64t-37 49.5t-54 32t-64.5 11.5q-35 0 -61 -12t-52 -35v115z" />
    <glyph glyph-name="at" unicode="@" horiz-adv-x="800" 
d="M562 555h59l-93 -288q-5 -14 -8 -28t-3 -25q0 -14 5 -22t18 -8q29 0 57 22t49.5 56t35 76t13.5 81q0 60 -22.5 107.5t-61 81t-89 51.5t-105.5 18q-68 0 -125 -26t-98 -70t-64.5 -103t-23.5 -126q0 -66 24.5 -124t66.5 -100.5t99.5 -67.5t123.5 -25q75 0 143.5 34.5
t113.5 94.5h58q-24 -42 -58 -75.5t-75 -56.5t-87.5 -35.5t-94.5 -12.5q-80 0 -148 29t-118.5 80t-79 119.5t-28.5 146.5q0 77 29.5 144t80 117t117.5 79t142 29q70 0 132 -23t108 -64t72.5 -97.5t26.5 -123.5q0 -62 -22 -114.5t-56 -90.5t-75 -60t-78 -22q-26 0 -45 16.5
t-21 50.5l-2 -1q-23 -25 -56 -45.5t-71 -20.5q-32 0 -57.5 12t-43.5 33t-28 48.5t-10 58.5q0 52 17 103.5t48.5 93t75 67t97.5 25.5q35 0 64.5 -19t46.5 -64zM343 191q35 0 65 23.5t51.5 58.5t34 74.5t12.5 72.5q0 18 -7 35t-18 30.5t-26 22t-30 8.5q-37 0 -68 -22t-53 -56
t-34.5 -73.5t-12.5 -73.5q0 -45 24.5 -72.5t61.5 -27.5z" />
    <glyph glyph-name="A" unicode="A" horiz-adv-x="667" 
d="M178 195l-64 -155q-4 -9 -6.5 -15.5t-2.5 -8.5q0 -5 3 -9t5 -7h-112q12 7 18 21l302 707h2l317 -689q8 -15 13 -23t12 -16h-114q2 3 5 7t3 9q0 2 -2.5 8.5t-6.5 15.5l-64 155h-308zM455 263l-129 303h-2l-125 -303h256z" />
    <glyph glyph-name="B" unicode="B" horiz-adv-x="556" 
d="M149 68h125q44 0 77.5 11.5t56 32.5t34 49.5t11.5 62.5q0 46 -13.5 76.5t-36 49.5t-51 28.5t-58.5 14.5v3q18 2 37 10t35 24t26 40t10 58q0 31 -11.5 55.5t-32 41.5t-47 26t-56.5 9q-25 0 -54 -5t-52 -5v-582zM60 0q5 7 9 15t4 20v693q14 -8 25 -11q15 -5 28 -5
q14 0 30 3l33 6q17 2 35.5 4.5t38.5 2.5q40 0 79 -14.5t69 -40t48.5 -61t18.5 -77.5q0 -43 -12 -72.5t-49 -55.5q57 -29 84.5 -71.5t27.5 -106.5q0 -66 -28 -110.5t-69 -70.5t-88.5 -37t-86.5 -11h-197z" />
    <glyph glyph-name="C" unicode="C" 
d="M583 610q-18 11 -39 19t-43.5 13t-44.5 7.5t-41 2.5q-63 0 -118.5 -22t-97 -61t-66 -93.5t-24.5 -119.5t24.5 -119.5t66 -93.5t97 -61t118.5 -22q46 0 89 10t77 32v-107q-12 9 -31 9q-28 0 -65 -10t-87 -10q-78 0 -145 31t-115.5 83.5t-76.5 120.5t-28 142q0 82 32 149.5
t86 116t125 75t150 26.5q25 0 43.5 -3t34.5 -7q15 -4 28.5 -7t27.5 -3q6 0 12 1t11 5v-104z" />
    <glyph glyph-name="D" unicode="D" horiz-adv-x="667" 
d="M76 728q10 -8 19 -12q5 -2 11 -3t12 -1q11 0 29 3t40 6q22 2 44.5 4.5t41.5 2.5q75 -3 140 -31.5t112.5 -76.5t75 -112.5t27.5 -139.5t-27.5 -142t-79.5 -117t-126 -79.5t-168 -29.5h-163q12 15 12 35v693zM152 68h85q64 0 121 22.5t100 63t68.5 96t25.5 121.5
q0 61 -23 114t-63 92t-94 61t-115 22q-30 0 -57.5 -7t-47.5 -8v-577z" />
    <glyph glyph-name="E" unicode="E" horiz-adv-x="500" 
d="M70 0q12 15 12 35v642q0 20 -12 35h396v-75q-25 7 -54 7h-254v-253h160q18 0 35.5 2t31.5 10v-92q-14 8 -31.5 10t-35.5 2h-160v-255h254q29 0 54 7v-75h-396z" />
    <glyph glyph-name="F" unicode="F" horiz-adv-x="444" 
d="M82 677q0 20 -12 35h368v-75q-25 7 -54 7h-226v-253h141q18 0 35.5 2t31.5 10v-92q-14 8 -31.5 10t-35.5 2h-141v-288q0 -20 12 -35h-100q12 15 12 35v642z" />
    <glyph glyph-name="G" unicode="G" horiz-adv-x="722" 
d="M589 611q-37 22 -84 31.5t-90 9.5q-62 0 -117 -23.5t-96 -64t-64.5 -94.5t-23.5 -114q0 -66 24.5 -120.5t67 -93.5t100 -60.5t122.5 -21.5q41 0 78.5 9t74.5 24v230h-173q-21 0 -39 -8v84q18 -8 39 -8h249v-277q0 -15 0.5 -32.5t3.5 -30.5q-55 -29 -115.5 -48t-124.5 -19
q-84 0 -154.5 29.5t-121 81t-79 121.5t-28.5 151t32.5 147.5t87.5 114t126 73.5t148 26q14 0 32.5 -2.5t38.5 -5.5l36 -5.5t28 -2.5q12 0 22 4v-105z" />
    <glyph glyph-name="H" unicode="H" horiz-adv-x="667" 
d="M509 399v278q0 20 -12 35h100q-12 -15 -12 -35v-642q0 -20 12 -35h-100q12 15 12 35v296h-351v-296q0 -20 12 -35h-100q12 15 12 35v642q0 20 -12 35h100q-12 -15 -12 -35v-278h351z" />
    <glyph glyph-name="I" unicode="I" horiz-adv-x="222" 
d="M149 35q0 -20 12 -35h-100q12 15 12 35v642q0 20 -12 35h100q-12 -15 -12 -35v-642z" />
    <glyph glyph-name="J" unicode="J" horiz-adv-x="333" 
d="M269 712q-12 -15 -12 -35v-494q0 -44 -14 -80.5t-38 -63t-57 -41t-71 -14.5q-14 0 -24.5 2.5t-20.5 2.5q-15 0 -23 -7v91q15 -8 31.5 -10.5t34.5 -2.5q52 0 79 37t27 106v474q0 20 -12 35h100z" />
    <glyph glyph-name="K" unicode="K" 
d="M269 378v-2q72 -6 129.5 -41.5t98 -86.5t62.5 -110.5t22 -113.5q0 -5 2.5 -11.5t5.5 -12.5h-87q3 19 3 37q0 67 -29 122t-77.5 94t-111 60.5t-129.5 21.5v-300q0 -20 12 -35h-100q12 15 12 35v642q0 20 -12 35h100q-12 -15 -12 -35v-334h2l280 333q11 14 11 17q0 6 -5 11
l-8 8h131q-11 -6 -20.5 -16l-19.5 -21z" />
    <glyph glyph-name="L" unicode="L" horiz-adv-x="444" 
d="M64 0q12 15 12 35v642q0 20 -12 35h100q-12 -15 -12 -35v-609h217q17 0 35.5 4t33.5 11v-83h-374z" />
    <glyph glyph-name="M" unicode="M" horiz-adv-x="778" 
d="M390 -21h-2l-211 529h-2l-85 -459l-3.5 -17.5t-1.5 -13.5q1 -5 3 -9t6 -9h-99q7 8 10 15.5t5 17.5l146 695h2l230 -583l2 -5l225 588h2l150 -695q2 -10 5 -17.5t10 -15.5h-100q4 5 6 9t3 9q0 6 -1.5 13.5l-3.5 17.5l-85 449h-2z" />
    <glyph glyph-name="N" unicode="N" horiz-adv-x="667" 
d="M158 35q0 -20 12 -35h-100q12 15 12 35v715h2l424 -556h1v483q0 20 -12 35h100q-12 -15 -12 -35v-693h-2l-423 552l-2 -2v-499z" />
    <glyph glyph-name="O" unicode="O" horiz-adv-x="833" 
d="M416 728q79 0 148 -29.5t120 -80t80.5 -118t29.5 -144.5t-29.5 -144.5t-80.5 -118t-120 -80t-148 -29.5t-148 29.5t-120 80t-80.5 118t-29.5 144.5t29.5 144.5t80.5 118t120 80t148 29.5zM416 652q-63 0 -118 -23.5t-96 -63.5t-64.5 -94t-23.5 -115q0 -62 23.5 -115.5
t64.5 -94t96 -63.5t118 -23t118 23t96 63.5t64.5 94t23.5 115.5q0 61 -23.5 115t-64.5 94t-96 63.5t-118 23.5z" />
    <glyph glyph-name="P" unicode="P" horiz-adv-x="500" 
d="M488 481q0 -45 -17.5 -86.5t-47.5 -73t-71 -50t-88 -18.5q-32 0 -62 8t-55 26v-252q0 -20 12 -35h-100q12 15 12 35v693q19 -16 44 -16t61.5 8t75.5 8q53 0 96.5 -20t74.5 -54t48 -79t17 -94zM147 355q24 -11 44 -18.5t50 -7.5q37 0 68 11t54 32t36 51t13 67
q0 35 -11 64.5t-32 51.5t-50.5 34t-66.5 12q-12 0 -27.5 -2.5t-30.5 -5.5l-27.5 -5.5t-19.5 -2.5v-281z" />
    <glyph glyph-name="Q" unicode="Q" horiz-adv-x="833" 
d="M648 -43q8 5 8 14q0 3 -6 11.5l-13.5 18.5l-14.5 18.5t-10 12.5l-4 4q-42 -25 -90 -38.5t-102 -13.5q-79 0 -148 29.5t-120 80t-80.5 118t-29.5 144.5t29.5 144.5t80.5 118t120 80t148 29.5t148 -29.5t120 -80t80.5 -118t29.5 -144.5q0 -83 -34 -154.5t-93 -122.5l38 -47
l14 -16.5l18.5 -22l18.5 -21.5t15 -15h-123zM502 314q-2 -4 -6 -6t-4 -11q0 -2 15 -21l33.5 -42.5l35.5 -44t22 -25.5l22 -27q46 42 72 97.5t26 121.5q0 61 -23.5 115t-64.5 94t-96 63.5t-118 23.5t-118 -23.5t-96 -63.5t-64.5 -94t-23.5 -115q0 -62 23.5 -115.5t64.5 -94
t96 -63.5t118 -23q40 0 76 9.5t68 26.5l-112 137l-34 43.5t-41 37.5h129z" />
    <glyph glyph-name="R" unicode="R" 
d="M82 728q9 -6 22 -11t27 -5q23 0 52.5 8t60.5 8q51 0 95 -17.5t76 -48t50.5 -73.5t18.5 -94q0 -26 -6 -51t-18.5 -47t-31.5 -38.5t-46 -24.5v-2q47 -11 85 -40.5t64.5 -70t41 -89t14.5 -97.5q0 -20 12 -35h-100q12 15 12 35q0 69 -25.5 119.5t-66.5 85t-94 56.5t-107 34v4
q28 3 61.5 12t62 27.5t47.5 49t19 76.5q0 35 -12.5 63t-34 48t-51.5 31t-65 11q-23 0 -44.5 -6.5t-42.5 -10.5v-600q0 -20 12 -35h-100q12 15 12 35v693z" />
    <glyph glyph-name="S" unicode="S" horiz-adv-x="444" 
d="M347 614q-25 20 -55.5 33t-63.5 13q-45 0 -72.5 -27.5t-27.5 -71.5q0 -28 21.5 -48.5t53.5 -39.5l69 -40t69 -49.5t53.5 -69t21.5 -98.5q0 -50 -18 -92.5t-50 -73.5t-76 -48.5t-97 -17.5q-14 0 -27.5 3l-27.5 6q-14 4 -28 6.5t-28 2.5q-8 0 -15.5 -4.5t-13.5 -9.5v128
q26 -26 57.5 -41t69.5 -15q37 0 69.5 10t56.5 29.5t38 48.5t14 68q0 48 -21.5 79t-53.5 53.5t-69 41t-69 40.5t-53.5 52.5t-21.5 77.5q0 36 11.5 66.5t32.5 53t51 35.5t67 13q13 0 29 -2.5t32 -4.5q16 -3 29 -6t19 -3q14 0 24 8v-106z" />
    <glyph glyph-name="T" unicode="T" horiz-adv-x="389" 
d="M232 35q0 -20 12 -35h-100q12 15 12 35v609h-113q-16 0 -26.5 -4t-19.5 -16v88h394v-88q-9 12 -19.5 16t-26.5 4h-113v-609z" />
    <glyph glyph-name="U" unicode="U" 
d="M136 235q0 -82 42 -132.5t127 -50.5t127 50.5t42 132.5v442q0 20 -12 35h100q-12 -15 -12 -35v-447q0 -50 -17 -95t-48.5 -78.5t-77 -53t-102.5 -19.5t-102.5 19.5t-77 53t-48.5 78.5t-17 95v447q0 20 -12 35h100q-12 -15 -12 -35v-442z" />
    <glyph glyph-name="V" unicode="V" horiz-adv-x="667" 
d="M16 679q-7 15 -25 33h125l-10.5 -8.5t-5.5 -12.5q0 -1 5 -12l13 -29l224 -501h2l208 501l13 29t5 12q0 8 -5.5 12.5t-9.5 8.5h120q-18 -18 -25 -33l-300 -695h-2z" />
    <glyph glyph-name="W" unicode="W" horiz-adv-x="889" 
d="M575 149h2l200 515q4 10 5 15.5t1 7.5q0 8 -2 12.5t-9 12.5h123q-11 -8 -20 -20.5t-16 -28.5l-279 -679h-2l-128 292l-120 -292h-2l-299 679q-7 15 -16 28t-20 21h126q-5 -4 -10 -9.5t-5 -11.5q0 -4 16 -42l207 -500h2l84 212l-144 319q-5 11 -11 18t-14 14h122
q-6 -6 -11 -10t-5 -15q0 -5 13 -36z" />
    <glyph glyph-name="X" unicode="X" horiz-adv-x="556" 
d="M70 657q-11 17 -19.5 32t-18.5 23h118q-8 -7 -8 -20q0 -7 5 -14.5t13 -23.5l118 -211l113 211l13.5 23.5t4.5 14.5q0 13 -7 20h112q-10 -8 -18.5 -23t-19.5 -32l-160 -272l210 -342q13 -23 33 -43h-124q5 5 8 10.5t3 11.5q0 9 -9 21.5t-16 25.5l-142 255l-144 -255
q-7 -13 -16 -25.5t-9 -21.5q0 -6 3 -11.5t8 -10.5h-125q20 20 33 43l206 342z" />
    <glyph glyph-name="Y" unicode="Y" 
d="M124 712q-9 -7 -9 -18q0 -5 5.5 -13l10.5 -15l169 -256l170 256l10.5 15t5.5 13q0 11 -9 18h130q-8 -6 -13.5 -12.5t-10.5 -13.5l-248 -343v-299q0 -11 4.5 -23t9.5 -21h-104q5 9 9.5 21t4.5 23v299l-230 332q-8 11 -14 21t-12 16h121z" />
    <glyph glyph-name="Z" unicode="Z" horiz-adv-x="500" 
d="M361 644h-256q-30 0 -57 -16v84h432l-363 -644h314q30 0 57 16v-84h-489z" />
    <glyph glyph-name="bracketleft" unicode="[" horiz-adv-x="278" 
d="M243 652q-14 14 -39 14h-88v-719h88q12 0 22.5 4t16.5 10v-60h-194q4 7 6.5 15.5t2.5 15.5v749q0 7 -2.5 15.5t-6.5 15.5h194v-60z" />
    <glyph glyph-name="backslash" unicode="\" horiz-adv-x="278" 
d="M-13 728h62l243 -744h-58z" />
    <glyph glyph-name="bracketright" unicode="]" horiz-adv-x="278" 
d="M229 712q-4 -7 -6.5 -15.5t-2.5 -15.5v-749q0 -7 2.5 -15.5t6.5 -15.5h-194v60q14 -14 39 -14h88v719h-88q-25 0 -39 -14v60h194z" />
    <glyph glyph-name="asciicircum" unicode="^" horiz-adv-x="600" 
d="M47 269l224 443h58l224 -443h-63l-191 376l-188 -376h-64z" />
    <glyph glyph-name="underscore" unicode="_" horiz-adv-x="500" 
d="M0 -125v50h500v-50h-500z" />
    <glyph glyph-name="quoteleft" unicode="&#x2018;" horiz-adv-x="222" 
d="M151 712q-5 -4 -8.5 -8t-3.5 -9q0 -3 2.5 -14.5l5.5 -25.5l31 -143h-46q4 3 7 6.5t3 7.5q0 6 -4.5 15t-11.5 25l-68 146h93z" />
    <glyph glyph-name="a" unicode="a" 
d="M483 362q-14 7 -30.5 20t-37.5 25.5t-47.5 21.5t-60.5 9q-40 0 -75.5 -15t-62.5 -41t-43 -60.5t-16 -73.5q0 -40 14 -75.5t38.5 -62.5t59.5 -42.5t77 -15.5q36 0 62 5t46.5 15.5t38 25t37.5 34.5v230zM306 506q33 1 59 -4.5t49 -15.5t44.5 -24l45.5 -30l18.5 -11.5
t14 -7.5t14.5 -4t20 -1q-14 -10 -16 -25.5t-2 -47.5v-304q0 -8 4 -16t16 -15h-90v55l-4 2q-29 -44 -71 -58.5t-95 -14.5q-55 0 -104.5 19t-87.5 53t-60.5 81t-22.5 104q0 56 20.5 104.5t56.5 84t85 56t106 20.5z" />
    <glyph glyph-name="b" unicode="b" 
d="M128 128q14 -8 30.5 -20.5t37.5 -25t47.5 -21.5t60.5 -9q40 0 75.5 15t62.5 41t43 60.5t16 73.5q0 40 -14 75.5t-38.5 62.5t-59.5 42.5t-77 15.5q-36 0 -62 -5t-46.5 -15.5t-38.5 -25.5t-37 -34v-230zM58 679q0 8 -4 16.5t-16 16.5h90v-277l4 -2q29 44 71 58.5t95 14.5
q55 0 104.5 -19t87.5 -53t60.5 -81t22.5 -104q0 -56 -20.5 -104.5t-56.5 -84t-85 -56t-106 -20.5q-33 0 -58.5 7t-48 18.5t-44.5 26t-49 29.5q-14 9 -28 17t-30 11q8 7 9.5 28.5t1.5 39.5v518z" />
    <glyph glyph-name="c" unicode="c" horiz-adv-x="444" 
d="M417 386q-16 14 -29.5 24t-27.5 16t-30 9t-38 3q-46 0 -81.5 -17.5t-59.5 -45.5t-36.5 -63.5t-12.5 -70.5q0 -41 14.5 -75.5t40 -59.5t60.5 -39.5t76 -14.5q37 0 67.5 14.5t56.5 40.5v-116q-1 0 -9 5.5t-11 5.5q-2 0 -13.5 -3t-29.5 -6t-39 -6t-41 -3q-45 0 -89 19
t-78.5 53t-55.5 82t-21 105q0 53 19.5 101t53.5 84t79.5 57t98.5 21q19 0 37 -3t33 -7l26.5 -7t16.5 -3q6 0 12.5 6.5l10.5 10.5v-117z" />
    <glyph glyph-name="d" unicode="d" 
d="M483 358q-20 19 -37.5 34t-38 25.5t-46.5 15.5t-62 5q-42 0 -77 -15.5t-59.5 -42.5t-38.5 -62.5t-14 -75.5q0 -39 16 -73.5t43 -60.5t62.5 -41t75.5 -15q34 0 60.5 9t47.5 21.5t37.5 25t30.5 20.5v230zM483 679q0 8 -3.5 16.5t-14.5 16.5h88v-551q0 -18 1.5 -39.5
t9.5 -28.5q-16 -3 -30 -11t-28 -17q-27 -15 -49 -29.5t-44.5 -26t-48 -18.5t-58.5 -7q-57 0 -106 20.5t-85 56t-56.5 84t-20.5 104.5q0 57 22.5 104t60.5 81t87.5 53t104.5 19q53 0 95 -14.5t71 -58.5l4 2v244z" />
    <glyph glyph-name="e" unicode="e" 
d="M502 291q-18 70 -71.5 108.5t-128.5 38.5q-78 0 -129.5 -39t-73.5 -108h403zM98 223q6 -39 24 -70.5t45.5 -54t63.5 -34.5t77 -12q43 0 83.5 7.5t73.5 39.5v-113q-4 6 -9.5 11t-13.5 6q-4 0 -15 -2l-24 -4.5t-25 -5.5t-18 -4q-13 -2 -26 -2.5t-26 -0.5q-57 0 -108 19
t-89.5 53.5t-61.5 82t-23 105.5t21 106.5t58 83t87.5 53.5t108.5 19q61 0 111.5 -22.5t86.5 -58.5t55.5 -81.5t19.5 -91.5q0 -10 4 -16.5l8 -12.5h-488z" />
    <glyph glyph-name="f" unicode="f" horiz-adv-x="278" 
d="M21 488h66v55q0 41 16 75t40 58.5t52 38t52 13.5q8 0 18 2.5t17 5.5v-80h-10q-23 0 -44 -6.5t-37 -20t-25 -35.5t-9 -52v-52h125v-76q-24 8 -52 8h-73v-381q0 -31 18 -41h-106q12 6 15 24t3 47v351h-30q-9 0 -19 -2.5t-17 -5.5v74z" />
    <glyph glyph-name="g" unicode="g" 
d="M483 362q-14 7 -30.5 20t-37.5 25.5t-47.5 21.5t-60.5 9q-40 0 -75.5 -15t-62.5 -41t-43 -60.5t-16 -73.5q0 -40 14 -75.5t38.5 -62.5t59.5 -42.5t77 -15.5q36 0 62 5t46.5 15.5t38 25t37.5 34.5v230zM141 -116q9 -13 26 -22.5t36.5 -15.5t39 -9t35.5 -3q57 0 96 14.5
t63 42t35 69t11 95.5l-4 2q-29 -44 -71 -58.5t-95 -14.5q-55 0 -104.5 19t-87.5 53t-60.5 81t-22.5 104q0 56 20.5 104.5t56.5 84t85 56t106 20.5q33 0 58.5 -7t48 -18.5t44.5 -26t49 -29.5q14 -9 28 -17t30 -11q-8 -7 -9.5 -28.5t-1.5 -39.5v-281q0 -30 -5 -70t-28 -84
q-31 -60 -88.5 -94t-126.5 -34q-18 0 -37 2.5t-38 5.5l-34 5.5t-30 2.5q-16 0 -25 -16v118z" />
    <glyph glyph-name="h" unicode="h" horiz-adv-x="556" 
d="M128 438q15 12 27.5 24.5t29 22t39.5 15.5t57 6q44 0 83.5 -17.5t69 -47t46.5 -69t17 -83.5v-230q0 -31 6.5 -41.5t15.5 -17.5h-112q14 9 17 22t3 34v223q0 33 -12 62t-33 50.5t-49.5 34t-62.5 12.5q-31 0 -54 -10.5t-40 -24.5t-29 -27t-19 -19v-322q0 -14 9.5 -22
l15.5 -13h-111q11 8 13.5 18.5t2.5 30.5v618q0 14 -2.5 26t-13.5 19h86v-274z" />
    <glyph glyph-name="i" unicode="i" horiz-adv-x="222" 
d="M111 657q18 0 31.5 -13t13.5 -32t-13.5 -32t-31.5 -13t-31.5 13t-13.5 32t13.5 32t31.5 13zM58 0q12 6 15 24t3 47v374q0 14 -2.5 26t-13.5 19h86v-449q0 -31 18 -41h-106z" />
    <glyph glyph-name="j" unicode="j" horiz-adv-x="222" 
d="M111 567q-18 0 -31.5 13t-13.5 32t13.5 32t31.5 13t31.5 -13t13.5 -32t-13.5 -32t-31.5 -13zM-87 -147q12 -5 24.5 -7.5t25.5 -2.5q32 0 53.5 12.5t35 34t19 49.5t5.5 59v447q0 14 -2.5 26t-13.5 19h86v-513q0 -38 -12.5 -74.5t-36 -65t-57 -45.5t-75.5 -17q-13 0 -27 -2
t-25 -7v87z" />
    <glyph glyph-name="k" unicode="k" horiz-adv-x="500" 
d="M40 0q12 6 15 24t3 47v596q0 14 -2.5 26t-13.5 19h86v-671q0 -31 18 -41h-106zM484 490v-2q-19 -10 -33.5 -21.5t-28.5 -24.5l-145 -140q50 -4 84.5 -29t56 -61.5t31 -81.5t9.5 -89q0 -16 6 -26t14 -15h-108q18 10 18 41q0 113 -50.5 168.5t-163.5 55.5h-21l193 199
q7 6 7 12q0 8 -9 12v2h140z" />
    <glyph glyph-name="l" unicode="l" horiz-adv-x="222" 
d="M58 0q12 6 15 24t3 47v596q0 14 -2.5 26t-13.5 19h86v-671q0 -31 18 -41h-106z" />
    <glyph glyph-name="m" unicode="m" horiz-adv-x="944" 
d="M68 368q0 12 -3 17.5l-6 11.5q34 16 55.5 35t44 35.5t52.5 27.5t80 11q54 0 100 -20t78 -71q18 16 34 32.5t37 29.5t49.5 21t70.5 8q44 0 83.5 -17.5t69 -47t46.5 -69t17 -83.5v-230q0 -31 6.5 -41.5t15.5 -17.5h-112q14 9 17 22t3 34v223q0 33 -12 62t-33 50.5t-49.5 34
t-62.5 12.5q-31 0 -54.5 -10.5t-41 -24.5t-29 -27t-17.5 -19v-298q0 -31 6.5 -41.5t15.5 -17.5h-112q14 9 17 22t3 34v223q0 33 -12 62t-33 50.5t-49.5 34t-62.5 12.5q-31 0 -54 -10.5t-40 -24.5t-29 -27t-19 -19v-322q0 -14 9.5 -22l15.5 -13h-111q11 8 13.5 18.5t2.5 30.5
v319z" />
    <glyph glyph-name="n" unicode="n" horiz-adv-x="556" 
d="M58 368q0 12 -3 17.5l-6 11.5q42 13 65 32l43.5 36t47 29t76.5 12q44 0 83.5 -17.5t69 -47t46.5 -69t17 -83.5v-230q0 -31 6.5 -41.5t15.5 -17.5h-112q14 9 17 22t3 34v223q0 33 -12 62t-33 50.5t-49.5 34t-62.5 12.5q-31 0 -54 -10.5t-40 -24.5t-29 -27t-19 -19v-322
q0 -14 9.5 -22l15.5 -13h-111q11 8 13.5 18.5t2.5 30.5v319z" />
    <glyph glyph-name="o" unicode="o" 
d="M503 245q0 40 -16 75t-43 61t-63 41.5t-76 15.5q-41 0 -77 -15.5t-63 -41.5t-42.5 -61t-15.5 -75t15.5 -75t42.5 -61.5t63 -41.5t77 -15q40 0 76 15t63 41.5t43 61.5t16 75zM305 -16q-55 0 -104 20t-86 55.5t-58.5 83t-21.5 102.5t21.5 102.5t58.5 82.5t86 55.5t104 20.5
t104 -20.5t86 -55.5t58.5 -82.5t21.5 -102.5t-21.5 -102.5t-58.5 -83t-86 -55.5t-104 -20z" />
    <glyph glyph-name="p" unicode="p" 
d="M128 132q19 -20 37 -34.5t38.5 -25t46.5 -15.5t62 -5q42 0 77 15.5t59.5 42.5t38.5 62.5t14 75.5q0 39 -16 73.5t-43 60.5t-62.5 41t-75.5 15q-34 0 -60.5 -9t-47.5 -21.5t-37.5 -25.5t-30.5 -20v-230zM58 329q0 18 -1.5 39.5t-9.5 28.5q16 3 30 11t28 17q27 15 49 29.5
t44.5 26t48 18.5t58.5 7q57 0 106 -20.5t85 -56t56.5 -84t20.5 -104.5q0 -57 -22.5 -104t-60.5 -81t-87.5 -53t-104.5 -19q-53 0 -95 14.5t-71 58.5l-4 -2v-256q0 -8 4 -16.5t16 -16.5h-110q12 8 16 16.5t4 16.5v530z" />
    <glyph glyph-name="q" unicode="q" 
d="M483 362q-14 7 -30.5 20t-37.5 25.5t-47.5 21.5t-60.5 9q-40 0 -75.5 -15t-62.5 -41t-43 -60.5t-16 -73.5q0 -40 14 -75.5t38.5 -62.5t59.5 -42.5t77 -15.5q36 0 62 5t46.5 15.5t38 25t37.5 34.5v230zM553 -201q0 -8 4 -16.5t16 -16.5h-110q12 8 16 16.5t4 16.5v256l-4 2
q-29 -44 -71 -58.5t-95 -14.5q-55 0 -104.5 19t-87.5 53t-60.5 81t-22.5 104q0 56 20.5 104.5t56.5 84t85 56t106 20.5q33 0 58.5 -7t48 -18.5t44.5 -26t49 -29.5q14 -9 28 -17t30 -11q-8 -7 -9.5 -28.5t-1.5 -39.5v-530z" />
    <glyph glyph-name="r" unicode="r" horiz-adv-x="278" 
d="M278 438h-18q-21 0 -44.5 -7t-43 -23.5t-32 -43t-12.5 -66.5v-257q0 -31 18 -41h-106q12 6 15 24t3 48v382q0 9 -3.5 18.5l-6.5 17.5h75v-65h2q17 45 52 63t74 18q14 0 27 10v-78z" />
    <glyph glyph-name="s" unicode="s" horiz-adv-x="333" 
d="M278 403q-18 15 -41 25t-48 10q-32 0 -55.5 -13.5t-23.5 -49.5q0 -28 16 -44t40 -27t51.5 -22t51.5 -28t40 -45t16 -74q0 -33 -12 -60.5t-33 -47.5t-49.5 -31.5t-60.5 -11.5q-28 0 -48.5 3t-35.5 7q-15 3 -26 6.5t-19 3.5q-5 0 -10.5 -3.5t-8.5 -8.5h-1v120
q25 -27 58 -43.5t70 -16.5q19 0 38 3.5t33.5 11.5t23.5 22.5t9 37.5q0 35 -16 55t-40 33t-51.5 23t-51.5 26t-40 41.5t-16 69.5q0 30 11 54.5t29.5 41.5t44.5 26t56 9q21 0 42.5 -5t34.5 -5q5 0 11.5 1.5t10.5 6.5v-101z" />
    <glyph glyph-name="t" unicode="t" horiz-adv-x="278" 
d="M8 422l137 190v-122h133v-82q-14 11 -31 12.5t-37 1.5h-66v-381q0 -31 18 -41h-106q12 6 15 24t3 47v351h-66z" />
    <glyph glyph-name="u" unicode="u" horiz-adv-x="556" 
d="M513 490q-11 -8 -13.5 -18.5t-2.5 -30.5v-319q0 -12 3 -17.5l6 -11.5q-32 -18 -53 -37t-44.5 -35t-54 -26.5t-80.5 -10.5q-44 0 -83.5 14t-69 39.5t-46.5 62.5t-17 84v247q0 31 -6.5 41.5t-15.5 17.5h112q-14 -9 -17 -22t-3 -34v-244q0 -65 42 -101.5t108 -36.5
q33 0 58 9.5t43 22.5t29.5 26.5t18.5 22.5v322q0 14 -9.5 22l-15.5 13h111z" />
    <glyph glyph-name="v" unicode="v" horiz-adv-x="500" 
d="M513 490v-2q-14 -10 -24.5 -25.5t-18.5 -30.5l-218 -448h-2l-220 448q-8 15 -18.5 30.5t-24.5 25.5v2h111v-2q-9 -6 -9 -16q0 -6 6.5 -18t12.5 -26l141 -307h2l143 307q6 14 12.5 26t6.5 18q0 4 -2 8.5t-7 7.5v2h109z" />
    <glyph glyph-name="w" unicode="w" horiz-adv-x="778" 
d="M533 130h2l130 298q8 18 12 28t4 16q0 10 -9 18h110q-14 -10 -24.5 -26t-18.5 -32l-210 -448h-2l-137 363h-2l-140 -363h-2l-208 448q-8 16 -18.5 32t-24.5 26h113q-9 -8 -9 -18q0 -6 4 -16t12 -28l126 -298h2l147 384h2z" />
    <glyph glyph-name="x" unicode="x" horiz-adv-x="500" 
d="M484 490q-18 -11 -30 -24t-23 -27l-143 -175l173 -213q11 -14 23 -27t30 -24h-130q9 9 9 18q0 6 -8.5 19.5t-17.5 24.5l-120 153l-116 -153q-9 -11 -17.5 -24.5t-8.5 -19.5q0 -9 9 -18h-128q18 11 30 24t23 27l169 214l-133 174q-11 14 -23 27t-30 24h128q-9 -8 -9 -18
q0 -6 9 -19l17 -25l84 -124l88 124l17 25t9 19q0 10 -9 18h128z" />
    <glyph glyph-name="y" unicode="y" horiz-adv-x="500" 
d="M212 52l-183 377q-8 17 -19 33.5t-25 27.5h115q-8 -7 -8 -18q0 -9 8 -28.5t15 -33.5l133 -294h2l136 294q7 14 15 33.5t8 28.5q0 11 -8 18h113q-14 -11 -25 -27.5t-19 -33.5l-277 -562q-5 -11 -11.5 -22t-6.5 -17q0 -10 6 -17h-112q14 12 28.5 33t25.5 41z" />
    <glyph glyph-name="z" unicode="z" horiz-adv-x="444" 
d="M-5 0l296 426h-174q-26 0 -41.5 -3.5t-26.5 -14.5v82h373l-308 -426h241q39 0 52.5 6.5t20.5 17.5v-88h-433z" />
    <glyph glyph-name="braceleft" unicode="{" horiz-adv-x="333" 
d="M278 685h-48q-11 0 -19 -7.5t-13 -20.5t-7.5 -29t-2.5 -34v-156q0 -38 -9.5 -64.5t-21.5 -43.5t-24.5 -26t-18.5 -11v-2q6 -2 18.5 -11t24.5 -26.5t21.5 -44t9.5 -63.5v-156q0 -18 2.5 -34t7.5 -29t13 -20.5t19 -7.5h48v-43h-55q-42 0 -67.5 31.5t-25.5 85.5v157
q0 28 -4 53.5t-13 45t-23.5 31t-34.5 11.5v42q20 0 34.5 11.5t23.5 31t13 45t4 53.5v157q0 54 25.5 85.5t67.5 31.5h55v-43z" />
    <glyph glyph-name="bar" unicode="|" horiz-adv-x="222" 
d="M139 750v-1000h-56v1000h56z" />
    <glyph glyph-name="braceright" unicode="}" horiz-adv-x="333" 
d="M55 728h55q42 0 67.5 -31.5t25.5 -85.5v-157q0 -28 4 -53.5t13 -45t23.5 -31t34.5 -11.5v-42q-20 0 -34.5 -11.5t-23.5 -31t-13 -45t-4 -53.5v-157q0 -54 -25.5 -85.5t-67.5 -31.5h-55v43h48q11 0 19 7.5t13 20.5t7.5 29t2.5 34v156q0 37 9.5 63.5t21.5 44t24.5 26.5
t18.5 11v2q-6 2 -18.5 11t-24.5 26t-21.5 43.5t-9.5 64.5v156q0 18 -2.5 34t-7.5 29t-13 20.5t-19 7.5h-48v43z" />
    <glyph glyph-name="asciitilde" unicode="~" horiz-adv-x="600" 
d="M531 269q-11 -16 -23.5 -31.5t-27 -27.5t-33 -19.5t-41.5 -7.5q-28 0 -52.5 9.5t-49.5 23.5q-24 14 -52 24.5t-63 10.5q-17 0 -29.5 -6.5t-23 -16.5t-18 -23t-13.5 -26l-36 42q8 16 19.5 31.5t26.5 27.5t34.5 19.5t44.5 7.5q26 0 54 -9.5t57 -22.5l55 -24t47 -12
q15 0 27.5 6.5t23 16.5t19.5 23l18 26z" />
    <glyph glyph-name="exclamdown" unicode="&#xa1;" horiz-adv-x="278" 
d="M135 406q-20 0 -35.5 15t-15.5 36t15.5 36t35.5 15t35.5 -15t15.5 -36t-15.5 -36t-35.5 -15zM72 -218q11 8 17 20.5t6 23.5l13 463q0 18 -12 36h83q-12 -18 -12 -36l13 -463q0 -11 6 -23.5t17 -20.5h-131z" />
    <glyph glyph-name="cent" unicode="&#xa2;" 
d="M476 500q-25 22 -44.5 33.5t-46.5 16.5v-380q26 5 48.5 18t42.5 33v-109q-13 4 -32 4q-13 0 -27.5 -3.5l-31.5 -7.5v-37q0 -11 3.5 -24t8.5 -21h-80v77q-43 3 -84 23t-72.5 53.5t-50.5 79.5t-19 101q0 50 17 95t47 80.5t71.5 58t90.5 27.5v31q0 11 -3.5 23.5t-8.5 21.5
h80v-79q24 -4 42 -9.5t26 -5.5q13 0 23 5v-105zM317 550q-38 -7 -67.5 -26t-49.5 -46t-30.5 -59t-10.5 -64q0 -36 11.5 -67.5t32.5 -55.5t50 -40t64 -22v380z" />
    <glyph glyph-name="sterling" unicode="&#xa3;" 
d="M35 395h73v141q0 34 14.5 68.5t42 62t66.5 44.5t88 17q14 0 27 -3t27 -3q9 0 19 1.5t18 4.5v-90q-43 22 -89 22q-26 0 -51.5 -8t-46 -24.5t-33 -41.5t-12.5 -58v-133h97q12 0 24.5 2.5t22.5 6.5v-77h-144v-259h118q38 0 72.5 13.5t61.5 39t44 63.5t19 88h80
q-10 -25 -10 -48q0 -34 -21 -73.5t-58 -73t-87.5 -55.5t-108.5 -22h-196q16 15 16 35v292h-33q-10 0 -21 -1.5t-19 -6.5v76z" />
    <glyph glyph-name="yen" unicode="&#xa5;" 
d="M249 0q5 9 9.5 21t4.5 23v214h-155q-12 0 -24.5 -2.5t-22.5 -6.5v67h202v23l-42 59h-113q-12 0 -24.5 -2.5t-22.5 -6.5v67h120l-152 219q-8 11 -14 21t-12 16h117l-5.5 -8t-3.5 -10t5.5 -12.5t10.5 -15.5l173 -264l174 264l10.5 15t5.5 13q0 11 -9 18h126
q-8 -6 -13.5 -12.5t-10.5 -13.5l-166 -230h69q12 0 24.5 2.5t22.5 6.5v-67h-158l-44 -57v-25h155q12 0 24.5 2.5t22.5 6.5v-67h-202v-214q0 -11 4.5 -23t9.5 -21h-96z" />
    <glyph glyph-name="florin" unicode="&#x192;" 
d="M14 -160l20 -4t20 -2q54 0 88.5 23t55 59.5t31.5 82t19 90.5l46 261h-104q-10 0 -17.5 -1.5t-22.5 -9.5v79h159q10 70 26.5 127.5t46.5 98t77 62.5t116 22q13 0 22 6v-81q-11 5 -22.5 6t-22.5 1q-49 0 -80 -22.5t-50 -58t-29 -78.5t-16 -83h151v-82q-17 9 -32.5 11.5
t-28.5 2.5h-101l-62 -335q-21 -116 -86.5 -182.5t-183.5 -66.5q-8 0 -20 -5v79z" />
    <glyph glyph-name="section" unicode="&#xa7;" horiz-adv-x="556" 
d="M98 318q0 -35 18 -57t45 -42q4 -3 19.5 -13.5l37.5 -25l47 -31l47 -30t38.5 -22.5t21.5 -9q12 0 26.5 9t27.5 24t22 34.5t9 40.5q0 27 -11.5 46.5t-29 35t-39 27.5l-41.5 24q-12 7 -34.5 22l-47 30t-46 26t-31.5 11q-8 0 -21 -8t-26 -21.5t-22.5 -31.5t-9.5 -39zM380 554
q4 13 4 32q0 17 -8.5 32t-22.5 26t-32.5 17.5t-37.5 6.5q-48 0 -78.5 -24.5t-30.5 -75.5q0 -40 25.5 -67.5t63.5 -50t82.5 -43.5t82.5 -48.5t63.5 -65t25.5 -91.5q0 -51 -29.5 -88.5t-81.5 -58.5q26 -24 41 -56t15 -68q0 -40 -15 -71t-40 -52t-59 -31.5t-71 -10.5
q-49 0 -82.5 14t-55.5 38.5t-34.5 57.5t-18.5 71h91q-3 -8 -4 -17.5t-1 -17.5q0 -22 9 -38.5t24 -27t34 -15.5t39 -5q46 0 79 26.5t33 75.5q0 37 -26 65.5t-65 54t-85 49.5t-85 52.5t-65 63t-26 80.5q0 59 28.5 97.5t82.5 61.5q-23 21 -35 50.5t-12 61.5q0 38 13.5 68.5
t36.5 51.5t55 32.5t68 11.5q47 0 79.5 -11t54 -33t35 -54.5t22.5 -75.5h-86z" />
    <glyph glyph-name="currency" unicode="&#xa4;" 
d="M300 548q-39 0 -74 -15.5t-60.5 -42t-40.5 -61.5t-15 -73t15 -73t40.5 -61.5t60.5 -42t74 -15.5t74 15.5t60.5 42t40.5 61.5t15 73t-15 73t-40.5 61.5t-60.5 42t-74 15.5zM105 204q-53 66 -53 151q0 42 12.5 81.5t42.5 71.5l-56 57l40 40l57 -55q32 27 72.5 40.5
t82.5 13.5q40 0 78.5 -13.5t70.5 -40.5l56 56l42 -42l-55 -54q28 -32 40.5 -71.5t12.5 -81.5t-12.5 -81t-39.5 -73l53 -56l-40 -40l-54 58q-32 -29 -71.5 -43t-81.5 -14q-44 0 -83.5 13.5t-73.5 43.5l-54 -58l-40 40z" />
    <glyph glyph-name="quotesingle" unicode="'" horiz-adv-x="222" 
d="M82 712h58v-271h-58v271z" />
    <glyph glyph-name="quotedblleft" unicode="&#x201c;" horiz-adv-x="389" 
d="M318 712q-5 -4 -8.5 -8t-3.5 -9q0 -3 2.5 -14.5l5.5 -25.5l31 -143h-46q4 3 7 6.5t3 7.5q0 6 -4 15t-12 25l-68 146h93zM151 712q-5 -4 -8.5 -8t-3.5 -9q0 -3 2.5 -14.5l5.5 -25.5l31 -143h-46q4 3 7 6.5t3 7.5q0 6 -4 15t-12 25l-68 146h93z" />
    <glyph glyph-name="guillemotleft" unicode="&#xab;" horiz-adv-x="500" 
d="M63 245l120 154h84l-121 -154l123 -154h-83zM230 245l120 154h84l-121 -154l123 -154h-83z" />
    <glyph glyph-name="guilsinglleft" unicode="&#x2039;" horiz-adv-x="333" 
d="M63 245l120 154h84l-121 -154l123 -154h-83z" />
    <glyph glyph-name="guilsinglright" unicode="&#x203a;" horiz-adv-x="333" 
d="M270 245l-120 -154h-84l121 154l-123 154h83z" />
    <glyph glyph-name="fi" unicode="&#xfb01;" horiz-adv-x="500" 
d="M21 488h66v55q0 41 16 75t40 58.5t52 38t52 13.5q8 0 18 2.5t17 5.5v-80h-10q-23 0 -44 -6.5t-37 -20t-25 -35.5t-9 -52v-52h125v-76q-24 8 -52 8h-73v-381q0 -31 18 -41h-106q12 6 15 24t3 47v351h-30q-9 0 -19 -2.5t-17 -5.5v74zM391 657q18 0 31.5 -13t13.5 -32
t-13.5 -32t-31.5 -13t-31.5 13t-13.5 32t13.5 32t31.5 13zM427 41q0 -31 18 -41h-106q12 6 15 24t3 47v374q0 14 -2.5 26t-13.5 19h86v-449z" />
    <glyph glyph-name="fl" unicode="&#xfb02;" horiz-adv-x="500" 
d="M339 0q12 6 15 24t3 47v596q0 14 -2.5 26t-13.5 19h86v-671q0 -31 18 -41h-106zM21 488h66v55q0 41 16 75t40 58.5t52 38t52 13.5q8 0 18 2.5t17 5.5v-80h-10q-23 0 -44 -6.5t-37 -20t-25 -35.5t-9 -52v-52h125v-76q-24 8 -52 8h-73v-381q0 -31 18 -41h-106q12 6 15 24
t3 47v351h-30q-9 0 -19 -2.5t-17 -5.5v74z" />
    <glyph glyph-name="endash" unicode="&#x2013;" horiz-adv-x="500" 
d="M0 217v56h500v-56h-500z" />
    <glyph glyph-name="dagger" unicode="&#x2020;" horiz-adv-x="556" 
d="M516 387q-18 15 -31.5 17.5t-23.5 2.5h-146v-593q0 -31 18 -41h-108q18 10 18 41v593h-149q-10 0 -23.5 -2.5t-31.5 -17.5v100q18 -15 31.5 -17.5t23.5 -2.5h149v204q0 31 -18 41h108q-18 -10 -18 -41v-204h146q10 0 23.5 2.5t31.5 17.5v-100z" />
    <glyph glyph-name="daggerdbl" unicode="&#x2021;" horiz-adv-x="556" 
d="M225 -227q18 10 18 41v205h-149q-10 0 -23.5 -2.5t-31.5 -17.5v100q18 -15 31.5 -17.5t23.5 -2.5h149v328h-149q-10 0 -23.5 -2.5t-31.5 -17.5v100q18 -15 31.5 -17.5t23.5 -2.5h149l-1 204q0 31 -18 41h109q-18 -10 -18 -41v-204h146q10 0 23.5 2.5t31.5 17.5v-100
q-18 15 -31.5 17.5t-23.5 2.5h-146v-328h146q10 0 23.5 2.5t31.5 17.5v-100q-18 15 -31.5 17.5t-23.5 2.5h-146v-205q0 -31 18 -41h-108z" />
    <glyph glyph-name="periodcentered" unicode="&#xb7;" horiz-adv-x="305" 
d="M153 296q20 0 35.5 -15t15.5 -36t-15.5 -36t-35.5 -15t-35.5 15t-15.5 36t15.5 36t35.5 15z" />
    <glyph glyph-name="periodcentered" unicode="&#x22c5;" horiz-adv-x="305" 
d="M153 296q20 0 35.5 -15t15.5 -36t-15.5 -36t-35.5 -15t-35.5 15t-15.5 36t15.5 36t35.5 15z" />
    <glyph glyph-name="paragraph" unicode="&#xb6;" horiz-adv-x="600" 
d="M266 330q-45 0 -83.5 15t-66.5 40.5t-43.5 59.5t-15.5 73q0 97 59.5 145.5t165.5 48.5h228v-891h-58v842h-128v-842h-58v509z" />
    <glyph glyph-name="bullet" unicode="&#x2022;" horiz-adv-x="500" 
d="M426 350q0 -36 -13.5 -68t-37.5 -56t-56 -37.5t-68 -13.5t-68 13.5t-56 37t-37.5 55.5t-13.5 69q0 36 13.5 68t37 56t55.5 37.5t69 13.5q36 0 68 -13.5t56 -37.5t37.5 -56t13.5 -68z" />
    <glyph glyph-name="quotesinglbase" unicode="&#x201a;" horiz-adv-x="222" 
d="M96 -58q-7 -16 -11.5 -25t-4.5 -15q0 -4 3 -7.5t7 -6.5h-46l31 143l5.5 25.5t2.5 14.5q0 5 -3.5 9t-8.5 8h93z" />
    <glyph glyph-name="quotedblbase" unicode="&#x201e;" horiz-adv-x="389" 
d="M263 -58q-7 -16 -11.5 -25t-4.5 -15q0 -4 3 -7.5t7 -6.5h-46l31 143l5.5 25.5t2.5 14.5q0 5 -3.5 9t-8.5 8h93zM96 -58q-7 -16 -11.5 -25t-4.5 -15q0 -4 3 -7.5t7 -6.5h-46l31 143l5.5 25.5t2.5 14.5q0 5 -3.5 9t-8.5 8h93z" />
    <glyph glyph-name="quotedblright" unicode="&#x201d;" horiz-adv-x="389" 
d="M263 566q-7 -16 -11.5 -25t-4.5 -15q0 -4 3 -7.5t7 -6.5h-46l31 143l5.5 25.5t2.5 14.5q0 5 -3.5 9t-8.5 8h93zM96 566q-7 -16 -11.5 -25t-4.5 -15q0 -4 3 -7.5t7 -6.5h-46l31 143l5.5 25.5t2.5 14.5q0 5 -3.5 9t-8.5 8h93z" />
    <glyph glyph-name="guillemotright" unicode="&#xbb;" horiz-adv-x="500" 
d="M354 245l-121 154h84l120 -154l-123 -154h-83zM187 245l-121 154h84l120 -154l-123 -154h-83z" />
    <glyph glyph-name="ellipsis" unicode="&#x2026;" horiz-adv-x="1000" 
d="M833 88q20 0 35.5 -15t15.5 -36t-15.5 -36t-35.5 -15t-35.5 15t-15.5 36t15.5 36t35.5 15zM500 88q20 0 35.5 -15t15.5 -36t-15.5 -36t-35.5 -15t-35.5 15t-15.5 36t15.5 36t35.5 15zM167 88q20 0 35.5 -15t15.5 -36t-15.5 -36t-35.5 -15t-35.5 15t-15.5 36t15.5 36
t35.5 15z" />
    <glyph glyph-name="perthousand" unicode="&#x2030;" horiz-adv-x="1000" 
d="M551 728l-15 -22.5t-22 -38.5l-354 -643l-9 -18t-4 -10q0 -6 6 -12h-74q10 10 17.5 21t14.5 23l368 673l5.5 9.5t2.5 7.5q0 7 -1 10h65zM841 240q-19 0 -36 -7t-29.5 -19.5t-19.5 -29.5t-7 -36t7 -36t19.5 -29.5t29.5 -19.5t36 -7t36 7t29.5 19.5t19.5 29.5t7 36t-7 36
t-19.5 29.5t-29.5 19.5t-36 7zM841 296q30 0 57 -11.5t47.5 -32t32 -47.5t11.5 -57t-11.5 -57t-32 -47.5t-47.5 -32t-57 -11.5t-57 11.5t-47.5 32t-32 47.5t-11.5 57t11.5 57t32 47.5t47.5 32t57 11.5zM472 240q-19 0 -36 -7t-29.5 -19.5t-19.5 -29.5t-7 -36t7 -36
t19.5 -29.5t29.5 -19.5t36 -7t36 7t29.5 19.5t19.5 29.5t7 36t-7 36t-19.5 29.5t-29.5 19.5t-36 7zM472 296q30 0 57 -11.5t47.5 -32t32 -47.5t11.5 -57t-11.5 -57t-32 -47.5t-47.5 -32t-57 -11.5t-57 11.5t-47.5 32t-32 47.5t-11.5 57t11.5 57t32 47.5t47.5 32t57 11.5z
M160 656q-19 0 -36 -7t-29.5 -19.5t-19.5 -29.5t-7 -36t7 -36t19.5 -29.5t29.5 -19.5t36 -7t36 7t29.5 19.5t19.5 29.5t7 36t-7 36t-19.5 29.5t-29.5 19.5t-36 7zM160 712q30 0 57 -11.5t47.5 -32t32 -47.5t11.5 -57t-11.5 -57t-32 -47.5t-47.5 -32t-57 -11.5t-57 11.5
t-47.5 32t-32 47.5t-11.5 57t11.5 57t32 47.5t47.5 32t57 11.5z" />
    <glyph glyph-name="questiondown" unicode="&#xbf;" horiz-adv-x="444" 
d="M286 406q-20 0 -35.5 15t-15.5 36t15.5 36t35.5 15t35.5 -15t15.5 -36t-15.5 -36t-35.5 -15zM397 -234q-12 9 -29 9t-35 -4.5t-47 -4.5q-53 0 -97 19t-75.5 51t-49 75t-17.5 90q0 43 17 82t43 67.5t58.5 45.5t64.5 17q5 0 10 -1t10 -3v71q0 22 -10 45h88q-10 -23 -10 -45
v-144q-12 5 -28 7t-31 2q-38 0 -65 -13t-44.5 -34.5t-26 -49t-8.5 -57.5q0 -35 13.5 -64t37 -49.5t54 -32t64.5 -11.5q35 0 61 12t52 35v-115z" />
    <glyph glyph-name="grave" unicode="`" horiz-adv-x="222" 
d="M88 700l89 -141h-67l-130 141h108z" />
    <glyph glyph-name="acute" unicode="&#xb4;" horiz-adv-x="222" 
d="M113 559h-67l89 141h108z" />
    <glyph glyph-name="circumflex" unicode="&#x2c6;" horiz-adv-x="222" 
d="M65 700h92l100 -141h-80l-66 94l-66 -94h-79z" />
    <glyph glyph-name="tilde" unicode="&#x2dc;" horiz-adv-x="222" 
d="M281 684q-2 -19 -9.5 -38.5t-20 -35t-30 -25.5t-38.5 -10q-20 0 -39 5.5t-39 13.5t-38.5 13.5t-36.5 5.5q-17 0 -28.5 -15t-13.5 -30h-47q3 45 30 76.5t74 31.5q20 0 39 -5t36 -13t33 -13.5t30 -5.5q21 0 33 12.5t14 32.5h51z" />
    <glyph glyph-name="macron" unicode="&#xaf;" horiz-adv-x="222" 
d="M-44 593v57h311v-57h-311z" />
    <glyph glyph-name="macron" unicode="&#x2c9;" horiz-adv-x="222" 
d="M-44 593v57h311v-57h-311z" />
    <glyph glyph-name="breve" unicode="&#x2d8;" horiz-adv-x="222" 
d="M6 699q8 -45 38 -61t72 -16q41 0 66.5 18.5t33.5 58.5h49q-8 -69 -48.5 -102t-109.5 -33q-66 0 -106 33.5t-44 101.5h49z" />
    <glyph glyph-name="dotaccent" unicode="&#x2d9;" horiz-adv-x="222" 
d="M111 658q20 0 33 -13.5t13 -32.5t-13 -32.5t-33 -13.5t-33 13.5t-13 32.5t13 32.5t33 13.5z" />
    <glyph glyph-name="dieresis" unicode="&#xa8;" horiz-adv-x="222" 
d="M41 658q20 0 33 -13.5t13 -32.5t-13 -32.5t-33 -13.5t-33 13.5t-13 32.5t13 32.5t33 13.5zM182 658q20 0 33 -13.5t13 -32.5t-13 -32.5t-33 -13.5t-33 13.5t-13 32.5t13 32.5t33 13.5z" />
    <glyph glyph-name="ring" unicode="&#x2da;" horiz-adv-x="222" 
d="M111 763q21 0 39.5 -8t32.5 -22t22 -32.5t8 -39.5t-8 -39.5t-22 -32.5t-32.5 -22t-39.5 -8t-39.5 8t-32.5 22t-22 32.5t-8 39.5t8 39.5t22 32.5t32.5 22t39.5 8zM111 719q-24 0 -41 -17.5t-17 -40.5t17 -40.5t41 -17.5t41 17.5t17 40.5t-17 40.5t-41 17.5z" />
    <glyph glyph-name="cedilla" unicode="&#xb8;" horiz-adv-x="222" 
d="M20 -86l63 86h48l-47 -62q9 2 17.5 3t17.5 1q33 0 57 -19.5t24 -54.5q0 -25 -10 -42.5t-26.5 -28.5t-37.5 -16t-43 -5q-26 0 -50 5.5t-47 15.5l16 40q16 -7 32 -11t33 -4q20 0 38.5 8.5t18.5 31.5t-15 32t-34 9q-11 0 -22 -3t-16 -5z" />
    <glyph glyph-name="hungarumlaut" unicode="&#x2dd;" horiz-adv-x="222" 
d="M264 700h104l-120 -141h-67zM109 700h95l-104 -141h-63z" />
    <glyph glyph-name="ogonek" unicode="&#x2db;" horiz-adv-x="222" 
d="M255 9q-20 -7 -45.5 -17.5t-49 -25.5t-39.5 -34.5t-16 -44.5q0 -29 16.5 -41t43.5 -12q11 0 24 4.5t26.5 11t26 14t21.5 13.5l16 -32q-30 -21 -69.5 -39t-77.5 -18q-21 0 -39.5 5t-32.5 15.5t-22.5 26.5t-8.5 39q0 38 24.5 63.5t59.5 41.5t74 25t68 15v-10z" />
    <glyph glyph-name="caron" unicode="&#x2c7;" horiz-adv-x="222" 
d="M257 700l-100 -141h-92l-99 141h79l66 -94l66 94h80z" />
    <glyph glyph-name="emdash" unicode="&#x2014;" horiz-adv-x="1000" 
d="M0 273h1000v-56h-1000v56z" />
    <glyph glyph-name="AE" unicode="&#xc6;" horiz-adv-x="944" 
d="M525 653h-2l-251 -385h253v385zM891 712v-75q-25 7 -54 7h-236v-253h142q18 0 35.5 2t31.5 10v-92q-14 8 -31.5 10t-35.5 2h-142v-255h236q29 0 54 7v-75h-378q12 15 12 35v165h-294l-96 -155q-16 -26 -16 -32t8 -13h-120l471 712h413z" />
    <glyph glyph-name="ordfeminine" unicode="&#xaa;" horiz-adv-x="367" 
d="M290 632q-15 17 -40 31t-54 14q-26 0 -49.5 -9t-41 -23.5t-28 -33t-10.5 -38.5t9 -39.5t25.5 -34.5t39 -24t49.5 -9q40 0 61 12t39 36v118zM346 443q0 -5 2.5 -9.5t10.5 -8.5h-69v32l-3 2q-11 -26 -37 -35t-60 -9q-36 0 -68 11.5t-57 31.5t-39.5 48.5t-14.5 62.5
q0 33 13.5 62t36.5 50.5t55 34t69 12.5q21 0 37.5 -4.5t31.5 -11t29.5 -15.5t31.5 -18q9 -5 18 -9.5t20 -6.5q-5 -5 -6 -17.5t-1 -23.5v-179z" />
    <glyph glyph-name="Oslash" unicode="&#xd8;" horiz-adv-x="833" 
d="M230 123q37 -29 84.5 -46t101.5 -17q63 0 118 23t96 63.5t64.5 94t23.5 115.5q0 56 -19.5 105.5t-54.5 88.5zM94 -18h-85l124 128q-45 49 -70 112t-25 134q0 77 29.5 144.5t80.5 118t120 80t148 29.5q69 0 128.5 -22t107.5 -60l82 85h85l-122 -126q45 -49 71 -113
t26 -136q0 -77 -29.5 -144.5t-80.5 -118t-120 -80t-148 -29.5q-69 0 -130 22.5t-109 62.5zM599 591q-39 29 -85.5 45t-97.5 16q-63 0 -118 -23.5t-96 -63.5t-64.5 -94t-23.5 -115q0 -56 19 -105t53 -87z" />
    <glyph glyph-name="OE" unicode="&#x152;" horiz-adv-x="1000" 
d="M602 488q0 49 -20.5 80.5t-53.5 50t-74.5 26t-82.5 7.5q-65 0 -116 -23t-87 -63t-55 -94t-20 -116q1 -62 20 -116t55 -94t87 -63t116 -23q118 0 174.5 47t56.5 133v248zM602 712h364v-75q-25 7 -54 7h-234v-253h140q18 0 35.5 2t31.5 10v-92q-14 8 -31.5 10t-35.5 2h-140
v-255h234q29 0 54 7v-75h-367v70q-48 -48 -104.5 -67t-123.5 -19t-130.5 24.5t-113 71.5t-80 116.5t-30.5 159.5t30.5 159.5t80 116.5t113 71.5t130.5 24.5t127 -20t102 -72h2v76z" />
    <glyph glyph-name="ordmasculine" unicode="&#xba;" horiz-adv-x="367" 
d="M183 466q53 0 86.5 28.5t33.5 76.5t-33.5 77t-86.5 29t-86 -29t-33 -77t33 -76.5t86 -28.5zM183 415q-36 0 -67.5 12t-55.5 33t-38 49.5t-14 61.5t14 61.5t38 50t55.5 33.5t67.5 12t68 -12t56 -33.5t38 -50t14 -61.5t-14 -61.5t-38 -49.5t-56 -33t-68 -12z" />
    <glyph glyph-name="ae" unicode="&#xe6;" horiz-adv-x="944" 
d="M479 223q3 -40 21 -72t45.5 -54t63 -33.5t74.5 -11.5q38 0 72.5 13.5t64.5 34.5v-114q-8 5 -17.5 8.5t-20.5 3.5q-2 0 -9 -1.5t-16 -3t-18 -3.5t-15 -2q-14 -2 -27.5 -3t-28.5 -1q-29 0 -59.5 6t-58.5 18t-52.5 30t-42.5 42q-38 -48 -91 -72t-115 -24q-47 0 -86 12
t-67.5 36.5t-44.5 61t-16 85.5q0 47 18 81.5t48.5 57t70 33.5t81.5 11q39 0 82 -16t71 -43v48q0 25 -15 42t-37.5 27t-48 14t-46.5 4q-42 0 -78.5 -7.5t-70.5 -31.5v102q7 -6 13 -9t15 -3q6 0 20.5 2.5t33 6t38 6t36.5 2.5q56 0 106.5 -22.5t77.5 -72.5q47 49 97.5 72
t119.5 23q64 0 112 -23.5t80 -63t48.5 -90.5t16.5 -106h-445zM848 291q-7 33 -24 60t-42 46.5t-56.5 30t-66.5 10.5q-76 0 -121 -40.5t-63 -106.5h373zM107 181q0 -36 11.5 -61t32 -40t49 -21.5t62.5 -6.5q47 0 84.5 21.5t75.5 61.5q-23 50 -20 93q-26 29 -67 47.5t-90 18.5
q-27 0 -52 -8.5t-44 -23.5t-30.5 -35.5t-11.5 -45.5z" />
    <glyph glyph-name="dotlessi" unicode="&#x131;" horiz-adv-x="222" 
d="M58 0q12 6 15 24t3 47v374q0 14 -2.5 26t-13.5 19h86v-449q0 -31 18 -41h-106z" />
    <glyph glyph-name="oslash" unicode="&#xf8;" 
d="M93 -16h-82l90 91q-31 34 -48.5 77t-17.5 93q0 55 21.5 102.5t58.5 82.5t86 55.5t104 20.5q47 0 89 -14.5t77 -40.5l54 55h79l-92 -94q29 -34 46 -76.5t17 -90.5q0 -55 -21.5 -102.5t-58.5 -83t-86 -55.5t-104 -20q-45 0 -85.5 13.5t-75.5 38.5zM421 400q-25 18 -54.5 28
t-61.5 10q-41 0 -77 -15.5t-63 -41.5t-42.5 -61t-15.5 -75q0 -34 12 -64.5t32 -54.5zM194 87q49 -35 111 -35q40 0 76 15t63 41.5t43 61.5t16 75q0 33 -10.5 62.5t-30.5 53.5z" />
    <glyph glyph-name="oe" unicode="&#x153;" horiz-adv-x="1007" 
d="M93 245q0 -40 14.5 -75t40.5 -61.5t60.5 -41.5t75.5 -15q40 0 75 15t61 41.5t40.5 61.5t14.5 75t-14.5 75t-40.5 61t-61 41.5t-75 15.5q-41 0 -75.5 -15.5t-60.5 -41.5t-40.5 -61t-14.5 -75zM538 223q7 -40 25.5 -72t46 -54t62.5 -33.5t74 -11.5q38 0 72.5 13.5
t64.5 34.5v-114q-8 5 -17.5 8.5t-20.5 3.5q-2 0 -9 -1.5t-16 -3t-18 -3.5t-15 -2q-14 -2 -27.5 -3t-28.5 -1q-32 0 -64 6.5t-62 20.5t-55 34.5t-43 49.5q-33 -51 -90.5 -81t-124.5 -30q-55 0 -104 20t-86 55.5t-59 83t-22 102.5t22 102.5t59 82.5t86 55.5t104 20.5
q66 0 122 -28.5t89 -76.5q25 27 50 47t52 32.5t58 19t67 6.5q64 0 112 -23.5t80 -63t48.5 -90.5t16.5 -106h-449zM911 291q-7 33 -24 60t-42 46.5t-56.5 30t-66.5 10.5q-76 0 -121 -40.5t-63 -106.5h373z" />
    <glyph glyph-name="germandbls" unicode="&#xdf;" horiz-adv-x="556" 
d="M38 0q4 13 6 32.5t2 36.5v449q0 47 16 85.5t44.5 66.5t68.5 43t88 15q45 0 84.5 -13.5t69 -39t47 -62t17.5 -82.5q0 -38 -14.5 -67.5t-41.5 -55.5q57 -30 83 -75.5t26 -108.5q0 -53 -18.5 -97t-51.5 -75.5t-78.5 -49.5t-98.5 -18q-25 0 -53 5.5t-51 19.5v77
q22 -17 49.5 -25.5t55.5 -8.5q39 0 71 13t55 36.5t35.5 55t12.5 69.5q0 42 -14 72t-37 50t-52.5 32t-59.5 18q51 10 80.5 46t29.5 87q0 60 -40 94.5t-100 34.5q-29 0 -56.5 -6.5t-49 -23t-34.5 -45t-13 -71.5v-514h-78z" />
    <glyph glyph-name="divide" unicode="&#xf7;" horiz-adv-x="600" 
d="M242 45q0 24 18 41t41 17t40.5 -17.5t17.5 -40.5t-17.5 -41t-40.5 -18t-41 18t-18 41zM242 445q0 24 18 41.5t41 17.5t40.5 -18t17.5 -41q0 -22 -17.5 -40t-40.5 -18t-41 17.5t-18 40.5zM56 217v56h488v-56h-488z" />
    <glyph glyph-name="registered" unicode="&#xae;" horiz-adv-x="800" 
d="M394 379q23 0 45.5 1.5t40 9t28 23t10.5 42.5q0 22 -9 36t-23 22t-32.5 11t-37.5 3h-100v-148h78zM316 137h-56v438h168q146 0 146 -122q0 -30 -9 -51t-24 -35.5t-35.5 -23t-42.5 -12.5l128 -194h-67l-121 194h-87v-194zM714 357q0 67 -24 125.5t-66 101.5t-99 68
t-124 25t-124.5 -25t-100 -68t-66.5 -101.5t-24 -125.5q0 -68 24 -127t66.5 -102.5t100 -68t124.5 -24.5t124 24.5t99 68t66 102.5t24 127zM401 728q76 0 144 -29t119 -79t80.5 -117.5t29.5 -145.5t-29.5 -146.5t-80.5 -118.5t-119 -79t-144 -29q-77 0 -145.5 29t-119.5 79
t-80.5 118.5t-29.5 146.5t29.5 145.5t80.5 117.5t119.5 79t145.5 29z" />
    <glyph glyph-name="ccedilla" unicode="&#xe7;" horiz-adv-x="444" 
d="M417 386q-16 14 -29.5 24t-27.5 16t-30 9t-38 3q-46 0 -81.5 -17.5t-59.5 -45.5t-36.5 -63.5t-12.5 -70.5q0 -41 14.5 -75.5t40 -59.5t60.5 -39.5t76 -14.5q37 0 67.5 14.5t56.5 40.5v-116q-1 0 -9 5.5t-11 5.5q-1 0 -10.5 -2l-23.5 -5t-32 -5.5t-36 -3.5l-36 -48
q9 2 17.5 3t17.5 1q33 0 57 -19.5t24 -54.5q0 -25 -10 -42.5t-26.5 -28.5t-37.5 -16t-43 -5q-26 0 -50 5.5t-47 15.5l16 40q16 -7 32 -11t33 -4q20 0 38.5 8.5t18.5 31.5t-15 32t-34 9q-11 0 -22 -3t-16 -5l-17 19l53 73q-42 5 -81.5 25.5t-69.5 54t-48.5 78.5t-18.5 98
t19.5 101t53.5 84t79.5 57t98.5 21q19 0 37 -3t33 -7l26.5 -7t16.5 -3q6 0 12.5 6.5l10.5 10.5v-117z" />
    <glyph glyph-name="plusminus" unicode="&#xb1;" horiz-adv-x="600" 
d="M56 56h488v-56h-488v56zM272 490h56v-170h216v-56h-216v-170h-56v170h-216v56h216v170z" />
    <glyph glyph-name="Ccedilla" unicode="&#xc7;" 
d="M583 610q-18 11 -39 19t-43.5 13t-44.5 7.5t-41 2.5q-63 0 -118.5 -22t-97 -61t-66 -93.5t-24.5 -119.5t24.5 -119.5t66 -93.5t97 -61t118.5 -22q46 0 89 10t77 32v-107q-12 9 -31 9q-24 0 -54.5 -8t-70.5 -10l-36 -48q9 2 17.5 3t17.5 1q33 0 57 -19.5t24 -54.5
q0 -25 -10 -42.5t-26.5 -28.5t-37.5 -16t-43 -5q-26 0 -50 5.5t-47 15.5l16 40q16 -7 32 -11t33 -4q20 0 38.5 8.5t18.5 31.5t-15 32t-34 9q-11 0 -22 -3t-16 -5l-17 19l52 71q-74 4 -137 37t-109 84.5t-72 117.5t-26 137q0 82 32 149.5t86 116t125 75t150 26.5
q25 0 43.5 -3t34.5 -7q15 -4 28.5 -7t27.5 -3q6 0 12 1t11 5v-104z" />
    <glyph glyph-name="copyright" unicode="&#xa9;" horiz-adv-x="800" 
d="M598 282q-15 -72 -65 -115t-121 -43q-51 0 -92 18t-70 49t-45 73.5t-16 92.5t15 92.5t43.5 73.5t69.5 48.5t92 17.5q73 0 126 -40t63 -115h-58q-10 43 -43.5 72.5t-86.5 29.5q-39 0 -68.5 -14t-49.5 -38t-30.5 -56.5t-10.5 -69.5q0 -35 11 -68t32 -58t51 -40t67 -15
q52 0 86 30t42 75h58zM714 357q0 67 -24 125.5t-66 101.5t-99 68t-124 25t-124.5 -25t-100 -68t-66.5 -101.5t-24 -125.5q0 -68 24 -127t66.5 -102.5t100 -68t124.5 -24.5t124 24.5t99 68t66 102.5t24 127zM401 728q76 0 144 -29t119 -79t80.5 -117.5t29.5 -145.5
t-29.5 -146.5t-80.5 -118.5t-119 -79t-144 -29q-77 0 -145.5 29t-119.5 79t-80.5 118.5t-29.5 146.5t29.5 145.5t80.5 117.5t119.5 79t145.5 29z" />
    <glyph glyph-name="logicalnot" unicode="&#xac;" horiz-adv-x="600" 
d="M488 313h-432v56h488v-264h-56v208z" />
    <glyph glyph-name="trademark" unicode="&#x2122;" horiz-adv-x="990" 
d="M526 300h-58v412h95l128 -323l124 323h95v-412h-58v357h-2l-143 -357h-36l-143 357h-2v-357zM402 662h-132v-362h-58v362h-132v50h322v-50z" />
    <glyph glyph-name="degree" unicode="&#xb0;" horiz-adv-x="400" 
d="M200 728q30 0 56 -11t45.5 -30.5t30.5 -45.5t11 -56t-11 -56t-30.5 -45.5t-45.5 -30.5t-56 -11t-56 11t-45.5 30.5t-30.5 45.5t-11 56t11 56t30.5 45.5t45.5 30.5t56 11zM200 690q-20 0 -38 -8.5t-31.5 -23t-21.5 -33.5t-8 -40t8 -40t21.5 -33.5t31.5 -23t38 -8.5t38 8.5
t31.5 23t21.5 33.5t8 40t-8 40t-21.5 33.5t-31.5 23t-38 8.5z" />
    <glyph glyph-name="mu" unicode="&#xb5;" horiz-adv-x="556" 
d="M58 431q0 31 -6.5 41.5t-15.5 17.5h112q-14 -9 -17 -22t-3 -34v-234q0 -41 12.5 -69.5t33.5 -46t48 -25t56 -7.5q33 0 58 9.5t43 22.5t29.5 26.5t18.5 22.5v322q0 14 -9.5 22l-15.5 13h111q-11 -8 -13.5 -18.5t-2.5 -30.5v-319q0 -12 3 -17.5l6 -11.5q-32 -18 -53 -37
t-44.5 -35t-54 -26.5t-80.5 -10.5q-42 0 -79.5 12t-66.5 38v-268h-92q9 7 15.5 17.5t6.5 41.5v606z" />
    <glyph glyph-name="mu" unicode="&#x3bc;" horiz-adv-x="556" 
d="M58 431q0 31 -6.5 41.5t-15.5 17.5h112q-14 -9 -17 -22t-3 -34v-234q0 -41 12.5 -69.5t33.5 -46t48 -25t56 -7.5q33 0 58 9.5t43 22.5t29.5 26.5t18.5 22.5v322q0 14 -9.5 22l-15.5 13h111q-11 -8 -13.5 -18.5t-2.5 -30.5v-319q0 -12 3 -17.5l6 -11.5q-32 -18 -53 -37
t-44.5 -35t-54 -26.5t-80.5 -10.5q-42 0 -79.5 12t-66.5 38v-268h-92q9 7 15.5 17.5t6.5 41.5v606z" />
    <glyph glyph-name="nonbreakingspace" unicode="&#xa0;" horiz-adv-x="305" 
 />
    <glyph glyph-name="Aacute" unicode="&#xc1;" horiz-adv-x="667" 
d="M178 195l-64 -155q-4 -9 -6.5 -15.5t-2.5 -8.5q0 -5 3 -9t5 -7h-112q12 7 18 21l302 707h2l317 -689q8 -15 13 -23t12 -16h-114q2 3 5 7t3 9q0 2 -2.5 8.5t-6.5 15.5l-64 155h-308zM455 263l-129 303h-2l-125 -303h256zM327 756h-67l89 141h108z" />
    <glyph glyph-name="Acircumflex" unicode="&#xc2;" horiz-adv-x="667" 
d="M178 195l-64 -155q-4 -9 -6.5 -15.5t-2.5 -8.5q0 -5 3 -9t5 -7h-112q12 7 18 21l302 707h2l317 -689q8 -15 13 -23t12 -16h-114q2 3 5 7t3 9q0 2 -2.5 8.5t-6.5 15.5l-64 155h-308zM455 263l-129 303h-2l-125 -303h256zM279 897h92l100 -141h-80l-66 94l-66 -94h-79z" />
    <glyph glyph-name="Adieresis" unicode="&#xc4;" horiz-adv-x="667" 
d="M178 195l-64 -155q-4 -9 -6.5 -15.5t-2.5 -8.5q0 -5 3 -9t5 -7h-112q12 7 18 21l302 707h2l317 -689q8 -15 13 -23t12 -16h-114q2 3 5 7t3 9q0 2 -2.5 8.5t-6.5 15.5l-64 155h-308zM455 263l-129 303h-2l-125 -303h256zM255 855q20 0 33 -13.5t13 -32.5t-13 -32.5
t-33 -13.5t-33 13.5t-13 32.5t13 32.5t33 13.5zM396 855q20 0 33 -13.5t13 -32.5t-13 -32.5t-33 -13.5t-33 13.5t-13 32.5t13 32.5t33 13.5z" />
    <glyph glyph-name="Agrave" unicode="&#xc0;" horiz-adv-x="667" 
d="M178 195l-64 -155q-4 -9 -6.5 -15.5t-2.5 -8.5q0 -5 3 -9t5 -7h-112q12 7 18 21l302 707h2l317 -689q8 -15 13 -23t12 -16h-114q2 3 5 7t3 9q0 2 -2.5 8.5t-6.5 15.5l-64 155h-308zM455 263l-129 303h-2l-125 -303h256zM302 897l89 -141h-67l-130 141h108z" />
    <glyph glyph-name="Aring" unicode="&#xc5;" horiz-adv-x="667" 
d="M178 195l-64 -155q-4 -9 -6.5 -15.5t-2.5 -8.5q0 -5 3 -9t5 -7h-112q12 7 18 21l302 707h2l317 -689q8 -15 13 -23t12 -16h-114q2 3 5 7t3 9q0 2 -2.5 8.5t-6.5 15.5l-64 155h-308zM455 263l-129 303h-2l-125 -303h256zM325 960q21 0 39.5 -8t32.5 -22t22 -32.5t8 -39.5
t-8 -39.5t-22 -32.5t-32.5 -22t-39.5 -8t-39.5 8t-32.5 22t-22 32.5t-8 39.5t8 39.5t22 32.5t32.5 22t39.5 8zM325 916q-24 0 -41 -17.5t-17 -40.5t17 -40.5t41 -17.5t41 17.5t17 40.5t-17 40.5t-41 17.5z" />
    <glyph glyph-name="Atilde" unicode="&#xc3;" horiz-adv-x="667" 
d="M178 195l-64 -155q-4 -9 -6.5 -15.5t-2.5 -8.5q0 -5 3 -9t5 -7h-112q12 7 18 21l302 707h2l317 -689q8 -15 13 -23t12 -16h-114q2 3 5 7t3 9q0 2 -2.5 8.5t-6.5 15.5l-64 155h-308zM455 263l-129 303h-2l-125 -303h256zM495 881q-2 -19 -9.5 -38.5t-20 -35t-30 -25.5
t-38.5 -10q-20 0 -39 5.5t-39 13.5t-38.5 13.5t-36.5 5.5q-17 0 -28.5 -15t-13.5 -30h-47q3 45 30 76.5t74 31.5q20 0 39 -5t36 -13t33 -13.5t30 -5.5q21 0 33 12.5t14 32.5h51z" />
    <glyph glyph-name="Eacute" unicode="&#xc9;" horiz-adv-x="500" 
d="M70 0q12 15 12 35v642q0 20 -12 35h396v-75q-25 7 -54 7h-254v-253h160q18 0 35.5 2t31.5 10v-92q-14 8 -31.5 10t-35.5 2h-160v-255h254q29 0 54 7v-75h-396zM266 756h-67l89 141h108z" />
    <glyph glyph-name="Ecircumflex" unicode="&#xca;" horiz-adv-x="500" 
d="M70 0q12 15 12 35v642q0 20 -12 35h396v-75q-25 7 -54 7h-254v-253h160q18 0 35.5 2t31.5 10v-92q-14 8 -31.5 10t-35.5 2h-160v-255h254q29 0 54 7v-75h-396zM218 897h92l100 -141h-80l-66 94l-66 -94h-79z" />
    <glyph glyph-name="Edieresis" unicode="&#xcb;" horiz-adv-x="500" 
d="M70 0q12 15 12 35v642q0 20 -12 35h396v-75q-25 7 -54 7h-254v-253h160q18 0 35.5 2t31.5 10v-92q-14 8 -31.5 10t-35.5 2h-160v-255h254q29 0 54 7v-75h-396zM194 855q20 0 33 -13.5t13 -32.5t-13 -32.5t-33 -13.5t-33 13.5t-13 32.5t13 32.5t33 13.5zM335 855
q20 0 33 -13.5t13 -32.5t-13 -32.5t-33 -13.5t-33 13.5t-13 32.5t13 32.5t33 13.5z" />
    <glyph glyph-name="Egrave" unicode="&#xc8;" horiz-adv-x="500" 
d="M70 0q12 15 12 35v642q0 20 -12 35h396v-75q-25 7 -54 7h-254v-253h160q18 0 35.5 2t31.5 10v-92q-14 8 -31.5 10t-35.5 2h-160v-255h254q29 0 54 7v-75h-396zM241 897l89 -141h-67l-130 141h108z" />
    <glyph glyph-name="Iacute" unicode="&#xcd;" horiz-adv-x="222" 
d="M149 35q0 -20 12 -35h-100q12 15 12 35v642q0 20 -12 35h100q-12 -15 -12 -35v-642zM109 756h-67l89 141h108z" />
    <glyph glyph-name="Icircumflex" unicode="&#xce;" horiz-adv-x="222" 
d="M149 35q0 -20 12 -35h-100q12 15 12 35v642q0 20 -12 35h100q-12 -15 -12 -35v-642zM61 897h92l100 -141h-80l-66 94l-66 -94h-79z" />
    <glyph glyph-name="Idieresis" unicode="&#xcf;" horiz-adv-x="222" 
d="M149 35q0 -20 12 -35h-100q12 15 12 35v642q0 20 -12 35h100q-12 -15 -12 -35v-642zM37 855q20 0 33 -13.5t13 -32.5t-13 -32.5t-33 -13.5t-33 13.5t-13 32.5t13 32.5t33 13.5zM178 855q20 0 33 -13.5t13 -32.5t-13 -32.5t-33 -13.5t-33 13.5t-13 32.5t13 32.5t33 13.5z
" />
    <glyph glyph-name="Igrave" unicode="&#xcc;" horiz-adv-x="222" 
d="M149 35q0 -20 12 -35h-100q12 15 12 35v642q0 20 -12 35h100q-12 -15 -12 -35v-642zM84 897l89 -141h-67l-130 141h108z" />
    <glyph glyph-name="Ntilde" unicode="&#xd1;" horiz-adv-x="667" 
d="M158 35q0 -20 12 -35h-100q12 15 12 35v715h2l424 -556h1v483q0 20 -12 35h100q-12 -15 -12 -35v-693h-2l-423 552l-2 -2v-499zM495 881q-2 -19 -9.5 -38.5t-20 -35t-30 -25.5t-38.5 -10q-20 0 -39 5.5t-39 13.5t-38.5 13.5t-36.5 5.5q-17 0 -28.5 -15t-13.5 -30h-47
q3 45 30 76.5t74 31.5q20 0 39 -5t36 -13t33 -13.5t30 -5.5q21 0 33 12.5t14 32.5h51z" />
    <glyph glyph-name="Oacute" unicode="&#xd3;" horiz-adv-x="833" 
d="M416 728q79 0 148 -29.5t120 -80t80.5 -118t29.5 -144.5t-29.5 -144.5t-80.5 -118t-120 -80t-148 -29.5t-148 29.5t-120 80t-80.5 118t-29.5 144.5t29.5 144.5t80.5 118t120 80t148 29.5zM416 652q-63 0 -118 -23.5t-96 -63.5t-64.5 -94t-23.5 -115q0 -62 23.5 -115.5
t64.5 -94t96 -63.5t118 -23t118 23t96 63.5t64.5 94t23.5 115.5q0 61 -23.5 115t-64.5 94t-96 63.5t-118 23.5zM419 756h-67l89 141h108z" />
    <glyph glyph-name="Ocircumflex" unicode="&#xd4;" horiz-adv-x="833" 
d="M416 728q79 0 148 -29.5t120 -80t80.5 -118t29.5 -144.5t-29.5 -144.5t-80.5 -118t-120 -80t-148 -29.5t-148 29.5t-120 80t-80.5 118t-29.5 144.5t29.5 144.5t80.5 118t120 80t148 29.5zM416 652q-63 0 -118 -23.5t-96 -63.5t-64.5 -94t-23.5 -115q0 -62 23.5 -115.5
t64.5 -94t96 -63.5t118 -23t118 23t96 63.5t64.5 94t23.5 115.5q0 61 -23.5 115t-64.5 94t-96 63.5t-118 23.5zM371 897h92l100 -141h-80l-66 94l-66 -94h-79z" />
    <glyph glyph-name="Odieresis" unicode="&#xd6;" horiz-adv-x="833" 
d="M416 728q79 0 148 -29.5t120 -80t80.5 -118t29.5 -144.5t-29.5 -144.5t-80.5 -118t-120 -80t-148 -29.5t-148 29.5t-120 80t-80.5 118t-29.5 144.5t29.5 144.5t80.5 118t120 80t148 29.5zM416 652q-63 0 -118 -23.5t-96 -63.5t-64.5 -94t-23.5 -115q0 -62 23.5 -115.5
t64.5 -94t96 -63.5t118 -23t118 23t96 63.5t64.5 94t23.5 115.5q0 61 -23.5 115t-64.5 94t-96 63.5t-118 23.5zM347 855q20 0 33 -13.5t13 -32.5t-13 -32.5t-33 -13.5t-33 13.5t-13 32.5t13 32.5t33 13.5zM488 855q20 0 33 -13.5t13 -32.5t-13 -32.5t-33 -13.5t-33 13.5
t-13 32.5t13 32.5t33 13.5z" />
    <glyph glyph-name="Ograve" unicode="&#xd2;" horiz-adv-x="833" 
d="M416 728q79 0 148 -29.5t120 -80t80.5 -118t29.5 -144.5t-29.5 -144.5t-80.5 -118t-120 -80t-148 -29.5t-148 29.5t-120 80t-80.5 118t-29.5 144.5t29.5 144.5t80.5 118t120 80t148 29.5zM416 652q-63 0 -118 -23.5t-96 -63.5t-64.5 -94t-23.5 -115q0 -62 23.5 -115.5
t64.5 -94t96 -63.5t118 -23t118 23t96 63.5t64.5 94t23.5 115.5q0 61 -23.5 115t-64.5 94t-96 63.5t-118 23.5zM394 897l89 -141h-67l-130 141h108z" />
    <glyph glyph-name="Otilde" unicode="&#xd5;" horiz-adv-x="833" 
d="M416 728q79 0 148 -29.5t120 -80t80.5 -118t29.5 -144.5t-29.5 -144.5t-80.5 -118t-120 -80t-148 -29.5t-148 29.5t-120 80t-80.5 118t-29.5 144.5t29.5 144.5t80.5 118t120 80t148 29.5zM416 652q-63 0 -118 -23.5t-96 -63.5t-64.5 -94t-23.5 -115q0 -62 23.5 -115.5
t64.5 -94t96 -63.5t118 -23t118 23t96 63.5t64.5 94t23.5 115.5q0 61 -23.5 115t-64.5 94t-96 63.5t-118 23.5zM587 881q-2 -19 -9.5 -38.5t-20 -35t-30 -25.5t-38.5 -10q-20 0 -39 5.5t-39 13.5t-38.5 13.5t-36.5 5.5q-17 0 -28.5 -15t-13.5 -30h-47q3 45 30 76.5t74 31.5
q20 0 39 -5t36 -13t33 -13.5t30 -5.5q21 0 33 12.5t14 32.5h51z" />
    <glyph glyph-name="Uacute" unicode="&#xda;" 
d="M136 235q0 -82 42 -132.5t127 -50.5t127 50.5t42 132.5v442q0 20 -12 35h100q-12 -15 -12 -35v-447q0 -50 -17 -95t-48.5 -78.5t-77 -53t-102.5 -19.5t-102.5 19.5t-77 53t-48.5 78.5t-17 95v447q0 20 -12 35h100q-12 -15 -12 -35v-442zM308 756h-67l89 141h108z" />
    <glyph glyph-name="Ucircumflex" unicode="&#xdb;" 
d="M136 235q0 -82 42 -132.5t127 -50.5t127 50.5t42 132.5v442q0 20 -12 35h100q-12 -15 -12 -35v-447q0 -50 -17 -95t-48.5 -78.5t-77 -53t-102.5 -19.5t-102.5 19.5t-77 53t-48.5 78.5t-17 95v447q0 20 -12 35h100q-12 -15 -12 -35v-442zM260 897h92l100 -141h-80l-66 94
l-66 -94h-79z" />
    <glyph glyph-name="Udieresis" unicode="&#xdc;" 
d="M136 235q0 -82 42 -132.5t127 -50.5t127 50.5t42 132.5v442q0 20 -12 35h100q-12 -15 -12 -35v-447q0 -50 -17 -95t-48.5 -78.5t-77 -53t-102.5 -19.5t-102.5 19.5t-77 53t-48.5 78.5t-17 95v447q0 20 -12 35h100q-12 -15 -12 -35v-442zM236 855q20 0 33 -13.5t13 -32.5
t-13 -32.5t-33 -13.5t-33 13.5t-13 32.5t13 32.5t33 13.5zM377 855q20 0 33 -13.5t13 -32.5t-13 -32.5t-33 -13.5t-33 13.5t-13 32.5t13 32.5t33 13.5z" />
    <glyph glyph-name="Ugrave" unicode="&#xd9;" 
d="M136 235q0 -82 42 -132.5t127 -50.5t127 50.5t42 132.5v442q0 20 -12 35h100q-12 -15 -12 -35v-447q0 -50 -17 -95t-48.5 -78.5t-77 -53t-102.5 -19.5t-102.5 19.5t-77 53t-48.5 78.5t-17 95v447q0 20 -12 35h100q-12 -15 -12 -35v-442zM283 897l89 -141h-67l-130 141
h108z" />
    <glyph glyph-name="Ydieresis" unicode="&#x178;" 
d="M124 712q-9 -7 -9 -18q0 -5 5.5 -13l10.5 -15l169 -256l170 256l10.5 15t5.5 13q0 11 -9 18h130q-8 -6 -13.5 -12.5t-10.5 -13.5l-248 -343v-299q0 -11 4.5 -23t9.5 -21h-104q5 9 9.5 21t4.5 23v299l-230 332q-8 11 -14 21t-12 16h121zM236 855q20 0 33 -13.5t13 -32.5
t-13 -32.5t-33 -13.5t-33 13.5t-13 32.5t13 32.5t33 13.5zM377 855q20 0 33 -13.5t13 -32.5t-13 -32.5t-33 -13.5t-33 13.5t-13 32.5t13 32.5t33 13.5z" />
    <glyph glyph-name="aacute" unicode="&#xe1;" 
d="M483 362q-14 7 -30.5 20t-37.5 25.5t-47.5 21.5t-60.5 9q-40 0 -75.5 -15t-62.5 -41t-43 -60.5t-16 -73.5q0 -40 14 -75.5t38.5 -62.5t59.5 -42.5t77 -15.5q36 0 62 5t46.5 15.5t38 25t37.5 34.5v230zM306 506q33 1 59 -4.5t49 -15.5t44.5 -24l45.5 -30l18.5 -11.5
t14 -7.5t14.5 -4t20 -1q-14 -10 -16 -25.5t-2 -47.5v-304q0 -8 4 -16t16 -15h-90v55l-4 2q-29 -44 -71 -58.5t-95 -14.5q-55 0 -104.5 19t-87.5 53t-60.5 81t-22.5 104q0 56 20.5 104.5t56.5 84t85 56t106 20.5zM327 559h-67l89 141h108z" />
    <glyph glyph-name="acircumflex" unicode="&#xe2;" 
d="M483 362q-14 7 -30.5 20t-37.5 25.5t-47.5 21.5t-60.5 9q-40 0 -75.5 -15t-62.5 -41t-43 -60.5t-16 -73.5q0 -40 14 -75.5t38.5 -62.5t59.5 -42.5t77 -15.5q36 0 62 5t46.5 15.5t38 25t37.5 34.5v230zM306 506q33 1 59 -4.5t49 -15.5t44.5 -24l45.5 -30l18.5 -11.5
t14 -7.5t14.5 -4t20 -1q-14 -10 -16 -25.5t-2 -47.5v-304q0 -8 4 -16t16 -15h-90v55l-4 2q-29 -44 -71 -58.5t-95 -14.5q-55 0 -104.5 19t-87.5 53t-60.5 81t-22.5 104q0 56 20.5 104.5t56.5 84t85 56t106 20.5zM279 700h92l100 -141h-80l-66 94l-66 -94h-79z" />
    <glyph glyph-name="adieresis" unicode="&#xe4;" 
d="M483 362q-14 7 -30.5 20t-37.5 25.5t-47.5 21.5t-60.5 9q-40 0 -75.5 -15t-62.5 -41t-43 -60.5t-16 -73.5q0 -40 14 -75.5t38.5 -62.5t59.5 -42.5t77 -15.5q36 0 62 5t46.5 15.5t38 25t37.5 34.5v230zM306 506q33 1 59 -4.5t49 -15.5t44.5 -24l45.5 -30l18.5 -11.5
t14 -7.5t14.5 -4t20 -1q-14 -10 -16 -25.5t-2 -47.5v-304q0 -8 4 -16t16 -15h-90v55l-4 2q-29 -44 -71 -58.5t-95 -14.5q-55 0 -104.5 19t-87.5 53t-60.5 81t-22.5 104q0 56 20.5 104.5t56.5 84t85 56t106 20.5zM255 658q20 0 33 -13.5t13 -32.5t-13 -32.5t-33 -13.5
t-33 13.5t-13 32.5t13 32.5t33 13.5zM396 658q20 0 33 -13.5t13 -32.5t-13 -32.5t-33 -13.5t-33 13.5t-13 32.5t13 32.5t33 13.5z" />
    <glyph glyph-name="agrave" unicode="&#xe0;" 
d="M483 362q-14 7 -30.5 20t-37.5 25.5t-47.5 21.5t-60.5 9q-40 0 -75.5 -15t-62.5 -41t-43 -60.5t-16 -73.5q0 -40 14 -75.5t38.5 -62.5t59.5 -42.5t77 -15.5q36 0 62 5t46.5 15.5t38 25t37.5 34.5v230zM306 506q33 1 59 -4.5t49 -15.5t44.5 -24l45.5 -30l18.5 -11.5
t14 -7.5t14.5 -4t20 -1q-14 -10 -16 -25.5t-2 -47.5v-304q0 -8 4 -16t16 -15h-90v55l-4 2q-29 -44 -71 -58.5t-95 -14.5q-55 0 -104.5 19t-87.5 53t-60.5 81t-22.5 104q0 56 20.5 104.5t56.5 84t85 56t106 20.5zM302 700l89 -141h-67l-130 141h108z" />
    <glyph glyph-name="aring" unicode="&#xe5;" 
d="M483 362q-14 7 -30.5 20t-37.5 25.5t-47.5 21.5t-60.5 9q-40 0 -75.5 -15t-62.5 -41t-43 -60.5t-16 -73.5q0 -40 14 -75.5t38.5 -62.5t59.5 -42.5t77 -15.5q36 0 62 5t46.5 15.5t38 25t37.5 34.5v230zM306 506q33 1 59 -4.5t49 -15.5t44.5 -24l45.5 -30l18.5 -11.5
t14 -7.5t14.5 -4t20 -1q-14 -10 -16 -25.5t-2 -47.5v-304q0 -8 4 -16t16 -15h-90v55l-4 2q-29 -44 -71 -58.5t-95 -14.5q-55 0 -104.5 19t-87.5 53t-60.5 81t-22.5 104q0 56 20.5 104.5t56.5 84t85 56t106 20.5zM325 763q21 0 39.5 -8t32.5 -22t22 -32.5t8 -39.5t-8 -39.5
t-22 -32.5t-32.5 -22t-39.5 -8t-39.5 8t-32.5 22t-22 32.5t-8 39.5t8 39.5t22 32.5t32.5 22t39.5 8zM325 719q-24 0 -41 -17.5t-17 -40.5t17 -40.5t41 -17.5t41 17.5t17 40.5t-17 40.5t-41 17.5z" />
    <glyph glyph-name="atilde" unicode="&#xe3;" 
d="M483 362q-14 7 -30.5 20t-37.5 25.5t-47.5 21.5t-60.5 9q-40 0 -75.5 -15t-62.5 -41t-43 -60.5t-16 -73.5q0 -40 14 -75.5t38.5 -62.5t59.5 -42.5t77 -15.5q36 0 62 5t46.5 15.5t38 25t37.5 34.5v230zM306 506q33 1 59 -4.5t49 -15.5t44.5 -24l45.5 -30l18.5 -11.5
t14 -7.5t14.5 -4t20 -1q-14 -10 -16 -25.5t-2 -47.5v-304q0 -8 4 -16t16 -15h-90v55l-4 2q-29 -44 -71 -58.5t-95 -14.5q-55 0 -104.5 19t-87.5 53t-60.5 81t-22.5 104q0 56 20.5 104.5t56.5 84t85 56t106 20.5zM495 684q-2 -19 -9.5 -38.5t-20 -35t-30 -25.5t-38.5 -10
q-20 0 -39 5.5t-39 13.5t-38.5 13.5t-36.5 5.5q-17 0 -28.5 -15t-13.5 -30h-47q3 45 30 76.5t74 31.5q20 0 39 -5t36 -13t33 -13.5t30 -5.5q21 0 33 12.5t14 32.5h51z" />
    <glyph glyph-name="eacute" unicode="&#xe9;" 
d="M502 291q-18 70 -71.5 108.5t-128.5 38.5q-78 0 -129.5 -39t-73.5 -108h403zM98 223q6 -39 24 -70.5t45.5 -54t63.5 -34.5t77 -12q43 0 83.5 7.5t73.5 39.5v-113q-4 6 -9.5 11t-13.5 6q-4 0 -15 -2l-24 -4.5t-25 -5.5t-18 -4q-13 -2 -26 -2.5t-26 -0.5q-57 0 -108 19
t-89.5 53.5t-61.5 82t-23 105.5t21 106.5t58 83t87.5 53.5t108.5 19q61 0 111.5 -22.5t86.5 -58.5t55.5 -81.5t19.5 -91.5q0 -10 4 -16.5l8 -12.5h-488zM308 559h-67l89 141h108z" />
    <glyph glyph-name="ecircumflex" unicode="&#xea;" 
d="M502 291q-18 70 -71.5 108.5t-128.5 38.5q-78 0 -129.5 -39t-73.5 -108h403zM98 223q6 -39 24 -70.5t45.5 -54t63.5 -34.5t77 -12q43 0 83.5 7.5t73.5 39.5v-113q-4 6 -9.5 11t-13.5 6q-4 0 -15 -2l-24 -4.5t-25 -5.5t-18 -4q-13 -2 -26 -2.5t-26 -0.5q-57 0 -108 19
t-89.5 53.5t-61.5 82t-23 105.5t21 106.5t58 83t87.5 53.5t108.5 19q61 0 111.5 -22.5t86.5 -58.5t55.5 -81.5t19.5 -91.5q0 -10 4 -16.5l8 -12.5h-488zM260 700h92l100 -141h-80l-66 94l-66 -94h-79z" />
    <glyph glyph-name="edieresis" unicode="&#xeb;" 
d="M502 291q-18 70 -71.5 108.5t-128.5 38.5q-78 0 -129.5 -39t-73.5 -108h403zM98 223q6 -39 24 -70.5t45.5 -54t63.5 -34.5t77 -12q43 0 83.5 7.5t73.5 39.5v-113q-4 6 -9.5 11t-13.5 6q-4 0 -15 -2l-24 -4.5t-25 -5.5t-18 -4q-13 -2 -26 -2.5t-26 -0.5q-57 0 -108 19
t-89.5 53.5t-61.5 82t-23 105.5t21 106.5t58 83t87.5 53.5t108.5 19q61 0 111.5 -22.5t86.5 -58.5t55.5 -81.5t19.5 -91.5q0 -10 4 -16.5l8 -12.5h-488zM236 658q20 0 33 -13.5t13 -32.5t-13 -32.5t-33 -13.5t-33 13.5t-13 32.5t13 32.5t33 13.5zM377 658q20 0 33 -13.5
t13 -32.5t-13 -32.5t-33 -13.5t-33 13.5t-13 32.5t13 32.5t33 13.5z" />
    <glyph glyph-name="egrave" unicode="&#xe8;" 
d="M502 291q-18 70 -71.5 108.5t-128.5 38.5q-78 0 -129.5 -39t-73.5 -108h403zM98 223q6 -39 24 -70.5t45.5 -54t63.5 -34.5t77 -12q43 0 83.5 7.5t73.5 39.5v-113q-4 6 -9.5 11t-13.5 6q-4 0 -15 -2l-24 -4.5t-25 -5.5t-18 -4q-13 -2 -26 -2.5t-26 -0.5q-57 0 -108 19
t-89.5 53.5t-61.5 82t-23 105.5t21 106.5t58 83t87.5 53.5t108.5 19q61 0 111.5 -22.5t86.5 -58.5t55.5 -81.5t19.5 -91.5q0 -10 4 -16.5l8 -12.5h-488zM283 700l89 -141h-67l-130 141h108z" />
    <glyph glyph-name="iacute" unicode="&#xed;" horiz-adv-x="222" 
d="M58 0q12 6 15 24t3 47v374q0 14 -2.5 26t-13.5 19h86v-449q0 -31 18 -41h-106zM113 559h-67l89 141h108z" />
    <glyph glyph-name="icircumflex" unicode="&#xee;" horiz-adv-x="222" 
d="M58 0q12 6 15 24t3 47v374q0 14 -2.5 26t-13.5 19h86v-449q0 -31 18 -41h-106zM65 700h92l100 -141h-80l-66 94l-66 -94h-79z" />
    <glyph glyph-name="idieresis" unicode="&#xef;" horiz-adv-x="222" 
d="M58 0q12 6 15 24t3 47v374q0 14 -2.5 26t-13.5 19h86v-449q0 -31 18 -41h-106zM41 658q20 0 33 -13.5t13 -32.5t-13 -32.5t-33 -13.5t-33 13.5t-13 32.5t13 32.5t33 13.5zM182 658q20 0 33 -13.5t13 -32.5t-13 -32.5t-33 -13.5t-33 13.5t-13 32.5t13 32.5t33 13.5z" />
    <glyph glyph-name="igrave" unicode="&#xec;" horiz-adv-x="222" 
d="M58 0q12 6 15 24t3 47v374q0 14 -2.5 26t-13.5 19h86v-449q0 -31 18 -41h-106zM88 700l89 -141h-67l-130 141h108z" />
    <glyph glyph-name="ntilde" unicode="&#xf1;" horiz-adv-x="556" 
d="M58 368q0 12 -3 17.5l-6 11.5q42 13 65 32l43.5 36t47 29t76.5 12q44 0 83.5 -17.5t69 -47t46.5 -69t17 -83.5v-230q0 -31 6.5 -41.5t15.5 -17.5h-112q14 9 17 22t3 34v223q0 33 -12 62t-33 50.5t-49.5 34t-62.5 12.5q-31 0 -54 -10.5t-40 -24.5t-29 -27t-19 -19v-322
q0 -14 9.5 -22l15.5 -13h-111q11 8 13.5 18.5t2.5 30.5v319zM448 684q-2 -19 -9.5 -38.5t-20 -35t-30 -25.5t-38.5 -10q-20 0 -39 5.5t-39 13.5t-38.5 13.5t-36.5 5.5q-17 0 -28.5 -15t-13.5 -30h-47q3 45 30 76.5t74 31.5q20 0 39 -5t36 -13t33 -13.5t30 -5.5q21 0 33 12.5
t14 32.5h51z" />
    <glyph glyph-name="oacute" unicode="&#xf3;" 
d="M503 245q0 40 -16 75t-43 61t-63 41.5t-76 15.5q-41 0 -77 -15.5t-63 -41.5t-42.5 -61t-15.5 -75t15.5 -75t42.5 -61.5t63 -41.5t77 -15q40 0 76 15t63 41.5t43 61.5t16 75zM305 -16q-55 0 -104 20t-86 55.5t-58.5 83t-21.5 102.5t21.5 102.5t58.5 82.5t86 55.5t104 20.5
t104 -20.5t86 -55.5t58.5 -82.5t21.5 -102.5t-21.5 -102.5t-58.5 -83t-86 -55.5t-104 -20zM308 559h-67l89 141h108z" />
    <glyph glyph-name="ocircumflex" unicode="&#xf4;" 
d="M503 245q0 40 -16 75t-43 61t-63 41.5t-76 15.5q-41 0 -77 -15.5t-63 -41.5t-42.5 -61t-15.5 -75t15.5 -75t42.5 -61.5t63 -41.5t77 -15q40 0 76 15t63 41.5t43 61.5t16 75zM305 -16q-55 0 -104 20t-86 55.5t-58.5 83t-21.5 102.5t21.5 102.5t58.5 82.5t86 55.5t104 20.5
t104 -20.5t86 -55.5t58.5 -82.5t21.5 -102.5t-21.5 -102.5t-58.5 -83t-86 -55.5t-104 -20zM260 700h92l100 -141h-80l-66 94l-66 -94h-79z" />
    <glyph glyph-name="odieresis" unicode="&#xf6;" 
d="M503 245q0 40 -16 75t-43 61t-63 41.5t-76 15.5q-41 0 -77 -15.5t-63 -41.5t-42.5 -61t-15.5 -75t15.5 -75t42.5 -61.5t63 -41.5t77 -15q40 0 76 15t63 41.5t43 61.5t16 75zM305 -16q-55 0 -104 20t-86 55.5t-58.5 83t-21.5 102.5t21.5 102.5t58.5 82.5t86 55.5t104 20.5
t104 -20.5t86 -55.5t58.5 -82.5t21.5 -102.5t-21.5 -102.5t-58.5 -83t-86 -55.5t-104 -20zM236 658q20 0 33 -13.5t13 -32.5t-13 -32.5t-33 -13.5t-33 13.5t-13 32.5t13 32.5t33 13.5zM377 658q20 0 33 -13.5t13 -32.5t-13 -32.5t-33 -13.5t-33 13.5t-13 32.5t13 32.5
t33 13.5z" />
    <glyph glyph-name="ograve" unicode="&#xf2;" 
d="M503 245q0 40 -16 75t-43 61t-63 41.5t-76 15.5q-41 0 -77 -15.5t-63 -41.5t-42.5 -61t-15.5 -75t15.5 -75t42.5 -61.5t63 -41.5t77 -15q40 0 76 15t63 41.5t43 61.5t16 75zM305 -16q-55 0 -104 20t-86 55.5t-58.5 83t-21.5 102.5t21.5 102.5t58.5 82.5t86 55.5t104 20.5
t104 -20.5t86 -55.5t58.5 -82.5t21.5 -102.5t-21.5 -102.5t-58.5 -83t-86 -55.5t-104 -20zM283 700l89 -141h-67l-130 141h108z" />
    <glyph glyph-name="otilde" unicode="&#xf5;" 
d="M503 245q0 40 -16 75t-43 61t-63 41.5t-76 15.5q-41 0 -77 -15.5t-63 -41.5t-42.5 -61t-15.5 -75t15.5 -75t42.5 -61.5t63 -41.5t77 -15q40 0 76 15t63 41.5t43 61.5t16 75zM305 -16q-55 0 -104 20t-86 55.5t-58.5 83t-21.5 102.5t21.5 102.5t58.5 82.5t86 55.5t104 20.5
t104 -20.5t86 -55.5t58.5 -82.5t21.5 -102.5t-21.5 -102.5t-58.5 -83t-86 -55.5t-104 -20zM476 684q-2 -19 -9.5 -38.5t-20 -35t-30 -25.5t-38.5 -10q-20 0 -39 5.5t-39 13.5t-38.5 13.5t-36.5 5.5q-17 0 -28.5 -15t-13.5 -30h-47q3 45 30 76.5t74 31.5q20 0 39 -5t36 -13
t33 -13.5t30 -5.5q21 0 33 12.5t14 32.5h51z" />
    <glyph glyph-name="uacute" unicode="&#xfa;" horiz-adv-x="556" 
d="M513 490q-11 -8 -13.5 -18.5t-2.5 -30.5v-319q0 -12 3 -17.5l6 -11.5q-32 -18 -53 -37t-44.5 -35t-54 -26.5t-80.5 -10.5q-44 0 -83.5 14t-69 39.5t-46.5 62.5t-17 84v247q0 31 -6.5 41.5t-15.5 17.5h112q-14 -9 -17 -22t-3 -34v-244q0 -65 42 -101.5t108 -36.5
q33 0 58 9.5t43 22.5t29.5 26.5t18.5 22.5v322q0 14 -9.5 22l-15.5 13h111zM280 559h-67l89 141h108z" />
    <glyph glyph-name="ucircumflex" unicode="&#xfb;" horiz-adv-x="556" 
d="M513 490q-11 -8 -13.5 -18.5t-2.5 -30.5v-319q0 -12 3 -17.5l6 -11.5q-32 -18 -53 -37t-44.5 -35t-54 -26.5t-80.5 -10.5q-44 0 -83.5 14t-69 39.5t-46.5 62.5t-17 84v247q0 31 -6.5 41.5t-15.5 17.5h112q-14 -9 -17 -22t-3 -34v-244q0 -65 42 -101.5t108 -36.5
q33 0 58 9.5t43 22.5t29.5 26.5t18.5 22.5v322q0 14 -9.5 22l-15.5 13h111zM232 700h92l100 -141h-80l-66 94l-66 -94h-79z" />
    <glyph glyph-name="udieresis" unicode="&#xfc;" horiz-adv-x="556" 
d="M513 490q-11 -8 -13.5 -18.5t-2.5 -30.5v-319q0 -12 3 -17.5l6 -11.5q-32 -18 -53 -37t-44.5 -35t-54 -26.5t-80.5 -10.5q-44 0 -83.5 14t-69 39.5t-46.5 62.5t-17 84v247q0 31 -6.5 41.5t-15.5 17.5h112q-14 -9 -17 -22t-3 -34v-244q0 -65 42 -101.5t108 -36.5
q33 0 58 9.5t43 22.5t29.5 26.5t18.5 22.5v322q0 14 -9.5 22l-15.5 13h111zM208 658q20 0 33 -13.5t13 -32.5t-13 -32.5t-33 -13.5t-33 13.5t-13 32.5t13 32.5t33 13.5zM349 658q20 0 33 -13.5t13 -32.5t-13 -32.5t-33 -13.5t-33 13.5t-13 32.5t13 32.5t33 13.5z" />
    <glyph glyph-name="ugrave" unicode="&#xf9;" horiz-adv-x="556" 
d="M513 490q-11 -8 -13.5 -18.5t-2.5 -30.5v-319q0 -12 3 -17.5l6 -11.5q-32 -18 -53 -37t-44.5 -35t-54 -26.5t-80.5 -10.5q-44 0 -83.5 14t-69 39.5t-46.5 62.5t-17 84v247q0 31 -6.5 41.5t-15.5 17.5h112q-14 -9 -17 -22t-3 -34v-244q0 -65 42 -101.5t108 -36.5
q33 0 58 9.5t43 22.5t29.5 26.5t18.5 22.5v322q0 14 -9.5 22l-15.5 13h111zM255 700l89 -141h-67l-130 141h108z" />
    <glyph glyph-name="ydieresis" unicode="&#xff;" horiz-adv-x="500" 
d="M212 52l-183 377q-8 17 -19 33.5t-25 27.5h115q-8 -7 -8 -18q0 -9 8 -28.5t15 -33.5l133 -294h2l136 294q7 14 15 33.5t8 28.5q0 11 -8 18h113q-14 -11 -25 -27.5t-19 -33.5l-277 -562q-5 -11 -11.5 -22t-6.5 -17q0 -10 6 -17h-112q14 12 28.5 33t25.5 41zM180 658
q20 0 33 -13.5t13 -32.5t-13 -32.5t-33 -13.5t-33 13.5t-13 32.5t13 32.5t33 13.5zM321 658q20 0 33 -13.5t13 -32.5t-13 -32.5t-33 -13.5t-33 13.5t-13 32.5t13 32.5t33 13.5z" />
    <glyph glyph-name="notequal" unicode="&#x2260;" horiz-adv-x="549" 
d="M451 521l-76 -136h165v-55h-195l-78 -139h273v-55h-303l-90 -161l-49 28l74 133h-157v55h188l77 139h-265v55h296l91 164z" />
    <glyph glyph-name="infinity" unicode="&#x221e;" horiz-adv-x="713" 
d="M390 264l37.5 -36t29.5 -25t29 -16.5t36 -11.5q10 -3 22 -3q18 0 34.5 6.5t29.5 18t21 27.5t9 35v1q0 14 -6 30t-17 30t-28 23t-39 9q-19 0 -39 -7q-13 -5 -25 -11t-26 -16t-30.5 -23zM324 264l-37.5 31t-30.5 23t-26 16t-25 11q-20 7 -39 7q-22 0 -39 -9t-28 -23
t-17 -30t-6 -30v-1q1 -19 9 -35t21 -27.5t29.5 -18t34.5 -6.5q11 0 22 3q21 5 36 11.5t29 16.5t29.5 25zM357 297l39.5 35t30.5 24.5t27.5 18.5t31.5 16q30 13 61 13q27 0 51.5 -10t43.5 -27t31 -39.5t15 -48.5q0 -3 0.5 -6.5t0.5 -6.5q0 -25 -10 -50.5t-27.5 -45.5
t-42.5 -33t-55 -13q-3 0 -6.5 0.5t-6.5 0.5q-39 4 -69 18t-52.5 31t-38 33t-24.5 24q-9 -8 -24.5 -24t-38 -33t-52.5 -31t-69 -18q-3 0 -6.5 -0.5t-6.5 -0.5q-30 0 -55 13t-42.5 33t-27.5 45.5t-10 50.5q0 3 0.5 6.5t0.5 6.5q3 26 15 48.5t31 39.5t43.5 27t51.5 10
q31 0 61 -13q18 -8 31.5 -16t27.5 -18.5t30.5 -24.5z" />
    <glyph glyph-name="lessequal" unicode="&#x2264;" horiz-adv-x="549" 
d="M29 409l497 230v-62l-433 -199l433 -199v-62l-497 230v62zM29 55h497v-55h-497v55z" />
    <glyph glyph-name="greaterequal" unicode="&#x2265;" horiz-adv-x="549" 
d="M526 347l-497 -230v62l433 199l-433 199v62l497 -230v-62zM526 0h-497v55h497v-55z" />
    <glyph glyph-name="partialdiff" unicode="&#x2202;" horiz-adv-x="494" 
d="M366 299l-17 20t-21.5 20.5t-29 16.5t-38.5 7h-2q-57 -2 -96 -54q-30 -42 -40 -82.5t-10 -78.5q0 -11 1 -27.5t5.5 -34.5t13.5 -35t26 -28q21 -14 44 -14q19 0 39 9q28 12 47 35t34 58q18 45 28 92t16 96zM65 717q22 10 57 19.5t74 9.5q26 0 50 -6q46 -11 89 -41t79 -93
q17 -30 26.5 -63.5t14.5 -63.5t6 -53.5t1 -32.5q0 -15 -2.5 -46t-8.5 -68t-16 -76.5t-25 -71.5q-20 -44 -41 -74.5t-63 -53.5q-23 -13 -45.5 -18.5t-45.5 -5.5q-29 0 -55.5 8.5t-48.5 23.5q-29 20 -54 54t-30 91q-1 5 -1 10v10q0 27 5.5 51t14 43.5t18.5 35t18 25.5
q26 32 58 51.5t78 19.5h6q22 -1 39 -4.5t33 -11t34.5 -20.5l43.5 -32q6 32 8 59.5t3 56.5v4q0 18 -3 40.5t-8 44t-10.5 40t-10.5 30.5q-5 10 -14 25t-23 28.5t-33 23.5t-42 12q-9 1 -16.5 1.5t-14.5 0.5q-17 0 -28.5 -2t-22.5 -6.5t-24 -10.5l-31 -14z" />
    <glyph glyph-name="summation" unicode="&#x2211;" horiz-adv-x="713" 
d="M623 586h-20l-14.5 45t-21.5 36.5t-42 24t-75 8.5h-263l273 -358l-294 -339h371q29 0 49 5t34.5 18t26.5 35t25 55h23l-15.5 -63.5t-11 -48.5t-8 -48.5l-8.5 -63.5q-20 3 -39 7t-38 4h-503q-15 0 -29 -1.5t-29 -1.5l349 398l-347 454q26 -2 52 -4.5t52 -2.5h497z" />
    <glyph glyph-name="product" unicode="&#x220f;" horiz-adv-x="823" 
d="M706 3q0 -26 7 -42t19.5 -24.5t30.5 -11.5t40 -3v-23h-306v23q22 0 39.5 3t30 11.5t19.5 24.5t7 42v693h-358v-693q0 -26 7 -42t19.5 -24.5t30.5 -11.5t40 -3v-23h-307v23q22 0 40 3t31 11.5t19.5 24.5t6.5 42v626q0 35 -11 55t-26 29.5t-31.5 12t-26.5 2.5v23h773v-23
q-11 0 -27 -2.5t-31 -12t-25.5 -29.5t-10.5 -55v-626z" />
    <glyph glyph-name="pi" unicode="&#x3c0;" horiz-adv-x="549" 
d="M222 401q-12 -141 -24.5 -225.5t-21.5 -125.5q-6 -29 -18.5 -45.5t-36.5 -22.5q-3 -1 -11 -1q-18 0 -33 12t-18 27q-1 5 -1.5 8t-0.5 7q0 18 8.5 29.5l16.5 21.5q12 16 29 35t21 51l29 229h-47q-21 0 -39.5 -10t-26.5 -22l-21 -31h-17q4 11 13 38t32 59q13 18 36 35
t58 17h373v-86h-126q-9 -88 -10.5 -147t-1.5 -88q0 -21 7 -41.5t18 -31.5q6 -5 16.5 -11t23.5 -6q17 0 34 13q9 7 14 15.5t7 17t3 16t2 13.5h21q-1 -34 -8.5 -60.5t-18 -45t-23 -30.5t-22.5 -18q-9 -5 -21 -9t-26 -4q-22 0 -37 11q-12 9 -26 28t-23 46q-6 17 -8 43t-2 54
q0 20 0.5 39t2.5 35l17 161h-113z" />
    <glyph glyph-name="integral" unicode="&#x222b;" horiz-adv-x="274" 
d="M189 272q-1 -118 -12.5 -188t-21.5 -105q-8 -29 -15.5 -41t-13.5 -20q-5 -6 -24 -15.5t-40 -9.5q-6 0 -12.5 1t-11.5 4q-12 6 -21 18.5t-12 20.5q-3 9 -3 16q0 25 27 39q10 5 17 5q11 0 20.5 -7t19.5 -18q8 -8 14 -8q7 0 12 8.5t8 22.5t4.5 31t1.5 35v13l-2 51.5t-2 58.5
t-1.5 71.5t-0.5 90.5v42v144q0 60 1 105.5t4 82.5t8 66t13 56q5 15 17 35t28 30q13 9 32 9q14 0 26 -4.5t20 -9.5t15 -16.5t7 -25.5q0 -13 -9 -25q-7 -8 -18 -13.5t-24 -5.5q-18 0 -29 12t-22 12q-8 0 -12.5 -7t-5.5 -15v-6q0 -17 3 -51.5l6.5 -78.5t6.5 -94.5t3 -99.5z" />
    <glyph glyph-name="radical" unicode="&#x221a;" horiz-adv-x="549" 
d="M10 450l146 72l197 -403l127 798l35 -5l-150 -950l-243 502l-96 -47z" />
    <glyph glyph-name="approxequal" unicode="&#x2248;" horiz-adv-x="549" 
d="M527 219q-23 -40 -62 -59.5t-78 -19.5q-18 0 -38 5l-150 43q-22 7 -43 7q-24 0 -40.5 -7.5t-28.5 -17.5t-19 -20t-11 -15l-43 27q31 41 67.5 60t77.5 19q26 0 50 -7l151 -42q10 -3 24 -3q11 0 25 2.5t30 9.5q12 5 27 16.5t24 25.5zM527 370q-23 -40 -62 -59.5t-78 -19.5
q-18 0 -38 5l-150 43q-22 7 -43 7q-24 0 -40.5 -7.5t-28.5 -17.5t-19 -20t-11 -15l-43 27q31 41 67.5 60t77.5 19q26 0 50 -7l151 -42q10 -3 24 -3q11 0 25 2.5t30 9.5q12 5 27 16.5t24 25.5z" />
    <glyph glyph-name="lozenge" unicode="&#x25ca;" horiz-adv-x="494" 
d="M242 691l-164 -314l164 -323l164 323zM212 0l-194 377l194 368h60l194 -368l-194 -377h-60z" />
    <glyph glyph-name="numbersign" unicode="#" 
d="M252 433l-22 -154h139l21 154h-138zM527 228h-109l-32 -228h-57l33 228h-139l-31 -228h-57l32 228h-113v51h120l22 154h-112v51h119l31 228h57l-32 -228h138l32 228h57l-33 -228h104v-51h-111l-21 -154h102v-51z" />
    <glyph glyph-name="exclam" unicode="!" horiz-adv-x="278" 
d="M143 88q20 0 35.5 -15t15.5 -36t-15.5 -36t-35.5 -15t-35.5 15t-15.5 36t15.5 36t35.5 15zM206 712q-11 -8 -17 -20.5t-6 -23.5l-13 -463q0 -18 12 -36h-83q12 18 12 36l-13 463q0 11 -6 23.5t-17 20.5h131z" />
    <glyph glyph-name="quotedbl" unicode="&#x22;" horiz-adv-x="333" 
d="M198 712h58v-271h-58v271zM78 712h58v-271h-58v271z" />
    <glyph glyph-name="fraction" unicode="&#x2215;" horiz-adv-x="167" 
d="M334 728q-14 -12 -24.5 -28t-19.5 -33l-376 -643l-9 -18t-4 -10q0 -6 6 -12h-74q9 8 17 20t15 24l364 627l17 30.5t9 25.5q0 12 -4 17h83z" />
    <glyph glyph-name="Lslash" unicode="&#x141;" horiz-adv-x="444" 
d="M64 0q12 15 12 35v291l-84 -42v68l84 43v282q0 20 -12 35h100q-12 -15 -12 -35v-244l134 67v-68l-134 -68v-296h217q17 0 35.5 4t33.5 11v-83h-374z" />
    <glyph glyph-name="lslash" unicode="&#x142;" horiz-adv-x="222" 
d="M58 0q12 6 15 24t3 47v276l-66 -39v54l66 39v266q0 14 -2.5 26t-13.5 19h86v-269l66 39v-54l-66 -39v-348q0 -31 18 -41h-106z" />
    <glyph glyph-name="threequarters" unicode="&#xbe;" horiz-adv-x="916" 
d="M56 606q4 7 5.5 15t3.5 16q4 21 16.5 37.5t31 28.5t40 18.5t43.5 6.5q55 0 90.5 -31.5t35.5 -82.5q0 -21 -8.5 -36.5t-22.5 -28.5q37 -13 56 -45t19 -67q0 -33 -13 -61.5t-36.5 -49.5t-55.5 -33t-69 -12t-69 13t-55 34.5t-36.5 48.5t-13.5 55q0 11 -4 18h60
q0 -22 8.5 -43.5t23.5 -38t37 -26.5t49 -10t48.5 9t37 24t24 33.5t8.5 38.5q0 23 -9.5 40.5t-25 30t-35.5 20.5t-41 14q29 9 48 23.5t19 46.5q0 11 -5 22.5t-14 21t-22 15.5t-29 6t-30.5 -6t-26 -16t-18 -23t-6.5 -26h-59zM707 728q-14 -12 -24.5 -28t-19.5 -33l-376 -643
l-9 -18t-4 -10q0 -6 6 -12h-74q9 8 17 20t15 24l364 627l17 30.5t9 25.5q0 12 -4 17h83zM723 118v224h-2l-192 -224h194zM514 67l-53 56q6 5 13 10t12 11l254 293h38v-319h32q8 0 16 2.5t16 6.5v-60h-64v-24q0 -21 6 -43h-67q6 22 6 43v24h-209z" />
    <glyph glyph-name="onequarter" unicode="&#xbc;" horiz-adv-x="916" 
d="M43 544q13 7 23 18l174 166v-412q0 -20 9 -25h-79q14 7 14 43v278l-101 -92zM707 728q-14 -12 -24.5 -28t-19.5 -33l-376 -643l-9 -18t-4 -10q0 -6 6 -12h-74q9 8 17 20t15 24l364 627l17 30.5t9 25.5q0 12 -4 17h83zM723 118v224h-2l-192 -224h194zM514 67l-53 56
q6 5 13 10t12 11l254 293h38v-319h32q8 0 16 2.5t16 6.5v-60h-64v-24q0 -21 6 -43h-67q6 22 6 43v24h-209z" />
    <glyph glyph-name="onesuperior" unicode="&#xb9;" horiz-adv-x="366" 
d="M43 544q13 7 23 18l174 166v-412q0 -20 9 -25h-79q14 7 14 43v278l-101 -92z" />
    <glyph glyph-name="multiply" unicode="&#xd7;" horiz-adv-x="600" 
d="M56 447l42 39l202 -201l204 205l40 -40l-205 -205l205 -205l-38 -40l-206 205l-207 -205l-37 41l204 204z" />
    <glyph glyph-name="Thorn" unicode="&#xde;" horiz-adv-x="500" 
d="M59 0q12 15 12 35v642q0 20 -12 35h100q-12 -15 -12 -35v-88q23 5 52 12t59 7q51 0 93 -20t72.5 -54t47.5 -79t17 -94q0 -45 -17 -86.5t-47 -73t-69.5 -50t-84.5 -18.5q-26 0 -54.5 7t-68.5 28v-133q0 -20 12 -35h-100zM147 235q24 -11 45.5 -18.5t60.5 -7.5
q74 0 116.5 43t42.5 118q0 35 -10.5 64.5t-30.5 51.5t-50 34t-69 12q-12 0 -27.5 -2.5t-30.5 -5.5l-27.5 -5.5t-19.5 -2.5v-281z" />
    <glyph glyph-name="brokenbar" unicode="&#xa6;" horiz-adv-x="222" 
d="M139 175v-350h-56v350h56zM139 675v-350h-56v350h56z" />
    <glyph glyph-name="Eth" unicode="&#xd0;" horiz-adv-x="667" 
d="M9 399h67v329q10 -8 19 -12q5 -2 11 -3t12 -1q11 0 29 3t40 6q22 2 44.5 4.5t41.5 2.5q75 -3 140 -31.5t112.5 -76.5t75 -112.5t27.5 -139.5t-27.5 -142t-79.5 -117t-126 -79.5t-168 -29.5h-163q12 15 12 35v296q-18 0 -35.5 -2t-31.5 -10v80zM380 319q-14 8 -31.5 10
t-35.5 2h-161v-263h85q64 0 121 22.5t100 63t68.5 96t25.5 121.5q0 61 -23 114t-63 92t-94 61t-115 22q-30 0 -57.5 -7t-47.5 -8v-246h161q18 0 35.5 2t31.5 10v-92z" />
    <glyph glyph-name="onehalf" unicode="&#xbd;" horiz-adv-x="916" 
d="M557 280q2 7 4 13t2 12q0 18 12 40.5t34.5 43t54.5 34.5t71 14q33 0 61.5 -11t50.5 -30.5t34.5 -45t12.5 -53.5q0 -23 -5.5 -40.5t-15 -32.5t-23.5 -28l-30 -28l-131 -117h161q21 0 40 7v-58h-329l199 186l26.5 24.5t25 26t19 28.5t7.5 32q0 19 -9.5 35.5t-25.5 28.5
t-36 18.5t-41 6.5q-25 0 -44.5 -9.5t-33.5 -24.5t-21.5 -34t-7.5 -38h-62zM43 544q13 7 23 18l174 166v-412q0 -20 9 -25h-79q14 7 14 43v278l-101 -92zM707 728q-14 -12 -24.5 -28t-19.5 -33l-376 -643l-9 -18t-4 -10q0 -6 6 -12h-74q9 8 17 20t15 24l364 627l17 30.5
t9 25.5q0 12 -4 17h83z" />
    <glyph glyph-name="minus" unicode="&#x2212;" horiz-adv-x="600" 
d="M56 217v56h488v-56h-488z" />
    <glyph glyph-name="eth" unicode="&#xf0;" 
d="M228 712q20 -12 40.5 -27t41.5 -33l113 60l31 -42l-101 -53q42 -38 82 -81.5t71 -90t50 -93.5t19 -92q0 -60 -21.5 -111t-58.5 -87.5t-86 -57t-104 -20.5t-104 20t-86 55.5t-58.5 83t-21.5 102.5t21.5 102.5t58.5 82.5t86 55.5t104 20.5q44 0 79 -12l2 2q-18 21 -41 44.5
t-48 46.5l-114 -61l-31 42l104 55q-23 21 -45.5 39t-44.5 32zM503 245q0 40 -16 75t-43 61t-63 41.5t-76 15.5q-41 0 -77 -15.5t-63 -41.5t-42.5 -61t-15.5 -75t15.5 -75t42.5 -61.5t63 -41.5t77 -15q40 0 76 15t63 41.5t43 61.5t16 75z" />
    <glyph glyph-name="thorn" unicode="&#xfe;" 
d="M128 132q19 -20 37 -34.5t38.5 -25t46.5 -15.5t62 -5q42 0 77 15.5t59.5 42.5t38.5 62.5t14 75.5q0 39 -16 73.5t-43 60.5t-62.5 41t-75.5 15q-34 0 -60.5 -9t-47.5 -21.5t-37.5 -25.5t-30.5 -20v-230zM58 677q0 20 -12 35h82v-276l41 24.5t43 22.5t45.5 16.5t47.5 6.5
q57 0 106 -20.5t85 -56t56.5 -84t20.5 -104.5q0 -57 -22.5 -104t-60.5 -81t-87.5 -53t-104.5 -19q-53 0 -95 14.5t-71 58.5l-4 -2v-256q0 -8 4 -16.5t16 -16.5h-110q12 8 16 16.5t4 16.5v878z" />
    <glyph glyph-name="twosuperior" unicode="&#xb2;" horiz-adv-x="366" 
d="M7 571q2 7 4 13t2 12q0 18 12 40.5t34.5 43t54.5 34.5t71 14q33 0 61.5 -11t50.5 -30.5t34.5 -45t12.5 -53.5q0 -23 -5.5 -40.5t-15 -32.5t-23.5 -28l-30 -28l-131 -117h161q21 0 40 7v-58h-329l199 186l26.5 24.5t25 26t19 28.5t7.5 32q0 19 -9.5 35.5t-25.5 28.5
t-36 18.5t-41 6.5q-25 0 -44.5 -9.5t-33.5 -24.5t-21.5 -34t-7.5 -38h-62z" />
    <glyph glyph-name="threesuperior" unicode="&#xb3;" horiz-adv-x="366" 
d="M56 606q4 7 5.5 15t3.5 16q4 21 16.5 37.5t31 28.5t40 18.5t43.5 6.5q55 0 90.5 -31.5t35.5 -82.5q0 -21 -8.5 -36.5t-22.5 -28.5q37 -13 56 -45t19 -67q0 -33 -13 -61.5t-36.5 -49.5t-55.5 -33t-69 -12t-69 13t-55 34.5t-36.5 48.5t-13.5 55q0 11 -4 18h60
q0 -22 8.5 -43.5t23.5 -38t37 -26.5t49 -10t48.5 9t37 24t24 33.5t8.5 38.5q0 23 -9.5 40.5t-25 30t-35.5 20.5t-41 14q29 9 48 23.5t19 46.5q0 11 -5 22.5t-14 21t-22 15.5t-29 6t-30.5 -6t-26 -16t-18 -23t-6.5 -26h-59z" />
    <glyph glyph-name="Scaron" unicode="&#x160;" horiz-adv-x="444" 
d="M347 614q-25 20 -55.5 33t-63.5 13q-45 0 -72.5 -27.5t-27.5 -71.5q0 -28 21.5 -48.5t53.5 -39.5l69 -40t69 -49.5t53.5 -69t21.5 -98.5q0 -50 -18 -92.5t-50 -73.5t-76 -48.5t-97 -17.5q-14 0 -27.5 3l-27.5 6q-14 4 -28 6.5t-28 2.5q-8 0 -15.5 -4.5t-13.5 -9.5v128
q26 -26 57.5 -41t69.5 -15q37 0 69.5 10t56.5 29.5t38 48.5t14 68q0 48 -21.5 79t-53.5 53.5t-69 41t-69 40.5t-53.5 52.5t-21.5 77.5q0 36 11.5 66.5t32.5 53t51 35.5t67 13q13 0 29 -2.5t32 -4.5q16 -3 29 -6t19 -3q14 0 24 8v-106zM368 897l-100 -141h-92l-99 141h79
l66 -94l66 94h80z" />
    <glyph glyph-name="Yacute" unicode="&#xdd;" 
d="M124 712q-9 -7 -9 -18q0 -5 5.5 -13l10.5 -15l169 -256l170 256l10.5 15t5.5 13q0 11 -9 18h130q-8 -6 -13.5 -12.5t-10.5 -13.5l-248 -343v-299q0 -11 4.5 -23t9.5 -21h-104q5 9 9.5 21t4.5 23v299l-230 332q-8 11 -14 21t-12 16h121zM308 756h-67l89 141h108z" />
    <glyph glyph-name="Zcaron" unicode="&#x17d;" horiz-adv-x="500" 
d="M361 644h-256q-30 0 -57 -16v84h432l-363 -644h314q30 0 57 16v-84h-489zM396 897l-100 -141h-92l-99 141h79l66 -94l66 94h80z" />
    <glyph glyph-name="scaron" unicode="&#x161;" horiz-adv-x="333" 
d="M278 403q-18 15 -41 25t-48 10q-32 0 -55.5 -13.5t-23.5 -49.5q0 -28 16 -44t40 -27t51.5 -22t51.5 -28t40 -45t16 -74q0 -33 -12 -60.5t-33 -47.5t-49.5 -31.5t-60.5 -11.5q-28 0 -48.5 3t-35.5 7q-15 3 -26 6.5t-19 3.5q-5 0 -10.5 -3.5t-8.5 -8.5h-1v120
q25 -27 58 -43.5t70 -16.5q19 0 38 3.5t33.5 11.5t23.5 22.5t9 37.5q0 35 -16 55t-40 33t-51.5 23t-51.5 26t-40 41.5t-16 69.5q0 30 11 54.5t29.5 41.5t44.5 26t56 9q21 0 42.5 -5t34.5 -5q5 0 11.5 1.5t10.5 6.5v-101zM313 700l-100 -141h-92l-99 141h79l66 -94l66 94h80z
" />
    <glyph glyph-name="yacute" unicode="&#xfd;" horiz-adv-x="500" 
d="M212 52l-183 377q-8 17 -19 33.5t-25 27.5h115q-8 -7 -8 -18q0 -9 8 -28.5t15 -33.5l133 -294h2l136 294q7 14 15 33.5t8 28.5q0 11 -8 18h113q-14 -11 -25 -27.5t-19 -33.5l-277 -562q-5 -11 -11.5 -22t-6.5 -17q0 -10 6 -17h-112q14 12 28.5 33t25.5 41zM252 559h-67
l89 141h108z" />
    <glyph glyph-name="zcaron" unicode="&#x17e;" horiz-adv-x="444" 
d="M-5 0l296 426h-174q-26 0 -41.5 -3.5t-26.5 -14.5v82h373l-308 -426h241q39 0 52.5 6.5t20.5 17.5v-88h-433zM368 700l-100 -141h-92l-99 141h79l66 -94l66 94h80z" />
    <glyph glyph-name="Euro" unicode="&#x20ac;" 
d="M185 401v-82h224q12 0 24.5 2.5t22.5 6.5l-19 -67h-252v-6q0 -108 48.5 -155.5t141.5 -47.5q46 0 92.5 8t80.5 30v-99q-12 9 -31 9q-14 0 -28.5 -2.5l-31.5 -5.5t-37 -5.5t-45 -2.5q-72 0 -121.5 22.5t-80 57.5t-43.5 77.5t-13 83.5v36h-39q-12 0 -24.5 -2.5t-22.5 -6.5
l10 67h76v82h-39q-12 0 -24.5 -2.5t-22.5 -6.5l10 67h76v28q0 39 13 81.5t43.5 78t80 58.5t121.5 23q25 0 50.5 -3t40.5 -5q16 -2 36.5 -5t34.5 -3q6 0 12 1t11 5l-23 -90q-22 14 -66.5 23t-95.5 9q-46 0 -81.5 -10t-59.5 -33t-36.5 -59.5t-12.5 -90.5v-8h261q12 0 24.5 2.5
t22.5 6.5l-19 -67h-289z" />
    <glyph glyph-name="Omega" unicode="&#x3a9;" horiz-adv-x="768" 
d="M329 0h-295v162h15q4 -18 9 -30t12.5 -19t18 -9.5t26.5 -2.5h158l-2 28q-58 17 -97 40.5t-70 68.5q-27 39 -38.5 80.5t-11.5 80.5q0 38 9 72t25 62q15 27 31 45.5t31 31t28.5 20.5l23.5 14q35 20 82 32t101 12t101 -12t82 -32l23.5 -14t28.5 -20.5t31 -31t31 -45.5
q16 -28 25 -62t9 -72q0 -39 -11.5 -80.5t-38.5 -80.5q-31 -45 -70 -68.5t-97 -40.5l-2 -28h158q16 0 26.5 2.5t18 9.5t12 19t9.5 30h15v-162h-295l16 152l26.5 11t30 17.5t31 31.5t30.5 54q11 24 17.5 59.5t6.5 76.5q0 54 -15.5 109t-53.5 93q-31 31 -69 41.5t-76 10.5
t-76 -10.5t-69 -41.5q-38 -38 -53.5 -93t-15.5 -109q0 -41 6.5 -76.5t17.5 -59.5q15 -34 30.5 -54t31 -31.5t30 -17.5l26.5 -11z" />
    <glyph glyph-name="Delta" unicode="&#x394;" horiz-adv-x="612" 
d="M72 49h412l-194 468zM608 0h-602l320 688z" />
    </font>
</defs>
</svg>
